<?xml version="1.0" encoding="utf-8"?>
<!-- Generator: Adobe Illustrator 19.0.0, SVG Export Plug-In . SVG Version: 6.00 Build 0)  -->
<svg version="1.1" id="Layer_1" xmlns="http://www.w3.org/2000/svg" xmlns:xlink="http://www.w3.org/1999/xlink" x="0px" y="0px"
	 viewBox="0 0 223.6 82.8" style="enable-background:new 0 0 223.6 82.8;" xml:space="preserve">
<style type="text/css">
	.st0{opacity:5.000000e-002;}
</style>
<g id="XMLID_673_" class="st0">
	<title>Artboard 3</title>
	<path id="XMLID_760_" d="M159.1,25L159.1,25c0.2,0,0.2-0.1,0.3-0.1c0.1-0.1,0.1-0.1,0.2-0.1c0-0.1,0-0.2,0.1-0.3
		c-0.1,0.1-0.1,0.1-0.2,0.2C159.2,24.7,159.1,24.8,159.1,25L159.1,25z"/>
	<path id="XMLID_759_" d="M134.6,34.4L134.6,34.4L134.6,34.4c0,0-0.1,0-0.1,0C134.6,34.5,134.6,34.5,134.6,34.4z"/>
	<path id="XMLID_758_" d="M137.7,33.2l-0.1,0.1L137.7,33.2C137.6,33.2,137.7,33.2,137.7,33.2L137.7,33.2z"/>
	<path id="XMLID_757_" d="M72.2,37.9L72.2,37.9L72.2,37.9L72.2,37.9C72.2,37.9,72.2,37.9,72.2,37.9z"/>
	<path id="XMLID_756_" d="M159.8,24.2C159.8,24.2,159.7,24.2,159.8,24.2C159.7,24.2,159.7,24.2,159.8,24.2L159.8,24.2z"/>
	<path id="XMLID_755_" d="M182.6,45.3C182.6,45.4,182.6,45.4,182.6,45.3L182.6,45.3L182.6,45.3z"/>
	<path id="XMLID_754_" d="M56.6,59.1C56.6,59.1,56.6,59,56.6,59.1L56.6,59.1L56.6,59.1z"/>
	<path id="XMLID_753_" d="M103.1,48.1L103.1,48.1c0,0,0,0,0,0.1l0,0L103.1,48.1L103.1,48.1L103.1,48.1L103.1,48.1L103.1,48.1z"/>
	<path id="XMLID_752_" d="M1.3,1.4C1.5,1.2,1.5,1,1.4,0.8C1.3,0.7,1.3,0.6,1.3,0.5L1,0.5l-0.2,0c-0.1,0-0.2,0-0.3-0.1
		c-0.1,0-0.1,0-0.2,0c-0.1,0-0.1,0-0.2,0.1c0,0,0,0,0,0.1l0,0c0,0.1,0,0.2,0,0.3c0,0,0,0.1,0,0.1c0.2,0.3,0.5,0.5,0.8,0.5
		C1,1.5,1.2,1.5,1.3,1.4z"/>
	<path id="XMLID_749_" d="M223.7,47.3v-5c0,0-0.1,0-0.1,0c0,0,0,0-0.1,0c-0.1,0-0.3-0.1-0.4-0.1c-0.2,0-0.5-0.1-0.6-0.2l-0.3-0.4
		c-0.1-0.3-0.5-0.6-0.8-0.5c-0.1,0-0.2,0-0.4,0c-0.1,0-0.2,0-0.2,0h-0.2h-0.2c-0.2,0-0.3,0-0.5-0.2c-0.1-0.2-0.4-0.4-0.6-0.4
		c-0.3,0-0.5,0.1-0.7,0.2h-0.7l-0.6-0.2c-0.6-0.4-1.2-0.7-1.9-0.9c-0.4-0.1-0.8-0.3-1.2-0.5c-0.4-0.2-0.8-0.4-1.2-0.7
		c-0.6-0.5-1.3-0.8-2.1-0.9c-0.6,0-1.2-0.2-1.7-0.6c-0.2-0.3-0.6-0.5-1-0.5c-0.2,0-0.5,0.1-0.7,0.1l-0.2,0c-0.3,0.1-0.5,0.2-0.8,0.4
		l-0.3,0.2l-0.4,0.2c-0.3,0.1-0.6,0.3-0.9,0.4l-0.1,0c-0.2,0.1-0.4,0.1-0.5,0.4l0,0c0,0,0,0.1,0,0.1v0.5c-0.1,0.1,0,0.2,0.1,0.3
		c0.1,0.1,0.1,0.2,0.1,0.3c0,0.1-0.1,0.1-0.3,0.2c0,0,0,0.1,0,0.1l-0.2,0.1l-0.1,0c-0.1,0-0.1,0-0.2,0c-0.1,0-0.2,0.1-0.4,0.1
		c-0.1,0.1-0.2,0.1-0.2,0.1h-0.2c-0.1,0-0.3,0.1-0.3,0.2l-0.1,0c-0.1,0-0.1,0.1-0.2,0.1l0,0c-0.2,0-0.3,0-0.5,0
		c-0.6-0.1-1.2,0.3-1.3,0.9c0,0.1,0,0.2,0,0.2c0,0,0,0.1,0,0.1l0,0c-0.1,0.3-0.4,0.5-0.7,0.6c-0.7,0.1-1.2,0.7-1.3,1.4
		c0,0.1-0.1,0.2-0.1,0.3c0,0-0.1,0.1-0.1,0.2c-0.1,0.1-0.1,0.1-0.2,0.2c-0.2,0.1-0.3,0.4-0.4,0.6c-0.1,0-0.1,0.1-0.2,0.1
		c-0.2,0-0.4,0.1-0.4,0.3l-0.3,0.5l-0.2,0c-0.4,0.1-0.8,0.1-1.2,0.2c-0.6,0-1.2-0.2-1.5-0.7l-0.1-0.3c0,0,0-0.1,0-0.1
		c0,0,0-0.1,0-0.1c0-0.1,0.1-0.2,0.2-0.3c0.1-0.2,0.3-0.4,0-0.7c-0.1-0.1-0.2-0.1-0.3-0.1c-0.1,0-0.2,0.1-0.3,0.2
		c0,0-0.1,0.1-0.1,0.1l0,0l-0.2-0.5c0-0.1,0-0.3,0-0.4c0-0.4,0.1-0.9-0.5-1.1c0,0,0-0.1,0-0.1c-0.1,0-0.2,0-0.3,0c0,0-0.1,0-0.1,0
		H192c-0.1,0-0.1,0-0.2,0.1l0,0c-0.1,0.2-0.2,0.4-0.3,0.6l-0.4-0.5l-0.3-0.4c0-0.1,0-0.1,0-0.2c-0.3-0.6-0.5-1.2-0.4-1.8
		c0-0.1,0-0.3,0-0.4c-0.1-0.4,0-0.8,0.2-1.2c0.1-0.2,0.2-0.4,0.2-0.7v-0.6c0.1-0.5-0.2-1-0.6-1.2l-0.3-0.3c0,0,0-0.1-0.1-0.1
		c-0.1-0.1-0.1-0.3-0.1-0.4c0.1-0.2,0.2-0.4,0.1-0.6c-0.1-0.2-0.3-0.3-0.6-0.5l-0.2-0.1c-0.2-0.1-0.5-0.2-0.7-0.2
		c-0.2,0-0.3,0-0.5,0c-0.2,0-0.3,0-0.5,0c-0.2,0-0.3,0-0.5,0c-0.1-0.1-0.3-0.2-0.5-0.2c0,0-0.1,0-0.1,0c0,0,0-0.1-0.1-0.1
		c-0.2,0-0.4-0.1-0.5-0.3c-0.1-0.1-0.2-0.2-0.3-0.3h-0.1h-0.1l-0.1-0.1c-0.1-0.1-0.2-0.1-0.4-0.1l0,0c0,0-0.1,0-0.1,0
		c-0.5-0.3-1.1-0.6-1.7-0.7l-0.2,0c-0.2,0-0.3,0-0.5,0c-0.2,0-0.3,0-0.5,0.1h-1l-0.6,0.3l-0.4,0.2l-0.1,0.2h-0.1
		c-0.2,0-0.4,0.2-0.5,0.4c-0.1,0.1-0.3,0.2-0.4,0.2l0,0c0,0-0.1,0-0.1,0l0,0l0,0c-0.1,0-0.3-0.1-0.4-0.1c-0.2,0-0.4,0.1-0.5,0.2
		c0,0-0.1,0.1-0.1,0.1l0,0l-0.1-0.2c-0.1,0-0.2-0.1-0.3-0.1c-0.2,0-0.5,0.1-0.7,0.1l-0.2,0.1c-0.4,0.3-0.7,0.8-0.7,1.3
		c0,0.1,0,0.2,0,0.3c-0.1-0.1-0.1-0.2-0.1-0.3c-0.1-0.2-0.2-0.4-0.4-0.5H175c-0.1,0-0.1,0-0.2,0c-0.1-0.1-0.1-0.3,0-0.4
		c0-0.1,0-0.1,0-0.2l-0.2-0.1c-0.1,0-0.1-0.1-0.2-0.1c-0.1,0-0.2,0.1-0.2,0.1h-0.1c-0.3,0-0.6,0.1-0.8,0.2c-0.1,0.1-0.2,0.1-0.3,0.1
		h-0.3h-0.3l-0.1,0.1h-0.1c-0.1,0.1-0.2,0.2-0.2,0.3v0c-0.1,0.2-0.2,0.4-0.1,0.7l0,0l0,0l0,0c0.1,0,0.2-0.1,0.3-0.1
		c0.2-0.1,0.3-0.1,0.5-0.1c0.1,0,0.1,0,0.2,0c0.1,0.1,0.1,0.3,0.1,0.4c0,0.2,0.1,0.5,0.3,0.6c0.3,0.5,0.7,0.9,1.2,1.2
		c0,0.1,0.2,0.2,0.3,0.2c0.1,0.1,0.3,0.2,0.5,0.2c0.1,0,0.2,0,0.3,0.1l0.1,0.1h0.1c0.1,0.1,0.2,0.1,0.4,0.1c0.1,0,0.3-0.1,0.4-0.1
		h0.1c0.1,0,0.3,0,0.4-0.2l2.1,0.8c0.2,0.2,0.3,0.5,0.2,0.8c0,0.2,0,0.4,0.1,0.6c0,0.6,0.4,0.9,0.9,1.2c0.1,0.1,0.2,0.1,0.3,0.1
		c0.2,0.1,0.5,0.1,0.5,0.5c0.1,0.2,0.3,0.3,0.4,0.3c0.1,0,0.2-0.1,0.3-0.1c0-0.1,0.1-0.2,0.2-0.2h0.1c0.1,0,0.2,0,0.3,0.1h0.1
		c0.3,0.1,0.7,0.1,1,0.1c0.5,0,1,0,1.4-0.1l0.4,0c0.4,0.1,0.7,0.1,1.1,0.1c0.3,0,0.6,0,0.9-0.1c0.1,0,0.2-0.1,0.2-0.2
		c0.1,0,0.2,0,0.3-0.1c0.1,0,0.2-0.1,0.3-0.1c0.1,0,0.2,0,0.2,0.1c0,0.1,0,0.2-0.1,0.3c-0.3,0.4-0.5,0.7-0.8,0.7
		c-0.3,0-0.5-0.1-0.7-0.3l-0.1-0.1c-0.2-0.1-0.4-0.2-0.7-0.3c-0.1,0-0.3,0.1-0.4,0.1c-0.5,0.1-0.9,0.3-1.2,0.7
		c-0.2,0.1-0.4,0.3-0.4,0.5c-0.1,0-0.1,0-0.1,0c-0.2,0-0.2,0.2-0.3,0.3c-0.1,0.2-0.1,0.3-0.4,0.3c-0.4-0.4-1.4-0.5-2.1-0.5
		c-0.6-0.1-1.2,0.1-1.7,0.4c-0.1,0.1-0.1,0.2-0.1,0.3c0.2,0.5,0.5,1,1.1,1h0.2c0.1,0,0.2,0,0.3,0c0.6,0,1.1,0.3,1.4,0.8
		c0.1,0.1,0.2,0.3,0.2,0.5l0,0c0.2,0.5,0.5,0.9,1,1l0.1,0.3l-0.4,0.7c-0.2,0.5-0.2,1,0,1.4c0.1,0.3,0.4,0.5,0.7,0.7
		c0.1,0.1,0.1,0.1,0.2,0.2l0,0c0,0,0.1,0,0.1,0c0.2,0,0.3-0.1,0.4-0.2l0.1-0.1l0.5,0c0.1,0.1,0.3,0.2,0.5,0.2c0.1,0,0.2,0,0.3,0.1
		c0.1,0.2,0.4,0.4,0.6,0.5c0.1,0.1,0.2,0.1,0.3,0.2l0.1,0.1c0.1,0.1,0.2,0.2,0.3,0.2c0.1,0,0.2-0.1,0.2-0.2c0.2-0.3-0.2-0.5-0.3-0.6
		c-0.1-0.1-0.2-0.1-0.3-0.2c-0.3-0.1-0.6-0.3-0.8-0.7l0.3-0.3c0.4-0.1,0.4-0.4,0.3-0.7c0-0.1,0-0.3,0-0.4c0.2-0.1,0.4-0.2,0.6-0.2
		c0.2,0,0.4,0.1,0.5,0.2c0.1,0.2,0.3,0.2,0.5,0.2c0.1,0,0.2,0,0.3,0l0.3,0.2c0.7,0.3,1.3,0.8,1.7,1.4h0.1c0.1,0,0.2-0.1,0.2-0.2
		c0.1,0,0.1-0.1,0.1-0.2c0.1-0.1,0.1-0.2,0.2-0.2c0.1,0,0.1,0.1,0.2,0.1c0.5,0.5,1.1,0.9,1.7,1.3l0.4,0.2l0.1,0l0,0.1
		c0,0,0.1,0,0.1,0c0.1,0.3,0.4,0.5,0.7,0.5l0.1,0.1l0.5,0.1c0.3,0.1,0.6,0.1,0.9,0.1c0.4,0.1,0.9,0.1,1.3,0.2
		c1.9,0.4,3.6,1.1,5.3,1.9l0.9,0.3c0.3,0.1,0.6,0.2,0.9,0.3c0.4,0.1,0.8,0.3,1.3,0.4h0c0.1,0.1,0.3,0.1,0.4,0.2
		c0,0.1,0.1,0.2,0.2,0.2c0.1,0,0.1,0,0.1,0l0.1,0l0.1,0.1v0.1c0.3,0.2,0.5,0.4,0.8,0.6c0.6,0.3,1.1,0.9,1.3,1.5l0,0.1l0,0.2l0.2,0.1
		c0.4,0.2,0.7,0.5,0.8,0.8l0.1,0.2c0.2,0.9,0.5,1.9,1.3,2.6c0.3,0.2,0.4,0.6,0.3,0.9c-0.1,0.1-0.1,0.2-0.1,0.4
		c0,0.1-0.1,0.3-0.2,0.4c0,0,0,0.1-0.1,0.1l0,0c0,0.1,0,0.1-0.1,0.2c0,0,0,0.1,0,0.1c0,0,0,0,0,0.1c0,0.1,0.1,0.2,0.2,0.2l0,0
		c0,0,0.1,0,0.1,0.1l0,0l0,0l0,0l0,0h0h0c0,0.1,0.1,0.1,0.1,0.1c0.1,0.1,0.2,0.2,0,0.3c-0.1,0.2-0.2,0.5,0,0.7l0,0.1
		c-0.2,0-0.4,0.1-0.5,0.2c-0.2,0.2-0.5,0.3-0.8,0.3c-0.3,0-0.6,0.1-0.8,0.4c-1.2,0.7-1.7,1.8-2.2,2.9l-0.3,0.6c0,0,0,0-0.1,0l0,0
		c0,0,0,0.1,0,0.1l0,0c0,0,0,0,0,0.1c0,0.1-0.1,0.2-0.1,0.2c-0.2,0.3-0.3,0.6-0.1,0.9c0.1,0.1,0.1,0.1,0.2,0.2l0,0c0,0,0,0,0.1,0
		c0.1,0,0.2,0,0.3-0.1c0.1-0.1,0.2-0.1,0.3-0.1h0.3c0.2,0,0.3-0.1,0.5-0.1c0.3,0,0.6,0.1,0.8,0.2c0.3,0.2,0.6,0.2,0.9,0.3
		c0.2,0,0.3,0,0.5-0.1c0.2-0.1,0.4-0.2,0.6-0.2c0.3,0,0.5,0.1,0.8,0.2h0.1c0.1,0,0.2,0,0.3-0.1c0.1,0,0.1,0,0.2,0
		c0.1,0,0.3-0.1,0.4-0.2l0,0l0,0h0.1c0.2-0.1,0.3-0.2,0.4-0.3c0.4-0.6,0.6-0.8,0.9-0.8c0.3,0,0.7,0.2,1,0.3c0.4,0,0.8-0.1,1.1-0.3
		l0.1-0.1c0.1,0,0.2,0,0.2,0c0.1,0,0.2,0,0.3,0c0.1,0,0.2,0,0.3,0h0.2c0.1,0,0.2,0,0.4,0h0.1c0.1,0,0.1,0,0.2,0.1c0,0,0.1,0,0.1,0
		l0,0c0.1,0.2,0.2,0.3,0.4,0.4c0.1,0.1,0.2,0.2,0.3,0.3c0.1,0.2,0.3,0.4,0.5,0.5l0.1,0l0.2,0.1l0.1,0c0,0.2,0.2,0.3,0.4,0.3
		c0.3,0.3,0.5,0.5,0.7,0.9c0.2,0.4,0.6,0.8,1,1.1c0.2,0.1,0.3,0.3,0.4,0.4c0.2,0.3,0.4,0.4,0.7,0.5l0,0c0,0,0.1,0,0.1,0h0.1h0.2v-11
		h-0.1c-0.3-0.8-0.2-1.6,0.1-2.4L223.7,47.3z M182.6,45.3L182.6,45.3L182.6,45.3C182.6,45.4,182.6,45.4,182.6,45.3L182.6,45.3z"/>
	<path id="XMLID_748_" d="M49.1,58L49.1,58c0.2-0.1,0.3-0.2,0.3-0.3c0-0.1,0-0.2-0.1-0.2c-0.2-0.1-0.2-0.3-0.1-0.5
		c0-0.1,0-0.1,0-0.2c0.1-0.1,0.1-0.1,0.2-0.1c0.1,0,0.2,0,0.3,0.1c0.1,0,0.1,0.1,0.2,0.1c0,0,0.1,0.1,0.1,0.1l0,0c0,0,0,0,0,0
		l0.2,0.4l0.7,0.8l0.3,0.4h0.1c0.3,0,0.5-0.1,0.7-0.3c0.3-0.4,0.4-0.8,0.4-1.2l0-1.7l0.1-0.1v-0.3v-0.4l0.1-0.1l0.1-0.2
		c0-0.1,0-0.2,0.1-0.3l0-0.1c0-0.2,0.1-0.3,0.1-0.5c0-0.1,0-0.1,0-0.2c0-0.1,0-0.3,0-0.4c0-0.1,0-0.1,0-0.2c0-0.1-0.1-0.3-0.1-0.4
		c0-0.1,0-0.1-0.1-0.1c0-0.1,0-0.1-0.1-0.2l0-0.4c-0.2-1,0-2,0.4-2.8c-0.8-1.3-0.8-1.6,0.1-2.6c0.1-0.1,0.1-0.2,0.2-0.3l0.1-0.1
		c0.1,0,0.1,0,0.1-0.1c0.1-0.2,0.2-0.4,0-0.7c-0.2-0.1-0.2-0.2-0.2-0.4c-0.1-0.1-0.1-0.2-0.1-0.3c0-0.1-0.1-0.2-0.2-0.3l0,0l0,0
		l0.1,0c0.2,0.1,0.5,0.2,0.7,0.2c0.3,0,0.6,0.1,0.9,0.3c0.2,0.4,0.7,0.7,1.2,0.7c0.3,0,0.5-0.1,0.7-0.1l0,0h0.1
		c0.9-0.3,1-0.4,0.7-1.4c-0.1-0.1-0.3-0.1-0.4-0.1c-0.2,0-0.4,0.1-0.6,0.1l-0.1,0.1c-0.1-0.3,0-0.6,0.2-0.8c0.2-0.2,0.3-0.4,0.2-0.6
		c0-0.1,0-0.3-0.2-0.3c-0.2-0.3-0.5-0.4-0.8-0.4h-0.4h-0.2c-0.1,0-0.1,0-0.2,0c-0.1,0-0.1,0-0.2,0c-0.1,0-0.3,0-0.3-0.4
		c0,0,0,0,0-0.1c0,0,0,0,0-0.1c0,0,0-0.1-0.1-0.1l-0.1,0c0,0,0,0-0.1,0c-0.3-0.2-0.5-0.5-0.4-0.9c0-0.8-0.2-1.6-0.5-2.3
		c-0.3-0.6-0.6-1-1.1-1c-0.3,0-0.5,0.1-0.8,0.2h-0.1c-0.1,0-0.3,0-0.4-0.1c-0.1-0.1-0.3-0.1-0.4-0.1c-0.2,0-0.4,0.1-0.5,0.3
		c-0.3,0.2-0.5,0.6-0.5,0.9c0,0.4-0.2,0.6-0.7,0.6c-0.1,0-0.2,0.1-0.3,0.2c-0.1,0.2-0.2,0.3-0.4,0.4c-0.1,0.1-0.2,0.3-0.1,0.4
		c0,0.1,0.1,0.2,0.2,0.3c0.2,0.1,0.4,0.2,0.6,0.2c0.1,0,0.3,0.1,0.4,0.1l0.2,0c0.2,0,0.5,0.1,0.7,0.1h0.3h0.1c0.5,0,0.8,0.2,1,0.8
		c0.1,0.3,0.2,0.7,0.2,1.1c0,0.1,0.1,0.2,0.1,0.4v0.1l-0.1-0.2c-0.2-0.2-0.3-0.4-0.4-0.6c-0.2-0.9-0.3-1.1-0.9-1.1
		c-0.2,0-0.3,0-0.6,0H50c-0.1,0-0.2,0-0.3,0.1c-0.2,0-0.3,0-0.5-0.1c-1.4-0.1-1.4-0.1-1.5-1.5L47,39.1c-0.6-0.2-0.7-0.7-0.9-1.1
		c-0.1-0.3-0.2-0.5-0.3-0.8c-0.2-0.3-0.4-0.7-0.3-1.1c0-0.2,0-0.4-0.1-0.5l0,0c0-0.1,0-0.1-0.1-0.2c0-0.2,0-0.4-0.1-0.5
		c0-0.1-0.1-0.2-0.1-0.3c-0.1-0.3-0.3-0.4-0.6-0.4c-0.1,0-0.2,0-0.4,0c-0.3,0-0.5,0-0.8-0.1c-0.2,0-0.5,0-0.7,0.1
		c-0.1,0-0.2,0-0.3,0c-0.9-0.1-1.6-0.6-1.9-1.5L41,32c0.1-0.1,0.3-0.2,0.4-0.2c0.3-0.1,0.5-0.3,0.7-0.5l0,0c0-0.1,0-0.1,0.1-0.2
		c0-0.4-0.3-0.5-0.6-0.6c-0.1,0-0.3-0.1-0.4-0.2C41,30.3,41,30.3,41,30.2s0.1-0.1,0.1-0.1c0.1,0,0.2-0.1,0.2-0.2l0.2-0.1l0.3-0.1H42
		c0.2,0,0.3,0,0.4-0.1c0.1-0.1,0-0.3-0.1-0.5l-0.2-0.3c0-0.1,0-0.2,0-0.3c0-0.2,0-0.5-0.2-0.6v-0.2c-0.1-0.7-0.7-0.8-1.2-0.9
		l-0.4-0.1L40,26.7c0-0.1,0.1-0.2,0.2-0.2c0,0,0.1,0,0.1,0h0.1h0.1c0.1,0,0.2,0,0.3-0.1l0,0c0,0,0.1,0,0.1-0.1c0,0,0-0.1,0-0.1v0
		c0-0.1,0-0.1,0-0.2v0c0,0,0-0.1,0-0.1c-0.1-0.2-0.2-0.5-0.2-0.7c0-0.2-0.1-0.5-0.2-0.7v-0.1c-0.1-0.2-0.2-0.4-0.4-0.4
		c-0.1,0-0.1,0-0.2,0c-0.3,0.1-0.4,0.3-0.4,0.6c0,0,0,0.1,0.1,0.1l0,0.1c0.1,0.2,0.2,0.5,0.1,0.8c0,0,0,0.1-0.1,0.1l0,0
		c0,0-0.1,0.1-0.1,0.1c0,0,0-0.1,0-0.1h-0.1c0,0-0.1,0-0.1,0l0,0c-0.1,0-0.2,0-0.2,0.1h0c0,0-0.1,0-0.1,0.1c0,0,0,0-0.1,0.1
		c0,0.1,0,0.1,0,0.1c-0.1,0.1-0.1,0.1-0.2,0.2l-0.1,0c0.1-0.1,0.1-0.2,0-0.3c0.1-0.1,0.2-0.2,0.2-0.3c0,0,0-0.1,0-0.1v0
		c0,0,0.1,0,0.2,0c0.1,0,0.2-0.1,0.3-0.3c-0.1-0.6-0.6-1.1-1.2-1.2c0,0-0.1,0-0.1,0l-0.2-0.3c-0.1-0.2-0.3-0.4-0.6-0.3
		c-0.1,0-0.2,0-0.3,0c-0.1,0-0.2,0-0.3,0c-0.3,0-0.4-0.2-0.5-0.6c0-0.1,0-0.1,0-0.2c0-0.2,0-0.3-0.1-0.4c-0.2-0.3-0.4-0.5-0.6-0.6
		l0,0c-0.2-0.1-0.3-0.1-0.5-0.1c0,0-0.1,0-0.1,0l0,0c-0.1,0-0.2,0-0.3,0c0,0-0.1,0-0.1,0.1l-0.3-0.1l-0.3-0.1l-0.1,0.1
		c-0.1,0-0.2,0.1-0.3,0.2c-0.1,0.1-0.2,0.1-0.3,0.1h-0.1c0,0,0-0.1,0-0.1l-0.2-0.1l-0.2-0.1c0,0,0-0.1,0-0.1c0-0.3,0-0.7,0-1v-0.1
		c0-0.1,0-0.2,0-0.3l-0.2-0.3l-0.1-0.1c0,0,0-0.1,0-0.1c0.1-0.2,0-0.4-0.1-0.5c-0.1,0-0.2-0.1-0.3,0l0,0c-0.3,0.2-0.6,0.3-1,0.3
		c-0.6,0-1.2-0.3-1.6-0.8c-0.1-0.1-0.2-0.2-0.3-0.3L28.7,18c-0.1-0.1-0.3-0.2-0.5-0.3c-0.3,0-0.4,0.3-0.6,0.5l-0.1,0.1l0,0.4
		c-0.1,0.1-0.2,0.1-0.3,0.1c-0.2,0-0.4-0.1-0.6-0.2l-0.1,0c0,0,0-0.1-0.1-0.1l-0.1-0.1c-0.1-0.1-0.2-0.2-0.4-0.3
		c-0.1-0.2-0.2-0.4-0.2-0.6c0-0.2-0.1-0.4-0.3-0.6L25,16.2c-0.1-0.2-0.2-0.3-0.4-0.4c-0.2-0.1-0.3-0.2-0.4-0.4
		c-0.3-0.5-0.8-1-1.4-1.2l-3.6-2.8c-0.1-0.1-0.2-0.1-0.2-0.1l-0.1,0c-0.1,0-0.2-0.1-0.3-0.1h-0.1c-0.3-0.5-0.8-1-1.4-1.2L16.8,10
		l-0.3-0.4c-0.1-0.2-0.3-0.3-0.4-0.4c-0.2-0.1-0.3-0.2-0.4-0.4l0-0.5c0-0.6-0.4-0.8-0.8-1l-0.1,0l-0.1,0c-0.1,0-0.1,0-0.1-0.1l0-0.1
		C14,6,13.6,4.8,12.3,4.5c-0.1,0-0.1-0.1-0.2-0.2c0-0.1-0.1-0.1-0.1-0.2l-0.1-0.1c-0.2-0.2-0.3-0.3-0.5-0.3c0,0-0.1,0-0.1,0l0,0
		c-0.1,0-0.2,0.1-0.3,0.2C10.9,3.9,10.7,4,10.6,4c-0.2,0-0.4-0.1-0.7-0.2C9.5,3.6,9.1,3.5,8.6,3.5c-0.3,0-0.6,0-1,0.1
		C7,3.8,6.4,3.9,5.8,3.9H5.7L4.4,3.2C3.9,2.5,3.2,1.9,2.3,1.7H2.1H1.8c-0.1,0-0.2,0-0.3,0c-0.1,0-0.2,0.1-0.4,0.1
		c-0.3,0-0.7,0.1-0.8,0.6c-0.1,0.4-0.1,0.8,0,1.2c0,0.1,0,0.3,0.1,0.4c0.1,0.1,0,0.2-0.1,0.3C0.4,4.3,0.4,4.4,0.4,4.5
		c0,0.1,0.1,0.1,0.1,0.2l0,0c0,0.1,0,0.1,0,0.2l1.2,1.9C1.8,6.9,2,7.1,2.2,7.2l0.1,0.1l0.9,0.8l0.5,0.7C3.8,9.1,4,9.2,4.3,9.3
		s0.5,0.2,0.6,0.5c0.1,0.2,0.2,0.3,0.4,0.3L6,10.9c0,0.1,0.1,0.1,0.1,0.2c0.1,0.2,0.2,0.4,0.4,0.5c1.1,0.1,2.1,0.8,2.6,1.8
		c0.1,0.1,0.2,0.2,0.3,0.3c0.1,0,0.1,0.1,0.2,0.1l0,0l0,0l0,0l0,0l0,0l0,0l0,0c0,0.3,0.2,0.5,0.3,0.7c0.3,0.4,0.6,0.7,0.9,0.9
		c0.5,0.3,0.8,0.7,1.1,1.2l0,0c0,0.1,0.1,0.2,0.1,0.2c0,0.1,0,0.1,0,0.2c0,0.1,0,0.1,0,0.2c-0.2,0.4-0.2,0.8,0,1.2
		c0.2,0.4,0.5,0.4,0.9,0.4h0.1c0.7,0.1,1.4,0.3,2,0.6l0.1,0.2c0.4,0.1,0.8,0.4,1.1,0.7c0.1,0.1,0.2,0.2,0.3,0.3
		c0.1,0.2,0.3,0.3,0.5,0.4c0,0,0.1,0,0.1,0l0,0c0,0.1,0,0.2,0,0.3c0,0.2,0,0.4,0,0.5c0.1,0.3,0.2,0.5,0.3,0.8
		c0.3,0.7,0.5,1.4,0.6,2.1c0.1,0.6,0.2,1.2,0.5,1.7c0.2,0.5,0.4,1.1,0.4,1.6c0,0.2,0.2,0.3,0.3,0.4h0.1l0.1,0
		c1.1,0.3,2.1,0.6,2.6,1.7c0.1,0.3,0.3,0.6,0.5,0.8c0.1,0.2,0.3,0.3,0.4,0.5c0.1,0.1,0.1,0.2,0.3,0.2c0,0,0.1,0,0.1,0
		c0.1,0.2,0.3,0.4,0.5,0.5l0.2,0.3l0.2,0.3c0,0,0,0.1,0,0.1l0.2,0.4c0.2,0.5,0.5,1,0.9,1.4l0,0l0,0c-0.1,0.2,0,0.4,0.1,0.5
		c0.5,0.4,0.8,1,1,1.6c0.1,0.3,0.2,0.7,0.4,1c0.1,0.3,0.3,0.6,0.6,0.8c0.1,0.1,0.2,0.2,0.2,0.3l0,0l0,0l0,0
		c-0.7,0.7-0.7,0.9,0.2,1.9l0.9,1.1c0.1,0.1,0.1,0.3,0.3,0.4l0.3,0.2c0.1,0.1,0.3,0.2,0.4,0.3c0.1,0.1,0.2,0.1,0.3,0.2
		c0,0.1,0.1,0.2,0.2,0.3c0.2,0.5,0.4,0.9,0.8,1.3c0,0.3,0.1,0.5,0.4,0.6l0.2,0.1c0.5,0.5,1.1,0.9,1.8,1.2c0,0.1,0.1,0.2,0.2,0.3
		c0,0,0.1,0,0.1,0l0,0l0,0v0l0.2,0.1l0.2,0.1c0,0.1,0,0.3,0.1,0.4c0.1,0.2,0.2,0.4,0.3,0.7c0,0.5,0.3,0.9,0.7,1.1
		c0.1,0.2,0.3,0.4,0.5,0.3l0,0l0.7,0.6c0.1,0.2,0.3,0.3,0.5,0.3l0,0l0.4,0.3c0.1,0.2,0.3,0.3,0.5,0.4c0.2,0.1,0.3,0.2,0.4,0.4
		c0.1,0.2,0.3,0.5,0.6,0.5l0,0c0,0,0,0.1,0.1,0.1l0,0c0,0,0,0,0.1,0h0c0.4,0.5,1,0.8,1.5,1.1l0.3,0.1c1,0.6,2.1,1.1,2.6,2.4
		c0.2,0.4,0.5,0.6,0.8,0.8l0.2,0.1v0.1c0.1,0.3,0.1,0.7,0.5,0.7c0,0.2,0.2,0.3,0.4,0.3h0.3c0.2,0.4,0.4,0.6,0.7,0.6
		c0.2,0,0.4-0.1,0.5-0.3c0,0,0-0.1,0-0.1c0-0.1,0-0.1,0-0.2c0.1-0.1,0-0.3-0.1-0.4c-0.1-0.1-0.1-0.2-0.1-0.3s0.1-0.1,0.2-0.2
		c0.1,0,0.2-0.1,0.2-0.1c0.3,0,0.5,0.2,0.7,0.4c0.3,0.3,0.8,0.5,1.2,0.5L49.1,58z"/>
	<path id="XMLID_744_" d="M101.6,48.4c0,0,0.1,0.1,0.1,0.1c0,0.1,0.1,0.1,0.1,0.2c0,0.1,0,0.2,0.1,0.3c-0.1,0.2,0,0.4,0.2,0.4
		c0,0,0.1,0,0.1,0c0.1,0,0.2-0.1,0.2-0.2l0-0.1l0.3-0.1c0.1-0.1,0.2-0.2,0.3-0.3c0.3-0.2,0.5-0.5,0.4-0.8l0,0l0-0.1c0,0,0-0.1,0-0.1
		c0-0.1,0-0.1-0.1-0.2c0-0.1-0.1-0.1-0.1-0.2c0,0,0,0,0,0c0,0,0,0,0,0h0.3c0.1,0,0.2,0,0.2-0.1c0.1-0.1,0.1-0.2,0.1-0.3
		c0-0.1,0-0.2,0-0.4c0-0.3,0-0.6-0.1-0.7c0,0-0.1,0-0.2,0l0,0c-0.3,0-0.4-0.2-0.4-0.3c0-0.1,0-0.1-0.1-0.2c-0.3-0.6,0-1.1,0.3-1.5
		c0.1-0.1,0.1-0.2,0.1-0.3c-0.1-0.2,0-0.4,0.1-0.6c0-0.1,0.1-0.2,0.1-0.2c0-0.1,0-0.2,0-0.4c0,0,0.1-0.1,0.2-0.1c0.1,0,0.1,0,0.2,0
		c0.4-0.3,0.7-0.7,0.8-1.2c0.1-0.3,0.1-0.6,0-0.9c-0.1-0.1-0.1-0.2-0.3-0.2c-0.1,0-0.2-0.1-0.3-0.2c-0.1-0.2,0-0.3,0-0.5
		c0.1-0.4,0.1-0.8-0.1-1.2c-0.1-0.1-0.1-0.2-0.1-0.3c0,0,0-0.1,0.1-0.1c0.3-0.1,0.5-0.4,0.5-0.7c0-0.1,0.1-0.3,0.2-0.4
		c0.2-0.2,0.5-0.3,0.8-0.4c0.5-0.2,0.9-0.5,1.2-1l0.5-0.5c0.3-0.3,0.7-0.5,1.1-0.6c0.2,0,0.4-0.1,0.6-0.1l0-0.1
		c0.1-0.1,0.1-0.2,0.3-0.3c0.2-0.1,0.3-0.3,0.2-0.5c-0.3-0.4-0.2-0.8,0-1.2c0.1-0.1,0.1-0.2,0.1-0.3l0,0c0,0,0-0.1,0-0.1
		c0-0.1-0.2-0.2-0.3-0.2c-0.4-0.1-0.6-0.2-0.6-0.4c-0.1-0.2,0-0.4,0.2-0.7c0.2-0.2,0.2-0.5,0.2-0.7c-0.4-1.1,0.2-1.8,0.7-2.4
		c0.1-0.1,0.2-0.3,0.3-0.4c0.2-0.2,0.4-0.5,0.5-0.8c0-0.1,0-0.1,0-0.2c0.1,0,0.2,0,0.3,0.1c0.1,0,0.2,0.1,0.3,0.1
		c0.1,0,0.2,0,0.2-0.1c0.1,0,0.2,0,0.3-0.1c0.4,0,0.8,0.1,1.1,0.1c0.5,0,1.1,0,1.6,0.2c0.1,0,0.3,0.1,0.4,0.1c0.4,0,0.8-0.2,0.9-0.6
		l0.4-0.5c0.2-0.3,0.2-0.5,0.2-0.6s-0.3-0.2-0.7-0.2c-0.1-0.1-0.2-0.2-0.3-0.3l-0.1-0.1c-0.1-0.1-0.2-0.2-0.3-0.3l-0.1-0.1
		c-0.5-0.4-0.9-0.8-1.5-1.1c-0.4-0.2-0.7-0.5-1.1-0.8c-0.1-0.2-0.3-0.3-0.5-0.4l-0.2-0.1c-0.4-0.2-0.6-0.6-0.8-1l0-0.1
		c0,0,0-0.1,0-0.1c0,0,0,0,0,0c0.1-0.2,0.2-0.4,0.4-0.6c0.2-0.2,0.4-0.5,0.5-0.8c0.2-0.3,0-0.5-0.1-0.7l-0.1-0.1
		c-0.9-0.6-1.3-1.5-1.6-2.4c-0.1-0.3-0.2-0.6-0.4-0.9c-0.1-0.2-0.1-0.3,0.1-0.4c0.5-0.4,0.3-0.9,0.1-1.3c0-0.1-0.1-0.1-0.2-0.1
		c0-0.2,0.2-0.3,0.4-0.4c0.2-0.1,0.4-0.3,0.5-0.5c0.1-0.2,0-0.5-0.1-0.6c0-0.1-0.1-0.1-0.2-0.1h-0.1c-0.1,0-0.2,0-0.2-0.1
		c-0.1,0-0.1,0-0.2-0.1c0-0.1,0-0.2,0-0.2c0.2,0,0.4-0.1,0.5-0.2c0.1-0.1,0.3-0.2,0.5-0.2c0.1,0,0.1,0,0.2,0c0,0,0,0,0,0l0,0
		c0,0,0,0,0,0c0-0.1,0-0.2,0-0.3l0-0.1c-0.1-0.3-0.2-0.5-0.5-0.7l0,0c-0.1-0.1-0.2-0.1-0.4-0.1l0,0h-0.4h-0.6H109
		c-0.3-0.3-0.6-0.5-0.9-0.6l0,0c-0.2-0.1-0.4-0.1-0.7-0.1c-0.2,0-0.3,0-0.5,0c-0.5,0.1-1.1,0.1-1.6,0.1c-0.6,0-1.1-0.1-1.6-0.2
		c-0.1-0.1-0.1-0.1-0.2-0.2l0,0c0,0-0.1,0-0.1,0c-0.1,0-0.1,0-0.2,0.1C103,8,102.9,8,102.8,8.1c-0.2,0.1-0.4,0.2-0.7,0.3
		c-0.2,0-0.5-0.1-0.6-0.3c-0.1-0.1-0.1-0.1-0.2-0.1c-0.1,0-0.3,0.1-0.4,0.1c-0.1,0.1-0.2,0.1-0.3,0.2c-0.3,0.2-0.6,0.5-0.7,0.8
		c0,0,0,0.1,0,0.1c0,0.2-0.1,0.3-0.1,0.5c-0.1,0.4-0.2,0.8-0.4,1.3c-0.1,0.4-0.2,0.8-0.1,1.2c0,0.3,0,0.7-0.1,1
		c-0.1,0.2-0.1,0.3-0.1,0.5v0.1c0,0.6-0.3,0.9-0.8,0.9c-0.1,0-0.2,0-0.3,0c-0.1,0-0.1,0-0.2,0c-0.5,0-0.7,0.4-0.8,0.8
		c0,0.1,0,0.2,0,0.3c0,0.1,0,0.3-0.1,0.4c0,0.1,0,0.1-0.1,0.2c-0.1,0.2-0.2,0.4,0.1,0.7c0.1,0.1,0.2,0.2,0.2,0.2
		c0,0.1-0.1,0.1-0.2,0.2c-0.1,0-0.1,0.1-0.1,0.1c-0.2,0.1-0.4,0.3-0.5,0.5c-0.3,0.1-0.6,0.3-0.7,0.6c-0.1,0.4-0.1,0.8,0.1,1.1
		c0.1,0.1,0.1,0.3,0,0.5c-0.4,0.3-0.6,0.6-0.7,1.1c-0.2,0.1-0.3,0.3-0.4,0.5c-0.1,0.2-0.1,0.3-0.2,0.3h-0.1
		c-0.2-0.1-0.4-0.1-0.5-0.1c-0.3,0-0.5,0.1-0.8,0.1c-0.2,0.1-0.5,0.1-0.8,0.1c-0.1,0-0.3,0-0.4-0.1H92c-0.4,0-0.7,0.2-0.9,0.5
		c-0.2,0.2-0.4,0.4-0.7,0.3c-0.2,0-0.4,0-0.5-0.1c-0.2,0-0.4-0.1-0.6-0.1c-0.1,0-0.1,0-0.2,0c0,0,0-0.1-0.1-0.1l-0.3-0.2h-0.3
		c-0.1-0.1-0.1-0.1-0.2-0.2l-0.1-0.1c-0.2-0.2-0.5-0.4-0.8-0.5l-0.1,0c-0.2-0.1-0.3-0.1-0.5-0.1h-0.1c-0.1,0-0.1,0-0.2,0
		c-0.2,0-0.3,0-0.5,0c-0.2,0-0.3,0-0.5,0h-0.5c-0.6-0.1-1.2,0.1-1.7,0.6c-0.3,0.2-0.4,0.4-0.4,0.7c0,0.2-0.1,0.4-0.2,0.6
		c0,0-0.1,0-0.1,0c0,0,0,0,0,0.1c-0.3,0.1-0.5,0.2-0.7,0.3c-0.3,0.2-0.6,0.3-0.9,0.3c-0.1,0-0.2,0-0.3-0.1l-0.1,0c0,0-0.1,0-0.1,0.1
		h-0.1c-0.2,0-0.5-0.1-0.7-0.1c-0.2-0.1-0.5-0.2-0.7-0.2h-0.1l-0.3,0C78.2,24,78.1,24,78,24c-0.1,0-0.3,0-0.4,0.1
		c-0.1,0-0.3,0.1-0.4,0.1h-0.1c-0.4,0.1-0.8,0.2-1.1,0.5c-0.2,0.2-0.4,0.2-0.6,0.3c-0.2,0-0.4-0.1-0.6-0.2h-0.1
		c-0.1,0-0.2-0.1-0.3-0.1c0,0,0,0-0.1,0c-0.3-0.5-0.7-0.9-1.2-1.1L73,23.4l-0.2-0.1c0-0.1-0.1-0.1-0.1-0.1L72.6,23
		c-0.2-0.2-0.4-0.4-0.6-0.5c-0.1-0.2-0.2-0.3-0.3-0.3c-0.5-0.7-0.9-1.4-1.2-2.2c0.1,0,0.2-0.1,0.3-0.2c0-0.1,0-0.1,0-0.2
		c0-0.1-0.1-0.1-0.1-0.1c0,0-0.1,0.1-0.2,0.1h-0.2c-0.5-0.1-1.1,0.1-1.4,0.5v0.1c-0.1,0.2-0.3,0.4-0.4,0.5c-0.4,0.4-0.7,1-0.9,1.5
		c-0.1,0.3-0.1,0.6-0.1,0.8c0,0.8-0.3,1.5-0.7,2.2c-0.1,0.1-0.1,0.1-0.1,0.2c0,0.1,0,0.2,0.1,0.3c0.1,0.1,0.2,0.2,0.2,0.3
		c0,0.1,0.1,0.2,0.1,0.3v0.2c0,0.2,0,0.3,0,0.5c0,0.4-0.1,0.8,0.3,1.1c0.6,0.4,0.9,1,0.9,1.7v0.2c-0.7,0.4-0.8,0.9-0.4,1.7
		c0.1,0.2,0.2,0.3,0.3,0.5c0.4,0.5,0.6,1.1,0.5,1.6c-0.1,0.1-0.1,0.1-0.1,0.1c0,0,0.1,0,0.1,0.1c0.4,0,0.7,0.1,0.9,0.3
		c0.1,0.2,0.1,0.4-0.1,0.7c-0.2,0.2-0.2,0.5,0,0.7c0.1,0.2,0.4,0.3,0.6,0.3c0.3,0,0.5-0.1,0.7-0.4c0.2-0.2,0.4-0.3,0.7-0.3
		c0.2,0,0.4,0.1,0.6,0.2l0.5,1.2l-0.4,1l0,0c-0.3,0.4-0.5,0.6-0.4,0.7c0,0.2,0.2,0.3,0.5,0.5v0.1l0.1,0c0.1,0,0.3,0.1,0.4,0.2
		c0,0,0,0,0.1,0.1c0.1,0.3,0.1,0.6,0,0.8c0,0.3,0,0.6,0.1,0.9c0.1,0.2,0.2,0.4,0.2,0.6c0,0.2,0.1,0.5,0.3,0.7l0,1.1
		c-0.1,0.1-0.1,0.2-0.1,0.3l0,0c0,0,0,0.1,0,0.1c0,0.2,0.2,0.4,0.3,0.5c0,0,0.1,0,0.1,0h0c0,0,0,0,0.1,0c0.2,0,0.4-0.1,0.6-0.3
		c0.1-0.1,0.2-0.1,0.3-0.2l0.5,0l0,0.1c0.1,0.2,0.3,0.4,0.5,0.6l0,0c0,0,0.1,0,0.1,0c0.2,0,0.3-0.1,0.5-0.2c0,0,0.1,0,0.1,0
		c0.1,0,0.2,0.1,0.3,0.2c0.1,0.2,0.3,0.3,0.5,0.3c0.1,0,0.3,0,0.4-0.1l0.3-0.2c0.4-0.3,0.8-0.5,1.3-0.6c0.3,0,0.7,0.1,0.9,0.4
		c0,0,0.1,0,0.1-0.1l0.1,0h0.1l0.1-0.1c0.2-0.1,0.3-0.1,0.5-0.1h0.1c0,0.1,0,0.3-0.1,0.4c-0.1,0.3-0.1,0.5-0.1,0.8
		c0,0.1,0.1,0.2,0.1,0.4c0.1,0.2,0.1,0.4,0.1,0.6c0,0.1,0,0.3-0.1,0.4c-0.1,0.1-0.1,0.2-0.1,0.4c0.2,0.1,0.4,0.1,0.6,0.1
		c0.3,0,0.6-0.1,0.7-0.4c0.4-0.7,1.2-1,1.9-0.7c0.1,0.1,0.2,0.1,0.3,0.2c0.2,0.1,0.3,0.2,0.5,0.2c0.2,0,0.4-0.2,0.4-0.5
		c0.1-0.1,0.3-0.1,0.4-0.2c0.5-0.2,1.1-0.5,1.2-1.3c0-0.1,0-0.1,0-0.1c0.1,0,0.2,0.1,0.2,0.1c0.1,0,0.1,0.1,0.2,0.1l0.1,0.2
		c0.1,0.2,0.2,0.3,0.4,0.3c0.2,0.2,0.4,0.3,0.6,0.3l0.2,0.1c0,0,0.1,0,0.1,0c0.1,0,0.2,0,0.3-0.1c0.1,0,0.2-0.1,0.3-0.1
		c0.1,0,0.2,0.1,0.3,0.1l-0.2,0.3c-0.2,0.4,0.1,0.7,0.4,0.9c0.1,0.1,0.2,0.1,0.4,0.1c0.1,0,0.2,0,0.3-0.1c0.3-0.3,0.8-0.5,1.2-0.5
		c0.1,0,0.2,0,0.3,0c0.2,0.1,0.4,0.2,0.6,0.2c0.1,0,0.3,0,0.4,0.1c0.3,0,0.6,0.2,0.8,0.4c0.3,0.4,0.4,1,0.2,1.5
		c-0.1,0.5,0,1.1,0.3,1.5c0.1,0.1,0.2,0.2,0.4,0.2c0.2,0,0.3-0.1,0.4-0.2l1.1-0.4l1.2-0.4l0.1,0c0.3,0,0.5-0.2,0.6-0.4l0,0v0
		c0.1,0,0.1,0,0.2,0c0.1,0,0.2-0.1,0.3-0.3c0-0.1,0.1-0.1,0.2-0.1l0,0c0.1-0.1,0.2-0.1,0.3-0.1h0.3c0.3,0,0.5-0.1,0.5-0.4
		c0.1,0,0.2,0.1,0.3,0.1h0.3C101.3,48,101.5,48.1,101.6,48.4z M103.2,48.1L103.2,48.1L103.2,48.1L103.2,48.1
		C103.1,48.1,103.1,48,103.2,48.1L103.2,48.1L103.2,48.1L103.2,48.1L103.2,48.1z M72.2,37.8L72.2,37.8L72.2,37.8
		C72.2,37.8,72.2,37.8,72.2,37.8L72.2,37.8z"/>
	<path id="XMLID_743_" d="M156.9,70.4c0,0-0.1-0.1-0.1-0.1c-0.4-0.2-0.9-0.3-1.4-0.3c-0.5,0-1,0.2-1.4,0.5c-0.2,0.2-0.4,0.2-0.6,0.3
		c-0.1,0-0.3,0-0.4-0.1c0-0.1-0.1-0.2-0.2-0.2c0,0-0.1,0-0.1,0c-0.1,0-0.2,0-0.2,0h-0.1H152c-0.2,0-0.4,0.1-0.5,0.2
		c-0.2,0.1-0.5,0.2-0.7,0.2c-0.2,0-0.4,0-0.6,0.1c-0.1,0-0.3,0-0.4,0c-0.2-0.1-0.3-0.1-0.5-0.1c-0.6,0-1.1,0.1-1.7,0.2
		c-0.1,0-0.3,0.1-0.4,0.1c-0.6,0.1-1.2,0.2-1.4,0.7c-0.5,1-1.3,1.4-2.2,1.8c-0.2,0.1-0.4,0.2-0.6,0.3c-1.4,0.4-2.7,1.1-3.8,2
		c-0.4,0.2-0.6,0.6-0.7,1c-0.1,0.4-0.2,0.9-0.3,1.3c-0.1,0.2-0.1,0.4-0.2,0.7v0.1v0h-0.1c-0.2,0-0.5,0.2-0.6,0.4l-0.1,0.1
		c-0.2,0.2-0.3,0.4-0.3,0.6c0.1,0.8-0.4,1.2-1,1.5l-0.1,0.1c-0.1,0.1-0.2,0.1-0.3,0.2l0,0c0,0-0.1,0.1-0.1,0.1
		c-0.2,0-0.4,0.2-0.5,0.3c0,0,0,0,0,0c0.1,0.1,0,0.3,0,0.5c0,0.2-0.1,0.4,0,0.5c0,0,0,0,0,0l0,0c0.1,0.1,0.2,0.1,0.4,0.1h0.1
		l0.2-0.1l0.1,0c0.1,0,0.3,0,0.4-0.1c0.6-0.1,1.3-0.1,1.5-1c0.3-0.3,0.5-0.7,0.4-1.2c0-0.1,0-0.2,0-0.3c0-0.1,0-0.3,0.1-0.4
		c0,0,0.1,0,0.1,0c0.1,0,0.2,0,0.3,0.1c0.3,0.1,0.6,0.1,1,0.1c0.5,0,1-0.1,1.4-0.4c0.4-0.3,0.9-0.5,1.4-0.5c0.1,0,0.3,0,0.4,0h0.2
		c0.1,0,0.3,0,0.4-0.1l0,0c0.2-0.1,0.2-0.3,0.3-0.5h0.1l0.2-0.2l0.2-0.2c0.2-0.1,0.4-0.2,0.3-0.4c0.2,0,0.3-0.2,0.3-0.3l0.1-0.1
		c0.1-0.2,0.4-0.4,0.6-0.4c0.1,0,0.1-0.1,0.2-0.1c0.2-0.2,0.3-0.4,0.3-0.6c0.1-0.3,0.2-0.6,0.5-0.7c0.4-0.1,0.7-0.3,1.1-0.5
		c0.5-0.3,1.1-0.6,1.7-0.7c0.1,0,0.2-0.1,0.2-0.1h0.2h0.2c0.1,0,0.2,0,0.3-0.1l0.2-0.1c0.1-0.1,0.3-0.2,0.4-0.3
		c0.4-0.3,0.9-0.5,1.4-0.5c0.7-0.1,1.4-0.3,1.8-1c0,0,0.1-0.1,0.1-0.1c0.5-0.1,1.1-0.2,1.5-0.5c0.2-0.1,0.5-0.2,0.7-0.3
		c0.1,0,0.1,0,0.2-0.1l0,0c0.3-0.2,0.6-0.4,0.7-0.7l0.2-0.2C157.2,70.6,157.1,70.5,156.9,70.4z"/>
	<path id="XMLID_742_" d="M136.5,71.8c0.3,0,0.5,0,0.7,0.1c0,0,0.1,0,0.1,0c0.1,0.1,0.1,0.1,0.2,0.1c0,0,0.1,0,0.1,0l0,0
		c0,0,0.1,0,0.1,0c0.1,0,0.1-0.1,0.1-0.1c0.8-0.3,1.4-0.8,2-1.4h0l0,0l0,0c-0.1,0.2-0.2,0.4-0.1,0.6c0.1,0.2,0.3,0.4,0.6,0.5
		c0.2,0.2,0.4,0.3,0.7,0.3c0,0,0.1,0,0.1,0h0.1c0.1,0,0.2-0.1,0.3-0.1l0,0c0.1,0,0.1-0.1,0.1-0.1c0.2-0.2,0.5-0.2,0.8-0.2
		c0.1,0,0.2,0,0.4,0c0.3-0.2,0.7-0.3,1.1-0.3h0.3c0.2,0,0.5,0,0.7-0.1c0.2,0,0.4-0.1,0.5-0.3c0.2,0,0.5,0,0.7-0.2
		c0.1-0.2,0.2-0.4,0.2-0.6c0-0.5-0.2-0.6-0.6-0.6h-0.3c-0.4,0-0.7,0-1.1,0h-1h-0.1c-0.1,0-0.3,0-0.4,0c-0.1,0-0.3,0-0.4,0
		c-0.2,0-0.4,0-0.6-0.1l-0.4,0.3c-0.1,0.2-0.4,0.3-0.6,0.4c-0.2,0-0.5-0.2-0.7-0.5c-0.1-0.1-0.2-0.2-0.4-0.2c-0.1,0-0.3,0.1-0.3,0.1
		c-0.3,0.2-0.7,0.3-1,0.3c-0.1,0-0.3,0-0.5,0s-0.3,0-0.5,0h-0.1l-0.2,0c-0.1-0.1-0.2-0.1-0.3-0.1c-0.1,0-0.2,0.1-0.3,0.1
		c-0.1,0.1-0.3,0.1-0.4,0.2c-0.2,0-0.3-0.3-0.3-0.5c0-0.1,0-0.2-0.1-0.2c-0.1-0.1-0.2-0.2-0.4-0.2c-0.1,0-0.2,0-0.3,0.1
		c-0.2,0-0.5,0.1-0.6,0.3c-0.1,0.2,0,0.6,0.1,1v0l0,0c-0.1,0-0.3,0-0.4,0c-0.1,0-0.3,0-0.4,0.1h0c-0.1,0-0.2,0.1-0.3,0.2v0
		c-0.1,0.1-0.2,0.2-0.2,0.4c-0.1,0.5-0.4,0.7-0.7,0.7c-0.3,0-0.5-0.1-0.7-0.2c0-0.1-0.1-0.1-0.2-0.1h0h-0.1
		c-0.1-0.1-0.1-0.1-0.1-0.2c-0.1-0.2-0.3-0.4-0.5-0.4c-0.1,0-0.1,0-0.2,0c-0.3,0.1-0.5,0.1-0.8,0.2c-0.5,0.2-1,0.3-1.5,0.3
		c-0.6,0-1.1-0.2-1.5-0.6c-0.1,0-0.1-0.1-0.2,0h-0.1c-0.2-0.3-0.5-0.4-0.9-0.4c-0.2,0-0.5,0-0.7-0.1c0-0.1-0.1-0.1-0.2-0.1
		c-0.1,0-0.1,0-0.2-0.1l-0.5,0c-0.2-0.1-0.4-0.2-0.6-0.2c-0.3,0-0.5,0.1-0.8,0.2c-0.2,0.1-0.4,0.2-0.6,0.2c0,0,0,0-0.1,0
		c0,0-0.1,0-0.1,0c-0.2,0.1-0.4,0.3-0.6,0.4c-0.5,0.3-1.1,0.6-1.2,1.3c-0.1,0-0.1,0.1-0.2,0.1c-0.1,0-0.2-0.1-0.3-0.1
		c-0.1-0.1-0.2-0.1-0.3-0.1c0,0,0,0-0.1,0l0,0c-0.1-0.4-0.3-0.7-0.7-0.9l-0.1-0.1l-0.4,0.2c-0.2,0.2-0.2,0.4-0.3,0.7
		c0,0.1,0,0.2-0.1,0.4c0,0,0,0-0.1,0l0,0c-0.2,0.2-0.2,0.6,0,0.9c0.1,0.1,0.3,0.2,0.5,0.2c0.2,0,0.4-0.2,0.6-0.4l0.1-0.1
		c0.1,0.2,0.2,0.5,0.4,0.6c0.1,0.1,0.1,0.1,0.2,0.1l0,0l0,0c0,0,0.1,0,0.1,0h0.1c0.1,0,0.2-0.1,0.3-0.2c0.1,0.1,0.1,0.2,0.2,0.2
		c0.1,0,0.2,0.1,0.3,0.1c0.3,0,0.6,0,0.9,0h1.2c0.2,0,0.3-0.1,0.5-0.1c0.2,0,0.4,0,0.5,0c0.2,0,0.4,0,0.5,0c0.2,0,0.3,0,0.5-0.1
		l0,0.1c0.1,0.2,0.3,0.3,0.5,0.3h0.2h0.2c0.1,0,0.1-0.1,0.2-0.1c0,0,0.1,0,0.1,0c0.1,0.1,0.1,0.2,0.1,0.3c0.1,0.1,0.2,0.1,0.3,0.1
		h0.1l0.4-0.1c0.7-0.2,1.4-0.4,2.2-0.4c0.3,0,0.6,0,1,0.1c0.1,0,0.1,0,0.1-0.1c0.3-0.2,0.7-0.3,1.1-0.3c0.1,0,0.3,0,0.4-0.1
		c0.3-0.1,0.5-0.1,0.8-0.1c0.2,0,0.3,0,0.5,0c0.1,0,0.3-0.1,0.4-0.1c0.1-0.1,0.3-0.1,0.4-0.1c0.5-0.1,0.9-0.2,1.3-0.4
		C135.5,71.9,136,71.8,136.5,71.8z"/>
	<path id="XMLID_739_" d="M100.3,70c-0.6-0.7-1.2-1.4-2.2-1.4H98c0,0-0.1,0-0.1,0c-0.1,0-0.1-0.1-0.2-0.1c0,0,0,0-0.1,0h0
		c0,0-0.1,0-0.1,0l-0.2,0.1c-0.1,0.1-0.2,0.2-0.4,0.3c-0.8,0.4-1.8,0.3-2.4-0.3l0,0c0,0-0.1-0.1-0.1-0.1c0-0.1,0-0.2,0-0.3
		c0-0.3,0-0.7-0.4-0.9h-0.5c-0.2,0-0.3-0.1-0.5-0.2c-0.2-0.1-0.4-0.2-0.6-0.2h-0.1l-0.1-0.2c-0.1-0.1-0.3-0.1-0.4-0.1
		c-0.3,0-0.5,0.1-0.7,0.3l-1.4,0.1h-0.1h-0.1c-0.1,0-0.3,0.1-0.3,0.2c0,0-0.1,0-0.1,0l0,0c-0.7-0.1-1.4-0.3-1.9-0.7
		c-0.4-0.3-0.6-0.5-0.6-0.8c0-0.2,0.1-0.4,0.2-0.5c0.1-0.1,0.2-0.2,0.4-0.3v0l0,0h0.2c0.1,0.1,0.2,0.2,0.2,0.3
		c0.3,0.2,0.6,0.3,0.9,0.3c0.4,0,0.7-0.1,1-0.2l0.3-0.2c0.2-0.1,0.3-0.2,0.3-0.4v-0.1l0,0h0.4l0.3-0.1l0.1,0
		c0.4-0.1,0.7-0.2,1.1-0.2h0.2c0.4-0.1,0.5-0.3,0.6-0.5c0-0.2-0.1-0.4-0.4-0.6c-0.1-0.1-0.2-0.1-0.3-0.1h-0.1c-0.1,0-0.2,0-0.3-0.2
		c-0.1-0.1-0.1-0.1-0.2-0.1c-0.1,0-0.3,0.1-0.3,0.2c-0.5,0.1-0.9,0.1-1.4,0.1h-0.7c-0.2,0-0.4,0-0.7,0c-0.2,0-0.3,0-0.5,0h-0.5
		c-0.5,0-1,0.1-1.4,0.2l-0.2,0.2c-0.2,0.1-0.4,0.2-0.6,0.2c-0.2,0-0.3-0.1-0.4-0.2c-0.2-0.3-0.5-0.4-0.8-0.4c-0.1,0-0.3,0-0.4,0
		c-0.1,0-0.2-0.1-0.4-0.1l-0.7-0.1c-0.2-0.4-0.6-0.6-1.1-0.5h-0.3c-0.1,0-0.2,0-0.3,0c-0.1-0.1-0.2-0.2-0.3-0.3
		c-0.2-0.2-0.5-0.4-0.8-0.4c-0.2,0-0.4,0.1-0.5,0.2H79c-0.1,0-0.2,0.1-0.3,0.1c-0.3,0-0.4-0.3-0.5-0.5c-0.2-0.4-0.5-0.7-0.9-0.8h-1
		c-0.9,0.1-1,0.7-1.1,1.3c0,0.2-0.1,0.3-0.1,0.5c-0.2,0.6-0.4,0.8-0.8,0.8c-0.3,0-0.5,0-0.8,0c-0.2-0.1-0.4-0.1-0.6-0.1
		c-0.1,0-0.2,0-0.3,0l0,0l0,0h0l0,0L72.2,63c-0.2,0-0.3-0.1-0.5-0.1l-0.1,0c-0.3-0.1-0.7-0.1-1-0.2c-0.1,0-0.2,0-0.3,0h-0.2
		c-0.1,0-0.2,0-0.3,0c-0.2,0-0.4,0.1-0.6,0.1c-0.2,0.1-0.4,0.1-0.6,0.1c-0.2,0-0.4-0.1-0.6-0.2h-0.2l-0.3-0.1l-0.4-0.1
		c-0.8-0.1-1.5-0.2-1.7-1.4c-0.1-0.7-0.7-1.3-1.4-1.4c-0.1,0-0.1,0-0.2,0c-0.2,0.1-0.5,0.1-0.7,0.1c-0.6,0-1.2-0.1-1.8-0.3
		c-0.2-0.1-0.5-0.1-0.7-0.2c-0.1-0.1-0.2-0.2-0.3-0.3c-0.2-0.3-0.5-0.5-0.9-0.6h-0.1c-0.1,0-0.1,0-0.2,0c-0.1,0-0.3-0.1-0.4-0.1
		c-0.2-0.1-0.4-0.1-0.6-0.1c-0.3,0-0.5,0.2-0.6,0.8c-0.2,0.1-0.4,0.2-0.6,0.2c-0.2,0-0.3,0-0.4-0.1L56.5,59l0,0l-0.4-0.1
		c-0.5-0.2-1-0.3-1.5-0.3c-0.2,0-0.3,0-0.5,0.1c0,0-0.1,0-0.2,0c-0.1,0-0.2,0-0.3-0.2l-0.1-0.3l-0.1,0c-0.1,0-0.1,0-0.2,0
		c-0.1,0-0.2,0-0.2,0.1h-0.1c-0.6,0.4-1,1.1-1,1.9c-0.1,0.1,0,0.2,0.1,0.3c0,0.1,0,0.2,0,0.2l-0.1,0c-0.1-0.1-0.3-0.1-0.4-0.1
		c-0.1,0-0.2,0-0.3,0.1l0,0c-0.2,0.2-0.3,0.4-0.4,0.6c-0.1,0.3-0.2,0.7-0.2,1v0.2c0,0,0,0-0.1,0c-0.1,0-0.1-0.1-0.2-0.2
		c-0.1-0.1-0.1-0.2-0.3-0.2h-0.1c-0.1,0-0.2,0-0.2-0.1c0-0.1,0-0.1,0-0.3c0.1-0.1,0-0.3,0-0.4c-0.1-0.1-0.2-0.2-0.4-0.3
		c-0.2,0-0.4,0.2-0.5,0.4c-0.1,0.1-0.1,0.2-0.2,0.2c-0.2,0.2-0.1,0.3,0,0.4c0,0,0.1,0.1,0.1,0.1c0.4,0.7,1.1,1.1,1.9,1h0.3h0.4
		c0.3,0,0.5,0,0.8,0c0.1,0,0.2,0,0.4,0c0.7,0,1.4,0.2,2,0.5c0.3,0.1,0.6,0.3,0.6,0.5c0,0.2-0.1,0.4-0.2,0.5c-0.3,0.3,0,0.5,0.1,0.7
		c0.4,0.4,0.8,0.6,1.4,0.6l4.2,0.5l0.2,0.2c0.1,0.1,0.3,0.2,0.4,0.2c0.1,0.1,0.2,0.2,0.4,0.2c0.1,0.1,0.2,0.1,0.3,0.1l0,0
		c0,0,0,0.1,0,0.1l0,0c0,0,0,0.1,0.1,0.1h0c0,0,0,0,0,0c0.1,0,0.2-0.1,0.3-0.1c0.1,0,0.1,0,0.2,0c0.1,0,0.3,0,0.4,0.1
		c0.1,0,0.2,0.1,0.3,0.1l0.2,0.2c0.2,0.1,0.4,0.1,0.5,0.2c0.2,0.2,0.5,0.3,0.8,0.3c0.2,0,0.4-0.1,0.5-0.2c0-0.1,0.1-0.1,0.1-0.3
		l0.6-0.4h0.2h0.3c0.1,0,0.2,0,0.3,0c0.1,0,0.1,0,0.2,0.1c0.1,0,0.2,0,0.3,0c0.1,0,0.2,0,0.3,0l0.1-0.1l0.1,0c0.2,0,0.5-0.1,0.7-0.1
		c0.7,0,1.4,0.1,2.1,0.3c0.5,0.1,1,0.2,1.5,0.3c0.4,0.2,0.8,0.4,1.2,0.6c0.6,0.4,1.2,0.6,1.9,0.8h0.1c0.1,0,0.3,0.1,0.4,0.1
		c0.1,0.2,0.2,0.3,0.4,0.3h0.1h0.1c0.3,0.3,0.6,0.4,1,0.4c0.1,0,0.2,0,0.3,0c0.2,0,0.5-0.1,0.7-0.1c0.3,0,0.5,0,0.7,0.1l0.3,0
		c0.2,0.1,0.4,0.2,0.6,0.2c0.3,0,0.5,0.1,0.7,0.3c0.1,0.1,0.1,0.1,0.2,0.2l0,0c0,0,0,0,0.1,0c0.1,0,0.3-0.1,0.4-0.1
		c0.1-0.2,0.3-0.4,0.6-0.4c0.1,0,0.2,0,0.3,0c0.1,0,0.2,0,0.3,0H82h0.5c0.2,0,0.3,0.1,0.5,0.1c0.3,0.1,0.6,0.2,0.9,0.2h0.1l0.9,0.2
		c0,0,0.1,0.1,0.1,0.1l0.1,0.1c0.1,0,0.2,0.1,0.3,0.1l0.2,0c0,0,0.1,0,0.1,0l0,0l0.1-0.1c0.1,0,0.2,0,0.3,0c0.4,0,0.7-0.2,1.1-0.3
		c0,0,0.1,0,0.1,0h0.2c0.1,0,0.2,0,0.3,0c0.1,0,0.2,0,0.2-0.1c0.2-0.1,0.3-0.1,0.5-0.1c0.1,0,0.2,0,0.3,0.1l0.2,0.1l0.1,0.1
		c0.2,0.1,0.3,0.2,0.5,0.4l0.1,0c0.1,0,0.1,0.1,0.2,0.1c0.1,0,0.1,0,0.2,0h0.1l0.1,0.1l0.2,0.1c0.1,0.1,0.1,0.1,0.1,0.2
		c0.2,0.2,0.4,0.3,0.6,0.3l0.2,0.1c0.4,0.2,0.9,0.2,1.3,0.2h0.1c0.3,0,0.6,0.1,0.8,0.2c0.2,0.2,0.5,0.3,0.8,0.3h0.1l0,0
		c0.1,0,0.2,0,0.3,0c0.1,0,0.2-0.1,0.2-0.1c0.2-0.3,0.1-0.6-0.1-0.9c-0.1-0.1-0.1-0.1-0.2-0.2c-0.2-0.1-0.4-0.3-0.6-0.3l-0.1,0
		L94,70.8l0,0l0.1,0c0.1-0.1,0.1-0.1,0.2-0.1c0.1,0,0.2,0.1,0.3,0.2c0.2,0.2,0.5,0.4,0.7,0.4c0.6,0.1,1.2,0.3,1.7,0.7
		c0,0,0.1,0,0.1,0c0,0.1,0,0.2,0,0.3c-0.2,0.1-0.3,0.3-0.3,0.5c0.1,0.4,0.4,0.5,0.6,0.5c0.1,0,0.2,0,0.4,0c0.1,0,0.2,0,0.3,0
		c0.3-0.1,0.4-0.4,0.4-0.7v-0.1c0.1-0.1,0.1-0.2,0.2-0.2s0.1,0.1,0.1,0.1c0,0.1,0.1,0.1,0.1,0.1l0.1,0c0.1,0.3,0.3,0.5,0.6,0.4h0.1
		c0.3,0,0.3-0.3,0.3-0.5c0-0.1,0-0.1,0-0.2l0-0.1c-0.1-0.1-0.1-0.3-0.3-0.3l0,0c-0.1-0.3,0.1-0.3,0.2-0.4c0.1,0,0.1-0.1,0.2-0.1
		l0.1-0.1c0.3-0.2,0.6-0.5,0.3-1L100.3,70z M56.6,59.1L56.6,59.1L56.6,59.1C56.6,59,56.6,59.1,56.6,59.1z"/>
	<path id="XMLID_738_" d="M193.5,60c-0.2-0.1-0.2-0.4-0.2-0.8c0-0.6-0.1-1.2-0.2-1.7c-0.1-0.2-0.1-0.4-0.1-0.6c0-0.2,0-0.5-0.1-0.7
		c-0.3-0.3-0.6-0.5-0.8-0.5c0,0,0,0-0.1,0l0,0c-0.2,0-0.4,0.3-0.6,0.7c-0.1,0.3-0.5,0.6-0.8,0.6c-0.2,0-0.3,0.2-0.4,0.4
		c0,0.1,0,0.3,0.2,0.3c0.2,0.1,0.3,0.2,0.3,0.3s-0.2,0.3-0.4,0.4c-0.7,0.4-0.9,0.9-0.6,1.8c0.2,0.6,0,1.3-0.6,1.7
		c-0.2,0.6-0.1,0.7,0.6,1.2c0.1,0,0.1,0,0.2,0.1c0.1,0.1,0.2,0.1,0.3,0.1c0.1,0,0.1,0,0.2,0l0.4-0.3l0.1-0.1
		c0.5-0.3,0.9-0.8,1.1-1.4l0.1,0c0,0,0.1,0,0.1-0.1h0c0,0,0,0.1,0,0.1c0,0.1,0,0.2-0.1,0.3c-0.1,0.1-0.2,0.3-0.2,0.5
		c0,0.1,0.1,0.2,0.2,0.3c0.1,0,0.1,0.1,0.2,0.1c0.2,0,0.3-0.2,0.4-0.4c0-0.1,0.1-0.2,0.1-0.2c0.1-0.1,0.1-0.1,0.2-0.3
		c0-0.1-0.1-0.2-0.2-0.3c0,0-0.1-0.1-0.1-0.1c-0.1-0.2-0.2-0.3-0.3-0.3l0,0c0.1-0.1,0.2-0.1,0.3-0.1h0.2c0.1,0,0.2,0,0.3-0.1
		l0.1-0.1c0.2-0.2,0.3-0.4,0.3-0.6C193.9,60.2,193.8,60.1,193.5,60z"/>
	<path id="XMLID_737_" d="M94.7,50"/>
	<path id="XMLID_736_" d="M179.9,64.6c-0.1-0.2-0.3-0.4-0.6-0.5c-0.2-0.1-0.5-0.2-0.7-0.2c-0.1,0-0.1,0-0.2,0h0
		c-0.3,0-0.6,0.1-0.8,0.3l-0.1,0c-0.1,0.1-0.1,0.1-0.2,0.2v0c-0.1,0.1-0.1,0.1-0.2,0.2c-0.3,0.6-0.8,1-1.5,1h-0.2h-0.1
		c-0.1,0-0.3,0-0.4,0c-0.2,0-0.3,0.2-0.3,0.4c0,0,0,0,0,0.1c0,0.2,0.1,0.3,0.3,0.3h0.1c0.1,0,0.2,0,0.3,0c0.1,0,0.2,0,0.2,0.1
		c0.1,0.1,0,0.3-0.1,0.4c0,0.1,0,0.1-0.1,0.2c-0.1,0.2-0.1,0.3-0.2,0.5c-0.3,0.3-0.3,0.8,0,1.1c0,0,0,0,0,0c0,0.1-0.2,0.2-0.3,0.2
		l-0.8,0.5l-0.2,0.1c-0.3,0.2-0.7,0.4-0.6,0.9c0.1,0,0.1,0,0.2,0c0.2,0,0.4-0.1,0.5-0.2c0.1-0.1,0.3-0.2,0.5-0.2
		c0.6,0,1.3-0.1,1.5-0.9c0.1-0.1,0.1-0.2,0.2-0.2c0.1-0.1,0.3-0.1,0.3-0.3l0.7-1.2c0.7-0.6,1.3-1.2,0.9-2.2c0,0,0-0.1,0-0.1
		c0-0.1,0.1-0.1,0.3-0.1c0.1,0,0.1,0,0.2,0c0.1,0,0.1,0,0.2,0c0.1,0,0.2,0,0.3,0.1c0.3,0,0.7,0,0.8-0.4
		C179.9,64.8,179.9,64.8,179.9,64.6C179.9,64.7,179.9,64.6,179.9,64.6z"/>
	<path id="XMLID_735_" d="M117.4,72c0-0.1,0-0.2,0-0.3c-0.1-0.2-0.3-0.4-0.5-0.4l-0.2-0.2c0-0.3,0-0.7,0.1-1c0-0.1,0.1-0.1,0.2-0.2
		c0.1-0.1,0.3-0.3,0.1-0.5c0-0.1-0.1-0.1-0.2-0.1h-0.1c-0.3,0-0.6,0.1-0.8,0.3c-0.2,0.1-0.3,0.2-0.5,0.3l-0.3,0h-0.1
		c0,0-0.1,0-0.1,0l-0.7-0.2c-0.1-0.1-0.3-0.2-0.4-0.2c-0.2,0-0.4,0.1-0.5,0.3c-0.1,0.1-0.2,0.2-0.3,0.2c-0.6-0.1-0.7-0.5-0.8-1
		c0-0.1,0-0.1-0.1-0.2c-0.1,0-0.2-0.1-0.3-0.1l0,0c-0.2-0.1-0.4-0.1-0.6-0.1h-0.1c-0.1,0-0.1,0-0.2,0c-0.5,0-0.9,0.1-1.3,0.4
		c-0.1,0.1-0.3,0.1-0.4,0.1h-0.2H109c-0.1,0-0.3,0-0.3,0.2c-0.1,0.8-0.3,0.9-0.9,0.9c-0.1,0-0.3,0-0.4,0h-0.1
		c-0.7,0.1-1.4,0.5-1.9,1.1c-0.3,0.3-0.5,0.8-0.5,1.2c0,0.3-0.1,0.5-0.2,0.8c0,0.3,0.1,0.6,0.5,0.8l0.5,0.1c0.5,0.2,0.9,0.2,1.4,0.3
		c0.1,0,0.1,0,0.2,0h0.1c0.1,0,0.2,0,0.3,0c0.4-0.1,0.8-0.2,1.2-0.3c0.6-0.2,1.3-0.3,1.9-0.4l0.3-0.3c0.2,0,0.3-0.1,0.5-0.1
		c0.3,0,0.6-0.1,0.8-0.3c0,0,0.1-0.1,0.1-0.1c0,0,0,0,0.1-0.1l0.1,0.1l0.2,0.1c0.2,0.2,0.4,0.3,0.7,0.4c0.1,0,0.1,0,0.2,0
		c0.4-0.1,0.9-0.2,1.3-0.2c0.3,0,0.5,0,0.8-0.1C116.6,73,117.3,72.9,117.4,72z"/>
	<path id="XMLID_734_" d="M154.1,66.8l-0.1-0.1c-0.2-0.3-0.5-0.5-0.8-0.5c-0.3,0-0.6,0.1-0.9,0.3c-0.3,0.2-0.7,0.3-1.1,0.4
		c-0.3,0-0.6-0.1-0.9-0.3l0,0l0,0l0,0c-0.2,0.3-0.4,0.6-0.7,0.8c-0.4,0.3-0.6,0.7-0.5,1.2c0,0.3,0.1,0.4,0.3,0.4
		c0.1,0,0.2,0,0.3-0.1c0.6-0.3,1.3-0.4,1.9-0.4h0.6h0.4c0.1,0,0.2,0.1,0.2,0.1c0.2,0,0.3-0.1,0.4-0.2c0.2-0.3,0.5-0.5,0.9-0.5
		l0.3-0.2c0.1-0.1,0.1-0.2,0.1-0.3l0,0c0,0,0-0.1,0-0.1C154.5,67,154.3,66.9,154.1,66.8z"/>
	<path id="XMLID_733_" d="M60.9,45.5c0,0.1,0.1,0.1,0.2,0.1c0.2,0,0.4-0.1,0.5-0.2l0.1-0.1c0.1,0,0.2,0,0.3-0.1
		c0.1-0.1,0.2-0.1,0.2-0.1c0,0,0.1,0,0.1,0c0.1,0.5,0.3,0.5,0.5,0.5c0.2,0,0.4-0.1,0.5-0.3c0.5-0.6,0.9-1.4,0.9-2.2
		c0-0.1,0-0.1,0-0.2l-0.3-0.2l-0.1,0l-0.1,0v-0.1c-0.1-0.2-0.2-0.3-0.4-0.4l-0.7-0.4c-0.3-0.1-0.6-0.1-0.9-0.1c-0.3,0-0.6,0-0.9,0.1
		c-0.2,0.4-0.3,0.8-0.3,1.2c0,0.4-0.1,0.8-0.3,1.2c-0.2,0.3,0.1,0.6,0.4,1C60.8,45.3,60.9,45.4,60.9,45.5z"/>
	<path id="XMLID_732_" d="M45.8,28.3c-0.1-0.1-0.2-0.1-0.3-0.1c-0.1,0-0.1,0-0.2,0.1c-0.1,0.1-0.1,0.1-0.1,0.2c0,0.1,0,0.2,0.1,0.2
		c0.3,0.3,0.1,0.5-0.1,0.7c-0.2,0.3-0.3,0.6-0.3,0.9c-0.1,0.2,0,0.3,0.1,0.5c0.1,0.1,0.1,0.2,0.2,0.3v0c-0.1,0-0.1,0-0.2,0
		c-0.1,0-0.1,0-0.2,0h-0.1c-0.1,0-0.1,0-0.2,0.1c0,0-0.1,0-0.1,0.1c-0.1,0-0.1,0.1-0.2,0.1l-0.1,0.1c-0.1,0.1-0.1,0.2-0.1,0.3v0.1
		c0,0,0,0.1,0,0.1c0,0.3,0.2,0.3,0.4,0.4c0.1,0,0.3,0.1,0.4,0.2c0,0,0,0,0.1,0c0.1,0,0.1,0.1,0.2,0.1c0.1,0.1,0.2,0.1,0.4,0.2
		c0.1,0,0.2-0.1,0.3-0.1l0.1-0.1c0.2-0.2,0.5-0.5,0.3-1c-0.1-0.1-0.1-0.3,0-0.5c0.1-0.1,0.2-0.1,0.3-0.1c0.1,0,0.2,0,0.3,0
		c0.1,0,0.3,0.1,0.4,0.2c0.2,0.1,0.4,0.2,0.5,0.2c0,0,0.1,0,0.1,0c0.1-0.3,0-0.6-0.1-0.8c0,0-0.1-0.1-0.1-0.1h0
		c-0.1-0.1-0.2-0.1-0.4-0.1c-0.4-0.1-0.4-0.4-0.5-0.7C46.8,29,46.4,28.5,45.8,28.3z"/>
	<path id="XMLID_731_" d="M161.5,20L161.5,20c1.4,0,2.2-0.8,2.2-2.3c0-0.4-0.2-0.9-0.5-1.2c-0.1-0.1-0.2-0.2-0.4-0.2
		c0,0-0.1,0-0.1,0c-0.7,0.3-1.3,0.9-1.6,1.7c-0.2,0.6-0.2,1.2,0.1,1.8C161.2,19.9,161.3,20,161.5,20z"/>
	<path id="XMLID_730_" d="M157.4,36.3c-0.1,0-0.2,0-0.2,0.1c-0.2,0.3-0.2,0.8,0,1.1l0,0.3c0.1,0.3,0.3,0.5,0.5,0.6l0,0
		c0,0,0.1,0,0.1,0c0.2,0,0.3-0.1,0.4-0.2c0.3-0.1,0.5-0.2,0.8-0.2c0.1,0,0.3,0,0.4,0h0.4c0.1,0,0.3,0,0.4,0h0.1c0.1,0,0.2,0,0.2,0
		c0.1,0,0.2,0,0.2,0c0.2,0,0.3-0.1,0.3-0.3c0-0.1,0-0.1,0-0.2s0-0.1,0-0.1c0-0.1,0-0.2,0-0.3c0-0.1,0-0.1-0.1-0.2c0,0,0-0.1-0.1-0.1
		c0,0-0.1-0.1-0.1-0.1c-0.1-0.1-0.1-0.1-0.2-0.1l-0.1,0c0,0-0.1-0.1-0.1-0.1c-0.4-0.1-0.7-0.3-1-0.5c-0.1-0.1-0.2-0.2-0.4-0.3H159
		l-0.1-0.2l-0.2-0.2l-0.1-0.2c-0.1-0.2-0.3-0.3-0.6-0.3c-0.2,0-0.3,0.1-0.4,0.2c0,0,0,0.1,0,0.1v0c0,0,0,0,0,0.1l-0.1,0.1
		c-0.1,0.2,0,0.3,0,0.5c0.1,0.1,0.1,0.2,0.1,0.3L157.4,36.3L157.4,36.3z"/>
	<path id="XMLID_729_" d="M171.9,31.3L171.9,31.3c0.1,0,0.2,0,0.2,0l0,0c0,0.1,0,0.2-0.1,0.3c-0.1,0.1-0.1,0.2-0.1,0.3l0.3,0.3
		l0.2,0.2c0.1,0.1,0.3,0.1,0.5,0.1c0.5,0,0.9-0.2,1.2-0.5l0.2-0.1c0.1,0.1,0.1,0.1,0.2,0.1c0.2,0,0.4,0,0.6-0.1l0.2,0
		c0.1,0,0.3-0.1,0.4-0.1c0.3,0,0.5-0.1,0.7-0.3c0,0,0-0.1,0-0.1l0.1,0c0.2-0.1,0.4-0.2,0.4-0.5l-0.3-0.4l-0.2-0.3l-0.7-0.5
		c-0.1,0-0.2,0-0.2,0c-0.2,0-0.4-0.1-0.5-0.1c-0.2-0.1-0.3-0.1-0.5-0.1h-0.1c-0.2,0-0.3,0-0.5,0c-0.5,0-1.1,0.1-1.6,0.3
		c-0.3,0.1-0.6,0.2-0.8,0.2c-0.2,0-0.4,0.1-0.4,0.3c-0.1,0.3,0,0.6,0.2,0.8C171.3,31.2,171.6,31.3,171.9,31.3z"/>
	<path id="XMLID_728_" d="M42.6,24.6L42.6,24.6c0.6,0.3,1.1,0.8,1.3,1.4l0,0l0,0c0.5,0,0.9-0.3,1-0.8c0,0,0,0,0,0
		c0.1,0.1,0.2,0.1,0.2,0.2c0.1,0.1,0.2,0.2,0.4,0.2h0.3c0.7,0,0.8-0.3,0.9-1.4c-0.1-0.2-0.3-0.4-0.5-0.5c-0.2-0.2-0.5-0.3-0.8-0.3
		H45h-0.3h-0.1h-0.2c-0.1,0-0.2,0-0.3,0c-0.1,0-0.2,0-0.3,0c-0.3,0-0.5,0.1-0.7,0.3c-0.1,0.2-0.2,0.2-0.3,0.2s-0.3,0-0.4,0.2
		c-0.1,0.1-0.1,0.2-0.1,0.3C42.3,24.4,42.4,24.6,42.6,24.6z"/>
	<path id="XMLID_727_" d="M168.4,38.7c0,0.1,0.1,0.1,0.1,0.2l0,0c0,0,0.1,0.1,0.1,0.1c0.4,0.3,0.9,0.6,1.4,0.9
		c0.1,0.1,0.3,0.1,0.5,0.1c0.7,0,1.5-0.4,1.6-0.8c0.2-0.5,0-1.1-0.3-1.5c0,0-0.1-0.1-0.1-0.1c-0.1-0.1-0.2-0.1-0.3-0.1l0,0
		c0,0-0.1,0-0.1,0c-0.1,0-0.2,0-0.2,0.1c-0.3,0.2-0.7,0.4-1.1,0.4h-0.2c-0.4,0-0.7,0.1-1,0.4C168.5,38.3,168.4,38.5,168.4,38.7
		C168.4,38.7,168.4,38.7,168.4,38.7L168.4,38.7z"/>
	<path id="XMLID_723_" d="M155.9,33.5c0,0,0,0,0.1,0.1h0.1c0.2,0.2,0.5,0.3,0.8,0.4c0.1,0,0.2-0.1,0.2-0.4c0-0.1,0-0.1,0-0.2
		c0.2,0.5,0.7,0.6,1.1,0.7c0.2,0,0.3,0.1,0.5,0.1c0,0,0.1,0,0.1,0c0,0,0.1,0,0.1,0.1c0.1,0,0.1,0,0.2,0c0.2,0,0.4-0.1,0.5-0.3
		l0.2-0.3c0.1,0,0.2-0.1,0.3-0.1c0.1-0.1,0.3-0.2,0.4-0.2c0.1,0,0.2,0.1,0.3,0.1c0.1,0.1,0.2,0.1,0.3,0.2c0.2,0,0.3,0.2,0.3,0.3
		c0,0,0,0,0,0.1c0,0,0,0,0,0.1c0,0,0.1,0.1,0.1,0.1h0.1c0,0,0,0,0.1,0c0.1,0,0.2,0,0.2,0c0.1,0,0.1,0,0.2,0c0.2,0,0.3-0.1,0.3-0.3
		c0-0.2-0.1-0.3-0.3-0.4l-0.1-0.1l-0.5-0.3l-1.4-2.4c0-0.2-0.1-0.4-0.2-0.6c0-0.1-0.1-0.1-0.1-0.2c0,0,0-0.1,0-0.1v-0.3
		c0.3-0.3,0.4-0.8,0.4-1.2c0-0.2,0-0.4,0-0.5h0.2h0c0.2,0,0.4,0,0.6,0.1c0.5,0.1,1,0.2,1.5,0.3l0.6,0.1l0.4,0.2
		c0.1,0.1,0.3,0.1,0.4,0.1c0.2,0,0.4,0.1,0.5,0.2c0.1,0.1,0.1,0.1,0.2,0.1c0,0,0.1,0,0.1-0.1c0.1-0.1,0-0.2,0-0.3
		c0-0.1-0.1-0.1-0.1-0.2l-1-0.7c0-0.1,0-0.1,0-0.2c0-0.2,0-0.4-0.1-0.5c0-0.1,0-0.2,0-0.3c-0.1-0.1-0.3-0.2-0.5-0.2h-0.1
		c-0.2,0-0.4-0.1-0.6-0.2c-0.1-0.1-0.2-0.1-0.4-0.2c-0.2-0.1-0.4-0.1-0.3-0.4c0-0.2,0.2-0.3,0.4-0.4c1.9-0.7,1.9-0.8,2-2.8
		c0-0.5,0-0.7-0.2-0.8c-0.1-0.1-0.2-0.1-0.4-0.1c-0.2,0-0.3,0-0.5,0.1c-1,0.1-1.9,0.7-2.4,1.5c-0.1,0.1-0.1,0.2-0.1,0.3
		c0,0,0,0,0,0.1l0,0c-0.1,0-0.1,0-0.2,0.1c-0.1,0-0.1,0.1-0.2,0.2l0,0v0l0.1-0.1c0,0,0-0.1,0.1-0.1c0.1-0.1,0.1-0.2,0.1-0.4
		c0.4-0.7,0.4-1.6-0.1-2.3c-0.5-0.6-0.3-0.9,0.1-1.3c0.2-0.2,0.4-0.5,0.1-0.8c-0.1-0.1-0.2-0.2-0.4-0.2c-0.2,0-0.4,0.1-0.5,0.2
		c-0.6,0.4-1.2,1-1.5,1.6c-0.2,0.2-0.3,0.4-0.3,0.7c0,0.2-0.1,0.4-0.2,0.6l-0.2,1.2c-0.7,0.8-0.7,1.2,0,1.9c0.3,0.3,0.4,0.9,0.2,1.3
		c-0.1,0.3-0.1,0.6,0,0.9v0.1c0,0.1,0,0.1,0.1,0.2c0,0.2,0.1,0.3,0.2,0.4L158,28l0.2,0.8l0.1,0.8c-0.2,0.2-0.4,0.4-0.5,0.7
		c0,0.1-0.1,0.3-0.2,0.4c0,0,0,0.1,0,0.1h-0.1c-0.2,0-0.4-0.1-0.6-0.2c-0.2-0.1-0.4-0.2-0.6-0.2c-0.1,0-0.1,0-0.2,0
		c-0.4,0.1-0.6,0.4-0.7,0.8c0,0.3,0.1,0.6,0.2,1C155.9,32.6,156,33,155.9,33.5z M159.4,24.6c0.1,0,0.2-0.1,0.2-0.2
		c0,0.1-0.1,0.2-0.1,0.3c-0.1,0-0.1,0.1-0.2,0.1c-0.1,0.1-0.1,0.1-0.2,0.1h-0.1C159.1,24.8,159.2,24.7,159.4,24.6z M159.8,24.2
		L159.8,24.2C159.7,24.2,159.7,24.2,159.8,24.2C159.7,24.2,159.8,24.2,159.8,24.2L159.8,24.2z"/>
	<path id="XMLID_722_" d="M199.6,37.2c-0.2,0-0.3,0-0.5,0.1c-0.3-0.1-0.7-0.1-1-0.1c-0.4,0-0.8-0.1-1.1-0.1l-0.2,0l-0.3-0.1
		c-0.2,0.3-0.3,0.5-0.3,0.6c0.1,0.2,0.3,0.3,0.6,0.4c0.2,0,0.4,0.1,0.6,0.1c0.4,0,0.8,0.1,1.1,0.3c0.6,0.3,1.3,0.6,1.9,0.7l0.3,0.1
		c0.2,0,0.3,0.1,0.5,0.1c0.3,0,0.7-0.1,0.9-0.4l0.9-0.1h0.1c0.1,0,0.3,0,0.4-0.1c0.1-0.1,0.2-0.2,0.2-0.3c0-0.1,0,0,0,0l0,0
		c0,0-0.1-0.1-0.2-0.1c-0.1,0-0.2-0.1-0.2-0.1c-0.1-0.1-0.3-0.2-0.4-0.2h-0.2h-0.2l-0.3-0.2l-0.3-0.2c-0.1,0-0.3,0.1-0.4,0.1
		c-0.3,0-0.7-0.1-1-0.1C200.3,37.3,199.9,37.2,199.6,37.2z"/>
	<path id="XMLID_721_" d="M148.9,38.2L148,38c-0.2,0-0.5-0.1-0.7-0.2c-0.2-0.1-0.4-0.2-0.7-0.2c-0.1,0-0.2,0-0.3,0.1l0,0
		c0-0.1,0-0.1,0-0.2c-0.9-0.3-1.8-0.4-2.7-0.4c-0.2,0-0.4,0-0.6,0c-0.3,0-0.6,0.2-0.7,0.4c0,0.2-0.1,0.5-0.2,0.7
		c-0.2,0.3-0.2,0.7-0.1,1c0,0.3,0.2,0.5,0.5,0.5c0,0.1,0.1,0.1,0.1,0.1c0,0,0,0,0,0l0,0c0,0,0,0,0,0h0.1c0.4,0,0.8-0.1,1.2-0.3
		c0.3-0.2,0.7-0.3,1.1-0.3l0.4,0.3c0,0.1,0.1,0.1,0.2,0.1c0.1,0,0.1,0,0.2-0.1c0.2-0.2,0.4-0.3,0.7-0.3c0.1,0,0.2,0,0.2,0
		c0.4,0.1,0.9,0.2,1.4,0.2c0.5,0,0.9-0.1,1.4-0.2h0.1c-0.2,0.6-0.1,1.3,0.3,1.8l0.1,0.1c0.1,0.1,0.2,0.3,0.2,0.5l0.3,0.4
		c0.1,0.1,0.2,0.1,0.3,0.1c0.1,0,0.2-0.1,0.2-0.2c0.2-0.3,0.3-0.7,0-0.9c-0.3-0.6-0.4-0.9-0.4-1.2c0.1-0.3,0.4-0.5,0.9-0.7
		c0.1,0,0.1-0.1,0.2-0.1c0.1,0,0.1-0.1,0.2-0.1c0.2-0.1,0.3-0.2,0.3-0.3c0-0.1-0.1-0.2-0.3-0.3l-0.1,0c-0.5-0.2-1.1-0.3-1.6-0.3
		C149.7,37.8,149.3,37.9,148.9,38.2z"/>
	<path id="XMLID_720_" d="M62.9,10.9C63,11,63.1,11,63,11.2c-0.2,0.2-0.3,0.4-0.2,0.5s0.3,0.3,0.6,0.4c0.1,0,0.1,0,0.2,0l0,0
		c0.2,0,0.5-0.1,0.7-0.2c0.3-0.2,0.4-0.4,0.5-0.7c0.2-0.3,0.2-0.7,0-1l-0.7-0.9c-0.1-0.3-0.3-0.5-0.4-0.5S63.2,9,63.1,9.2L63,9.3
		c-0.5,0.3-0.7,0.5-0.7,0.8C62.3,10.3,62.4,10.5,62.9,10.9C62.9,10.9,62.9,10.9,62.9,10.9z"/>
	<path id="XMLID_719_" d="M153.1,10.2L153.1,10.2c0,0.1,0,0.1,0,0.1c0.1,0.1,0.1,0.2,0.1,0.3c0.1,0.2,0.1,0.5,0.3,0.5l0,0
		c0,0,0.1,0,0.2,0c0.1,0,0.2,0,0.3-0.1c0.1-0.1,0.1-0.1,0.2-0.2c0.2-0.2,0.4-0.5,0.3-0.8c0-0.3,0.1-0.5,0.2-0.7
		c0.1-0.1,0.1-0.2,0.1-0.3c0.2-0.4,0.2-0.8,0-1.2c-0.2-0.4-0.6-0.6-1-0.7c-0.1,0.1-0.2,0.1-0.3,0.2c0,0.1,0,0.2,0.1,0.3l0.1,1
		c0,0.1,0,0.2,0.1,0.2c0.1,0.1,0.1,0.3,0,0.4c-0.1,0.1-0.2,0.2-0.3,0.2c-0.2,0-0.4,0.1-0.5,0.3c0,0,0,0.1,0,0.1c0,0,0,0,0,0
		C153,10.1,153,10.1,153.1,10.2z"/>
	<path id="XMLID_718_" d="M138.7,36.1c0-0.2-0.2-0.5-0.5-0.7c-0.2-0.1-0.3-0.1-0.5-0.2c-0.5-0.3-1-0.4-1.5-0.5
		c-0.3,0-0.6,0.1-0.8,0.2c0,0.1-0.1,0.1-0.1,0.2c-0.2,0-0.3,0.1-0.4,0.3c0,0.1-0.1,0.3-0.2,0.4c-0.2,0.3-0.3,0.7-0.1,1
		c0.2,0.4,0.5,0.6,0.8,0.6c0.1,0,0.3,0,0.4-0.1c0.1,0,0.1-0.1,0.2-0.1c0.1,0,0.2,0,0.3,0.2s0.3,0.3,0.4,0.3s0.3-0.2,0.4-0.5l0.1-0.2
		h0.2c0.3,0,0.5-0.1,0.7-0.2C138.5,36.6,138.7,36.4,138.7,36.1z"/>
	<path id="XMLID_717_" d="M150.7,44.5c-0.2,0-0.4,0.2-0.4,0.5c-0.3,0.6-0.2,1,0.2,1.3c0.8,1.2,2.1,1.7,3.2,2.1c0.1,0,0.2,0,0.3,0
		c0.4-0.1,0.8-0.2,1.1-0.5c0.2-0.1,0.4-0.3,0.6-0.4c0.5,0,1,0,1.2-0.5c0.1-0.4,0.1-0.8,0-1.2c-0.3-0.2-0.6-0.4-0.8-0.7
		c-0.3-0.4-0.8-0.7-1.2-0.9c0,0-0.1,0-0.1,0h-0.1l0,0c-0.1-0.2-0.4-0.3-0.6-0.3c-0.1,0-0.2,0-0.3,0c-0.3,0.1-0.7,0.1-1,0.2
		c-0.6,0.2-1.2,0.3-1.8,0.3L150.7,44.5z"/>
	<path id="XMLID_716_" d="M185.8,56L185.8,56c0-0.1,0-0.2,0-0.3c0,0,0,0,0-0.1c0-0.1,0-0.2-0.1-0.3v0c0-0.1,0-0.1-0.1-0.2
		c-0.1-0.1-0.3-0.2-0.5-0.2c-0.2,0-0.4,0.1-0.5,0.4c0,0.1,0,0.2,0,0.3c0,0.2,0,0.4-0.3,0.4l0,0l0,0h0l0,0l0,0l0,0l0,0.1l0,0l0,0
		c0,0,0,0.1,0,0.1c0,0.1-0.1,0.2-0.1,0.3c0,0.2-0.1,0.4-0.2,0.5c-0.1,0.1-0.3,0.2-0.4,0.2l0,0l0-0.1c-0.1-0.2-0.2-0.4-0.3-0.5l0,0
		c-0.1,0-0.1-0.1-0.2-0.1H183c0,0-0.1,0-0.1,0l0,0h0v0l0,0v0.1c-0.2,0.1-0.3,0.2-0.3,0.4l0,0.1l0.3,0.5V58c0,0.2,0.1,0.4,0.2,0.6
		l0,0c0,0,0,0,0.1,0.1c0,0.1,0,0.1,0,0.2l0.2,0l0.2-0.1h0.3c0,0,0.1,0.1,0.1,0.1c0,0,0.1,0,0.1,0c0,0,0.1,0,0.1,0h0
		c0,0,0.1,0,0.1-0.1l0,0c0,0,0.1-0.1,0.1-0.1c0.1-0.2,0.2-0.4,0.2-0.7l0.3-0.5c0.2-0.4,0.5-0.7,0.8-1c0-0.1,0.1-0.1,0.1-0.2l0,0
		C185.8,56.3,185.8,56.1,185.8,56z"/>
	<path id="XMLID_715_" d="M149.2,13.2C149.3,13.2,149.3,13.2,149.2,13.2l0.1,0.1c0,0,0.1,0.1,0.2,0.1h0.1c0,0,0.1,0,0.1,0
		c0.2,0,0.3-0.1,0.4-0.2c0.3-0.2,0.3-0.5,0.1-0.9c-0.1-0.1-0.1-0.2-0.2-0.2c-0.2-0.1-0.3-0.3-0.4-0.5c-0.1-0.3-0.3-0.5-0.5-0.5
		c-0.2,0-0.4,0.1-0.6,0.2c-0.2,0.3-0.1,0.6,0,0.9L149.2,13.2z"/>
	<path id="XMLID_714_" d="M130.7,30.7c-0.2,0-0.4,0.1-0.6,0.2l-0.1,0c-0.4,0.2-0.8,0.6-1.1,1c0,0.1-0.1,0.2-0.1,0.2l0.1,0.1l0.2,0.2
		l0,0l0.5-0.1c0.3-0.1,0.7-0.2,1-0.3c0.4-0.2,0.7-0.3,0.7-0.5c0-0.2-0.1-0.4-0.5-0.8L130.7,30.7z"/>
	<path id="XMLID_713_" d="M98.1,64.1L98.1,64.1c0.2-0.1,0.5-0.2,0.7-0.2c0.3,0,0.7-0.1,0.9-0.4c0.1-0.1-0.1-0.3-0.1-0.4
		c-0.2-0.3-0.5-0.4-0.9-0.4h-0.1h-0.1c-0.3,0-0.7,0.1-0.7,0.5c0,0.3,0.1,0.5,0.3,0.7C97.9,64,98,64.1,98.1,64.1z"/>
	<path id="XMLID_712_" d="M161,69.7C161,69.7,161,69.6,161,69.7c-0.1-0.2-0.1-0.3-0.1-0.3c-0.2-0.1-0.4-0.1-0.6-0.2
		c-0.3-0.2-0.6-0.2-0.9-0.3c-0.1,0-0.1,0-0.2,0c-0.1,0-0.3,0.1-0.3,0.2c0,0.1,0,0.3,0.1,0.4c0.2,0.3,0.6,0.6,0.9,0.7
		c0.1,0,0.3,0.1,0.4,0.2h0c0.3-0.1,0.5-0.2,0.6-0.5C160.9,69.8,160.9,69.8,161,69.7C161,69.7,161,69.7,161,69.7z"/>
	<path id="XMLID_711_" d="M193.4,35.3c0.1,0.1,0.2,0.1,0.3,0.1h0.2c0,0,0.1,0,0.1,0l0,0c0.1,0,0.2-0.1,0.3-0.2c0,0,0.1-0.1,0.1-0.1
		c0.1-0.1,0.2-0.3,0.2-0.5c0-0.2-0.2-0.3-0.5-0.5c-0.1-0.1-0.3-0.1-0.4-0.1c-0.3,0-0.5,0.2-0.6,0.6
		C192.9,34.8,193.1,35.2,193.4,35.3C193.4,35.3,193.4,35.3,193.4,35.3z"/>
	<path id="XMLID_710_" d="M196.1,33.3L196.1,33.3l0.1,0.1c0,0.1,0.1,0.1,0.2,0.2l0,0c0,0,0.1,0,0.1,0h0c0,0.2,0.2,0.2,0.3,0.2
		c0.1,0.2,0.2,0.2,0.4,0.3c0.1,0,0.3,0.1,0.3,0.3c0,0.1,0.1,0.2,0.2,0.3c0.3,0.4,0.7,0.7,1.1,0.7c0.2,0,0.3,0.1,0.5,0.2
		c0.2,0.1,0.5,0.2,0.7,0.2c0.5,0,0.9-0.3,1.1-0.7c0-0.3-0.3-0.5-0.5-0.7c-0.1,0-0.1,0-0.2,0c-0.1,0-0.1,0-0.2,0.1
		c0,0.1-0.1,0.1-0.2,0.1c-0.1,0-0.2-0.1-0.2-0.3c-0.1-0.3-0.2-0.5-0.4-0.7l-0.1-0.2c0-0.1-0.1-0.1-0.2-0.1h-0.1l-0.1-0.1l-0.2-0.2
		h-0.3h-0.5c-0.2-0.1-0.5-0.2-0.8-0.2c-0.2,0-0.5-0.1-0.7-0.2c-0.1-0.1-0.3-0.1-0.4-0.1c-0.2,0-0.4,0.1-0.5,0.5
		C195.7,33.1,195.9,33.2,196.1,33.3z"/>
	<path id="XMLID_709_" d="M85.9,57.1c-0.2-0.3-0.5-0.4-0.8-0.4c-0.2,0-0.4,0.1-0.5,0.2c0,0.1,0.1,0.2,0.2,0.4
		c0.2,0.2,0.2,0.5,0.1,0.7c0,0.1,0,0.1,0,0.2c0.1,0.1,0.4,0.2,0.6,0.2h0.1c0.1,0,0.2,0,0.3-0.1l0,0c0,0,0,0,0.1,0
		c0.1-0.1,0.1-0.2,0-0.3c0-0.1,0-0.3,0-0.4C85.9,57.3,85.9,57.2,85.9,57.1z"/>
	<path id="XMLID_708_" d="M163.8,64c-0.1,0-0.1-0.1-0.2-0.1c-0.1-0.1-0.3-0.2-0.4-0.2c-0.1,0-0.2,0.1-0.3,0.1
		c-0.3,0.2-0.4,0.5-0.3,0.8c0.1,0.3,0.3,0.5,0.6,0.5h0.1c0.3,0,0.3-0.2,0.4-0.4c0-0.1,0.1-0.2,0.2-0.3c0.1-0.1,0.1-0.2,0.1-0.3
		C163.9,64.1,163.9,64,163.8,64z"/>
	<path id="XMLID_707_" d="M51.6,15.8L51.6,15.8c0.1,0,0.1,0,0.2,0h0c0.1,0,0.2-0.1,0.2-0.1l0,0c0.1-0.1,0.1-0.1,0.2-0.2l0-0.1
		c0-0.1,0.1-0.1,0.1-0.2c0,0,0,0,0-0.1c0,0,0-0.1,0-0.1c0,0,0-0.1,0-0.1l0,0c-0.1-0.2-0.3-0.4-0.8-0.6c-0.3,0.2-0.5,0.5-0.4,0.9
		C51.2,15.4,51.2,15.8,51.6,15.8z"/>
	<path id="XMLID_706_" d="M167.3,30.5c0.1,0.1,0.3,0.2,0.4,0.3c0,0,0.1,0.1,0.2,0.1c0.1,0,0.1,0,0.2-0.1c0.1-0.1,0-0.3-0.1-0.4
		c-0.4-0.5-0.9-1-1.4-1.4h-0.3C166.4,29.6,166.8,30.2,167.3,30.5z"/>
	<path id="XMLID_705_" d="M164.9,69.3h-0.2c-0.3,0-0.6,0.1-0.7,0.4c0,0.1-0.1,0.1-0.1,0.2c0,0,0,0,0.1,0.1l0,0
		c0.1,0,0.1,0.1,0.2,0.1h0.1c0.2,0.2,0.4,0.3,0.7,0.3l0,0c0.4-0.1,0.6-0.3,0.6-0.6S165.2,69.3,164.9,69.3z"/>
	<path id="XMLID_704_" d="M66.7,38h0.1c0.3-0.1,0.8-0.2,0.8-0.6S67.4,37,67.1,37c-0.1,0-0.2,0-0.2,0h-0.2c-0.1,0-0.3,0-0.4,0.1
		c-0.1,0.1-0.1,0.2-0.1,0.4C66.3,37.8,66.5,38,66.7,38z"/>
	<path id="XMLID_703_" d="M124.8,65.3L124.8,65.3C124.8,65.3,124.8,65.4,124.8,65.3c0.2,0.1,0.4,0.1,0.5,0.2
		c0.2,0.1,0.4,0.2,0.7,0.2c0.1,0,0.3,0,0.4-0.1c0-0.1,0-0.1,0-0.2c0,0,0,0,0-0.1c0-0.1,0-0.1,0-0.2c0,0,0-0.1-0.1-0.1c0,0,0,0,0-0.1
		c-0.2-0.2-0.5-0.2-0.7-0.2c-0.2,0-0.3,0-0.5-0.1l-0.1,0.1C124.8,65,124.8,65.2,124.8,65.3C124.8,65.3,124.8,65.3,124.8,65.3z"/>
	<path id="XMLID_702_" d="M138.2,55.7c0.2,0.1,0.4,0.1,0.6,0.2c0.1,0,0.2-0.1,0.2-0.1l0,0c0.1-0.2,0.1-0.5,0.1-0.7
		c-0.3-0.3-0.8-0.3-1.1,0c-0.2,0.2-0.1,0.4,0,0.5C138.2,55.6,138.2,55.7,138.2,55.7z"/>
	<path id="XMLID_698_" d="M115.5,42.1c-0.1,0.1-0.2,0.2-0.3,0.3c-0.2,0.2-0.5,0.4-0.4,0.8c0,0.2,0.1,0.2,0.2,0.3
		c0.1,0.1,0.1,0.1,0.2,0.2h0.1c0.1,0.3,0.1,0.5-0.1,0.8c-0.1,0.2-0.2,0.5-0.1,0.8c0,0.1,0,0.1,0,0.2c0,0.3,0,0.5,0.2,0.7
		c0,0.1,0,0.2,0.1,0.3c0.2,0.3,0.4,0.6,0.7,0.6c0.2,0,0.3,0,0.5-0.1l0.3-0.1c0.3-0.2,0.7-0.2,1.1-0.3c0.1,0,0.2,0,0.3,0
		c0,0,0,0.1,0.1,0.1c0.1,0.1,0.1,0.2,0.1,0.2c-0.3,0.8,0.1,1.4,0.5,1.9c0.1,0.1,0.2,0.3,0.1,0.5c0,0.1,0,0.2,0,0.2
		c0.1,0.8,0,1.7-0.3,2.4c-0.2,0.6-0.3,1.2-0.4,1.8l0,0c0,0.1,0,0.2,0,0.3s-0.1,0.2-0.2,0.3c-0.4,0.4-0.6,1-0.4,1.6
		c0,0.4,0.3,0.8,0.7,0.9c0.1,0,0.1,0.1,0.2,0.1c0.2,0.1,0.4,0.2,0.5,0.4c0.1,0.2,0.3,0.4,0.6,0.4c0.3,0,0.6-0.2,0.8-0.5
		c0.3,0,0.6-0.1,0.8-0.1c0.3-0.1,0.6-0.1,0.9-0.1c0.4,0,0.7,0.1,1,0.3c0,0,0.1,0.1,0.2,0.1c0.1,0,0.2-0.1,0.3-0.2
		c0.1-0.2-0.1-0.3-0.2-0.3l-0.1,0c0-0.1,0-0.3-0.1-0.3c0,0-0.1-0.1-0.1-0.1c0-0.4-0.1-0.8-0.2-1.1c-0.2-0.5-0.2-1.1-0.1-1.7l0,0
		c0-0.1,0.1-0.2,0.1-0.2c0.3-0.6,0.6-1.2,0.2-1.9v-0.1c0-0.3,0-0.5-0.1-0.7c0-0.3,0-0.6,0-0.8c0-0.6,0.1-1.2,0.3-1.7
		c0.1-0.1,0.1-0.2,0-0.3c0,0,0,0,0,0l0,0l0,0h0v-1.6c0.1,0,0.1-0.1,0.1-0.2c0,0,0-0.1,0-0.1c0-0.1,0-0.3-0.2-0.3l0,0
		c0-0.2-0.1-0.3-0.2-0.5c-0.2-0.2-0.3-0.4-0.2-0.7c0.1-0.3,0.2-0.5,0.5-0.6c0.1-0.1,0.3-0.2,0.4-0.3c0,0,0.1-0.1,0.1-0.1l0,0
		c0.1-0.1,0.3-0.2,0.4-0.2c0.1,0,0.2-0.1,0.3-0.2h0.6c0.3,0,0.6,0.1,0.9,0.2l0,1.1c0.1,0.3-0.1,0.6-0.3,0.8
		c-0.2,0.2-0.4,0.5-0.4,0.8c-0.2,0.3-0.2,0.6-0.2,0.9c0,0,0,0,0,0.1c0,0.1,0,0.2,0.1,0.3l0,0.1c0,0,0,0.1,0.1,0.1
		c0.8,0.9,1.7,1.7,2.8,2.3c0.1,0.1,0.1,0.1,0.2,0.1c0,0,0.1,0,0.1,0c0.1,0,0.2,0.1,0.2,0.2c0,0.1,0,0.2-0.1,0.3
		c-0.2,0.2-0.2,0.5-0.2,0.7c-0.4,0.4-0.5,1.1-0.2,1.6c0,0.1,0,0.1,0.1,0.2c0.5,0.9,1.3,1,2.1,1c0.1,0.1,0.3,0.1,0.4,0.1
		c0.3,0,0.6-0.2,0.8-0.4c0.1-0.2,0.1-0.4-0.1-0.6c0,0-0.1,0-0.1-0.1c0-0.2,0-0.3,0-0.5c0.1-0.1,0.1-0.1,0.1-0.2l0-0.1
		c0.1,0,0.1,0,0.2,0c0.1,0,0.2,0,0.3-0.1l0,0l0,0h0.1c0.1,0,0.2,0,0.2,0c0.2,0,0.3-0.1,0.4-0.2l0.1,0l0,0l0,0c0.1,0,0.1,0,0.2,0
		c0.1,0,0.2,0,0.2-0.1c0.1,0.1,0.2,0.2,0.4,0.3c0.1,0,0.2,0.1,0.3,0.1l0.1,0l0.1,0h-0.1c-0.4,0.1-0.8,0.2-1,0.5l-0.3,0.2
		c-0.1,0-0.1,0-0.2,0.1c0,0-0.1,0.1-0.1,0.1l-0.2,0.2l-0.2,0.2c0.2,0.4,0.3,1,0.1,1.4c-0.1,0.1-0.2,0.2-0.3,0.3
		c-0.2,0.9,0,1.1,0.8,1.3h0.1c0.2,0,0.3,0,0.4,0.2l0,0.1c0,0.1,0.1,0.2,0.1,0.3c0,0.1,0,0.1,0.1,0.2v0.1c0,0.1,0.1,0.1,0.1,0.2
		c0,0,0.1,0.1,0.1,0.1c0,0,0.1,0.1,0.1,0.1c0,0,0.1,0.1,0.1,0.1c0.1,0,0.2,0.1,0.3,0.1h0.1c0,0,0.1,0,0.1,0h0.1c0.6,0,0.9-0.3,0.9-1
		c0-0.1,0-0.3,0.1-0.4c0-0.1,0-0.1,0-0.2h0.1l0.1,0c0.1,0,0.1,0,0.2,0c0.2,0,0.4-0.1,0.5-0.3c0.3-0.1,0.8-0.2,0.7-0.7
		c0-0.2-0.2-0.4-0.4-0.6l0,0c-0.1-0.1-0.2-0.1-0.4-0.1h-0.1c-0.4-0.2-0.4-0.5-0.2-0.9l0.1-0.1c0.1-0.2,0.1-0.3,0.3-0.3
		c0.1,0,0.2,0,0.3,0.1c0,0,0.1,0,0.1,0c0,0,0.1,0,0.1,0l0,0c0.1,0,0.1-0.1,0.2-0.2c0,0,0-0.1,0-0.1v0c0-0.1,0-0.1,0-0.2c0,0,0,0,0,0
		c0,0,0,0,0-0.1c-0.2-0.2-0.3-0.5-0.3-0.8c-0.1-0.6-0.3-1.2-1.2-1.2c0,0,0,0-0.1,0h0c-0.1-0.1-0.1-0.2-0.1-0.2c0-0.1,0-0.1-0.1-0.2
		c0.1-0.1,0.1-0.1,0.2-0.1c0,0,0.1,0,0.1,0.1c0.2,0.2,0.4,0.3,0.6,0.3c0.2,0,0.4-0.1,0.6-0.3c0.1-0.3,0.2-0.6,0.2-0.9
		c0-0.3-0.1-0.6-0.3-0.6h-0.1c-0.2,0-0.3,0.1-0.5,0.1c-0.3,0-0.5,0.1-0.7,0.2v0c0,0-0.1,0.1-0.1,0.1L135,49c0,0-0.1-0.1-0.1-0.1
		c-0.1,0-0.2,0-0.3,0.1c-0.1,0-0.1,0.1-0.2,0.1c0,0-0.1,0-0.1-0.1c0-0.1-0.1-0.1-0.1-0.2l0,0c-0.2-0.4-0.5-0.7-0.9-1
		c-0.5-0.5-1.1-1-1-1.9c0.1-0.1,0.2-0.2,0.4-0.2c0.2-0.1,0.4-0.2,0.5-0.4l0,0c0-0.1,0.1-0.1,0.1-0.2v0c0-0.1,0-0.1,0-0.2
		c0-0.2-0.1-0.3-0.3-0.4l-0.5-0.4c0-0.1,0-0.1,0-0.2c0,0,0,0,0,0c-0.1-0.3-0.2-0.6-0.5-0.9c-0.1-0.1-0.1-0.2-0.2-0.3
		c-0.1,0-0.1-0.1-0.2-0.2h0c-0.2-0.2-0.3-0.4-0.5-0.6c-0.1-0.2-0.2-0.4-0.4-0.5l-1-1.4c-0.1,0-0.1-0.1-0.2-0.1
		c-0.1-0.1-0.2-0.2-0.3-0.3c0-0.1-0.1-0.1-0.1-0.2c0.4-0.1,0.8-0.4,0.9-0.8c0.1-0.2,0.3-0.4,0.5-0.6l0.2,0h0.1
		c0.3,0,0.7-0.1,0.9-0.3c0.1-0.1,0.1-0.1,0.2-0.2l0,0c0.2-0.2,0.4-0.3,0.7-0.5c0.2-0.1,0.4-0.3,0.6-0.4c0.3,0,0.4-0.2,0.5-0.5
		c0-0.1,0-0.1,0-0.1c0.3-0.3,0.6-0.6,0.7-1c0.2-0.1,0.3-0.3,0.3-0.4h0.1c0.2-0.1,0.3-0.1,0.5-0.2l0.3-0.1h0.2l0.1,0.1
		c0.2,0.1,0.4,0.2,0.6,0.3c0.1,0.2,0.3,0.3,0.5,0.3c0,0,0.1,0,0.1,0h0.1c0.1,0,0.1,0,0.2-0.1l0.1-0.1c0,0,0.1,0,0.1-0.1
		c0-0.2,0-0.4,0.1-0.5c0.1-0.2,0.2-0.5,0.1-0.8c0.1-0.6-0.1-0.9-0.7-1.2c-0.3-0.1-0.5-0.2-0.8-0.1c-0.5,0-0.9,0.1-1.3,0.3
		c-0.3,0.1-0.6,0.2-1,0.2l-0.4,0.5c0,0-0.1,0-0.1,0h-1.9c-0.1,0-0.2,0-0.3,0.1c-0.1,0.1-0.1,0.2-0.1,0.3v0.1v0.1
		c-0.3,0.3-0.7,0.5-1.2,0.5c-0.5,0-0.9-0.3-1.2-0.7h-0.2c-0.1,0-0.1-0.1-0.2-0.1c-0.1,0-0.2,0.1-0.3,0.3l-0.2,0.2H128
		c-0.5,0.2-0.8,0.6-0.8,1.1c0,0.1,0,0.1,0,0.2c-0.1,0.1-0.2,0.2-0.3,0.2c-0.2,0.2-0.4,0.4-0.5,0.7c0,0.1-0.1,0.1-0.1,0.2
		c0,0.1,0,0.1,0,0.2c-0.1,0-0.2,0-0.4,0c-0.1,0-0.3,0-0.4,0c0-0.1-0.1-0.1-0.1-0.2c0,0-0.1,0-0.1,0l0,0l-0.1,0
		c-0.4-0.1-0.8-0.3-0.9-0.8c0-0.1-0.1-0.2-0.1-0.2c-0.1-0.1-0.2-0.3-0.2-0.5c0-0.1-0.1-0.1-0.1-0.2c0-0.1,0-0.1-0.1-0.2
		c0,0-0.1,0-0.1,0h-0.1l0,0c0-0.1,0-0.3-0.1-0.4c-0.2-0.1-0.4-0.2-0.6-0.3c-0.3-0.1-0.6-0.2-0.8-0.6c-0.5-1.5-0.7-3.3,0.7-4.9
		c0.3-0.3,0.6-0.5,1-0.4c0.2,0,0.3,0,0.5,0s0.3,0,0.4,0c0.1,0,0.1,0,0.2,0h0l0,0c0.1,0.2,0.3,0.3,0.6,0.3h0.2c0,0,0.1,0,0.1-0.1
		c0.1,0.1,0.2,0.1,0.3,0.1c0.2,0,0.3-0.1,0.4-0.2c0.1-0.1,0.2-0.1,0.3-0.2c0,0,0-0.1,0.1-0.1l0.3,0.1c0.2,0.1,0.5,0.2,0.7,0.2
		c0,0,0.1,0,0.1,0l0,0c0.1,0,0.3-0.1,0.4-0.2l0.2,0c0.1,0,0.2,0,0.4,0h0.3c0.1,0,0.1,0,0.2-0.1c0.2,0.1,0.4,0.2,0.6,0.2
		c0.1,0,0.2,0,0.3-0.1c0,0,0,0,0.1,0l0.1,0c0,0,0,0,0.1,0c0.1,0,0.2,0,0.3,0c0.2,0,0.3,0,0.5-0.1h0.2c0.1,0,0.2-0.1,0.2-0.2l1.6-0.1
		h1.2c0,0,0.1,0.1,0.1,0.1c0.1,0,0.2,0,0.4,0h0.4c0.2,0,0.3,0,0.5,0.1c0.2,0.1,0.3,0.2,0.4,0.3c0.1,0.2,0.4,0.4,0.6,0.4
		c0.1,0,0.1,0,0.2,0h0.2c0.3,0,0.5,0,0.8,0c0.3,0,0.6,0,0.9,0c0.5,0,1.1-0.1,1.6-0.3c0.1,0,0.2,0,0.3,0h0.2c0.2,0,0.4,0,0.6-0.1h0.2
		c0.1,0,0.1,0,0.2,0h0.1c0.1,0,0.1,0,0.1-0.1l0,0c0,0,0.1-0.1,0.1-0.1c0.6-0.3,1.1-0.8,1.4-1.4l0.1-0.1c0.1-0.3,0.4-0.6,0.7-0.8
		c0.9-0.5,1.3-1.4,1.6-2.3l0.1-0.2c0.2,0,0.5-0.1,0.6-0.3c0.1-0.2,0-0.5-0.1-0.8c0-0.1-0.1-0.2-0.1-0.3l-0.2-0.2
		c-0.2-0.2-0.5-0.3-0.8-0.4c-0.1,0-0.2,0-0.3,0.1l-0.2,0.3c-0.1,0.1-0.2,0.3-0.3,0.4c-0.3,0.4-0.7,0.7-1.2,0.8
		c-0.1,0-0.2,0.1-0.3,0.2c-0.2,0.3-0.5,0.6-0.8,0.9c-0.1,0.1-0.2,0.2-0.4,0.3c-0.5,0.5-1.2,0.9-1.9,1.1h-0.1c-0.2,0-0.4,0.1-0.6,0.1
		l0,0c-0.2,0-0.3,0-0.5,0h0c-0.6-0.1-1.1-0.3-1.6-0.5c-0.1-0.1-0.3-0.2-0.5-0.2c-0.1,0-0.3,0-0.4,0.1c-0.1,0-0.1,0.1-0.2,0.2l-1,0.4
		l-1.7-0.3c-0.2-0.2-0.4-0.2-0.6-0.2c-0.1,0-0.2,0-0.3,0h-0.1c-0.1-0.1-0.2-0.1-0.3-0.1c-0.1,0-0.3-0.1-0.3-0.2v0v0l0,0v0l0,0h-0.2
		c0,0,0-0.1,0-0.1c-0.3-0.2-0.7-0.3-1-0.4c-0.2,0-0.3,0-0.5,0.1c-0.2,0-0.5,0.1-0.7,0.1c-0.3,0-0.7-0.1-0.9-0.3
		c-0.1-0.1-0.2-0.1-0.2-0.2l0,0l0,0h-0.1c0,0,0-0.1,0-0.1h-0.3h-0.3c0,0-0.1,0-0.1,0c0,0,0,0-0.1,0c-0.4-0.2-0.9-0.4-1.4-0.3h-0.4
		h-0.4c-0.2,0.1-0.3,0.2-0.3,0.4c0,0.1,0,0.1,0,0.2l-0.1,0.7l-0.1,0.2l-0.4,0.3h-0.1c-0.2,0-0.3,0.1-0.3,0.3
		c-0.1,0.3-0.3,0.6-0.6,0.6h-0.1c-0.3-0.1-0.3-0.3-0.3-0.6c0-0.1,0-0.2,0-0.2c-0.1-0.1-0.3-0.2-0.5-0.2c-0.1,0-0.3,0.1-0.4,0.1
		c0,0,0,0-0.1,0h0c-0.3,0.1-0.2,0.3-0.2,0.6l0.1,0.1l-0.1,0.1c-0.2,0.1-0.4,0.3-0.6,0.5c-0.1,0-0.2,0.1-0.2,0.2l0,0.1
		c0,0.2-0.1,0.5-0.3,0.6c-0.1,0.1-0.2,0.2-0.3,0.4l-0.2,0.3c-0.3,0.4-0.6,0.9-0.4,1.4c0,0.1,0.1,0.1,0.1,0.2l0.1,0.1
		c0.1,0.1,0.1,0.1,0.2,0.2c-0.1,0-0.1,0.1-0.2,0.1c-0.1,0-0.2,0-0.2,0c-0.1,0-0.2,0-0.3,0c-0.2,0-0.3,0.1-0.4,0.3
		c-0.1,0.2-0.1,0.5,0.1,0.8c0,0.1,0.1,0.1,0.1,0.2c0.2,1,0.3,1.9-0.6,2.7c-0.1,0.1-0.1,0.2-0.1,0.3c0,0.1,0,0.2-0.1,0.3v0.4
		l-0.4,0.7c-0.9,0.9-1.1,2.2-0.5,3.3v0.3l0,0.4c-0.8,0.5-0.8,1.3-0.9,2.1c-0.1,0.1-0.1,0.1-0.1,0.2c-0.2,0.5-0.7,0.9-1.2,1
		L115.5,42.1z M134.7,34.4L134.7,34.4c-0.1,0-0.1,0-0.1-0.1C134.6,34.4,134.6,34.4,134.7,34.4L134.7,34.4z M137.6,33.3l0.1-0.1l0,0
		C137.6,33.2,137.6,33.2,137.6,33.3L137.6,33.3z"/>
	<path id="XMLID_697_" d="M168.8,35.7c0.1,0,0.2,0,0.3,0c0.2,0,0.5,0,0.7-0.2l0.1,0h0l0,0l-0.1-0.1c-0.1-0.3-0.3-0.5-0.6-0.5H169
		h-0.2c-0.2,0-0.3,0.1-0.4,0.4S168.6,35.7,168.8,35.7z"/>
	<path id="XMLID_696_" d="M124.5,64.7c0.1,0,0.2,0,0.2,0l0.3-0.4c0-0.2,0-0.4-0.1-0.5c-0.1-0.1-0.2-0.1-0.4-0.1l0,0
		c-0.1,0-0.3,0.1-0.4,0.1l0,0c0,0,0,0-0.1,0c-0.1,0.1-0.1,0.2-0.1,0.3C124.1,64.5,124.3,64.7,124.5,64.7z"/>
	<path id="XMLID_695_" d="M147.2,16.7C147.2,16.7,147.2,16.7,147.2,16.7L147.2,16.7c0.1,0.1,0.2,0.1,0.3,0.1h0.1
		c0.4,0,0.5-0.4,0.5-0.7c0-0.3-0.1-0.4-0.5-0.4c-0.1,0-0.2,0-0.3,0.1c0,0.1,0,0.2,0,0.3c0,0.1,0,0.2,0,0.3
		C147.2,16.6,147.1,16.6,147.2,16.7z"/>
	<path id="XMLID_694_" d="M169.5,68c-0.1-0.2-0.1-0.3-0.3-0.4c-0.2-0.2-0.4-0.3-0.7-0.3h-0.2c-0.1,0-0.3,0-0.4,0.1
		c-0.1,0.2-0.1,0.4-0.1,0.6c0,0.1,0,0.2,0,0.3c0.1,0.6,0.3,0.8,0.6,0.8c0.2,0,0.4-0.1,0.6-0.3h0.1c0.1,0,0.2,0,0.2-0.2l0.2-0.2
		c0.1-0.1,0.1-0.2,0-0.3c0,0,0,0,0,0C169.5,68.1,169.5,68,169.5,68z"/>
	<path id="XMLID_693_" d="M157.6,66h-0.2c-0.1,0-0.1,0-0.2,0c-0.1,0-0.3,0.1-0.3,0.2c0.1,0.1,0,0.2-0.1,0.4
		c-0.1,0.1-0.1,0.2-0.1,0.3c0,0.1,0.1,0.1,0.1,0.2c0.1,0.1,0.2,0.1,0.4,0.1c0.1,0,0.2,0,0.3-0.1c0.3-0.2,0.2-0.4,0.2-0.7
		C157.6,66.3,157.6,66.2,157.6,66z"/>
	<path id="XMLID_692_" d="M93.7,63.7c-0.1,0-0.2,0-0.3,0.1c-0.2,0.1-0.4,0.3-0.4,0.4c0,0.2,0.1,0.3,0.2,0.4c0,0,0.1,0,0.1,0h0.1
		c0,0,0.1,0,0.1,0c0.2,0,0.3-0.1,0.4-0.2c0,0,0-0.1,0.1-0.1v0c0-0.1,0-0.1,0.1-0.2l0,0l0,0C94.1,63.9,94,63.7,93.7,63.7z"/>
	<path id="XMLID_691_" d="M66.7,15.7L66.7,15.7c0.4-0.1,0.5-0.3,0.6-0.6c-0.1-0.2-0.2-0.4-0.4-0.4h-0.1c-0.3,0.1-0.5,0.3-0.5,0.6
		c0,0.1,0,0.2,0.1,0.3C66.5,15.7,66.6,15.7,66.7,15.7z"/>
	<path id="XMLID_690_" d="M122.9,60.7c0,0.1,0,0.2,0.2,0.4c0.1,0,0.1,0.1,0.2,0.2c0.1,0.1,0.2,0.2,0.3,0.2c0.1,0,0.2,0,0.2-0.1
		l0.1-0.8c0.5-0.9,0.4-1.2-0.2-3c-0.4,0.1-0.6,0.5-0.6,1c0,0.7,0,1.4,0.2,2C123,60.6,122.9,60.6,122.9,60.7z"/>
	<path id="XMLID_689_" d="M173.8,48.6c0.1,0,0.2,0,0.3-0.1c0.1-0.1,0.1-0.3,0.1-0.9c0.2-0.2,0.3-0.5,0.3-0.8
		c-0.1-0.2-0.3-0.5-0.5-0.6l-0.1-0.1c-0.1-0.1-0.1-0.1-0.2-0.2c-0.2-0.1-0.4-0.3-0.5-0.6c-0.5-1.2-1.1-1.7-2.4-1.7h-0.1
		c-0.5,0-1,0-1.4-0.2l-0.7-0.2c-0.1-0.1-0.2-0.2-0.4-0.2c-0.1,0-0.2,0-0.3-0.1c0-0.1,0-0.1,0-0.2c-0.2-0.1-0.4-0.1-0.5-0.2
		c-0.2,0-0.4,0.1-0.5,0.3l-0.3,0.4c-0.1,0-0.2,0.1-0.2,0.1c-0.1,0.1-0.2,0.1-0.3,0.1c-0.1,0-0.1,0-0.1-0.1c-0.5-0.4-1-0.6-1.6-0.5
		c-0.2,0-0.4,0-0.5,0c-0.2,0-0.4,0-0.5,0h-0.3c-0.2,0-0.4,0-0.6,0c-0.9-0.1-1.7,0.4-2,1.2c-0.1,0.1-0.1,0.2-0.3,0.2l-0.1,0.1
		l-1.5,0.5c-0.4,0.1-0.6,0.1-0.7,0.3c-0.1,0.1,0,0.3,0.2,0.6c0.1,0,0.2,0.1,0.4,0.1c0.1,0.1,0.2,0.1,0.4,0.1c0.2,0,0.3-0.2,0.4-0.6
		c0.1,0,0.3-0.1,0.4,0h0.2c0.2,0,0.2,0.2,0.2,0.3c0,0,0,0.1,0,0.1c0,0.2,0,0.3,0,0.5c0,0.4,0,0.7,0.1,1.1c0,0.2,0,0.3,0.1,0.4
		c0,0,0.1,0.1,0.2,0.1c0.1,0,0.1,0,0.2,0c0.1,0,0.2-0.1,0.3-0.1c0.1,0,0.2,0,0.4,0.1h0.1c0.3,0,0.7-0.1,0.9-0.3
		c0.2-0.1,0.4-0.2,0.7-0.3c0.1,0,0.1,0,0.2-0.1h0.1l0.3,0h0.1h0.2h0.2c0.2,0,0.4-0.1,0.4-0.3c0.1-0.3-0.1-0.7-0.4-0.9
		c0,0,0-0.1,0-0.1c0,0,0-0.1,0-0.1l0.6-0.3l0.6-0.3l0.2,0.2c0,0.2,0,0.4,0.2,0.4l0.5,0.1c0.4,0.1,0.8,0.2,1.3,0.2c0.1,0,0.2,0,0.2,0
		c0.3,0,0.7-0.1,0.9-0.4c0.2-0.2,0.4-0.3,0.6-0.3c0.3,0,0.6,0.2,0.8,0.5c0.4,0.5,1,0.8,1.7,0.8h0.1l2.4,1.4L173.8,48.6z"/>
	<path id="XMLID_688_" d="M12.9,23.6c-0.4-0.1-0.7-0.4-0.9-0.8c-0.1-0.2-0.3-0.4-0.6-0.6l0,0c-0.1-0.1-0.3-0.1-0.4-0.1
		c-0.3,0-0.6,0.1-0.8,0.3c-0.1,0.1-0.3,0.2-0.5,0.2H9.6c-0.1,0.1-0.1,0.3-0.1,0.4c0.1,0.2,0.3,0.3,0.5,0.4c0.1,0.1,0.1,0.1,0.2,0.2
		l0,0c0.2,0.2,0.3,0.5,0.4,0.7c0.1,0.3,0.3,0.5,0.5,0.7c0.3,0.4,0.6,0.9,0.8,1.4c0.1,0.3,0.4,0.5,0.7,0.5c0.1,0,0.2,0,0.3,0
		c0.4,0,0.7-0.4,0.7-0.8c0,0,0,0,0,0v-0.1c0-0.2,0-0.5,0.1-0.7C13.9,24.6,13.6,23.8,12.9,23.6z"/>
	<path id="XMLID_687_" d="M6.6,17.2L6.5,17c0,0-0.1-0.1-0.1-0.1l-0.1-0.1c-0.1-0.1-0.2-0.2-0.3-0.3l0,0c-0.3-0.2-0.6-0.3-0.9-0.4
		L4.9,16c-0.1-0.1-0.2-0.1-0.3-0.2c-0.3-0.1-0.6-0.3-0.6-0.7c-0.1-0.2-0.3-0.3-0.6-0.3c-0.3,0-0.6,0.2-0.7,0.4
		c-0.2,0.2-0.3,0.4-0.3,0.7c0,0.3,0.2,0.5,0.4,0.7c0.3,0.3,0.6,0.5,1,0.6c0.4,0.1,0.8,0.3,1.1,0.5l0,0c0.1,0.1,0.2,0.2,0.4,0.3
		L5.4,18c0.1,0.1,0.1,0.1,0.1,0.2c0.1,0.2,0.4,0.3,0.6,0.4l0,0c0.1,0,0.2,0,0.3-0.1c0.3-0.1,0.3-0.4,0.3-0.7c0-0.1,0-0.1,0-0.2
		C6.7,17.4,6.7,17.3,6.6,17.2L6.6,17.2z"/>
	<path id="XMLID_686_" d="M26,45C26,44.9,26,44.9,26,45c0.3-0.3,0.3-0.7,0.1-0.9c0,0,0,0,0,0L26,43.9c-0.1-0.3-0.4-0.6-0.6-0.7
		L25,42.6c-0.1-0.1-0.1-0.2-0.1-0.3c0-0.1,0-0.2-0.1-0.3c-0.1,0-0.2-0.1-0.2-0.2c-0.1-0.1-0.2-0.1-0.3-0.2l-0.1-0.1
		c-0.1-0.1-0.3-0.2-0.5-0.2c-0.1,0-0.2,0-0.3,0.1c-0.4,0.3-0.2,0.8,0,1.1c0.1,0.5,0.5,1,0.9,1.3c0.4,0.3,0.7,0.7,0.8,1.2
		c0.1,0.1,0.1,0.3,0.2,0.4c0.1,0.2,0.2,0.3,0.4,0.3c0.1,0,0.1,0,0.2,0c0.1,0,0.2-0.1,0.2-0.1s-0.1-0.2-0.2-0.3
		c-0.1-0.1-0.1-0.1-0.1-0.2S25.9,45,26,45z"/>
	<path id="XMLID_685_" d="M23.2,40.8c-0.1-0.1-0.1-0.2-0.1-0.2c-0.1-0.1-0.1-0.2-0.2-0.3c-0.1-0.2-0.3-0.4-0.4-0.6
		c-0.2-0.2-0.5-0.4-0.8-0.4c-0.1,0-0.2,0-0.3,0.1c-0.3,0.1-0.3,0.4-0.2,0.7c0,0.1,0,0.2,0,0.2c0,0.2,0.2,0.3,0.4,0.3
		c0.1,0,0.2,0.1,0.3,0.1l0,0l0,0l0,0c0.1,0,0.3,0.1,0.4,0.2c0.1,0.1,0.1,0.1,0.2,0.2c0.1,0,0.1,0,0.1,0.1c0.1,0.1,0.2,0.1,0.3,0.1
		c0.1,0,0.1,0,0.2-0.1C23.3,41.1,23.3,40.9,23.2,40.8z"/>
	<path id="XMLID_684_" d="M34.4,55.2L34.4,55.2c-0.1,0-0.1,0-0.2,0h-0.1c0,0-0.1,0-0.1,0c-0.1,0-0.2,0.1-0.2,0.2
		c-0.1,0.2,0.1,0.3,0.3,0.5l0.1,0.1l0.2,0.2c0.1,0.1,0.3,0.2,0.4,0.3l0.1,0.1c0.1,0.1,0.2,0.2,0.3,0.2c0.1,0,0.2-0.1,0.3-0.1
		c0.3-0.2,0.3-0.6,0-0.9c0,0,0,0,0,0C35.2,55.3,34.8,55.1,34.4,55.2z"/>
	<path id="XMLID_683_" d="M16.3,28.7c0.1,0.3,0.4,0.5,0.7,0.5h0.1h0.8h0.4l0,0c0.1-0.7-0.4-0.8-0.8-0.8c-0.1,0-0.3,0-0.4-0.1l-0.5,0
		C16.4,28.4,16.3,28.6,16.3,28.7z"/>
	<path id="XMLID_682_" d="M10.5,19.8L10.5,19.8c0.3-0.1,0.3-0.3,0.4-0.5c0,0,0-0.1,0-0.1c0-0.5-0.3-0.8-0.7-0.8H9.8
		c-0.2,0-0.3,0-0.3,0.3c0.1,0.3,0.3,0.5,0.5,0.7C10.1,19.5,10.3,19.8,10.5,19.8z"/>
	<path id="XMLID_681_" d="M20.3,37.2L20,36.8l-0.1-0.1v-0.2l-0.4-0.8c0,0,0-0.1,0-0.1c0,0-0.1,0-0.1,0l0,0c-0.1-0.1-0.1-0.2-0.1-0.4
		c0,0,0,0-0.1,0H19l0,0c0.1-0.4-0.2-0.7-0.5-0.9c0-0.1,0-0.3-0.1-0.4c0,0-0.1-0.1-0.1-0.1h-0.1c-0.1,0-0.3,0.1-0.4,0.2
		c-0.1,0.1-0.2,0.2-0.4,0.2l0,0c-0.4,0-0.6,0.2-0.7,0.7l-0.2,0.3c-0.1,0.2-0.1,0.4,0,0.5l0.2,0.2c0,0.2,0.1,0.5,0.3,0.6
		c0.1,0,0.1,0.1,0.2,0.1l0.1,0.3c0,0.3,0,0.7,0.4,0.8v0.1v0.1l1.2,0.6c0,0,0,0.1,0,0.1c0.1,0.1,0.2,0.2,0.4,0.2
		c0.2,0,0.3-0.1,0.4-0.3l0.3-0.3c0.5-0.1,0.4-0.4,0.3-0.7C20.4,37.4,20.3,37.3,20.3,37.2z"/>
	<path id="XMLID_680_" d="M16.8,21.3c-0.1,0-0.1-0.1-0.2-0.1h-0.1c-0.1,0-0.2,0-0.3,0c-0.1,0-0.2,0-0.3,0.1
		c-0.2,0.2-0.2,0.4-0.1,0.5c0,0,0,0,0,0l0,0c0.1,0.1,0.2,0.1,0.3,0.1h0.1c0.2,0,0.3,0,0.5,0h0.2C17,21.4,16.9,21.4,16.8,21.3z"/>
	<path id="XMLID_679_" d="M16.6,32.3c0.1-0.1,0.3-0.3,0.2-0.5v-0.1c0.1-0.3,0-0.7-0.1-1c0-0.5-0.2-0.9-0.5-1.2
		c-0.1-0.1-0.3-0.2-0.4-0.2c-0.2,0-0.3,0-0.4,0.1c-0.1,0-0.1,0.1-0.1,0.1c0,0.1,0,0.1,0.1,0.2c0.1,0.1,0.1,0.1,0.1,0.2l0,0l0,0l0,0
		h0.1c0.1,0,0.2,0,0.2,0.2c0,0.1,0,0.2,0,0.2c0,0.1,0,0.2,0,0.3c0,0.1-0.1,0.2-0.1,0.4c-0.1,0.3-0.1,0.6-0.1,0.8
		c0,0.1,0,0.2,0.1,0.3l0,0c0,0,0,0.1,0,0.1c0.1,0.1,0.2,0.1,0.3,0.1c0.1,0,0.2,0,0.2,0c0.1,0,0.2,0,0.2,0c0.1,0,0.1,0,0.2,0l0.2,0
		C16.6,32.4,16.6,32.4,16.6,32.3z"/>
	<path id="XMLID_678_" d="M148.6,69.3c-0.4,0-0.7,0.3-0.7,0.6c0,0.1,0,0.2,0,0.3l0,0c0,0,0,0,0,0.1c0,0.1,0.1,0.1,0.2,0.1h0
		c0.4,0,0.7-0.3,0.8-0.7c0-0.1,0-0.2-0.1-0.3C148.7,69.3,148.6,69.2,148.6,69.3L148.6,69.3z"/>
	<path id="XMLID_677_" d="M130.6,54c0,0-0.1,0-0.1,0c-0.1,0-0.3,0.1-0.4,0.2c-0.1,0.1-0.1,0.1-0.2,0.2l0,0.3c-0.2,0.3-0.2,0.6,0,0.9
		l0.5,0.7c0.1,0.2,0.3,0.4,0.5,0.5l0,0c0-0.1,0.1-0.1,0.1-0.1c0,0,0.1-0.1,0.1-0.2c0-0.2,0-0.5,0.1-0.7c0.1-0.3,0-0.6-0.1-0.9
		C131.2,54.5,131.1,54.1,130.6,54z"/>
	<path id="XMLID_676_" d="M105,71.9c0.2-0.2,0.2-0.4,0.2-0.6c0.1,0,0.1-0.1,0.1-0.1c0.2-0.2,0.2-0.5,0.2-0.7
		c-0.1-0.2-0.3-0.4-0.7-0.6c-0.4-0.2-0.8-0.3-1.2-0.3c-0.3,0-0.5,0.1-0.8,0.2c-0.4,0.1-0.7,0.3-0.8,0.7l-0.2,0.2l0,0.1l0,0l0,0h0.1
		c-0.1,0.1-0.1,0.3-0.1,0.4v0.1c0,0.1,0,0.3,0,0.4c-0.2,0.4-0.5,0.7-1,0.8c0,0.2,0.1,0.5,0.3,0.5c0.3,0.2,0.6,0.4,0.9,0.3h0.2
		c0.5,0,1.1,0,1.6,0h0.6h0.2C104.6,72.8,104.7,72.3,105,71.9z"/>
	<path id="XMLID_675_" d="M124.7,77.8l-0.5-0.4l-0.1-0.1c-0.1-0.2-0.4-0.3-0.6-0.4c-0.2-0.2-0.5-0.4-0.8-0.5l-0.2-0.1l-0.2-0.2
		c-0.5-0.6-1-1.2-1.5-1.2c-0.1,0-0.1,0-0.2,0c-0.6,0.1-1.1,0.2-1.7,0.2c-0.8,0-1.7,0.1-2.5,0.4c-0.4,0.3-0.7,0.5-0.7,0.8
		c0,0.2,0.2,0.6,0.6,1c0.3,0.2,0.6,0.3,0.9,0.3c0.1,0,0.3,0,0.4,0s0.3,0,0.4,0c0.1,0,0.2,0,0.3,0c0.1,0,0.1,0,0.2,0h0.2
		c0.3,0,0.5,0.1,0.6,0.4c0,0,0,0,0,0c0.4,0.4,0.9,0.7,1.4,0.9c0,0.1,0.1,0.3,0.2,0.3c0.1,0.5,0.5,0.7,0.9,0.8l0.3,0.1h0.1l0.1,0
		c0.1,0.1,0.2,0.1,0.3,0.1c0.1,0,0.2,0,0.2-0.1c0.1,0.1,0.2,0.1,0.3,0.1l0,0l0.6-0.2l0.1-0.1c0.1,0,0.1-0.1,0.2-0.1
		c0.9-0.3,1.3-0.5,1.4-0.8c0,0,0-0.1,0-0.1c0,0,0,0,0,0C125.4,78.7,125.2,78.3,124.7,77.8z"/>
	<path id="XMLID_674_" d="M130.5,80.4c-0.1,0-0.1,0-0.2,0l-0.1,0.1c-0.1,0.1-0.1,0.1-0.2,0.2c-0.1,0.1-0.2,0.2-0.4,0.3
		c-0.2,0.1-0.3,0.2-0.4,0.3c0,0.1,0,0.2,0.1,0.3c0.1,0.2,0.3,0.3,0.5,0.3c0.2,0,0.3,0,0.5-0.1l0.2,0l0.1,0l0.2-0.1
		c0.2-0.1,0.5-0.2,0.5-0.5C131.2,80.6,130.9,80.4,130.5,80.4z"/>
</g>
</svg>
