<?xml version="1.0" encoding="utf-8"?>
<!-- Generator: Adobe Illustrator 19.0.0, SVG Export Plug-In . SVG Version: 6.00 Build 0)  -->
<svg version="1.1" id="Layer_1" xmlns="http://www.w3.org/2000/svg" xmlns:xlink="http://www.w3.org/1999/xlink" x="0px" y="0px"
	 viewBox="0 0 28 28" style="enable-background:new 0 0 28 28;" xml:space="preserve">
<style type="text/css">
	.st0{fill:#010101;}
	.st1{fill:#EFEEEE;}
	.st2{fill:#020202;}
	.st3{fill:#040404;}
	.st4{fill:#030303;}
	.st5{fill:#060606;}
	.st6{fill:#0C0C0C;}
	.st7{fill:#0E0E0E;}
	.st8{fill:#0A0A0A;}
	.st9{fill:#0B0B0B;}
	.st10{fill:#1A1A1A;}
	.st11{fill:#111111;}
	.st12{fill:#070707;}
	.st13{fill:#080808;}
	.st14{fill:#090909;}
	.st15{fill:#101010;}
	.st16{fill:#191819;}
	.st17{fill:#0D0D0D;}
	.st18{fill:#121212;}
	.st19{fill:#131313;}
	.st20{fill:#181818;}
	.st21{fill:#1F1F1F;}
	.st22{fill:#0E0E0F;}
	.st23{fill:#161616;}
</style>
<g id="XMLID_318_">
	<path id="XMLID_670_" class="st0" d="M28,9.8c0,1.5,0,3,0,4.5c-0.3,0.2-0.5,0.5-0.7,0.7c-0.3,0.4-0.6,0.7-1,1
		c-0.5,0.4-0.5,0.9,0,1.2c0.3,0.1,0.3,0.3,0.3,0.6c0,0.3-0.2,0.4-0.5,0.4c-0.3,0-0.5,0-0.8,0c-0.3,0-0.5-0.2-0.5-0.5
		c0-0.3,0-0.5,0-0.8c0-0.5-0.1-0.9-0.6-1.1c-0.2-0.2-0.2-0.5-0.1-0.7c0.3-0.3,0.6-0.2,0.9-0.2c0.2,0,0.4,0,0.4-0.2
		c0-0.2-0.1-0.2-0.2-0.3c-0.2-0.1-0.4-0.2-0.4-0.4c0-0.3,0.2-0.5,0.5-0.5c0.3,0,0.6,0,0.9,0c0.1,0,0.2,0.1,0.3,0
		c-0.1,0-0.2,0-0.2-0.1C26.3,13,26,13,25.7,13c-0.3,0-0.7,0.1-0.8-0.3c-0.1-0.4-0.1-0.8,0-1.2c0.5-0.3,0.7-0.3,1,0.2
		c0.1,0.1,0.1,0.2,0.2,0.2c0.2,0,0.2-0.2,0.2-0.3c0.1-0.6-0.1-0.7-0.6-0.8c-0.4,0-0.9,0-0.8-0.7c0-0.1,0.1-0.2,0.1-0.3
		c-0.1,0-0.1,0.1-0.2,0.1c-0.4,0.1-0.9,0-1.3,0.2c-0.2,0-0.3,0.1-0.4,0.2c0.1,0,0.2-0.1,0.3-0.1c0.1,0.1,0.1,0.2,0.2,0.3
		c0.2,0.1,0.4,0,0.6,0.2c0,0,0.1,0.1,0.1,0.2c0,0.2,0,0.4-0.1,0.5c-0.2,0.1-0.5,0.1-0.5,0.1c0,0.5-0.4,0.7-0.8,0.9
		c-0.1,0,0.1,0.2,0.1,0.2c0.7,0.4,0.7,0.7,0,1.1c-0.1,0-0.1,0.1-0.1,0.1c-0.1,0.4-0.4,0.6-0.9,0.6c-0.4,0-0.9,0-1.3-0.1
		c-0.1,0-0.2-0.1-0.2-0.2c0.1-0.8-0.3-1.6-0.1-2.4c0.1-0.2,0.1-0.4-0.2-0.4c-0.7-0.1-0.8-0.2-0.6-0.9c0.1-0.2,0.6-0.1,0.6-0.4
		c0-0.5,0.1-0.9,0-1.4c-0.1-0.2-0.3-0.2-0.5-0.3c-0.2-0.3-0.2-0.5-0.1-0.8c0.4-0.3,0.8-0.1,1.3-0.2c0.3,0,0.6,0.1,0.8-0.2
		C21.6,7,21.4,7,21.3,6.9C21.1,6.7,21,6.5,21,6.3C21.1,6,21.3,6,21.5,6C22.7,6,23.8,5.8,25,6c0.1,0.1,0.2,0.1,0.2,0.3
		c0,0.1,0,0.3,0,0.4c0,0.1-0.1,0.2-0.2,0.2C24.8,7,24.5,7,24.5,7.2c0,0.3,0.3,0.2,0.5,0.3c0.1,0,0.1,0.1,0.1,0.1
		c0.1,0.4,0.3,0.6,0.7,0.5c0.2,0,0.4,0,0.5,0c0.1,0,0.1,0,0.2,0.1c0,0,0.1,0.1,0.1,0.2c0,0,0,0.1,0,0.1c0.1,0.9,0.1,0.9,1,1.1
		C27.8,9.7,27.9,9.7,28,9.8z"/>
	<path id="XMLID_669_" class="st0" d="M28,22c0,0.5,0,0.9,0,1.4c-0.1,0.1-0.2,0.1-0.2,0c-0.1-0.1,0-0.4-0.3-0.3c-0.1,0-0.1,0.1,0,0
		c0,0,0.1,0,0.1,0c0.1,0.1,0.1,0.2,0.1,0.3c-0.1,0.1-0.2,0.2-0.2,0.3c0,0.2,0,0.4-0.1,0.5c-0.1,0.1-0.1,0.1-0.2,0.2
		c-0.2,0.1-0.4,0.1-0.7,0.1c-0.2,0-0.4,0-0.5,0.3c-0.1,0.4-0.4,0.4-0.8,0.4c-0.6,0-1.1,0-1.7,0c-0.3,0-0.5,0-0.6,0.4
		c-0.1,0.3-0.4,0.3-0.6,0.4c-0.1,0.3,0,0.6-0.1,0.9c0,0.3-0.2,0.5-0.5,0.5c-0.3,0-0.5-0.2-0.5-0.5c-0.1-0.4,0-0.7,0-1.1
		c0-0.2,0-0.5-0.3-0.6c-0.3-0.1-0.6-0.1-0.8,0.2c-0.1,0.1-0.2,0.3-0.3,0.4c-0.4,0.2-0.8,0.1-1.2,0.1c-0.1,0.4,0,0.8-0.1,1.2
		c0,0.1-0.1,0.1-0.1,0.2c-0.2,0.1-0.5,0.1-0.7,0c-0.1,0-0.1-0.1-0.1-0.1c-0.1-0.3-0.2-0.4-0.5-0.6c-0.4-0.2-0.4-0.7,0-1
		c0.4-0.2,0.5-0.3,0-0.5c-0.3-0.1-0.4-0.4-0.3-0.7c0.1-0.3,0.4-0.3,0.6-0.4c0.1-0.1,0.1-0.2,0-0.4c-0.2-0.2-0.4-0.1-0.6-0.3
		c-0.1-0.2-0.1-0.3-0.2-0.5c-0.1-0.1-0.2-0.1-0.3-0.1c-0.2-0.1-0.3-0.3-0.3-0.5c0-0.2,0.2-0.3,0.4-0.3c0.4,0,0.7-0.1,1.1,0.1
		c0.2,0.1,0.2,0.3,0.3,0.5c0,0.2,0.3,0.2,0.4,0.3c0.1,0.2,0.5,0.3,0.1,0.5c0.1,0.1,0.1,0.2,0.2,0.3c0,0.5,0.3,0.6,0.7,0.6
		c0.4,0,0.5-0.3,0.5-0.6c0-0.3,0-0.5,0.2-0.7c0.2-0.1,0.5-0.1,0.7,0c0.2,0.2,0.2,0.5,0.2,0.7c0,0.2,0,0.5,0.2,0.5
		c0.3,0,0.2-0.4,0.2-0.6c0-0.1,0-0.3,0-0.4c0.1-0.6-0.1-1-0.6-1.2c-0.1-0.3-0.1-0.6,0.2-0.8c0.7-0.2,1.4-0.1,2.1-0.1
		c0.5,0,0.7-0.2,0.7-0.7c0-1.5,0-1.5,1.6-1.5c0.2,0,0.4,0,0.6,0.1c0.4,0.5,0.3,1.1,0.1,1.6c-0.4,0.2-0.7,0.1-0.8-0.3
		c0-0.1-0.1-0.2-0.2-0.2c-0.2,0-0.2,0.2-0.2,0.3c0,0.3-0.1,0.6,0.2,0.7c0.3,0.1,0.8,0.2,0.9-0.3c0-0.1,0.1-0.2,0.2-0.3
		c0.7-0.1,0.8,0,0.8,0.7c0,0.3,0,0.5-0.1,0.8c-0.1,0.3-0.4,0.3-0.7,0.3c-0.1,0.1-0.1,0.2-0.2,0.3c0,0.3-0.1,0.5,0,0.8
		c0,0,0.1,0.1,0.1,0.1c0.4,0.1,0.4-0.2,0.5-0.4c0.4-0.3-0.1-0.5,0-0.8C26.9,21.7,27.4,21.8,28,22z"/>
	<path id="XMLID_668_" class="st0" d="M8.3,0c0.2,0,0.5,0,0.7,0c0.1,0.1,0.3,0.1,0.4,0.2c0.1,0.1,0.3,0,0.4,0.1
		c0.1,0.3,0.5,0.3,0.7,0.4c0,0,0.1,0.1,0.1,0.2c0.1,0.2,0.1,0.4,0.1,0.7c0,0.3,0.1,0.5,0.4,0.6c0.2,0,0.3,0.1,0.3,0.3
		c0,0.4,0.3,0.5,0.6,0.6c0.1,0.1,0.1,0.4,0.3,0.5c0.3,0.2,0.6,0.1,0.8,0.1c0.2,0,0.5,0.1,0.5,0.4c0,0.3-0.1,0.4-0.3,0.5
		C13.2,4.7,13,4.8,13,5c-0.1,0.4-0.5,0.5-0.8,0.3c-0.2-0.1-0.2-0.3-0.3-0.5c-0.1-0.2-0.4-0.2-0.6-0.3c-0.1-0.1-0.1-0.3-0.2-0.5
		c-0.1-0.2-0.4-0.1-0.6-0.3c-0.1-0.2-0.2-0.5-0.5-0.6C9.9,3.1,9.7,3,9.7,2.8C9.5,2.3,9.2,2.4,8.8,2.5c-0.1,0-0.2,0.1-0.2,0.2
		c0,0.1,0.1,0.2,0.2,0.3c0.6,0.4,0.7,0.9,0.3,1.6c-0.2,0.1-0.5,0.1-0.7,0C8.1,4.3,8.1,3.8,7.5,3.9C7.2,4,7,4,7,4.4
		c0,0.5,0,0.9,0,1.4C7.1,6,7.4,5.9,7.5,6c0,0,0.1,0.1,0.2,0c0,0-0.1,0-0.1-0.1C7.5,5.9,7.5,5.9,7.5,5.8c0-0.4-0.1-0.8,0.1-1.2
		C7.8,4.4,8,4.4,8.2,4.5c0,0,0.1,0,0.1,0.1c0.4,0.6,0.4,0.6,0.9,0.1c0.3-0.1,0.5,0,0.7,0.2C9.9,4.9,10,5,10,5.1
		c0.2,0.2,0.3,0.2,0.4-0.1c0.1-0.2,0-0.4,0.2-0.5c0.2-0.1,0.5-0.1,0.7,0c0.2,0.1,0.2,0.3,0.3,0.5c0.1,0.2,0.4,0.1,0.6,0.3
		c0.1,0.2,0.1,0.4,0,0.6c-0.1,0.2-0.5,0.1-0.6,0.4c-0.1,0.2-0.1,0.4-0.2,0.6c-0.9,0.3-1.1,0.2-1.7-0.5C9.4,6.1,9.1,6.2,8.8,6.2
		c-0.2,0-0.3,0.2-0.3,0.3c0,0.3-0.1,0.7,0.3,0.9c0.4,0.2,0.5,0.4,0.4,0.8C9,8.5,8.7,8.5,8.5,8.5c-0.2,0-0.5,0-0.7,0.2
		c0.6,0.3,1.3,0,1.9,0.2c0.1,0,0.1,0.1,0.2,0.2c0.2,0.9,0.1,1.7,0.1,2.6c0,0.5-0.4,0.6-0.8,0.5c-0.3-0.2-0.3-0.6-0.3-0.9
		C8.9,9.9,9,10,7.7,10c-0.3,0-0.5,0-0.8,0C6.2,9.8,6.7,9.4,6.7,9c0-0.4-0.2-0.5-0.6-0.5c-0.5,0-1,0.1-1.5-0.2
		c-0.2-0.5-0.1-0.8,0.4-1c0,0,0.1,0,0.1-0.1c0.5-0.7,0.5-0.7,1.2-0.1c0.1,0.1,0.2,0.1,0.3,0c0.1-0.1,0-0.2-0.1-0.2
		c-0.5-0.2-0.5-0.6-0.5-1c0-0.8,0-1.6,0-2.4c0-0.5,0.2-0.7,0.7-0.7c0.8,0,0.8,0,0.8-0.9C7.3,1.8,7.1,1.7,6.9,1.7
		C5.9,1.5,5.6,1,6.1,0c0.2,0,0.5,0,0.7,0c0.2,0.4,0.5,0.6,1,0.6c0.2,0,0.4,0,0.5,0.2c0.2,0.2,0.2,0.4,0.2,0.6
		c0.1,0.2-0.2,0.3-0.1,0.4c0.1,0,0-0.3,0.3-0.3c0.1,0,0.1-0.1,0.2-0.1C9,1.2,8.9,1,8.9,0.8C8.8,0.4,8.7,1,8.6,0.8
		c-0.1,0-0.2,0-0.3-0.1C8.1,0.5,8.2,0.2,8.3,0z"/>
	<path id="XMLID_667_" class="st1" d="M25.6,19c-0.6,0-1.2,0-1.8,0c-0.3,0-0.4,0.1-0.4,0.3c0,0.5,0,1,0,1.5c0,0.3-0.1,0.4-0.4,0.4
		c-0.9,0-1.7,0-2.6,0c0-0.3-0.1-0.7,0.4-0.8c0,0,0-0.1,0-0.2c0-0.2,0-0.5,0.2-0.6c0.7-0.5,1.5-1,1.3-2.1c0-0.3,0-0.6,0.1-0.8
		c0.2-0.2,0.4-0.2,0.7-0.2c0.3,0.1,0.3,0.3,0.4,0.5c0.1,0.3-0.1,0.7,0.2,0.9c0.2,0.1,0.4,0.2,0.6,0.2c-0.1-0.1-0.3-0.1-0.3-0.3
		c-0.1-0.6-0.1-1.3,0-1.9c0,0,0-0.1,0.1-0.1c0.6-0.2,0.9,0,0.8,0.6c0,0.2,0,0.4,0,0.6c0,1.1,0,1.1,1.2,1c0.3,0,0.3-0.1,0.3-0.3
		c0-0.2,0-0.4-0.3-0.4c-0.5,0.1-0.5-0.2-0.5-0.5c0-0.2-0.1-0.6,0-0.7c0.4-0.3,0.7-0.7,1-1c0.2-0.2,0.5-0.2,0.5-0.6
		c0-0.5,0.5-0.1,0.7-0.3c0,0.8,0,1.6,0,2.4c-0.2,0.2-0.4,0.2-0.6,0.2c-0.1,0-0.3,0-0.3,0.2c0,0.2,0.1,0.2,0.3,0.2
		c0.2,0,0.4,0,0.6,0.2c0,0.2,0,0.5,0,0.7c-0.1,0.1-0.1,0.1-0.2,0.1c-0.1,0-0.3,0.1-0.3,0.2c0,0.2,0.2,0.2,0.3,0.2
		c0.1,0,0.1,0.1,0.2,0.1c0,0.5,0,1,0,1.5c-0.1,0.1-0.1,0.1-0.2,0.1c-0.1,0-0.3,0.1-0.3,0.2c0,0.2,0.2,0.2,0.3,0.2
		c0.1,0,0.1,0.1,0.2,0.1c0,0.2,0,0.5,0,0.7c-0.5,0.1-1,0.1-1.5,0c0-0.2-0.1-0.5,0-0.7c0.1-0.6-0.2-0.8-0.7-0.8c0,0,0-0.1,0-0.1
		C25.6,19.9,25.7,19.4,25.6,19z"/>
	<path id="XMLID_666_" class="st1" d="M25,6.4c0-0.1,0-0.2,0-0.2c-0.9-0.2-1.7,0-2.6-0.1c-0.7,0-1.4,0-2,0.2c-0.4,0.1-0.8,0-1.2,0
		c-0.5,0-1.1,0-1.3-0.6c0-0.1-0.2-0.1-0.3-0.2c-0.1-0.1-0.2-0.2-0.2-0.3c0.3-0.2,0.6-0.5,0.5-0.9c0-0.1,0-0.4,0.3-0.4
		c0.2,0.2,0.1,0.5,0.2,0.7c0,0.1,0,0.3,0.1,0.4c0.2,0.1,0.2-0.2,0.3-0.3c0-0.1,0.1-0.1,0.1-0.1c0.2-0.1,0.4-0.1,0.6,0
		c0,0,0.1,0,0.1,0.1C20,5.2,20,5.2,20.4,4.6c0.2-0.2,0.5-0.2,0.7-0.1c0.2,0.1,0.2,0.3,0.2,0.5c0.3,0.3,0.5,0.2,0.5-0.2
		c0-0.5,0.1-1-0.4-1.4c-0.3-0.2-0.4-0.5,0.1-0.5c0.3,0,0.4-0.2,0.3-0.5c-0.1-0.3,0.3-0.7-0.1-0.9c-0.3,0.1-0.3,0.3-0.5,0.5
		c-0.3,0.4-0.7,0.4-1,0c-0.1-0.2-0.2-0.3-0.4-0.4c-0.4-0.1-0.5-0.4-0.4-0.8c0-0.1,0.1-0.1,0.1-0.2c0.4-0.1,0.6-0.3,0.8-0.7
		c0.2,0,0.5,0,0.7,0c0.1,0.1,0.1,0.1,0.1,0.2c0,0.1,0.1,0.3,0.2,0.3c0.2,0,0.2-0.2,0.2-0.3c0-0.1,0.1-0.1,0.1-0.2c0.3,0,0.6,0,0.9,0
		C23,0.3,23,0.6,23,0.9c0,1.1,0,2.3,0,3.4C23,5,23,5,23.7,5c1.1,0,2.3,0,3.4,0c0.3,0,0.6,0,0.9,0.2c0,0.2,0,0.5,0,0.7
		c-0.4,0.3-0.9,0-1.4,0.3c-0.4,0.7-0.5,0.8-1.4,0.5C25.1,6.6,25.1,6.4,25,6.4z"/>
	<path id="XMLID_665_" class="st1" d="M6.1,28c-0.3,0-0.6,0-0.9,0C5,27.7,5,27.4,5,27.1c0-1.1,0-2.3,0-3.4C5,23,5,23,4.3,23
		c-1.1,0-2.3,0-3.4,0c-0.3,0-0.6,0-0.9-0.2c0-0.3,0-0.6,0-0.9c0.3-0.2,0.6-0.1,0.9-0.2c0.1,0,0.3,0,0.3-0.2c0-0.2-0.2-0.2-0.3-0.2
		c-0.3-0.1-0.7,0.1-0.9-0.2c0-0.2,0-0.5,0-0.7c0.7-0.4,1.3-0.2,2-0.1c0.3,0,0.4,0.4,0.4,0.6c0.2,0.3,0.5,0.2,0.7,0.2
		c0.3,0,0.6,0.1,0.7,0.5c0,0.3,0.2,0.3,0.5,0.3c0.3,0,0.7,0.1,0.8-0.3c0.1-0.3,0.3-0.5,0.6-0.4c0.3,0.1,0.3,0.4,0.3,0.7
		c0,0.4,0,0.7,0.5,0.9c0.3,0.1,0.3,0.6-0.1,0.8c-0.2,0.1-0.5,0.2-0.3,0.5c0.1,0.1,0.3,0.1,0.5,0.2c0.2,0.2,0.1,0.5,0.3,0.6
		C7.8,25,7.8,25,7.7,25.7c0,0.1-0.1,0.1-0.1,0.1c0,0-0.1,0-0.1,0c-1.1,0.2-1.1,0.2-1.1,1.3C6.3,27.5,6.3,27.8,6.1,28z"/>
	<path id="XMLID_664_" class="st1" d="M6.1,0c0,0.1,0,0.2,0,0.4c0,1.1,0,1.1,1.1,1.1c0.4,0,0.5,0.2,0.4,0.5C7.4,2.3,7.7,2.8,7.4,3
		C7.2,3.2,6.8,3.1,6.5,3C6.1,3,6,3.2,6,3.5c0,0.9,0,1.9,0,2.8c0,0.2,0.1,0.4-0.2,0.4c-0.2,0-0.5,0.1-0.6-0.1C5,6,4.6,6.1,4.1,6.2
		C3.8,6.4,3.9,6.7,3.9,6.9c0,0.3,0,0.6-0.3,0.8C3.4,7.8,3.1,7.8,2.9,7.8C2.3,7.8,2.1,7.6,2.1,7c0-0.5-0.2-0.7-0.7-0.7
		C0.9,6.3,0.4,6.4,0,6.1c0-0.3,0-0.6,0-0.9C0.3,5,0.6,5,0.9,5C2,5,3.2,5,4.3,5C5,5,5,5,5,4.3C5,3.2,5,2,5,0.9C5,0.6,5,0.3,5.2,0
		C5.5,0,5.8,0,6.1,0z"/>
	<path id="XMLID_663_" d="M28,5.2c-1.6,0-3.3,0-4.9,0c-0.2,0-0.3-0.1-0.3-0.3c0-1.6,0-3.3,0-4.9c1.6,0,3.3,0,4.9,0
		C27.9,0,28,0.1,28,0.3C28,2,28,3.6,28,5.2z"/>
	<path id="XMLID_662_" class="st0" d="M0,22.8c1.6,0,3.3,0,4.9,0c0.2,0,0.3,0.1,0.3,0.3c0,1.6,0,3.3,0,4.9c-1.6,0-3.3,0-4.9,0
		C0.1,28,0,27.9,0,27.7C0,26,0,24.4,0,22.8z"/>
	<path id="XMLID_661_" d="M5.2,0c0,1.6,0,3.3,0,4.9c0,0.2-0.1,0.3-0.3,0.3c-1.6,0-3.3,0-4.9,0C0,3.6,0,2,0,0.3C0,0.1,0.1,0,0.3,0
		C2,0,3.6,0,5.2,0z"/>
	<path id="XMLID_660_" class="st1" d="M22,25.8c0.4-0.1,0.8,0,0.7-0.6c0-0.2,0.3-0.1,0.4-0.1c0.7,0,1.5,0,2.2,0c0.2,0,0.4,0,0.4-0.3
		c-0.1-0.4,0.2-0.5,0.5-0.4c0.3,0,0.6,0,0.9,0c0.1,0,0.2,0.1,0.2,0.2c0,0.4,0.4,0.4,0.7,0.6c0,0.2,0,0.5,0,0.7
		c-0.3,0.2-0.6,0.2-0.9,0.2c-0.1,0-0.3,0-0.3,0.2c0,0.1,0.1,0.2,0.2,0.2c0.3,0.1,0.4,0.4,0.4,0.7c-0.1,0.4-0.4,0.4-0.7,0.4
		c-0.5,0-0.9,0-1.4,0c-0.5,0-0.8,0.1-1,0.6c-0.2,0-0.5,0-0.7,0c-0.2-0.2-0.1-0.4-0.2-0.6c-0.1-0.2-0.3-0.1-0.5-0.2
		c-0.8-0.2-0.9-0.4-0.9-1.2C22,26,22,25.8,22,25.8z"/>
	<path id="XMLID_659_" class="st1" d="M16.7,24.4c0,0.3,0,0.7,0.5,0.6c0.3-0.1,0.2,0.2,0.2,0.4c0,0.2,0,0.4-0.3,0.4
		c-0.2,0-0.5-0.1-0.5,0.3c0,0.4,0.2,0.4,0.4,0.4c0.7,0,0.2,0.5,0.3,0.8c-0.4,0.1-0.6,0.4-0.8,0.7c-0.2,0-0.5,0-0.7,0
		c-0.1-0.1-0.1-0.1-0.1-0.2c0-0.1-0.1-0.3-0.2-0.3c-0.2,0-0.2,0.2-0.2,0.3c0,0.1-0.1,0.1-0.1,0.2c-0.5,0-1.1,0-1.6,0
		c-0.2-0.4-0.2-0.7,0.2-0.9c0.4-0.2,0.4-0.5,0.3-0.8c0-0.4-0.4-0.3-0.6-0.3c-0.2,0-0.5,0-0.6-0.1c-0.2-0.5-0.5-0.7-1-0.6
		c-0.2,0-0.3,0-0.5-0.1c-0.1-0.4,0.2-0.4,0.4-0.4c0.4,0,0.7,0,1.1,0.1c0.7,0.2,1.4,0,2.1,0.2c0.3,0.1,0.2,0.4,0.3,0.6
		c0.1,0.1,0.2,0.1,0.4,0.1c0,0,0.1-0.1,0.1-0.1c0-0.1,0-0.2-0.1-0.3c-0.1,0-0.3-0.1-0.4-0.2c-0.3-0.4-0.2-0.9-0.1-1.4
		c0-0.1,0.1-0.1,0.1-0.2c0.6-0.3,0.7,0.2,0.9,0.5c0.1,0.1,0.3,0.1,0.5,0.2C16.6,24.2,16.6,24.3,16.7,24.4z"/>
	<path id="XMLID_658_" class="st2" d="M21.2,5.2c0-0.2,0.1-0.4,0-0.6c-0.4-0.1-0.9,0-1-0.6c0-0.2-0.4-0.1-0.5-0.3
		c-0.3-0.6-0.8-0.9-1.2-1.3c-0.1-0.1-0.3-0.2-0.3-0.3C18,1.4,17.8,0.7,18.2,0c0.2,0,0.5,0,0.7,0c0.1,0.4,0.4,0.6,0.8,0.7
		c0,0.4-0.2,0.9,0.6,0.8c0.3,0,0.2,0.2,0.2,0.4c0,0.3,0,0.4,0.4,0.4c0.3,0,0.5,0,0.4-0.4c-0.1-0.6,0.4-0.3,0.7-0.4
		c0.2,0.4,0,0.9,0.1,1.3c0,0.2-0.2,0.2-0.3,0.2c-0.2,0-0.4-0.1-0.4,0.2c0,0.2,0.1,0.4,0.2,0.4C22.3,3.9,22,4.6,21.9,5
		C21.9,5.5,21.5,5.3,21.2,5.2z"/>
	<path id="XMLID_657_" class="st2" d="M14.4,0c0.2,0,0.5,0,0.7,0c0.4,0.6,0.9,1.1,1.5,1.5C16.9,1.7,17,2,17.3,2.1
		c0.4,0.2,0.4,0.7,0,1c-0.3,0.1-0.4,0.3-0.4,0.6c0.1,0.5-0.2,0.9-0.7,1.1c-0.1,0.2-0.1,0.4-0.3,0.5c-0.7,0.1-0.8,0-0.9-0.7
		c0-0.2,0-0.4,0-0.6c0.1-0.2,0.2-0.3,0.4-0.3c0.3-0.1,0.3-0.3,0.1-0.5c-0.2-0.1-0.5,0-0.7-0.1c-0.2,0-0.4,0-0.5-0.2
		c-0.1-0.3-0.3-0.5-0.6-0.6c-0.3-0.2-0.3-0.5-0.2-0.8c0.1-0.1,0.3-0.2,0.4-0.2c0.3-0.1,0.2-0.4,0.2-0.6C14.3,0.5,14.2,0.2,14.4,0z"
		/>
	<path id="XMLID_656_" class="st1" d="M15.9,4.6c0.8,0,0.8-0.5,0.7-1.1c0-0.3,0-0.6,0.4-0.5c0.2,0,0.4-0.1,0.3-0.3
		c0-0.2,0.1-0.4-0.2-0.4c-0.7,0.1-0.5-0.4-0.6-0.8c-0.2-0.4,0.1-0.6,0.3-0.8c0.3-0.1,0.3-0.5,0.5-0.7c0.2,0,0.5,0,0.7,0
		c0,0.5,0,1,0,1.6c0,0.4-0.1,0.8,0.5,0.7c0.3,0,0.2,0.2,0.2,0.4c0,0.1-0.1,0.4,0.2,0.3c0.7-0.1,0.5,0.3,0.5,0.7
		c-0.4,0.3-0.9,0.1-1.4,0.1c0,0-0.1,0-0.1,0c-0.2,0.2-0.1,0.6-0.1,0.8C18,5,17.9,5.3,17.4,5.1C17.3,5,17.2,4.7,17,4.8
		c-0.2,0.1-0.1,0.4-0.2,0.6c0,0.3,0,0.5-0.2,0.8C16.2,6.2,16,6.5,16.1,7c0,0.2,0,0.4,0,0.5c0,0.2-0.1,0.3-0.3,0.3
		c-0.2,0-0.2-0.2-0.3-0.4c0-0.2,0.1-0.4,0-0.5c0-0.1,0-0.1,0-0.2c0-0.1,0-0.1,0-0.2c-0.3-0.5-0.2-0.7,0.3-0.8c0.2,0,0.5,0,0.5-0.3
		c0-0.3,0.1-0.6-0.3-0.7C16.1,4.7,16,4.7,15.9,4.6z"/>
	<path id="XMLID_655_" class="st2" d="M0,6.1c0.6,0,1.3,0,1.9,0c0.3,0,0.4,0.1,0.4,0.3c0,0.4-0.2,0.9,0.1,1.1
		c0.3,0.2,0.8,0.1,1.3,0.1C4,7.7,3.9,8,3.8,8.3C3.7,8.5,3.5,8.5,3.4,8.5C3.1,8.6,3.2,9.1,2.9,9.2C2.5,9.3,2,9.2,1.6,9.3
		c-0.2,0-0.5,0-0.7-0.1C0.8,9.2,0.7,9.1,0.7,9C0.6,8.8,0.6,8.6,0.7,8.4c0.4-0.2,0.7-0.4,0.6-0.9c0-0.1,0-0.3-0.2-0.3
		C1,7.1,1,7.3,0.9,7.4C0.9,7.7,1,8.1,0.7,8.4C0.5,8.5,0.2,8.5,0,8.3C0,7.6,0,6.8,0,6.1z"/>
	<path id="XMLID_654_" class="st2" d="M11.3,25c0.3,0,0.5,0,0.8,0c0.7-0.1,0.8,0.2,0.7,0.8c0,0,0,0-0.1,0.1
		c-0.2,0.1-0.5,0.1-0.5,0.4c0,0.3-0.2,0.4-0.5,0.5c-0.3,0.1-0.2,0.4-0.4,0.6c-0.4,0.1-0.6,0.4-0.7,0.7c-0.2,0-0.5,0-0.7,0
		c-0.2-0.2-0.2-0.5-0.2-0.7c0-0.5-0.2-0.6-0.6-0.6c-0.4,0-0.9,0-0.8-0.6c0.1-0.4,0.4-0.5,0.7-0.5c0.4,0,0.7-0.1,0.8-0.5
		c0.3-0.2,0.6-0.3,0.9,0C11,25.5,11,25.5,11.3,25z"/>
	<path id="XMLID_653_" class="st2" d="M2.3,21.1c0.2-0.5,0-0.7-0.6-0.7c-0.6,0-1.1,0-1.7,0c0-0.2,0-0.5,0-0.7c0.4-0.3,1-0.1,1.4-0.2
		c0.3,0,0.6,0,0.7-0.4c0.1-0.4,0.5-0.3,0.8-0.2c0.3,0.1,0.2,0.5,0.3,0.6c0.2,0.1,0.3,0.1,0.5,0.2c0.2,0.2,0.1,0.4,0.3,0.6
		c0.2,0.1,0.3,0.1,0.5,0.2c0.1,0.2,0.1,0.5,0.4,0.6c0.5,0.1,0.4,0.5,0.4,0.8c-0.1,0.4-0.4,0.2-0.6,0.2c-0.2,0-0.4,0-0.6,0
		c-0.2,0-0.3-0.1-0.3-0.3c0.1-0.5-0.2-0.5-0.6-0.5C2.9,21.2,2.6,21.3,2.3,21.1z"/>
	<path id="XMLID_652_" class="st1" d="M3,18.9c-0.3,0-0.8-0.1-0.7,0.6c0.1,0.3-0.2,0.2-0.3,0.2c-0.7,0-1.3,0-2,0c0-1,0-1.9,0-2.9
		c0.5-0.4,0.5-0.4,0.9,0.2C1,18,1,18,2.1,18c0.3,0,0.7-0.1,1,0.2C3.2,18.4,3.2,18.7,3,18.9z"/>
	<path id="XMLID_651_" class="st1" d="M22,25.8C22,25.8,22,25.8,22,25.8c0.1,1.4-0.1,1.1,1.3,1.3c0.2,0,0.1,0.1,0.1,0.2
		c-0.1,0.1-0.2,0.1-0.3,0.1c-0.5,0-1.1,0-1.3,0.6c-0.7,0-1.5,0-2.2,0c-0.2-0.2-0.2-0.4-0.1-0.7c0-0.1,0.1-0.1,0.1-0.1
		c0.2-0.1,0.5-0.1,0.6-0.5c0-0.7,0-0.8-0.6-0.8c-0.1,0-0.2-0.1-0.2-0.2c0.1-0.1,0.2,0,0.3-0.2c0-0.2-0.1-0.5,0.1-0.5
		c0.4-0.1,0.9,0,1.3,0c0.2,0,0.1,0.2,0.1,0.4c0,0.5,0,1,0,1.5c0,0.3,0.1,0.4,0.4,0.4c0.3,0,0.3-0.1,0.3-0.4
		C22,26.5,21.8,26.1,22,25.8z"/>
	<path id="XMLID_650_" class="st0" d="M24.3,28c-0.1-0.6,0.1-0.8,0.7-0.8c0.6,0.1,1.3,0,1.9,0c0.3,0,0.4-0.1,0.4-0.3
		c0-0.2,0.1-0.5-0.3-0.4c-0.4,0.1-0.5-0.1-0.5-0.4c0-0.4,0.3-0.3,0.5-0.3c0.3,0,0.7,0,1,0c0,0.6,0,1.3,0,1.9c0,0.3-0.1,0.3-0.3,0.3
		C26.5,28,25.4,28,24.3,28z"/>
	<path id="XMLID_649_" class="st1" d="M8.3,26c0,0.3,0,0.5,0.4,0.5c1.1,0,1.1,0,1.1,1.1c0,0.1,0,0.2,0,0.4c-0.7,0-1.5,0-2.2,0
		c-0.2-0.2-0.3-0.5-0.6-0.6c-0.3-0.1-0.3-0.3-0.3-0.6c0-0.3,0.2-0.4,0.4-0.4c0.2,0,0.4,0,0.6,0.2c0-0.2-0.2-0.2-0.3-0.4
		c0-0.2,0-0.3,0.1-0.4l0,0c0.2-0.2,0.4-0.2,0.6-0.1C8.3,25.7,8.3,25.9,8.3,26z"/>
	<path id="XMLID_648_" class="st3" d="M10.6,0c0.7,0,1.5,0,2.2,0c0.2,0.1,0.1,0.4,0.3,0.5c0.2,0.1,0.4,0.1,0.5,0.2
		c0.1,0.3,0.1,0.6-0.2,0.8C13.3,1.7,13.1,1.7,13,2c-0.2,0.5-0.5,0.5-1,0.3c-0.3-0.4,0.1-0.9-0.3-1.2c-0.3-0.3-0.8,0-1.2-0.3l0,0
		C10.4,0.5,10.4,0.3,10.6,0z"/>
	<path id="XMLID_647_" class="st4" d="M28,6.1c0,0.2,0,0.5,0,0.7c-0.5,0.2-0.6,0.5-0.6,1c0,0.2,0,0.4-0.2,0.6
		c-0.3,0.1-0.5,0.1-0.7-0.1l0,0c-0.2-0.1-0.1-0.5-0.4-0.5c-0.4-0.1-0.8,0.1-1.1-0.2l0,0c-0.3-0.6-0.2-0.8,0.5-0.8c0,0,0.1,0,0.1,0
		c0.6,0.1,0.9-0.1,0.9-0.7C27,6,27.5,6,28,6.1z"/>
	<path id="XMLID_646_" class="st0" d="M0,12.8c0-1.2,0-2.5,0-3.7c0.3-0.2,0.5-0.2,0.8,0l0,0c0.2,0.1,0.2,0.3,0.2,0.5
		c0,0.1,0,0.1,0,0.2c0,0,0,0,0,0c0,0-0.1,0.1,0,0.1c0.3,0,0.6-0.1,0.8,0.2c0,0.2,0,0.5-0.2,0.5c-0.6,0.1-0.5,0.6-0.5,1
		c0,0.1,0,0.3,0,0.4c0,0.2,0,0.4-0.1,0.7C0.6,13,0.3,13,0,12.8z"/>
	<path id="XMLID_645_" class="st3" d="M7.6,25.7c0,0.2,0,0.3,0,0.5c0,0.2,0,0.3-0.3,0.2c-0.2,0-0.5-0.2-0.6,0.3
		c0,0.4,0.1,0.5,0.5,0.5c0.6,0,0.2,0.5,0.3,0.7c-0.5,0-1,0-1.5,0c0-0.6,0-1.3,0-1.9c0-0.3,0.1-0.4,0.4-0.3
		C6.8,25.8,7.2,25.7,7.6,25.7z"/>
	<path id="XMLID_644_" class="st1" d="M0,12.8c0.3,0,0.5,0.2,0.8-0.1c0.1,0,0.2,0.1,0.2,0.2c0,0.2,0,0.5,0,0.7c0,0.2,0,0.4,0.2,0.5
		c0.4,0.1,0.5,0.4,0.5,0.8c-0.1,0.4-0.4,0.4-0.7,0.5c-0.2,0.1-0.2,0.3-0.4,0.3c-0.3,0-0.4-0.1-0.5-0.3C0,14.6,0,13.7,0,12.8z"/>
	<path id="XMLID_643_" class="st5" d="M12.8,25.8c0.2,0,0.3,0,0.5,0c1.2,0,1.2,0,1.1,1.2c0,0.1,0,0.3-0.2,0.3
		c-0.7-0.1-0.6,0.4-0.6,0.8c-0.2,0-0.5,0-0.7,0C12.7,27.2,12.7,26.5,12.8,25.8L12.8,25.8z"/>
	<path id="XMLID_642_" class="st1" d="M12.8,25.7c0.1,0.7,0.1,1.5,0,2.2c-0.2,0-0.5,0-0.7,0c-0.1-0.3-0.3-0.6-0.7-0.7
		c0,0,0,0-0.1-0.1c0-0.4-0.2-0.9,0.6-0.8c0.2,0,0.2-0.1,0.2-0.2C12,25.5,12.4,25.7,12.8,25.7z"/>
	<path id="XMLID_641_" class="st1" d="M17,0.8c-0.2,0.2-0.4,0.5-0.4,0.8c-0.3-0.1-0.9,0.2-0.8-0.6c0-0.1-0.1-0.2-0.2-0.2
		C15,0.9,15.1,0.4,15.2,0c0.5,0,1,0,1.5,0C16.9,0.2,16.9,0.5,17,0.8z"/>
	<path id="XMLID_640_" class="st1" d="M26.5,8.3c0.3,0,0.5,0,0.8,0c0,0,0,0,0.1,0.1c0.1,0.1,0.1,0.3,0.1,0.4C27.6,9,27.8,8.9,28,9.1
		c0,0.2,0,0.5,0,0.7C26.4,9.9,26.4,9.9,26.5,8.3z"/>
	<path id="XMLID_639_" class="st1" d="M13.5,0.8c-0.2,0-0.4,0-0.6,0c-0.1-0.2,0-0.5,0-0.7c0.5,0,0.9,0,1.4,0c0,0.5,0.2,1-0.1,1.5
		c-0.2,0-0.3,0-0.5,0C13.5,1.3,13.8,1,13.5,0.8z"/>
	<path id="XMLID_638_" class="st1" d="M0.5,15.7c0.1-0.1,0.2-0.2,0.2-0.4c0.2,0.2,0.3,0.4,0.6,0.5c0.3,0.1,0.3,0.3,0.3,0.6
		c-0.1,0.2-0.2,0.2-0.4,0.2c-0.2,0-0.3,0-0.4,0.1c0,0-0.1,0.1-0.1,0.1c-0.2-0.4-0.5,0.1-0.7,0c0-0.4,0-0.7,0-1.1
		C0.2,15.6,0.3,15.8,0.5,15.7z"/>
	<path id="XMLID_637_" class="st1" d="M8.3,0c0,0.2-0.1,0.5,0.1,0.7l0,0C8,0.8,7.5,0.8,7.1,0.8C6.6,0.7,6.9,0.3,6.8,0
		C7.3,0,7.8,0,8.3,0z"/>
	<path id="XMLID_636_" class="st0" d="M19.7,27.2c0,0.2,0,0.5,0,0.7c-0.5,0-1,0-1.5,0c-0.2-0.3-0.2-0.5,0-0.8l0,0
		C18.7,27,19.2,27,19.7,27.2z"/>
	<path id="XMLID_635_" class="st6" d="M0,21.2c0.4,0,0.7,0,1.1,0c0.3,0,0.4,0.1,0.4,0.4c0,0.3-0.1,0.4-0.4,0.4c-0.4,0-0.7,0-1.1,0
		C0,21.6,0,21.4,0,21.2z"/>
	<path id="XMLID_634_" class="st1" d="M27.2,8.4c0-0.3,0-0.6,0-0.8c-0.1-0.6,0.2-0.8,0.8-0.7c0,0.5,0,1,0,1.5
		c-0.1,0.1-0.2,0.1-0.3,0.1C27.5,8.5,27.4,8.5,27.2,8.4L27.2,8.4z"/>
	<path id="XMLID_633_" class="st5" d="M21.9,28c0-0.5,0.1-0.9,0.8-0.8c0.2,0,0.4,0,0.6,0c0.3,0.2,0.2,0.5,0.1,0.7
		C22.9,28,22.4,28,21.9,28z"/>
	<path id="XMLID_632_" class="st1" d="M0.8,9.1c-0.3,0-0.5,0-0.8,0c0-0.2,0-0.5,0-0.7c0.2,0,0.5,0,0.7,0l0,0
		C0.7,8.6,0.8,8.8,0.8,9.1z"/>
	<path id="XMLID_631_" class="st1" d="M10.6,0c0.1,0.3,0.1,0.5,0,0.8c-0.3,0-0.9,0.2-0.8-0.5C9.8,0.2,9.8,0.1,9.8,0
		C10.1,0,10.3,0,10.6,0z"/>
	<path id="XMLID_630_" class="st0" d="M17,0.8c-0.6,0-0.3-0.5-0.4-0.8c0.2,0,0.5,0,0.7,0C17.3,0.3,17.7,0.8,17,0.8z"/>
	<path id="XMLID_629_" class="st1" d="M19.7,0.7C19,0.9,18.8,0.6,18.9,0c0.2,0,0.5,0,0.7,0C19.9,0.3,19.9,0.5,19.7,0.7L19.7,0.7z"/>
	<path id="XMLID_628_" class="st2" d="M19.6,0.8c0-0.3,0-0.5,0-0.8c0.2,0,0.5,0,0.7,0C20.5,0.7,20.2,0.9,19.6,0.8z"/>
	<path id="XMLID_627_" class="st7" d="M21.9,0c0,0.3,0.3,0.9-0.5,0.7c-0.5-0.1-0.1-0.5-0.3-0.7C21.4,0,21.6,0,21.9,0z"/>
	<path id="XMLID_626_" class="st0" d="M27.3,16.7c0.2,0,0.5,0,0.7,0c0,0.2,0,0.5,0,0.7c-0.2,0-0.5,0-0.7,0
		C27.1,17.2,27,16.9,27.3,16.7z"/>
	<path id="XMLID_625_" class="st2" d="M28,18.9c-0.2-0.1-0.7,0.3-0.7-0.3c-0.1-0.7,0.4-0.4,0.7-0.5C28,18.4,28,18.7,28,18.9z"/>
	<path id="XMLID_624_" class="st8" d="M28,21.2c-0.4,0-0.9,0.2-0.7-0.5c0.1-0.5,0.5-0.1,0.7-0.2C28,20.7,28,20.9,28,21.2z"/>
	<path id="XMLID_623_" class="st9" d="M28,25c-0.4,0-0.9,0.1-0.8-0.6c0.2-0.4,0.5-0.3,0.8-0.1C28,24.5,28,24.8,28,25z"/>
	<path id="XMLID_622_" class="st1" d="M10.6,28c-0.1-0.6,0.1-0.9,0.7-0.7l0,0c0,0.1,0.1,0.1,0.1,0.2c0.1,0.2,0,0.4-0.1,0.6
		C11.1,28,10.8,28,10.6,28z"/>
	<path id="XMLID_621_" class="st7" d="M15.2,28c0-0.4-0.2-0.9,0.5-0.7c0.5,0.1,0.1,0.5,0.2,0.7C15.7,28,15.4,28,15.2,28z"/>
	<path id="XMLID_620_" class="st2" d="M16.7,28c-0.1-0.6,0.1-0.9,0.8-0.7l0,0c0.2,0.2,0.2,0.5,0,0.8C17.2,28,16.9,28,16.7,28z"/>
	<path id="XMLID_619_" class="st1" d="M17.4,28c0-0.3,0-0.5,0-0.8c0.3,0,0.5,0,0.8,0c0,0.3,0,0.5,0,0.8C17.9,28,17.7,28,17.4,28z"/>
	<path id="XMLID_618_" class="st1" d="M26.5,21.9c0.5,0,1,0,1.5,0c0,0,0,0.1,0,0.1c-0.4,0-0.8,0-1.2,0c-0.3,0-0.4,0.2-0.3,0.4
		c0.1,0.2,0.1,0.3,0,0.5c-0.1,0.7-0.1,0.7-0.8,0.5c0.7-0.5,0.6-0.9,0-1.4C26,21.8,26.2,22,26.5,21.9z"/>
	<path id="XMLID_617_" class="st1" d="M27.2,24.1c0-0.2-0.1-0.4,0-0.6c0.2-0.1,0.5-0.1,0.7,0c0,0.2,0,0.4,0,0.6
		C27.7,24.2,27.5,24.2,27.2,24.1z"/>
	<path id="XMLID_616_" class="st0" d="M11.4,27.4c0,0,0-0.1,0-0.1c0.5,0,0.9,0.1,0.8,0.8c-0.2,0-0.4,0-0.6,0
		C11.4,27.8,11.5,27.6,11.4,27.4z"/>
	<path id="XMLID_615_" class="st4" d="M27.7,8.4c0.1,0,0.2,0,0.3,0c0,0.2,0,0.5,0,0.7c-0.2-0.1-0.6,0.3-0.7-0.3
		C27.3,8.6,27.5,8.4,27.7,8.4z"/>
	<path id="XMLID_614_" class="st1" d="M14.2,1.5c0.2-0.5,0.1-1,0.1-1.5c0,0,0.1,0,0.1,0c0,0.4,0,0.8,0,1.2
		C14.4,1.3,14.5,1.5,14.2,1.5z"/>
	<path id="XMLID_613_" class="st1" d="M28,6.1c-0.5,0-1,0-1.5,0c0,0.1-0.1,0.1-0.1,0C26.9,5.8,27.5,6,28,6C28,6,28,6.1,28,6.1z"/>
	<path id="XMLID_612_" class="st1" d="M27.2,24.1c0.2,0,0.5-0.1,0.7,0c0,0,0,0.1,0,0.1c-0.3,0-0.5-0.1-0.8,0.1c0,0-0.1-0.1-0.1-0.1
		C27.2,24.2,27.2,24.2,27.2,24.1z"/>
	<path id="XMLID_611_" class="st1" d="M0.5,15.7c-0.2,0.2-0.3,0.2-0.5,0c0-0.1,0-0.2,0-0.2C0.2,15.5,0.3,15.6,0.5,15.7z"/>
	<path id="XMLID_610_" class="st1" d="M12.9,0c0.1,0.2-0.1,0.5,0,0.7c-0.2-0.2,0-0.5-0.1-0.7C12.9,0,12.9,0,12.9,0z"/>
	<path id="XMLID_609_" class="st10" d="M23.4,28c0-0.2,0-0.5-0.1-0.7c0.1,0,0.2,0,0.2,0c0,0.2-0.1,0.5,0,0.7
		C23.5,28,23.4,28,23.4,28z"/>
	<path id="XMLID_608_" class="st2" d="M9.8,0c0,0.1,0,0.2,0,0.3c-0.1,0-0.2,0.2-0.4,0C9.4,0.1,9.5,0.1,9.6,0C9.7,0,9.8,0,9.8,0z"/>
	<path id="XMLID_607_" class="st11" d="M11.4,27.4c0.3,0.2,0.2,0.4,0.1,0.6c0,0-0.1,0-0.1,0C11.3,27.8,11.3,27.6,11.4,27.4z"/>
	<path id="XMLID_606_" class="st1" d="M28,23.5c-0.2,0-0.5,0-0.7,0c0.1-0.2,0.2,0,0.3-0.1c0-0.1,0.1-0.1,0.1,0c0.1,0,0.2,0,0.2,0
		C28,23.4,28,23.5,28,23.5z"/>
	<path id="XMLID_605_" class="st12" d="M9.6,0c0,0.1-0.1,0.2-0.1,0.2C9.3,0.3,9.2,0.2,9.1,0C9.3,0,9.4,0,9.6,0z"/>
	<path id="XMLID_604_" class="st1" d="M25,14.1c0,0.2,0.1,0.3,0.3,0.3c0.4-0.1,0.4,0.2,0.4,0.5c0,0.4-0.2,0.3-0.4,0.3
		c-0.3,0-0.7,0-1,0c0,0-0.1,0.1-0.1,0.2C24.1,16,24,16,23.4,15.7c-0.1-0.2-0.1-0.4-0.1-0.6c0-0.3,0-0.6-0.4-0.7
		c-0.3-0.1-0.3-0.4-0.2-0.7c0.2-0.3,0.7,0.2,0.7-0.4c0-0.2-0.1-0.4-0.3-0.4c-0.3,0-0.4,0-0.4-0.4c0-0.3,0.1-0.4,0.4-0.4
		c0.1,0,0.4,0.1,0.3-0.2c-0.2-0.7,0.4-0.5,0.7-0.6c0.1-0.2,0.1-0.4,0-0.6l0,0c-0.2-0.2-0.5,0-0.7-0.1c0-0.1,0.1-0.2,0-0.4
		c-0.1,0-0.1-0.1,0-0.1c0-0.3,0.3-0.2,0.5-0.2c0.3,0,0.7,0,1,0c0.1,0,0.2,0,0.1,0.1c-0.1,0.5,0,0.7,0.6,0.6c0.1,0,0.3,0,0.4,0
		c0.3,0,0.5,0.1,0.5,0.4c0,0.3,0,0.5,0,0.8c0,0.2-0.1,0.3-0.3,0.3c-0.2,0-0.5,0.1-0.5-0.2c0.1-0.6-0.3-0.6-0.7-0.6
		c-0.2,0.4-0.1,0.9-0.1,1.4c0,0.1-0.1,0.1-0.2,0.2c-0.1,0.1-0.3,0.1-0.4,0.2c-0.2,0.3-0.1,0.4,0.2,0.5C24.9,13.6,24.9,13.8,25,14.1z
		"/>
	<path id="XMLID_603_" class="st1" d="M19.6,10.6c-0.1,0.6,0.1,0.9,0.8,0.8c0.1,0.8,0.1,1.6,0,2.4c-0.2,0.2-0.5,0.1-0.7,0.1
		c-0.4,0-0.6,0.2-0.6,0.6c0,0.3,0,0.5-0.2,0.8c-0.1,0-0.1,0.1-0.2,0.1c-0.5,0.1-0.7-0.2-0.7-0.7c0-0.7-0.1-0.7-0.8-0.8
		c-0.3,0-0.6-0.1-0.7-0.5c0-0.3-0.3-0.3-0.5-0.4c-0.1,0-0.1-0.1-0.1-0.1c0-0.1,0-0.2,0-0.3c0.9-0.6,1.7-0.6,2.3-0.1
		c0.1,0.1,0.2,0.3,0.4,0.2c0.2,0,0.1-0.2,0.1-0.3c-0.2-0.2-0.4-0.1-0.6-0.3c0-0.1-0.1-0.1-0.1-0.2c0,0,0-0.1,0-0.1
		C17.9,10.4,18.2,10.2,19.6,10.6C19.6,10.5,19.6,10.5,19.6,10.6z"/>
	<path id="XMLID_602_" class="st1" d="M19.7,7.6c0.1,0.3-0.1,0.6,0.1,0.8c0,0.3,0.1,0.6-0.2,0.8c-0.4,0.1-0.9,0.1-1.3,0
		c-0.1,0-0.1-0.1-0.2-0.1C18,8.9,18,8.7,17.9,8.6c-0.8-0.4-0.6-1.1-0.5-1.7c0.4-0.4,1-0.2,1.5-0.2C19.1,6.9,19.1,7.5,19.7,7.6
		C19.6,7.5,19.6,7.6,19.7,7.6z"/>
	<path id="XMLID_601_" class="st1" d="M20.4,6.1c0.1-0.1,0.2-0.2,0.3-0.2c1.3,0,2.7,0,4,0c0.1,0,0.2,0,0.3,0.1c-1.2,0-2.3,0-3.5,0
		c-0.3,0-0.3,0.1-0.3,0.4c0,0.3,0.1,0.4,0.4,0.4c0.3,0,0.4,0.1,0.4,0.4c0,0.4-0.2,0.4-0.5,0.4c-0.6,0-1.2,0-1.9,0l0,0
		c-0.2-0.4-0.2-0.7,0.2-0.9C20.2,6.6,20.2,6.3,20.4,6.1z"/>
	<path id="XMLID_600_" class="st1" d="M21.9,10.5c0,0,0,0.1,0,0.1c0.1,0,0.2,0,0.2,0c0.6-0.1,0.6,0.2,0.5,0.6c-0.2,0-0.4,0-0.6,0
		c-0.2,0.5,0,1-0.1,1.5c-0.2,0.1-0.4,0.1-0.6,0c-0.1-0.9,0-1.8-0.1-2.7c0-0.4,0.4-0.2,0.6-0.3c0,0,0.1,0,0.1,0
		C22,10.1,22,10.3,21.9,10.5z"/>
	<path id="XMLID_599_" class="st1" d="M21.9,10.5c0-0.2,0-0.4,0-0.7c0-0.4,0.2-0.9-0.6-0.8c-0.3,0-0.1-0.2-0.2-0.4
		c0-0.2-0.1-0.3,0.2-0.3c0.4,0,0.7,0,1.1,0c0.2,0,0.2,0.1,0.2,0.3c0,0.3,0,0.7,0,1c0,0.1-0.1,0.3-0.2,0.2
		C21.9,9.7,22,10.2,21.9,10.5z"/>
	<path id="XMLID_598_" class="st1" d="M19.7,9.1c0.1-0.2-0.2-0.5,0.1-0.7c0.5-0.1,0.7,0,0.7,0.6c0,0.3,0,0.7,0,1
		c0,0.8,0,0.8-0.8,0.6l0,0C19.4,10.1,19.4,9.6,19.7,9.1z"/>
	<path id="XMLID_597_" class="st1" d="M25,7.6c0.5,0,0.9,0,1.4,0c0.1,0.2,0,0.5,0,0.7c-0.2,0-0.5,0-0.7,0C25,8.5,24.9,8.2,25,7.6z"
		/>
	<path id="XMLID_596_" class="st1" d="M22.8,13.7c0.1,0.2-0.1,0.4,0.2,0.5c0.7,0.1,0.6,0.7,0.6,1.2c0,0.1,0,0.2,0,0.4
		c0,0.1,0,0.1-0.1,0.1c-0.5-0.2-0.1-0.8-0.4-1.1c-0.3,0-0.2,0.4-0.4,0.4c-0.6-0.6-0.9-0.6-2-0.4c0,0.2,0.2,0.4-0.1,0.6
		c-0.1,0.1-0.2-0.1-0.3-0.2c-0.1-0.3-0.1-0.5,0-0.8c0.1-0.1,0.1-0.1,0.2,0c0.4,0,0.9,0,1.3,0C22.4,14.4,22.7,14.3,22.8,13.7z"/>
	<path id="XMLID_595_" class="st1" d="M26.4,6.1c0,0,0.1,0,0.1,0c0.1,0.7-0.2,0.9-0.8,0.7C25,6.7,24.9,7,25,7.6
		c-0.3-0.1-0.7,0.2-0.8-0.2c-0.1-0.3-0.1-0.7,0.4-0.6c0.1,0,0.2,0,0.3-0.1c0.1-0.1,0.1-0.2,0.2-0.1c0.3,0.2,0.6,0.1,0.9,0.1
		C26.4,6.7,26.3,6.3,26.4,6.1z"/>
	<path id="XMLID_594_" class="st1" d="M24.8,12.8c0,0,0.1-0.1,0.1-0.1c0-0.1,0.1-0.1,0.1,0c0.3,0.3,0.6,0.1,0.9,0.1
		c0.5-0.1,0.7,0.1,0.7,0.6c0,0,0,0.1,0,0.1c0,0,0,0,0,0c-0.4,0.2-0.7,0.1-1.1,0.1c-0.3,0-0.4,0.1-0.4,0.4c-0.1-0.1-0.1-0.3-0.4-0.4
		c-0.5-0.1-0.6-0.3-0.3-0.8c0.1,0.3,0.3,0.7,0.7,0.6c0.4,0,0.7,0.1,1.2-0.1c-0.5-0.2-0.8-0.1-1.2-0.2C24.9,13,24.8,13,24.8,12.8z"/>
	<path id="XMLID_593_" class="st1" d="M23.1,7.6c-0.3,0.1-0.4-0.1-0.4-0.4c0-0.4,0.2-0.4,0.5-0.4c0.3,0,0.4,0.1,0.4,0.4
		C23.5,7.5,23.4,7.7,23.1,7.6z"/>
	<path id="XMLID_592_" class="st1" d="M24.2,8.7c0.1,0.3-0.1,0.3-0.4,0.4c-0.3,0-0.4-0.1-0.4-0.4c0-0.4,0.2-0.3,0.5-0.4
		C24.2,8.3,24.3,8.5,24.2,8.7z"/>
	<path id="XMLID_591_" class="st3" d="M20.5,14.3c0,0-0.1,0-0.1,0c-0.2-0.2-0.2-0.4-0.1-0.7c0.3-0.8,0.1-1.6,0.1-2.4
		c0.3,0.1,0.3,0.4,0.2,0.5c-0.2,0.6-0.1,1.2,0.1,1.8C20.8,14,20.5,14.1,20.5,14.3z"/>
	<path id="XMLID_590_" class="st1" d="M21.8,9.9c-0.4,0.1-0.5,0.3-0.5,0.7c0,0.7,0,1.5,0,2.2c-0.3-0.9-0.1-1.9-0.1-2.9
		C21.2,9.7,21.6,9.9,21.8,9.9z"/>
	<path id="XMLID_589_" class="st1" d="M23.5,15.9c0-0.1,0-0.1,0-0.2c0.2,0,0.3,0.1,0.5,0.1c0-0.2-0.2-0.5,0.2-0.6c0,0.3,0,0.5,0,0.8
		l0,0C24,16.1,23.7,16.2,23.5,15.9z"/>
	<path id="XMLID_588_" class="st1" d="M25,12.7c0,0-0.1,0-0.1,0c-0.1-0.5-0.2-0.9,0.1-1.4C25,11.8,25,12.2,25,12.7z"/>
	<path id="XMLID_587_" class="st1" d="M21.9,12.8c0-0.5-0.1-1,0.1-1.5C21.8,11.8,22.1,12.3,21.9,12.8z"/>
	<path id="XMLID_586_" class="st1" d="M22.6,11.3c0.2-0.7-0.4-0.5-0.7-0.7C22.8,10.5,22.8,10.6,22.6,11.3z"/>
	<path id="XMLID_585_" class="st13" d="M25.7,9.6c-0.1-0.1-0.2-0.2-0.2-0.3c0,0,0-0.1-0.1-0.2C25.9,9.2,25.9,9.2,25.7,9.6z"/>
	<path id="XMLID_584_" class="st14" d="M25,10c0,0-0.1-0.1-0.1-0.1c0-0.1-0.1-0.2,0-0.3c0.1-0.1,0.2,0,0.3,0.1
		C25.3,9.8,25.1,9.9,25,10z"/>
	<path id="XMLID_583_" class="st13" d="M23.4,10.1c0,0,0,0.1,0,0.1c-0.3,0.2-0.3,0.2-0.7,0.2C23,10.2,23.1,10,23.4,10.1z"/>
	<path id="XMLID_582_" class="st1" d="M26.4,8.3c-0.2-0.2,0.1-0.5,0-0.7c0.3,0.2,0,0.5,0.1,0.7C26.5,8.3,26.4,8.3,26.4,8.3z"/>
	<path id="XMLID_581_" class="st15" d="M23.4,10.6c0.2,0.1,0.5-0.1,0.7,0.1C23.9,10.7,23.6,10.8,23.4,10.6z"/>
	<path id="XMLID_580_" class="st12" d="M22.1,10.4c0.2-0.1,0.3-0.2,0.5-0.3C22.6,10.4,22.5,10.4,22.1,10.4z"/>
	<path id="XMLID_579_" class="st14" d="M26.5,13.6c0,0,0-0.1,0-0.1c0.1,0,0.1-0.1,0.2-0.1c0,0.1,0.1,0.2,0,0.2
		C26.7,13.7,26.6,13.6,26.5,13.6z"/>
	<path id="XMLID_578_" class="st15" d="M24.1,10.7c0.1,0.2,0.2,0.4,0,0.6C24.1,11.1,24.1,10.9,24.1,10.7z"/>
	<path id="XMLID_577_" class="st1" d="M25.3,6.6c-0.1,0-0.2,0.1-0.2,0.1c0-0.1,0-0.2,0-0.4C25.2,6.4,25.3,6.4,25.3,6.6z"/>
	<path id="XMLID_576_" class="st13" d="M25.2,8.9c0,0,0,0.1,0,0.1C25,9.1,25,9,25,8.9c0,0,0.1-0.1,0.1-0.1
		C25.2,8.7,25.2,8.8,25.2,8.9z"/>
	<path id="XMLID_575_" class="st1" d="M23.1,24.2c-1.2,0-1.2,0-1.2-1.2c0-1.2,0-1.2,1.1-1.2c1.2,0,1.2,0,1.2,1.2
		C24.3,24.3,24.3,24.3,23.1,24.2z"/>
	<path id="XMLID_574_" class="st1" d="M21.1,20.4c0,0.1-0.1,0.2-0.1,0.2c-0.4,0-0.5,0.3-0.5,0.6c-0.2,0.2,0,0.5-0.1,0.7
		c0.3,0.3,0.4,0.6-0.1,0.8c-0.2,0-0.4,0-0.7,0c-0.2-0.1-0.1-0.3-0.2-0.5c-0.1-0.2-0.5-0.1-0.6-0.4c-0.1-0.1-0.1-0.3-0.2-0.4
		c-0.8-0.3-0.6-1-0.6-1.6c0-0.3,0-0.5,0.1-0.8c0-0.1,0.1-0.1,0.1-0.2c0.2-0.1,0.5-0.1,0.7,0c0.3,0.1,0.1,0.6,0.5,0.7
		c0.1,0,0.2,0.1,0.3,0.2c0.2,0.3,0.1,0.6,0.1,1c0,0.1,0,0.2,0.2,0.2c0.1,0,0.2-0.1,0.2-0.2C20.4,20.2,20.7,20.1,21.1,20.4z"/>
	<path id="XMLID_573_" class="st1" d="M19.7,27.2c-0.5,0-1,0-1.5,0c0-0.1,0-0.3,0-0.4c0-1.2,0-1.2,1.2-1.1c0.1,0,0.2,0,0.2,0
		C20,26.2,19.9,26.7,19.7,27.2L19.7,27.2z"/>
	<path id="XMLID_572_" class="st1" d="M19.6,22.8c0,0.2,0,0.5,0,0.7c0,0.8,0,0.8-0.8,0.8c-0.8,0-0.8,0-0.7-0.8
		c0.3-0.2,0.6-0.4,0.8-0.7C19.2,22.6,19.4,22.6,19.6,22.8z"/>
	<path id="XMLID_571_" class="st1" d="M20.4,22.6c0-0.3,0.1-0.5,0-0.8c0.7-0.1,0.9,0.2,0.8,0.9c-0.1,0.3,0,0.7,0,1.1
		c0,0.3,0,0.4-0.4,0.4c-0.3,0-0.4-0.1-0.4-0.4c0-0.4,0-0.7,0-1.1C20.3,22.7,20.3,22.7,20.4,22.6z"/>
	<path id="XMLID_570_" class="st1" d="M25.7,20.4c-0.1,0.3,0.1,0.7-0.1,0.7c-0.4,0.1-0.9,0.1-1.3,0c-0.2,0-0.1-0.2-0.1-0.3
		c0-0.3,0-0.5,0-0.8c0-0.3,0-0.5,0.4-0.4c0.3,0,0.4,0.1,0.4,0.4c-0.1,0.6,0.4,0.3,0.6,0.3C25.7,20.3,25.7,20.4,25.7,20.4L25.7,20.4z
		"/>
	<path id="XMLID_569_" class="st1" d="M18.9,21.9c0.2,0,0.5-0.1,0.7,0.1c-0.2,0.2-0.5,0.2-0.8,0.2c-0.5,0-1,0.1-1.5-0.2
		c-0.3,0-0.7,0-1,0c-0.2,0-0.5-0.1-0.5,0.3c0,0.5,0.3,0.3,0.5,0.4c0.1,0,0.2,0,0.2,0.1c-0.2,0.2-0.5,0.2-0.7,0.2c-0.2,0-0.4,0-0.7,0
		c-0.6,0-1.2-0.1-1.7,0.5c-0.3-0.7-0.2-0.9,0.5-0.9c0.3,0,0.6,0,0.9,0c0.3,0,0.6,0,0.7-0.4c0.1-0.3,0.4-0.3,0.6-0.3
		c0.4,0,0.8,0,1.2,0C18,21.7,18.5,21.6,18.9,21.9z"/>
	<path id="XMLID_568_" class="st1" d="M17.4,22c0.5,0,1,0,1.5,0c0.2,0.2,0.2,0.4,0.1,0.6c-0.5,0.4-1,0-1.5,0
		C17.4,22.4,17.4,22.2,17.4,22z"/>
	<path id="XMLID_567_" class="st1" d="M25.7,22c0.6-0.1,0.7,0.3,0.7,0.8c0,0.5-0.2,0.7-0.6,0.6l0,0c-0.1-0.4-0.1-0.7,0-1.1
		C25.6,22.2,25.6,22.1,25.7,22z"/>
	<path id="XMLID_566_" class="st4" d="M18.9,22.8c0.1,0.6-0.2,0.8-0.8,0.7c-0.1-0.1-0.1-0.2-0.2-0.2c0.4-0.1,0-0.3,0-0.4
		C18.3,22.7,18.6,22.7,18.9,22.8z"/>
	<path id="XMLID_565_" class="st1" d="M15.9,22.8c0.2,0,0.5,0,0.7,0c0,0.2,0,0.4,0,0.6c-0.2,0.2-0.5,0.2-0.8,0
		C15.7,23.2,15.8,23,15.9,22.8z"/>
	<path id="XMLID_564_" class="st1" d="M17.4,23.5c0.1,0.2,0,0.4,0,0.6c-0.2,0.1-0.5,0.1-0.8,0c-0.1-0.2-0.1-0.4,0-0.6
		C16.9,23.4,17.1,23.4,17.4,23.5z"/>
	<path id="XMLID_563_" class="st1" d="M18.9,22.8c-0.3,0-0.6,0-0.9,0c-0.2-0.1-0.4,0.1-0.6-0.1c0.5,0,1,0,1.4,0
		c0.3-0.2,0.5-0.2,0.8,0c0.2,0,0.5,0,0.7,0c0,0,0,0.1,0,0.1c-0.3,0-0.5,0-0.8,0C19.4,22.8,19.2,22.8,18.9,22.8z"/>
	<path id="XMLID_562_" class="st1" d="M17.4,23.5c-0.2,0-0.5,0-0.7,0c-0.3,0.2-0.6,0.3-0.7,0.7c-0.2-0.3-0.1-0.9-0.8-0.7
		c0.2-0.4,0.4-0.3,0.7-0.1c0.3,0,0.5,0,0.8,0C16.9,23.5,17.2,23.3,17.4,23.5z"/>
	<path id="XMLID_561_" class="st15" d="M25.8,20.4c0,0-0.1,0-0.1,0c0-0.5-0.1-0.9,0-1.4C25.8,19.4,25.6,19.9,25.8,20.4z"/>
	<path id="XMLID_560_" class="st3" d="M26.5,22.9c0-0.2,0-0.3,0-0.5c0.2-0.1,0.3,0,0.3,0.2C26.9,22.8,26.7,22.9,26.5,22.9z"/>
	<path id="XMLID_559_" class="st5" d="M17.1,23.2c-0.1-0.1-0.2-0.1-0.2-0.2c-0.1-0.1,0.1-0.1,0.1-0.1c0.1,0,0.2,0,0.2,0.1
		C17.3,23.1,17.2,23.1,17.1,23.2z"/>
	<path id="XMLID_558_" class="st1" d="M16.7,24.1c0.2,0,0.5,0,0.7,0c-0.2,0.3-0.6-0.1-0.7,0.2c0,0-0.1-0.1-0.1-0.1
		C16.5,24.1,16.6,24.1,16.7,24.1z"/>
	<path id="XMLID_557_" class="st1" d="M25.7,22.3c0,0.4,0,0.7,0,1.1C25.6,23,25.7,22.7,25.7,22.3z"/>
	<path id="XMLID_556_" class="st3" d="M24.6,21.5c-0.2,0.2-0.4,0.1-0.6,0C24.2,21.5,24.4,21.5,24.6,21.5z"/>
	<path id="XMLID_555_" class="st5" d="M27.7,23.4c0,0-0.1,0-0.1,0c0-0.3-0.3-0.2-0.4-0.3C27.5,23,27.8,23,27.7,23.4z"/>
	<path id="XMLID_554_" class="st5" d="M18.2,24.5c-0.2,0.2-0.2,0.4-0.4,0.2c-0.2-0.2,0-0.2,0.1-0.2C18,24.6,18,24.6,18.2,24.5z"/>
	<path id="XMLID_553_" class="st13" d="M21.3,24.6c-0.1,0.1-0.3,0.2-0.5,0C21,24.6,21.1,24.6,21.3,24.6z"/>
	<path id="XMLID_552_" class="st12" d="M25.9,21.7c-0.2,0.1-0.4,0-0.4-0.1c0-0.2,0.1-0.2,0.2-0.1C25.7,21.6,25.8,21.6,25.9,21.7z"/>
	<path id="XMLID_551_" class="st5" d="M25.2,22.6c-0.1,0-0.2,0-0.1-0.1c0,0,0.1-0.1,0.1-0.1c0,0,0.1,0.1,0.1,0.1
		C25.3,22.6,25.3,22.6,25.2,22.6z"/>
	<path id="XMLID_550_" class="st1" d="M17.4,21.9c-0.3,0-0.6,0-0.9,0c-0.4,0-0.7-0.1-0.7,0.5c0,0.3-0.2,0.3-0.4,0.3
		c-0.4,0-0.7,0-1.1,0c-0.8,0-0.8,0-0.7,0.8c-0.6,0.3-0.5,1-0.7,1.5c-0.4,0-0.8,0-1.2,0c-0.2,0-0.3,0-0.3,0.2c0,0.3,0.2,0.8-0.5,0.7
		c-0.1,0-0.3-0.1-0.2-0.2c0.1-0.7-0.4-0.5-0.8-0.5c0,0,0,0-0.1-0.1c-0.2-0.6-0.1-1.3-0.1-2c0-0.3,0.2-0.5,0.5-0.5
		c0.3,0,0.4,0.2,0.5,0.5c0.1,0.3-0.1,0.7,0.2,1.1c0.4-0.7,1-1.1,1.6-1.7c-0.1-0.2-0.3-0.1-0.5-0.1c-0.5,0-1,0-1.5,0
		c-0.4,0-0.7-0.1-0.8-0.5c-0.1-0.2-0.2-0.3-0.5-0.3c-0.5,0-0.9-0.1-1.4,0.1c-0.3,0.2-0.1,0.5-0.2,0.8c-0.1,0.5-0.2,0.6-0.8,0.5
		c-0.3-0.4-0.1-0.8-0.2-1.2c-0.1-0.2-0.3-0.2-0.4-0.3c-0.2-0.1-0.2-0.3-0.3-0.5c0,0-0.1-0.1-0.1-0.1c-0.1-0.1-0.3-0.1-0.4-0.2
		c-0.2-0.2,0.1-0.6-0.4-0.6c-0.2,0-0.4,0-0.5-0.2c-0.1-0.2-0.1-0.5,0-0.7c0.2-0.2,0.5-0.2,0.7-0.2c0.3,0,0.5,0,0.6-0.3
		c0.4-0.4,0.1-0.8,0-1.2c0-0.2,0-0.4,0.1-0.5c0.1-0.1,0.1-0.1,0.2-0.2c0.2-0.1,0.4-0.2,0.4-0.4c0.1-0.3,0.3-0.4,0.6-0.3
		c0.2,0.2,0,0.2-0.1,0.3c0.2,0,0.2-0.3,0.4-0.3c0.2-0.1,0.4-0.1,0.6-0.1c1,0,1.2,0.2,1.1,1.2c0,0.3-0.1,0.5-0.4,0.6
		c-0.3,0.1-0.5,0-0.7-0.3c-0.2-0.3-0.4-0.4-0.5,0c-0.1,0.3-0.6,0.2-0.6,0.6c0.5,0.2,1.1,0.1,1.6,0.1c0.3,0,0.7-0.1,1,0.1
		c0.2,0.1,0.2,0.3,0.2,0.5c0,0.4,0,0.8,0.5,1c0.3,0.1,0.2,0.5,0.2,0.8c0,0.3,0.1,0.5,0.4,0.6c0.2,0,0.5,0.1,0.6-0.1
		c0.1-0.3-0.2-0.2-0.3-0.3c-0.4-0.3-0.3-0.7,0.1-0.9c0.4-0.2,0.4-0.3,0-0.5c-0.5-0.3-0.5-0.7,0-1c0.3-0.2,0.4-0.3,0-0.5
		c-0.5-0.3-0.5-0.7,0-1c0.1-0.1,0.3-0.1,0.2-0.2c0-0.2-0.2-0.2-0.4-0.2c-0.4,0-0.7,0.1-0.7,0.6c0,0.3,0,0.7,0,1
		c-0.1,0.6-0.3,0.7-0.9,0.5c0-0.1-0.1-0.1-0.1-0.2c-0.2-0.8,0-1.7-0.1-2.5c-0.1-0.4-0.5-0.2-0.7-0.3c-0.1,0.1-0.2-0.5-0.3,0
		c-0.1,0-0.3,0-0.4-0.1c-0.1-0.2-0.1-0.3-0.1-0.5c0.1-0.4,0.4-0.4,0.7-0.4c0.2,0.1,0.3,0.1,0.5,0.1c-0.1,0-0.3,0-0.4-0.1
		c-0.1-0.4-0.6-0.3-0.8-0.5c-0.1-0.5-0.1-0.9,0-1.4c0-0.1,0.1-0.1,0.1-0.2c0.3-0.2,0.5-0.2,0.8,0c0.6,0.1,0.8,0,0.8-0.7
		c-0.1-0.7,0-1.5,0-2.3C9.8,8.8,9.6,8.5,9.2,8.4c-0.1,0-0.1-0.1-0.1-0.2c0-0.4,0-0.8-0.6-0.6c-0.2,0-0.2-0.1-0.2-0.2
		c0-0.1,0-0.1,0-0.2C8.4,5.7,8,6.1,9.5,6c0.3,0,0.4,0,0.4,0.3C9.8,6.8,10,6.8,10.4,6.8c0.3,0,0.7,0,1,0c0,0,0,0.1,0.1,0.1
		c0.1,0.7,0,0.8-0.7,0.8c-0.1,0-0.2-0.1-0.4-0.1c0.1,0.2,0.3,0.2,0.3,0.4c0,0.4,0.1,0.8,0.6,1c0.4,0.2,0.3,1.4,0,1.6
		c-0.5,0.2-0.5,0.6-0.5,1.1c0,0.3,0,0.6,0,0.9c0,0.1-0.1,0.2-0.1,0.2c-0.1,0.1-0.3,0.1-0.5,0.2c0,0-0.1,0.1-0.1,0.1
		c0,0.3-0.1,0.7,0.1,1c0.1,0.1,0.3,0.1,0.5,0.2c0.2,0.2,0.1,0.4,0.2,0.6c0,0,0.1,0.1,0.1,0.1c0.4,0.1,0.7,0,1.1,0
		c0.3,0,0.5,0.3,0.8,0.3c0.2,0.2,0.2,0.6,0.6,0.4c0.2-0.2,0.1-0.6,0.4-0.6c0.2,0,0.4,0,0.5,0.1c0.2,0.5,0.1,0.9,0,1.4
		c-0.5,0.2-0.6,0.9-1.2,1.1c-0.2,0-0.1,0.2,0.1,0.3c0.3,0.1,0.6,0.3,0.7,0.8c0.2-0.4,0.4-0.7,0.8-0.8c0.2,0,0.3-0.3,0.2-0.5
		c-0.1-1.1,0.4-1,1.2-1c0.2,0,0.3,0,0.5,0.1c0.2,0.4,0.3,0.7,0.8,0.8c0.1,0.4,0.5,0.6,0.8,0.8c0.1,0.3,0.1,0.5-0.1,0.7l0,0
		c-0.2,0.2-0.5,0.2-0.8,0.2c-0.2,0-0.5,0.1-0.5,0.4c0,0.3-0.1,0.5,0.2,0.7C17.7,20.7,17.8,21.2,17.4,21.9z"/>
	<path id="XMLID_549_" class="st2" d="M8.3,12.1c0,0,0,0.1,0,0.1c-0.3,0.3-0.6,0.3-0.9,0.2c-0.1,0-0.3,0-0.4-0.1c-0.1,0-0.1,0-0.2,0
		c-0.1,0-0.2,0-0.4,0c-0.6,0-1,0-1.4-0.6c-0.2-0.4-0.8-0.5-0.5-1.1c0.4-0.3,0.8-0.1,1.2-0.2C6,10.1,5.8,10,5.6,10
		c-0.3,0-0.7,0.1-1-0.1C4.4,9.6,4.4,9.3,4.6,9c0.7-0.2,1.5-0.3,2.2,0c0,0.2,0,0.3-0.2,0.4c-0.2,0.2,0,0.3,0.2,0.3
		C7,10,7,10.3,7,10.5c0,0.4,0.2,0.6,0.5,0.7C7.8,11.5,7.8,12,8.3,12.1C8.3,12,8.3,12,8.3,12.1z"/>
	<path id="XMLID_548_" class="st1" d="M10.6,0.7c0.1,0,0.3,0,0.4,0c1.1,0,1.1,0,1.1,1.1c0,0.1,0,0.2,0,0.3c0.2,0.2,0.5,0,0.7,0.1
		C13,2.5,13,2.7,13.1,2.8C13.2,3,13.4,3,13.5,3.1c0.2,0.1,0.2,0.3,0.2,0.5c0,0.2-0.2,0.3-0.4,0.3c-0.3,0-0.7,0-1,0
		c-0.3-0.2,0-0.5-0.2-0.7c-0.4-0.1-0.9,0-0.8-0.7c0-0.1-0.1-0.2-0.2-0.1c-0.8,0.1-0.5-0.4-0.6-0.8C10.6,1.2,10.6,1,10.6,0.7z"/>
	<path id="XMLID_547_" class="st1" d="M6.8,9.1c-0.7,0-1.5,0-2.2,0C4.4,9.3,4.7,9.7,4.4,9.9c-0.1,0-0.2,0.1-0.3,0
		C3.8,9.8,3.8,9.4,3.6,9.3c-0.2-0.1-0.4,0-0.5-0.2c0-0.2-0.1-0.5,0.2-0.7c0.2,0,0.3,0,0.5,0C4,8.1,3.7,7.8,3.9,7.5
		c0.2-0.1,0.3-0.1,0.5,0c0.2,0.2,0,0.5,0.2,0.8c0.5,0,1,0,1.5,0C6.7,8.3,7,8.4,6.8,9.1z"/>
	<path id="XMLID_546_" class="st1" d="M12.2,3.7c0.3,0,0.6,0,0.9,0c0.2,0,0.4,0,0.4-0.3c0-0.3-0.2-0.3-0.4-0.3c-0.1,0-0.3,0-0.3-0.2
		c0.3-0.1,0.7-0.2,0.5-0.6c0-0.2,0.1-0.4,0-0.6c0-0.1,0-0.1,0.1-0.1c0.3-0.2,0.1-0.5,0.1-0.8c0.3,0.2,0.1,0.5,0.1,0.8
		c-0.1,0.4-0.2,0.8,0.5,0.7c0.2,0,0.2,0.1,0.2,0.2C14.3,3.1,14.7,3,15,3c0.3,0,0.6-0.1,0.9,0.1c-0.3,0.3-0.8,0-1.1,0.3
		c-0.3,0.2-0.4,0.7-0.9,0.8c0.5,0.2,0.8,0.4,0.9,0.8c0.3-0.2,0.2-0.4,0.2-0.6c0-0.2,0-0.5,0.3-0.5c0,0.2,0,0.5,0,0.7
		c-0.1,0.6,0.2,0.8,0.7,0.6c0.1,0.2-0.1,0.2-0.2,0.3c-0.2,0.1-0.4,0.2-0.5,0.4C15,6,15,5.6,14.7,5.6c0,0.3,0.5,0.2,0.5,0.5
		c-0.5,0.2-0.6,0.6-0.6,1.2c0,0.4,0,0.7,0,1.1c0,0.3,0,0.5-0.1,0.7C14,9,14.2,8.7,14.1,8.4c0-0.5,0-1.1,0-1.6c0-0.3-0.1-0.5-0.4-0.6
		c-0.2,0-0.3-0.2-0.4-0.3c-0.2-0.5-0.3-0.1-0.5,0c0,0-0.1,0.1-0.2,0.1c-0.2-0.2-0.2-0.5-0.6-0.5c0,0-0.1-0.1-0.1-0.1
		c-0.2-0.1-0.5,0.1-0.7-0.1c0.2-0.2,0.5-0.2,0.7,0c0.4,0,0.8,0.2,0.7-0.5c0-0.2,0.1-0.3,0.3-0.2c0.3,0,0.5,0,0.4-0.4
		c0-0.4-0.3-0.2-0.5-0.3c-0.3-0.1-0.7,0.1-1-0.1C12.1,3.7,12.2,3.7,12.2,3.7z"/>
	<path id="XMLID_545_" class="st1" d="M9.1,4.5c0-0.3,0-0.5,0-0.8c0-0.4,0.1-0.7-0.5-0.6C8.2,3.1,8.4,2.8,8.3,2.6
		c0-0.2-0.1-0.4,0.2-0.4c0.3,0,0.5,0,0.8,0c0.3,0,0.5,0,0.5,0.4c0,0.2,0,0.4,0.2,0.3c0.7-0.1,0.6,0.3,0.5,0.7
		c-0.1,0.2-0.5,0.1-0.6,0.3C10,4.2,10,4.4,9.8,4.6C9.6,4.6,9.3,4.7,9.1,4.5z"/>
	<path id="XMLID_544_" class="st1" d="M7.6,11.3c-0.8,0-0.8,0-0.8-0.8c0-0.2,0-0.5,0-0.7c0.6,0,1.2,0,1.8,0c0.3,0,0.5,0.1,0.4,0.4
		c0,0.3,0,0.7,0,1.1c-0.2,0.2-0.4,0.2-0.6,0.1c-0.1,0-0.1-0.1-0.2-0.1c-0.1-0.1-0.1-0.3-0.1-0.4c-0.1-0.2-0.2-0.2-0.4-0.1
		C7.7,11,7.7,11.1,7.6,11.3C7.6,11.3,7.6,11.3,7.6,11.3z"/>
	<path id="XMLID_543_" class="st1" d="M6.9,6c-0.1-0.6,0-1.3-0.1-1.9c0-0.2,0.1-0.3,0.3-0.3c0.2,0,0.4,0,0.6,0
		c0.6-0.1,0.8,0.2,0.6,0.7c-0.2,0.1-0.5,0-0.7,0.1C7.5,4.9,7.5,5.2,7.5,5.5C7.5,6.1,7.5,6.1,6.9,6z"/>
	<path id="XMLID_542_" class="st1" d="M3.9,6c0.3,0,0.7,0,1,0c0.3,0,0.5,0,0.5,0.4c0,0.2,0.1,0.3,0.3,0.3C6,6.7,6,6.5,6,6.3
		c0-0.9,0-1.9,0-2.8C6,3.2,6,2.9,6.3,3c0.8,0.2,1.2-0.1,1.2-1c0,0,0,0,0,0.1c0,1,0,1-1,1c-0.4,0-0.5,0.1-0.5,0.5c0,0.9,0,1.8,0,2.7
		c0,0.3,0,0.5,0.4,0.4C6.8,6.7,6.9,7,6.9,7.2c0,0.3-0.1,0.4-0.4,0.4C6.3,7.6,6,7.7,6,7.2c0-0.3,0-0.4-0.4-0.4C5.3,6.8,5.3,7,5.3,7.2
		c0,0.1,0.1,0.4-0.2,0.3c-0.1-0.2,0-0.5,0-0.8c0-0.4-0.1-0.6-0.5-0.6c-0.2,0-0.5,0-0.7-0.1C3.8,6.1,3.8,6,3.9,6z"/>
	<path id="XMLID_541_" class="st1" d="M9.1,8.2c0,0,0.1,0.1,0.1,0.1C9.4,8.6,10,8.5,9.7,9.1c-0.6,0-1.2,0-1.8,0
		C7.6,9.1,7.6,9,7.6,8.7c0-0.3,0-0.4,0.4-0.4C8.3,8.3,8.7,8.5,9.1,8.2z"/>
	<path id="XMLID_540_" class="st1" d="M11.3,6.8c0-0.2,0-0.5,0-0.7c0.2-0.1,0.5-0.1,0.7,0c0.2,0.3,0.2,0.6,0.3,0.8
		c0,1,0.2,1.9-0.1,2.9c-0.4,0.1-0.3-0.3-0.3-0.5c-0.1-0.5,0-0.9,0-1.4C11.9,7.5,11.8,7.1,11.3,6.8L11.3,6.8z"/>
	<path id="XMLID_539_" class="st1" d="M7.6,4.5c0.2,0,0.5,0,0.7,0c0.3,0,0.5,0,0.8,0c0.2,0,0.5,0,0.7,0c0,0,0.1-0.1,0.1-0.1
		c0.1-0.1,0.3,0,0.3-0.2C10.3,4,10.1,4,10,4C9.9,4,9.9,3.9,9.8,3.9c0.2-0.3,0.5-0.1,0.8-0.2c0.2,0.1,0.5-0.1,0.7,0.1
		c-0.5,0.2-0.4,0.4,0,0.6c0.2,0.1,0.5-0.1,0.8,0.1c-0.2,0.2-0.5,0.2-0.7,0c-0.2-0.1-0.5-0.1-0.7,0c-0.2,0.2-0.5,0.2-0.7,0.1
		C9.6,4.7,9.4,4.7,9.2,4.7C8.9,4.8,8.6,4.8,8.3,4.6c-0.3-0.1-0.5-0.1-0.8,0C7.6,4.6,7.6,4.6,7.6,4.5C7.6,4.5,7.6,4.5,7.6,4.5z"/>
	<path id="XMLID_538_" class="st1" d="M5.2,6.8c0,0.3,0,0.5-0.1,0.8C4.5,7.5,4.5,7.9,4.6,8.3C4.2,8.3,4.5,7.9,4.4,7.7
		C4.3,6.8,4.5,6.6,5.2,6.8z"/>
	<path id="XMLID_537_" class="st1" d="M8.3,4.6c0.3,0,0.6,0,0.8,0c0,0,0.1,0,0.1,0.1c0,0,0,0.1,0,0.1C9,4.9,9.3,5.3,8.9,5.3
		C8.2,5.4,8.3,5,8.3,4.6z"/>
	<path id="XMLID_536_" class="st1" d="M8.3,1.5c0-0.3-0.1-0.5,0.1-0.8c0,0,0,0,0,0c0.1,0,0.2,0,0.3,0c0.1-0.1,0.3-0.1,0.4,0
		c0,0.2,0,0.5,0,0.7C8.8,1.6,8.6,1.6,8.3,1.5z"/>
	<path id="XMLID_535_" class="st5" d="M8.3,11.3c0.3,0,0.5,0,0.8,0c-0.1,0.2,0.1,0.5,0,0.7c-0.3,0-0.5,0-0.8,0l0,0
		C8.2,11.8,8.1,11.6,8.3,11.3z"/>
	<path id="XMLID_534_" class="st1" d="M11.3,4.6c0.2,0,0.5,0,0.7,0c0,0.2,0,0.4,0,0.6c-0.2,0-0.5,0-0.7,0C11.3,5,11.3,4.8,11.3,4.6z
		"/>
	<path id="XMLID_533_" class="st1" d="M9.8,4.6c0.3,0,0.5,0,0.8,0c0,0.2,0.1,0.4,0,0.6c-0.2,0.1-0.5,0.1-0.7,0c0-0.1,0-0.2-0.1-0.2
		C9.8,4.9,9.7,4.7,9.8,4.6z"/>
	<path id="XMLID_532_" class="st1" d="M11.3,4.5c-0.2-0.1-0.5,0.1-0.6-0.2c-0.1-0.5,0.3-0.4,0.6-0.4C11.4,4.1,11.3,4.3,11.3,4.5z"/>
	<path id="XMLID_531_" class="st1" d="M9.7,9.1c-0.2,0,0.2-0.6-0.3-0.3C9.2,8.8,9.1,8.5,9.2,8.3c0.5,0,0.8,0.2,0.6,0.8
		C9.8,9.1,9.7,9.1,9.7,9.1z"/>
	<path id="XMLID_530_" class="st1" d="M7.6,4.5c0,0,0,0.1,0,0.1c0,0.5,0,0.9,0,1.4c0.1,0.1,0,0.1,0,0.1C7.3,6,7.1,6.2,6.9,6
		C7.3,6,7.5,5.9,7.5,5.4C7.5,5.1,7.4,4.8,7.6,4.5z"/>
	<path id="XMLID_529_" class="st12" d="M8.3,1.5c0.2,0,0.5,0,0.7,0C8.9,1.7,8.7,1.6,8.5,1.9c0,0-0.3,0.1-0.4-0.1
		C8.1,1.7,8.4,1.7,8.3,1.5z"/>
	<path id="XMLID_528_" class="st1" d="M12.1,6.1c-0.2,0-0.5,0-0.7,0c0.2-0.2,0.5,0,0.7-0.1c0,0,0.1-0.1,0.2-0.1
		c0.2,0,0.4-0.1,0.5,0.1c0,0,0,0,0.1,0.1C12.6,6.4,12.4,6.3,12.1,6.1z"/>
	<path id="XMLID_527_" class="st3" d="M8.1,9.4c0.3,0,0.6,0,0.9,0c0,0,0,0.1,0,0.1C8.7,9.4,8.4,9.4,8.1,9.4C8.1,9.4,8.1,9.4,8.1,9.4
		z"/>
	<path id="XMLID_526_" class="st13" d="M9.1,0.8c-0.1,0-0.2,0-0.4,0c0-0.1,0-0.3,0.2-0.3C9.1,0.5,9.1,0.6,9.1,0.8z"/>
	<path id="XMLID_525_" class="st13" d="M9.8,4.6c0,0.1,0,0.3,0,0.4C9.7,4.8,9.5,4.7,9.2,4.7c0,0,0-0.1,0-0.1
		C9.4,4.5,9.6,4.5,9.8,4.6z"/>
	<path id="XMLID_524_" class="st1" d="M9.9,5.2c0.2,0,0.5,0,0.7,0C10.3,5.4,10.1,5.4,9.9,5.2z"/>
	<path id="XMLID_523_" class="st3" d="M8.2,5.5c0.1,0.1,0.3,0.1,0.3,0.2c0,0.2-0.1,0.1-0.2,0C8.2,5.7,8.2,5.6,8.2,5.5
		C8.2,5.5,8.2,5.5,8.2,5.5z"/>
	<path id="XMLID_522_" class="st13" d="M7.3,6.7c-0.1,0-0.2,0-0.1,0c0,0,0.1-0.1,0.1-0.1c0,0,0.1,0,0.1,0C7.4,6.7,7.3,6.7,7.3,6.7z"
		/>
	<path id="XMLID_521_" class="st1" d="M12.2,3.7c0,0-0.1,0-0.1,0c0-0.2,0-0.4,0-0.6C12.3,3.3,12.1,3.5,12.2,3.7z"/>
	<path id="XMLID_520_" class="st13" d="M7.6,6.1c0,0,0-0.1,0-0.1c0.1,0,0.2,0,0.3,0.2c0,0,0,0.1-0.1,0.1C7.7,6.3,7.7,6.1,7.6,6.1z"
		/>
	<path id="XMLID_519_" class="st14" d="M6.7,3.6c-0.1,0-0.2,0-0.1-0.1c0-0.1,0.1-0.1,0.2-0.1c0,0,0.1,0,0.1,0.1
		C6.8,3.5,6.8,3.6,6.7,3.6z"/>
	<path id="XMLID_518_" class="st1" d="M12.2,6c0,0-0.1,0-0.1,0c0-0.2,0-0.4,0-0.6c0,0,0.1,0,0.1,0C12.4,5.6,12.4,5.8,12.2,6z"/>
	<path id="XMLID_517_" class="st0" d="M23.5,15.9c0.2,0.1,0.5,0,0.8,0.1c-0.1,0.7-0.1,1.4,0,2.1c0,0.1-0.1,0.2-0.2,0.1
		c-0.4,0-0.6-0.1-0.5-0.6c0-0.2,0-0.4,0-0.6c0-0.4-0.2-0.4-0.4-0.4c-0.3,0-0.4,0.1-0.4,0.4c0,0.5,0,1,0,1.5c0,0.3,0,0.4-0.4,0.4
		c-0.1,0-0.4-0.1-0.4,0.2c0.1,0.8-0.4,0.6-0.8,0.6c0,0,0,0-0.1-0.1c-0.1-0.4-0.3-0.5-0.7-0.5c-0.2,0-0.5,0-0.7-0.1
		c-0.1,0-0.1-0.1-0.1-0.2c-0.1-0.9-0.1-1.8,0-2.8c0-0.1,0.1-0.1,0.1-0.2c0.7-0.2,0.9,0,0.9,0.7c0,0.4,0.1,0.7,0.5,0.8
		c0.2,0.1,0.2,0.3,0.3,0.5c0.1,0.3,0.3,0.2,0.5,0c0.1-0.7,0-1.4,0-2.1c0-0.7,0.1-0.8,0.8-0.6c0.2-0.2-0.2-0.7,0.4-0.7
		c0.3,0,0.4,0.1,0.4,0.4C23.5,15.1,23.4,15.5,23.5,15.9z"/>
	<path id="XMLID_516_" class="st0" d="M21.1,20.4c-0.4,0-0.8-0.1-0.8,0.6c0,0.3-0.3,0.2-0.5,0.2c-0.2,0-0.3-0.1-0.3-0.3
		c0-0.4,0-0.8,0-1.2c0,0,0.1,0,0.1-0.1c0.5-0.1,1-0.2,1.4,0.1l0,0C21.1,19.9,21.1,20.1,21.1,20.4z"/>
	<path id="XMLID_515_" class="st2" d="M22.7,20c0.1,0.3-0.1,0.4-0.4,0.4c-0.3,0-0.4-0.1-0.4-0.4c0-0.2,0-0.4,0.4-0.4
		C22.6,19.7,22.7,19.7,22.7,20z"/>
	<path id="XMLID_514_" class="st1" d="M27.2,16c0.3-0.1,0.4-0.3,0.3-0.6c0-0.1,0-0.2,0.1-0.1c0.1,0,0.1,0.1,0.1,0.1
		c0.1,0.4-0.1,0.7-0.5,0.6C27.2,16,27.2,16,27.2,16z"/>
	<path id="XMLID_513_" class="st1" d="M27.3,16.7c0,0.2,0,0.5,0,0.7C26.8,17.1,26.8,16.9,27.3,16.7z"/>
	<path id="XMLID_512_" class="st1" d="M24.9,18.4c-0.2,0.4-0.2,0.4-0.6,0.2C24.5,18.5,24.7,18.5,24.9,18.4z"/>
	<path id="XMLID_511_" class="st1" d="M24,18.2c0.1,0,0.2-0.1,0.2-0.1c0.1,0,0.3,0.1,0.2,0.2C24.4,18.3,24.2,18.3,24,18.2z"/>
	<path id="XMLID_510_" class="st0" d="M20.4,6.1c0,0.4,0.1,0.8-0.6,0.7c-0.3,0-0.1,0.5-0.2,0.8c-0.6,0-0.9-0.1-0.7-0.8
		c-0.5-0.2-1,0-1.4-0.2c-0.3-0.1-0.2,0.2-0.1,0.3c0,0.3,0,0.6,0,0.9c0,0.3,0,0.5,0.4,0.5c0.6,0,0.1,0.5,0.3,0.7
		c-0.4,0.3-0.8,0.2-1.3,0.1c-0.4-0.1-0.4-0.4-0.4-0.7c0-0.4-0.1-0.7-0.4-1c-0.3-0.4-0.2-0.9-0.1-1.4c0-0.3,0.5-0.1,0.7-0.1
		c0.2-0.4,0.6-0.5,0.9-0.7c0.4-0.1,0.7-0.1,0.6,0.4c0,0.3,0.2,0.3,0.4,0.3C19.2,6.1,19.8,6.1,20.4,6.1z"/>
	<path id="XMLID_509_" class="st0" d="M18.9,4.6c-0.1,0.2,0.1,0.5-0.2,0.6c-0.3,0.1-0.7,0.2-0.6-0.4c0-0.3,0-0.6,0-1l0,0
		c0.4-0.1,0.8,0,1.2-0.1c0.3,0,0.4,0.1,0.4,0.4c0,0.2-0.1,0.4-0.4,0.4C19.3,4.5,19.1,4.5,18.9,4.6z"/>
	<path id="XMLID_508_" class="st1" d="M21.2,5.2c0.3,0.1,0.6,0.2,0.7,0c0.1-0.4,0.1-0.9,0-1.3c0-0.1-0.3,0-0.4,0
		c-0.3,0-0.3-0.3-0.3-0.4c0-0.2,0-0.4,0.3-0.4c0.5,0.1,0.5-0.2,0.5-0.6c0-0.3,0-0.6,0-0.9c0.3-0.1,0.3,0.1,0.2,0.2
		C22,2,22,2.2,22,2.5c0,0.5,0.1,0.9-0.6,0.6c-0.1,0.3,0.1,0.3,0.2,0.3c0.7,0.5,0.3,1.2,0.4,1.8c0,0.1-0.1,0.2-0.2,0.2
		C21.7,5.2,21.2,5.7,21.2,5.2z"/>
	<path id="XMLID_507_" class="st1" d="M18.9,4.6c0.1-0.2,0.3-0.1,0.4-0.1c0.2,0,0.3-0.1,0.3-0.3c0-0.3-0.1-0.4-0.3-0.4
		c-0.4,0-0.8,0-1.2,0c0.5-0.3,1-0.1,1.5-0.1c0.4,0.1,0.9-0.2,0.8,0.6c0,0.3,0.5,0,0.7,0.3c-0.2,0-0.5,0-0.7,0.1
		c-0.3,0.1-0.5,0.1-0.8-0.1C19.4,4.6,19.2,4.6,18.9,4.6z"/>
	<path id="XMLID_506_" class="st4" d="M17.5,5.4c-0.2,0.4-0.5,0.6-0.9,0.7c0-0.3,0-0.7,0-1c0-0.2-0.2-0.5,0.3-0.6
		c0.5,0,0.4,0.3,0.5,0.6C17.4,5.2,17.4,5.3,17.5,5.4z"/>
	<path id="XMLID_505_" class="st4" d="M19.6,4.6c0.3,0,0.6-0.2,0.8,0.1c0,0.3,0.1,0.5-0.4,0.6C19.3,5.3,19.8,4.8,19.6,4.6z"/>
	<path id="XMLID_504_" class="st1" d="M22.4,5.3c0,0.1,0,0.1-0.1,0.1c0,0-0.1,0-0.1-0.1c0-0.1,0-0.1,0.1-0.1
		C22.3,5.3,22.4,5.3,22.4,5.3z"/>
	<path id="XMLID_503_" class="st1" d="M5.2,19.7c0.4,0.1,0.1,0.5,0.3,0.7c0,0.1,0,0.2,0,0.2c0.2,0.7,0.4-0.1,0.5,0
		c0.1,0.2,0.1,0.3,0.2,0.5c0,0.1,0,0.2,0,0.3c0.1,0.4-0.2,1,0.4,1.1c0.1,0,0.1,0.1,0.1,0.1c0.4,0.1,0.6-0.1,0.6-0.6
		c0-0.3-0.2-0.6,0.2-0.9c0.3,0.9,0.2,1.4-0.5,1.9c0.4,0.2,0.8,0.1,1.2,0.1c0.3,0,0.5,0,0.7,0.2c-0.1,0.4-0.5,0.3-0.7,0.3
		c-0.5,0-0.9,0-1.4,0c-0.1,0-0.1,0-0.2,0c-0.3,0-0.6,0-0.6,0.4c0,0.1-0.1,0.1-0.1,0.1c-0.3-0.6-0.2-0.7,0.3-0.9
		c0.2,0,0.3-0.1,0.3-0.3c0-0.2,0-0.3-0.2-0.3C5.9,22.8,6,22.5,6,22.1c0-0.2,0-0.3,0-0.5c0-0.2-0.1-0.3-0.3-0.3
		c-0.2,0-0.3,0.1-0.3,0.2C5.4,22.1,5.1,22,4.7,22c-0.2,0-0.4,0-0.6,0c-0.3,0.1-0.4,0-0.4-0.3c0-0.5-0.2-0.5-0.6-0.5
		c-0.3,0-0.7,0.2-0.9-0.2c0.3,0.1,0.6,0.1,0.9,0.1c0.4,0,0.8-0.1,0.7,0.5c0,0.2,0.1,0.2,0.3,0.2c0.2,0,0.5,0,0.7,0
		c0.2,0,0.5,0.1,0.5-0.3c0-0.3-0.1-0.5-0.4-0.4c-0.1,0-0.2,0-0.2,0c-0.1-0.2,0-0.5-0.1-0.7C4.9,20.3,5.1,20,5.2,19.7z"/>
	<path id="XMLID_502_" class="st5" d="M8.2,25.7c-0.2,0-0.4-0.1-0.6,0c0.1-0.6,0-0.9-0.7-0.8c-0.2-0.8-0.1-0.9,0.7-0.9
		c0.3,0,0.5,0,0.8,0.1C8.6,24.8,8.6,25.3,8.2,25.7z"/>
	<path id="XMLID_501_" class="st1" d="M8.3,24.3c-0.3,0-0.5,0-0.8,0c-0.6-0.1-0.8,0.2-0.7,0.8c-0.3-0.2-0.1-0.5-0.2-0.7
		c0,0,0,0,0-0.1c0,0,0-0.1,0-0.1c0-0.2,0-0.4,0.2-0.6c0.5,0,1,0,1.5,0C8.5,23.7,8.5,23.9,8.3,24.3C8.4,24.2,8.4,24.2,8.3,24.3z"/>
	<path id="XMLID_500_" class="st16" d="M6.7,24.1c0,0,0,0.1,0,0.1c-0.2,0-0.4,0-0.6,0c0,0,0-0.1,0-0.1C6.3,23.9,6.5,23.9,6.7,24.1z"
		/>
	<path id="XMLID_499_" class="st1" d="M6.1,24.6c0.1-0.1,0.3,0,0.3,0.1C6.4,24.8,6.2,24.7,6.1,24.6C6.1,24.6,6.1,24.6,6.1,24.6z"/>
	<path id="XMLID_498_" class="st1" d="M5.7,21.5c0,0.1-0.1,0.1-0.1,0.1c-0.1,0-0.1,0-0.1-0.1C5.5,21.5,5.6,21.5,5.7,21.5
		C5.6,21.4,5.7,21.5,5.7,21.5z"/>
	<path id="XMLID_497_" class="st1" d="M3.9,6c0,0,0,0.1,0,0.1c0.3,0.5,0.3,1,0,1.5C3.8,7.8,4.2,8.2,3.7,8.3c0-0.3,0.2-0.6-0.1-0.8
		c0.2-0.3,0.1-0.6,0.1-1C3.8,6.4,3.7,6.2,3.9,6z"/>
	<path id="XMLID_496_" class="st1" d="M23.5,2.7c0-0.6-0.3-1.5,0.1-1.8c0.4-0.3,1.2-0.1,1.8-0.1c0.6,0,1.4-0.2,1.7,0.1
		c0.4,0.3,0.1,1.2,0.1,1.8c0,0.6,0.3,1.5-0.1,1.8c-0.4,0.3-1.2,0.1-1.8,0.1c-0.6,0-1.4,0.3-1.8-0.1C23.2,4.1,23.5,3.3,23.5,2.7z"/>
	<path id="XMLID_495_" class="st1" d="M4.6,25.5c-0.1,0.5,0.3,1.3-0.1,1.7c-0.3,0.3-1.1,0.1-1.7,0.1c-0.5,0-1,0-1.5,0
		c-0.3,0-0.5,0-0.5-0.4c0-1,0-2,0-3c0-0.3,0.1-0.4,0.4-0.4c1,0,2,0,3,0c0.3,0,0.4,0.1,0.4,0.4C4.5,24.4,4.6,24.9,4.6,25.5z"/>
	<path id="XMLID_494_" class="st5" d="M0.6,23.4c-0.2,0-0.3,0-0.3-0.2C0.5,23.1,0.5,23.4,0.6,23.4z"/>
	<path id="XMLID_493_" class="st1" d="M0.9,0.7c1.1,0,2.2,0,3.2,0c0.3,0,0.5,0.1,0.5,0.4c0,1,0,1.9,0,2.9c0,0.4-0.1,0.5-0.5,0.5
		c-1,0-1.9,0-2.9,0c-0.4,0-0.4-0.1-0.4-0.5c0-1.1,0-2.2,0-3.2C0.7,0.8,0.8,0.7,0.9,0.7z"/>
	<path id="XMLID_492_" class="st14" d="M0.9,0.7c0,0-0.1,0.1-0.1,0.1c-0.1,0-0.3-0.1-0.4-0.1c0.1-0.2,0.5-0.1,0.2-0.5
		C0.8,0.4,0.8,0.6,0.9,0.7z"/>
	<path id="XMLID_491_" class="st13" d="M24.3,26.4c-0.2-0.5,0-0.7,0.6-0.6c0.3,0,0.5-0.1,0.8,0.1c0.1,0.2,0.1,0.4,0,0.6l0,0
		C25.2,26.5,24.7,26.5,24.3,26.4z"/>
	<path id="XMLID_490_" class="st17" d="M23.1,26.5c-0.4,0.1-0.4-0.1-0.4-0.4c0-0.3,0.1-0.3,0.3-0.3c0.3,0,0.4,0.1,0.4,0.4
		C23.4,26.4,23.4,26.5,23.1,26.5z"/>
	<path id="XMLID_489_" class="st18" d="M24.3,26.4c0.4,0,0.9,0,1.3,0C25.2,26.5,24.7,26.5,24.3,26.4z"/>
	<path id="XMLID_488_" class="st18" d="M25.6,26.4c0-0.2,0-0.4,0-0.6C25.8,26,25.7,26.2,25.6,26.4z"/>
	<path id="XMLID_487_" class="st1" d="M23.1,26.7c0,0,0.1,0.1,0.1,0.2c0,0-0.1,0.1-0.1,0.1c0,0-0.1-0.1-0.1-0.1
		C22.9,26.7,23,26.7,23.1,26.7z"/>
	<path id="XMLID_486_" class="st4" d="M12.8,24.9c0-0.2,0.1-0.3,0-0.5c-0.1-0.5,0-1,0.7-1c0-0.6,0.3-0.7,0.9-0.7c0.5,0.1,1,0,1.5,0
		c0,0.2,0,0.4,0,0.6c-0.2,0.1-0.5-0.1-0.7,0.1l0,0c-0.2,0.5,0,1-0.1,1.5C14.3,24.9,13.6,25.1,12.8,24.9z"/>
	<path id="XMLID_485_" class="st19" d="M16.7,24.1c0,0-0.1,0.1-0.1,0.1c-0.2,0-0.4,0-0.6,0c-0.1-0.8-0.1-0.8,0.7-0.7
		C16.7,23.7,16.7,23.9,16.7,24.1z"/>
	<path id="XMLID_484_" class="st7" d="M15.3,25c0.2,0,0.3,0,0.5,0c0.1,0.2,0.1,0.4,0,0.6l0,0c-0.2,0.1-0.4,0.1-0.6,0
		C15.2,25.4,15,25.1,15.3,25z"/>
	<path id="XMLID_483_" class="st1" d="M15.3,25c-0.2,0.2-0.1,0.4-0.1,0.6c0,0,0,0.1,0,0.1c-0.3-0.2-0.1-0.5-0.2-0.7
		c0.2-0.5-0.1-1,0.1-1.5C15.3,24,15.1,24.5,15.3,25z"/>
	<path id="XMLID_482_" class="st1" d="M14.6,27.8c-0.2-0.3-0.3-0.5,0.2-0.5C14.8,27.5,14.8,27.7,14.6,27.8z"/>
	<path id="XMLID_481_" class="st1" d="M14.7,25.9c0,0.4,0,0.6,0,0.9C14.5,26.5,14.5,26.2,14.7,25.9z"/>
	<path id="XMLID_480_" class="st1" d="M16.1,24.9C16,24.8,16,24.7,16,24.7c0-0.1,0.1-0.1,0.2-0.1c0,0,0.1,0,0.1,0.1
		C16.2,24.7,16.2,24.8,16.1,24.9z"/>
	<path id="XMLID_479_" class="st10" d="M15.8,25.6c0-0.2,0-0.4,0-0.6C16,25.2,16,25.4,15.8,25.6z"/>
	<path id="XMLID_478_" class="st10" d="M15.2,25.7c0,0,0-0.1,0-0.1c0.2,0,0.4,0,0.6,0C15.6,25.8,15.4,25.7,15.2,25.7z"/>
	<path id="XMLID_477_" class="st1" d="M16.1,7.6c0.4-0.1,0.7,0,0.6,0.5c0,1,0,1,0.9,1c0.2,0,0.4,0,0.6,0l0,0
		c0.3,0.6,0.1,0.9-0.5,0.9c-0.8,0-1.5,0-2.3,0c-0.2,0-0.5,0-0.6,0.2c-0.4,0.8-1,0.6-1.7,0.5c-0.2-0.1-0.3-0.3-0.2-0.5
		c0.1-0.3,0.4-0.1,0.6-0.2c-0.2,0-0.5,0-0.8,0c-0.2,0-0.4,0-0.6-0.2c0-1,0-2,0-3c0.4-0.3,0.8-0.2,1.3-0.1c0.4,0.1,0.4,0.4,0.4,0.7
		c0,0.4,0.1,0.7,0.4,1c0,0.2-0.1,0.5,0.1,0.7C14.6,9,14.7,9,14.9,8.9c0.2-0.1,0.1-0.3,0.2-0.5c0.1-0.2,0.3-0.2,0.4-0.2
		c0.2,0,0.1-0.1,0.1,0c-0.3,0.1-0.7-0.3-0.9,0.2c-0.1,0-0.2,0-0.2-0.1c0-0.5,0-1,0-1.5c0-0.4,0-0.8,0.6-0.7c0.1,0,0.1-0.1,0.1-0.2
		l0-0.1c-0.1-0.6,0.5-0.4,0.7-0.7c0-0.2-0.1-0.4,0-0.6c0.5,0.1,0.8,0.8,0.6,1.2C16.4,6,16.3,6,16.2,6c-0.2-0.1-0.4,0-0.6,0.1
		c-0.1,0-0.5,0.2,0,0.3c0.2,0,0.2,0.3,0.1,0.5c-0.1,0.1-0.2,0.1-0.2,0.2c0-0.1,0.1-0.2,0.2-0.2c0.3,0.2,0,0.4,0,0.6
		C15.7,7.7,15.8,8,16.1,7.6z"/>
	<path id="XMLID_476_" class="st1" d="M15.2,3.9c-0.3,0.3-0.1,0.7-0.1,1c0,0.2,0,0.3-0.3,0.3c-0.2,0-0.4-0.1-0.3-0.3
		c0-0.3-0.1-0.5-0.4-0.4c-0.2,0-0.3-0.1-0.3-0.3c0-0.3,0.1-0.3,0.4-0.3c0.1,0,0.4,0,0.4-0.2c0-0.8,0.6-0.5,1-0.6c0.2,0,0.3,0,0.5,0
		c0,0.1-0.1,0.1-0.1,0.2C16,3.9,15.6,3.9,15.2,3.9z"/>
	<path id="XMLID_475_" class="st1" d="M17.9,3.2c0,0.1-0.1,0.2-0.2,0.2c-0.1,0-0.1,0-0.1-0.1c0-0.1,0-0.2,0.1-0.1
		C17.8,3.1,17.9,3.2,17.9,3.2z"/>
	<path id="XMLID_474_" class="st1" d="M0.8,9.8c0,0,0-0.1,0-0.1c0-0.5,0.4-0.5,0.7-0.6c0.5,0,1,0,1.5,0c0.2,0.3,0.2,0.7,0.7,0.8
		c0.2,0,0.1,0.4,0.3,0.5c0.3,0.1,0.7,0.2,0.6,0.6c-0.1,0.2-0.4,0.2-0.6,0.3c-0.1,0-0.3,0-0.4,0C3.3,11.1,3,11,3,10.6
		c0,0.1-0.1,0.1-0.2,0.1c-0.4,0.1-0.7,0.1-1.1,0c-0.3-0.1-0.1-0.3-0.1-0.5c0-0.2,0-0.3-0.3-0.3C1.2,9.9,1,9.9,0.8,9.8z"/>
	<path id="XMLID_473_" class="st1" d="M0.8,8.3c0-0.4,0-0.7,0-1.1c0-0.3,0-0.5,0.4-0.4c0.3,0,0.4,0.1,0.4,0.4c0,0.1,0,0.2,0,0.4
		C1.5,8.4,1.5,8.4,0.8,8.3L0.8,8.3z"/>
	<path id="XMLID_472_" class="st1" d="M3.8,10.6c-0.1-0.4-0.3-0.6-0.8-0.7C2.9,9.8,3,9.4,3,9.1c0.1-0.2-0.2-0.6,0.2-0.8
		C3.1,8.6,3.1,8.8,3.1,9.1c0.2,0.1,0.1,0.4,0.3,0.5c0.2-0.1,0.2-0.4,0.3-0.5c0.2,0.2,0.1,0.5,0.4,0.7C4.1,10,4,10.3,4,10.5
		C3.9,10.5,3.9,10.6,3.8,10.6z"/>
	<path id="XMLID_471_" class="st1" d="M1.5,9.1C1.2,9.3,0.9,9.4,0.8,9.7c0-0.2,0-0.4,0-0.6C1,9.1,1.2,9.1,1.5,9.1z"/>
	<path id="XMLID_470_" class="st1" d="M8.2,25.7c0.3-0.5,0.1-1,0.1-1.5l0,0C8.7,24,9,24,9.2,24.5c0.1,0.3,0.4,0.4,0.6,0.5l0,0
		c0.1,0.6,0,0.8-0.6,0.8c-0.3,0-0.7-0.3-0.9,0.2C8.3,25.9,8.2,25.8,8.2,25.7z"/>
	<path id="XMLID_469_" class="st1" d="M4.5,20.4c-0.2,0-0.4,0.1-0.6,0c-0.1-0.3-0.1-0.5,0-0.8c0.2-0.1,0.4-0.1,0.6,0
		C4.7,19.9,4.7,20.2,4.5,20.4z"/>
	<path id="XMLID_468_" class="st1" d="M3.7,19.6c-0.2,0-0.4,0-0.6,0c0-0.3-0.2-0.6,0.1-0.8c0.2-0.1,0.4-0.1,0.6,0.1
		C3.9,19.2,3.9,19.4,3.7,19.6z"/>
	<path id="XMLID_467_" class="st1" d="M4.5,20.4c0-0.2,0-0.5,0-0.7c-0.1-0.3-0.4-0.6,0.1-0.7c0,0.2,0,0.5,0,0.7
		c0.2,0.3,0.2,0.5,0,0.8c0,0.2,0,0.5,0,0.7C4.4,20.9,4.6,20.7,4.5,20.4z"/>
	<path id="XMLID_466_" class="st1" d="M3.1,18.9c0,0.2,0.1,0.5,0,0.7c-0.2-0.2,0-0.5-0.1-0.7c0-0.2,0-0.5,0-0.7
		C3.5,18.4,3.3,18.7,3.1,18.9z"/>
	<path id="XMLID_465_" class="st1" d="M3.7,19.6c0-0.2,0-0.5,0-0.7c0.5,0.2,0.3,0.5,0.1,0.7c0,0.2,0,0.5,0,0.7
		C3.7,20.2,3.8,19.9,3.7,19.6z"/>
	<path id="XMLID_464_" class="st5" d="M3.1,20.6c-0.1,0-0.1,0.1-0.2,0.1c-0.1,0-0.1,0-0.1-0.1c0,0,0.1-0.1,0.1-0.1
		C3,20.5,3,20.5,3.1,20.6z"/>
	<path id="XMLID_463_" class="st2" d="M3.9,19.7c-0.1-0.2,0.1-0.5-0.1-0.7c-0.2,0-0.4,0-0.6,0C3,18.7,3.2,18.4,3,18.2
		c-0.6-0.1-1.1-0.1-1.7,0c-0.4,0-0.6-0.1-0.5-0.5c0-0.3,0-0.6,0-0.9c0,0,0-0.1,0-0.1c0.2-0.2,0.4-0.1,0.7-0.1c0.1,0,0.1,0.1,0.2,0.1
		c0.1,0.4,0.3,0.5,0.7,0.5c0.5,0,0.9-0.1,1.4,0.1c0.2,0.1,0.1,0.5,0.4,0.6c0,0,0.1,0,0.1,0C4.5,18,5,18.1,5,17.8
		c0-0.4-0.5-0.2-0.8-0.3c-0.2,0-0.4,0-0.5-0.2c-0.1-0.3-0.1-0.5,0.1-0.7c0.6-0.3,1.3-0.2,1.9-0.1c0.1,0,0.3,0.1,0.3,0.3
		c0,0.1-0.1,0.2,0,0.3c-0.1,0.5,0.1,0.9,0,1.4C6,18.8,6,19,5.6,18.9c-0.3,0-0.7,0-1,0c-0.3,0.2,0,0.5-0.1,0.7
		C4.3,19.7,4.1,19.7,3.9,19.7z"/>
	<path id="XMLID_462_" class="st1" d="M0.7,18.7c0.1,0,0.1,0,0.2,0.1c0,0.1-0.1,0.1-0.1,0.1c-0.1,0-0.1,0-0.1-0.1
		C0.6,18.7,0.6,18.7,0.7,18.7z"/>
	<path id="XMLID_461_" class="st2" d="M19.6,27.3c0-0.5,0-1,0-1.5c0.3,0.1,0.8-0.3,0.8,0.4C20.4,27.2,20.4,27.2,19.6,27.3z"/>
	<path id="XMLID_460_" class="st1" d="M7.3,26.5c0.1,0,0.2-0.1,0.3-0.2c0.1,0.1,0.3,0.2,0.2,0.4C7.7,26.5,7.5,26.7,7.3,26.5z"/>
	<path id="XMLID_459_" class="st1" d="M13.4,1.5C13.4,1.6,13.4,1.6,13.4,1.5C13.2,1.8,13.1,2,13,2.3c0,0.1-0.1,0.1-0.2,0.1
		c-0.2-0.1-0.6,0.1-0.8-0.2c0.4,0.1,0.8,0.2,0.8-0.5C12.8,1.3,13.2,1.6,13.4,1.5z"/>
	<path id="XMLID_458_" class="st1" d="M0.9,12.8c0,0-0.1-0.1-0.1-0.1c0-0.2,0-0.4,0-0.6c0.1-0.3,0-0.5,0-0.8c0-0.7,0-0.7,0.8-0.5
		c0.2,0.3,0,0.7,0.2,1.1c0.1,0.1,0.3,0.1,0.4,0c0.1-0.2,0.2-0.5,0.6-0.5c0.3,0,0.3,0.2,0.4,0.4c0.4,0.2,0.9,0,1.3,0.2
		c0.2,0.1,0.2,0.3,0.2,0.5c0,0.1,0,0.2,0.2,0.2c0.1,0,0.2,0,0.2-0.1c0.3-0.9,1-0.6,1.7-0.6c0.4,0.6,0.2,1.3,0.1,2
		c-0.1,0.5-1.2,0.5-1.5,0.1c-0.1-0.1-0.1-0.2-0.2-0.3c-0.1-0.1-0.3-0.2-0.4,0c-0.1,0.1,0,0.3,0.1,0.3c0.3,0.2,0.8,0.3,0.5,0.8
		c-0.2,0.4-0.7,0.2-1.1,0.2c-0.4,0-0.5-0.3-0.5-0.7c0-0.5,0.1-0.9-0.1-1.4c-0.7-0.3-1.4,0-2.1-0.2C1.3,12.9,1.1,13,0.9,12.8z"/>
	<path id="XMLID_457_" class="st1" d="M1.5,10.7c-0.8,0.1-0.7,0.7-0.6,1.2c0,0.1-0.1,0.1-0.1,0.1c0-0.3,0-0.6,0-0.9
		c0-0.4,0-0.7,0.5-0.6c0.4,0,0.2-0.4,0.2-0.6c0,0,0-0.1,0-0.1c0,0,0,0,0,0c0.6,0.1,0.2,0.5,0.1,0.7c0,0,0,0,0,0.1c0,0,0,0,0,0.1
		C1.6,10.8,1.5,10.7,1.5,10.7z"/>
	<path id="XMLID_456_" class="st8" d="M1.5,9.8c0,0,0,0.1,0,0.1c-0.3,0-0.6,0-0.8,0c-0.2,0-0.3-0.1-0.2-0.2c0.1-0.2,0.2,0,0.3,0
		C1,9.8,1.2,9.8,1.5,9.8z"/>
	<path id="XMLID_455_" class="st4" d="M0.9,12.8c0.9,0.1,1.9,0.1,2.8,0c0.2,0.8,0.1,1.6,0,2.3c-0.1,0.1-0.3,0.1-0.5,0.2
		c-0.8,0.1-0.8,0.1-0.9,0.9c-0.1,0.6-0.3,0.7-0.9,0.5l0,0c-0.1,0-0.1-0.1,0-0.1c0.1-0.4,0.1-0.7-0.5-0.7c-0.5,0-0.2-0.4-0.3-0.6
		c0.1-0.2,0.3-0.1,0.5-0.1c0.3,0,0.3-0.2,0.3-0.4c0-0.2,0-0.5-0.3-0.4c-0.5,0.1-0.5-0.2-0.5-0.6C0.8,13.5,0.7,13.1,0.9,12.8z"/>
	<path id="XMLID_454_" class="st5" d="M27.7,8.4c-0.2,0.2-0.3,0.3-0.5,0.5c0-0.2,0-0.3,0-0.5C27.4,8.3,27.6,8.4,27.7,8.4z"/>
	<path id="XMLID_453_" class="st1" d="M1.5,16.6c0,0,0,0.1,0,0.1c-0.2,0-0.5,0-0.7,0C0.9,16,1.2,16.5,1.5,16.6z"/>
	<path id="XMLID_452_" class="st20" d="M24.8,12.8c0.1,0,0.2,0.1,0.3,0.1c0.2,0.2,0.2,0.4,0,0.6c-0.8,0-0.8,0-0.7-0.7
		C24.5,12.8,24.6,12.8,24.8,12.8z"/>
	<path id="XMLID_451_" class="st0" d="M12.9,10.6c0.3,0,0.6,0,0.9,0c0.3,0,0.6,0,0.5-0.5c-0.1-0.3,0.2-0.3,0.4-0.3
		c0.9,0,1.7,0,2.6,0c0.6,0,0.9-0.2,0.8-0.8c0.5,0,1,0,1.5,0c0,0.5,0,1,0,1.5c0,0-0.1,0-0.1,0c-1.5,0-1.5,0-1.4,1.5
		c-0.4,0.1-0.8,0-1.3,0c-0.4,0-0.4-0.4-0.4-0.6c0-0.3,0.1-0.6-0.3-0.7c-0.3,0-0.6-0.1-0.7,0.2c-0.1,0.3-0.2,0.7,0.2,0.9
		c0.2,0.2,0.5,0.3,0.3,0.7c0,0.1,0,0.2,0,0.3c-0.3,0.2-0.6,0.2-0.7,0.7c0,0.2-0.3,0.2-0.5,0.3c-0.2,0.1-0.3,0.4-0.1,0.4
		c0.9,0.2,0.6,1,0.7,1.6c0,0,0,0.1,0,0.1c0,0.1,0,0.1,0,0.2c0,0,0,0.1,0,0c0-0.1,0.1-0.2,0.1-0.3c0.3-0.3,0.2-0.7,0.2-1
		c0.1-0.6-0.2-1.3,0.2-1.9c0.3,0.1,0.9-0.1,0.8,0.7c0,0.1,0.1,0.2,0.2,0.2c0.1,0,0.3,0,0.4,0c0.8,0,0.8,0,0.8,0.9
		c0,0.4-0.1,0.8,0.5,0.7c0.1,0.2,0.4,0.2,0.5,0.2c-0.1-0.2-0.4,0.1-0.4-0.2c0.3-0.3,0.1-0.7,0.1-1.1c0-0.4,0.1-0.5,0.5-0.5
		c0.3,0,0.6,0,0.9,0c0.1,0.2,0.1,0.4,0.1,0.7c0,0.3,0,0.5-0.1,0.8c-0.4,0.1-0.5,0.5-0.7,0.8l0,0c-0.3,0.2-0.5,0.3-0.7,0.7
		c-0.2,0.4-0.7,0.3-0.9,0c-0.1-0.3-0.3-0.4-0.6-0.6c-0.2-0.1-0.2-0.3-0.2-0.5c0-0.1-0.1-0.2-0.2-0.2c-0.1,0-0.1,0.1-0.1,0.1
		c0,0.1,0,0.2,0.1,0.3c0.2,0.1,0.3,0.1,0.5,0.3c0.2,0.4,0.2,0.9,0,1.3c0,0,0,0.1-0.1,0.1c-0.6,0.1-0.9-0.1-0.8-0.7
		c-0.4-0.3-0.9,0-1.3-0.1c-0.3,0-0.7,0-1-0.2c-0.1-0.4,0.1-0.8-0.1-1.2c-0.1-0.1-0.3-0.1-0.5,0c-0.3-0.1-0.3-0.3-0.3-0.5
		c0-0.3,0-0.7,0-1c0-0.4,0-0.7,0.5-0.9c0.1,0,0.2-0.1,0.2-0.3c0-0.1-0.1-0.1-0.2-0.1c-0.2,0-0.2,0.1-0.3,0.2
		c-0.1,0.3-0.3,0.5-0.7,0.4c-0.1,0-0.1-0.1-0.1-0.1c0.1-0.7-0.3-1.4-0.1-2.1C12.9,10.7,12.9,10.6,12.9,10.6z"/>
	<path id="XMLID_450_" class="st1" d="M15.9,12.6c-0.1-0.1,0.1-0.5-0.2-0.4c-0.8,0.1-0.6-0.5-0.6-0.9c0-0.2-0.1-0.6,0.1-0.6
		c0.4-0.1,0.9-0.1,1.3,0.1c0.2,0.1,0.1,0.5,0.1,0.8c-0.1,0.5,0.1,0.8,0.6,0.7c0.3,0,0.6,0,0.9,0l0,0c0,0,0.1,0.1,0.1,0.2
		c0,0.1,0,0.3-0.1,0.3c-0.3-0.6-0.9-0.4-1.4-0.3C16.5,12.3,16.2,12.4,15.9,12.6z"/>
	<path id="XMLID_449_" class="st17" d="M18.1,12.6c0-0.1,0-0.2,0.1-0.4c0.2-0.1,0.5-0.1,0.7,0c0.1,0.2,0.1,0.5-0.1,0.6
		C18.6,12.9,18.2,13,18.1,12.6z"/>
	<path id="XMLID_448_" class="st5" d="M18.8,15.2c0.1,0.3,0.7-0.3,0.6,0.4c-0.2-0.2-0.7,0.2-0.7-0.4C18.7,15.2,18.7,15.2,18.8,15.2z
		"/>
	<path id="XMLID_447_" class="st7" d="M18.9,12.2c-0.2,0-0.5,0-0.7,0c0,0,0-0.1,0-0.1C18.4,12.2,18.7,12,18.9,12.2z"/>
	<path id="XMLID_446_" class="st4" d="M17.4,7c-0.1-0.2-0.5,0.1-0.3-0.2c0.1-0.2,0.3-0.5,0.5-0.3c0.4,0.4,1,0.2,1.4,0.3
		c0,0,0,0,0,0.1c0,0,0,0.1-0.1,0.1C18.4,6.9,17.9,6.6,17.4,7z"/>
	<path id="XMLID_445_" class="st1" d="M20.2,9.1c0,0.4,0.3,1-0.3,1.3C20.3,10.1,20.1,9.5,20.2,9.1z"/>
	<path id="XMLID_444_" class="st1" d="M19.6,15.9c0-0.5-0.1-1,0.7-0.8c0.1,0,0.3,0.2,0.2-0.1c-0.2-0.5,0.2-0.6,0.5-0.6
		c0.4,0,0.8,0,1.2,0c0.5,0,0.2,0.5,0.4,0.6c-0.7,0-0.7,0.4-0.7,1c0,0.7,0.1,1.3,0,2c-0.5,0.1-0.6-0.4-0.8-0.6
		c-0.6,0.1-0.8-0.1-0.7-0.7C20.5,15.9,20.4,15.9,19.6,15.9z"/>
	<path id="XMLID_443_" class="st1" d="M25,13.6c0-0.2,0-0.4,0-0.6c0.3,0,0.7,0,1,0c0.2,0,0.4,0,0.4,0.3c0,0.2-0.1,0.3-0.4,0.3
		C25.7,13.6,25.4,13.6,25,13.6z"/>
	<path id="XMLID_442_" class="st19" d="M23.1,23.4c-0.3,0.1-0.4-0.1-0.4-0.4c0-0.3,0.1-0.3,0.4-0.3c0.3,0,0.4,0.1,0.4,0.4
		C23.5,23.4,23.4,23.5,23.1,23.4z"/>
	<path id="XMLID_441_" class="st4" d="M17.4,21.9c0-0.3,0-0.7,0-1c0-0.4,0-0.6-0.5-0.5c-0.3,0-0.3-0.2-0.3-0.4
		c0.1-1.1,0.1-1.1,1.2-1.1c0.1,0,0.2,0,0.3,0c0,0.5,0,1.1,0,1.6c0,0.4-0.1,0.8,0.5,0.7c0.4,0,0.1,0.5,0.2,0.7
		C18.4,21.9,17.9,21.9,17.4,21.9z"/>
	<path id="XMLID_440_" class="st2" d="M18.2,18.9c0-0.3,0-0.5,0-0.8c0,0,0.1,0,0.1-0.1c0.7-0.1,0.8,0,0.7,0.7c0,0,0,0.1-0.1,0.1
		C18.7,18.9,18.4,18.9,18.2,18.9z"/>
	<path id="XMLID_439_" class="st2" d="M19.7,22.6c-0.3,0-0.5,0-0.8,0c0-0.2,0-0.4,0-0.6c0.3-0.1,0.5-0.1,0.8,0
		C19.7,22.2,19.7,22.4,19.7,22.6z"/>
	<path id="XMLID_438_" class="st3" d="M19.3,19.6c-0.7,0.1-0.2-0.5-0.4-0.7l0,0c0.3-0.2,0.5-0.2,0.8,0l0,0c0.1,0.1,0.1,0.2,0.1,0.3
		C19.7,19.4,19.4,19.5,19.3,19.6z"/>
	<path id="XMLID_437_" class="st0" d="M19.3,19.6c0-0.2,0.1-0.3,0.4-0.4c0.1,0.1,0.1,0.3,0,0.4l0,0C19.5,19.6,19.4,19.6,19.3,19.6z"
		/>
	<path id="XMLID_436_" class="st1" d="M20.2,21.5c-0.1,0.1-0.1,0.1-0.2,0.1c-0.1,0-0.2,0-0.2-0.1c0,0,0.1,0,0.1,0
		C20,21.5,20.1,21.5,20.2,21.5z"/>
	<path id="XMLID_435_" class="st0" d="M8.3,14.6c0,0.2,0,0.3,0,0.5c0.5,0.2,1-0.1,1.5,0.1c0,0.9,0,1.9,0,2.8c-1,0.1-2,0.1-2.9,0
		c-0.1-0.4-0.1-0.7,0.5-0.6c0.2,0,0.3-0.1,0.3-0.3c0-0.3,0-0.5,0.4-0.5c0.4,0,0.4,0.2,0.3,0.4c-0.1,0.4,0.2,0.3,0.4,0.3
		c0.3,0,0.3-0.1,0.3-0.4c0.1-1.2,0.1-1.2-1.1-1.2c-0.2,0-0.3,0-0.5,0c0,0.1-0.1,0.1-0.1,0c-0.3-0.1-0.6-0.1-0.5,0.4
		c0.1,0.5-0.4,0.3-0.6,0.4c-0.4-0.7-1.1-0.6-1.8-0.6c-0.2,0-0.5,0-0.6-0.2c-0.2-0.7-0.1-0.8,0.6-0.8c0.2,0,0.4,0,0.6,0
		c0.2,0,0.4-0.1,0.4-0.3c-0.1-0.4,0.2-0.4,0.5-0.5C6.5,14.2,7,14.6,7.4,15c0.3,0.1,0.5,0.1,0.6-0.2C8,14.6,8.1,14.5,8.3,14.6z"/>
	<path id="XMLID_434_" class="st2" d="M9.8,25C9.4,25,9,25.1,9,24.4c0-0.3-0.5-0.1-0.7-0.1c0-0.3,0-0.5,0-0.8
		c0.2-0.1,0.5,0.1,0.7-0.1c-0.2-0.3-0.1-0.6-0.2-0.9c0-0.1,0-0.3-0.2-0.3c-0.2,0-0.2,0.2-0.2,0.3c0,0.3,0.1,0.7-0.2,0.9
		c-0.4,0-0.8,0-1.2,0c-0.3,0-0.4-0.1-0.4-0.3c0-0.3,0-0.4,0.3-0.4c0.4,0.1,0.4-0.1,0.4-0.5c0-0.4,0-0.7,0-1.1c0.6,0,1.2,0,1.8,0
		c0.3,0,0.5,0,0.4,0.4C9.8,21.9,10,22,10.3,22c0.7,0,1.4,0,2.1,0c0.2,0,0.4,0,0.4,0.3c0,0.3,0,0.5-0.4,0.4c0,0-0.1,0-0.1,0
		c-0.6,0-0.1,0.6-0.4,0.8c-0.2,0.1-0.7-0.2-0.7,0.4c0,0.2,0,0.4-0.3,0.4c-0.3,0-0.4-0.1-0.4-0.4c0-0.2,0-0.5,0-0.7
		c0-0.3-0.1-0.4-0.4-0.4c-0.3,0-0.4,0.1-0.4,0.4C9.9,23.7,9.8,24.4,9.8,25z"/>
	<path id="XMLID_433_" class="st2" d="M9.8,18.2c0.8-0.1,0.8-0.1,0.8-0.9c0-0.1,0-0.2,0-0.4c0-1.1,0-1,1.1-1c0.3,0,0.4,0,0.4,0.4
		c0,0.3-0.1,0.5-0.4,0.4c-0.3-0.1-0.4,0.1-0.4,0.4c0,0.2,0,0.4,0.3,0.4c0.3,0,0.5,0,0.4,0.4c0,0.3-0.2,0.4-0.4,0.3
		c-0.3-0.1-0.3,0.1-0.4,0.4c0,0.3,0.1,0.4,0.4,0.4c0.3,0,0.4,0.1,0.4,0.4c0,0.3-0.1,0.4-0.4,0.4c-0.3,0-0.4,0.1-0.4,0.4
		c0,0.3,0.1,0.5,0.4,0.4c0.4-0.1,0.3,0.2,0.3,0.4c0,0.3-0.1,0.4-0.4,0.3c-0.1,0-0.1,0-0.2,0c-0.9,0-0.9,0-0.9-0.9
		c0-0.4,0-0.7-0.5-0.6c-0.2,0-0.2-0.1-0.2-0.3C9.8,19,9.8,18.6,9.8,18.2L9.8,18.2z"/>
	<path id="XMLID_432_" class="st1" d="M12.9,10.6c0,0,0,0.1,0,0.1c-0.2,0.7,0,1.4-0.1,2c0.7,0.3,0.7,0.3,0.7,1.2c0,0.2,0,0.4,0,0.6
		c0.1,0.5-0.1,0.7-0.6,0.7c-0.1,0-0.1,0-0.2,0c-0.1,0-0.2,0.3-0.3,0c-0.1-0.2-0.3-0.2-0.5-0.2c0,0-0.1-0.1-0.1-0.1
		c-0.1-0.1,0-0.3-0.1-0.4c-0.2-0.2-0.4-0.1-0.6-0.2c-0.2-0.2-0.1-0.4,0-0.6c0.1-0.2,0.4-0.2,0.6-0.4c0.2-0.5-0.3-0.4-0.5-0.6
		c-0.1-0.1-0.1-0.1-0.2-0.2C11.1,12,11,11.5,11.7,11c0.4-0.3,0.9-0.6,1.1-1.2c0.3,0.2,0.7,0.1,1,0.2C13.5,10.2,12.8,9.8,12.9,10.6z"
		/>
	<path id="XMLID_431_" class="st4" d="M12.8,9.8c0.1,0.4,0.2,0.9-0.5,0.8c-0.1,0.5-0.5,0.7-0.9,1c-0.2,0.1,0,0.7,0,1.1
		c-0.3,0.4-0.5,0.4-0.8,0c0.1-0.5,0-1.1,0.1-1.7c0-0.3,0-0.5,0.4-0.4c0.3,0,0.4-0.1,0.4-0.4c0-0.3,0-0.6,0-0.9c0-0.1,0-0.3-0.2-0.3
		c-0.7,0.1-0.5-0.4-0.6-0.8c0-0.2,0-0.3,0-0.5c-0.1-0.1-0.1-0.2,0-0.2c0.6,0.1,0.8-0.2,0.7-0.8c0.6-0.1,0.9,0,0.8,0.7
		c-0.1,0.6,0,1.3,0,1.9c0,0.1-0.1,0.3,0.1,0.4C12.4,9.8,12.6,9.8,12.8,9.8z"/>
	<path id="XMLID_430_" class="st3" d="M13.7,21.5c0-0.3-0.1-0.4-0.4-0.4c-0.3,0.1-0.4-0.1-0.4-0.4c0-0.3,0.1-0.4,0.4-0.4
		c0.3,0,0.4-0.1,0.4-0.4c0-0.1,0-0.1,0-0.2c0-0.5,0.8,0.1,0.7-0.4c0-0.4,0.1-0.6,0.5-0.5c0.2,0,0.5,0,0.7,0c0.3,0,0.3,0.1,0.3,0.3
		c0,0.2,0,0.5-0.3,0.4c-0.4-0.1-0.5,0.1-0.5,0.5c0,0.2,0,0.4,0,0.6c0,0.2,0,0.4-0.3,0.4c-0.4-0.1-0.5,0.2-0.5,0.5
		C14.1,21.8,13.9,21.7,13.7,21.5z"/>
	<path id="XMLID_429_" class="st3" d="M14.4,16.4c0.3-0.2,0.5,0.1,0.7,0.1c0.3,0,0.7,0.1,1,0c0.2-0.1,0.4,0,0.5,0.2
		c-0.1,0-0.2,0-0.2,0c-0.4,0-0.9-0.1-1.2,0c-0.3,0.2-0.1,0.7-0.1,1.1c0,0.1,0,0.2-0.1,0.3c-0.7-0.2-0.6,0.7-1,0.8
		c-0.2,0.1-0.5,0.1-0.4-0.3c0.1-0.3-0.1-0.5-0.4-0.4c-0.3,0.1-0.4-0.2-0.4-0.4c0-0.3,0.2-0.3,0.4-0.3c0.2,0,0.4,0.1,0.4-0.2
		c-0.1-0.6,0.4-0.5,0.7-0.5C14.4,16.6,14.3,16.5,14.4,16.4z"/>
	<path id="XMLID_428_" class="st0" d="M6.9,12.2c0,0,0.1,0,0.1,0c0.2,0.1,0.3,0.1,0.5,0c0.3,0.2,0.6,0.1,0.8,0c0,0.5,0,1,0.1,1.4
		c0.1,0.6-0.3,1-0.5,1.4c-0.1,0.1-0.3,0-0.3-0.1c0-0.1-0.1-0.2-0.1-0.2C6.4,14.1,6.9,13.1,6.9,12.2z"/>
	<path id="XMLID_427_" class="st12" d="M11.3,13.8c0,0.2,0,0.3,0,0.5c0.2,0.2,0.6-0.1,0.8,0.2c-0.2,0.2,0.1,0.3,0,0.5
		c-0.4,0.1-0.9,0.1-1.3,0l0,0c-0.2-0.2,0.1-0.5-0.2-0.7c-0.2,0-0.4,0.1-0.6,0c-0.1-0.5-0.1-0.9,0-1.4l0,0c0.2-0.1,0.4,0,0.6,0
		c0.2,0.2,0.2,0.4,0.2,0.7C11,13.6,11.2,13.5,11.3,13.8z"/>
	<path id="XMLID_426_" class="st1" d="M3.9,15.9c0.3,0,0.6,0,0.9,0c0.6,0,1.4-0.3,1.4,0.8c0,0-0.1,0.1-0.1,0.1
		c-0.5-0.3-1-0.1-1.5-0.1c-0.2,0-0.5,0-0.7,0C3.7,16.4,3.7,16.2,3.9,15.9z"/>
	<path id="XMLID_425_" class="st1" d="M12.8,15.2c0.5-0.2,0.8-0.4,0.7-1c-0.1-0.6,0.2-1.3-0.7-1.4c0,0,0.1,0,0.1,0
		c0.4,0.1,0.7,0.2,0.6-0.4c0-0.4,0.3-0.3,0.5-0.3c0.3,0,0.4,0.1,0.4,0.4c0,0.2,0,0.5-0.3,0.5c-0.4-0.1-0.5,0.2-0.5,0.5
		c0,0.4,0,0.9,0,1.3c0,0.2,0,0.4,0.2,0.5c-0.3,0.2,0,0.6-0.3,0.8C13.4,15.6,13.2,15.3,12.8,15.2z"/>
	<path id="XMLID_424_" class="st13" d="M6.8,19.6c0-0.1,0-0.2,0-0.2c0-0.3,0-0.5,0.4-0.5c0.3,0,0.4,0.1,0.4,0.4c0,0.2,0,0.4,0,0.6
		c0,0.3,0,0.5-0.4,0.5c-0.4,0-0.3-0.3-0.3-0.5C6.8,19.8,6.8,19.7,6.8,19.6z"/>
	<path id="XMLID_423_" class="st2" d="M7.6,15.1c0.1,0,0.2,0,0.2-0.1c0.2-0.4,0.4-0.9,0.5-1.3c0.4,0,0.8-0.1,0.8,0.5
		c0,0,0,0.1,0,0.1c0,0,0,0,0,0c-0.2,0.2-0.6-0.2-0.8,0.2c-0.2,0.1-0.2,0.2-0.2,0.4c-0.1,0.3-0.3,0.3-0.5,0.2
		C7.5,15.1,7.6,15.1,7.6,15.1z"/>
	<path id="XMLID_422_" class="st18" d="M18.2,18.2c-0.6,0.1-0.9-0.1-0.7-0.7l0,0c0.2-0.2,0.5-0.2,0.7,0
		C18.4,17.6,18.4,17.9,18.2,18.2L18.2,18.2z"/>
	<path id="XMLID_421_" class="st2" d="M8.7,19.7c0.3-0.1,0.3,0.1,0.4,0.4c0,0.4-0.2,0.4-0.4,0.4c-0.4,0-0.3-0.2-0.3-0.4
		C8.3,19.7,8.5,19.6,8.7,19.7z"/>
	<path id="XMLID_420_" class="st10" d="M12.8,15.2c0.8-0.1,0.8-0.1,0.7,0.7C13.1,16,12.8,15.8,12.8,15.2
		C12.9,15.3,12.9,15.3,12.8,15.2z"/>
	<path id="XMLID_419_" class="st1" d="M11.3,13.8C11.3,13.8,11.3,13.8,11.3,13.8c-0.1-0.1-0.8-0.8-0.9-0.9c-0.1-0.1-0.1-0.1,0-0.1
		c0,0,0.1-0.1,0.1-0.1c0.3,0.2,0.5,0.2,0.8,0c0,0,0.1,0.1,0.1,0.1c0,0.1-0.1,0.2-0.1,0.2c-0.1,0.1-0.4,0-0.4,0.2
		c0,0.2,0.3,0.1,0.5,0.1c0.2,0,0.5,0,0.6,0.2C11.9,13.8,11.5,13.6,11.3,13.8z"/>
	<path id="XMLID_418_" class="st4" d="M4.6,20.4c-0.1-0.3-0.1-0.5,0-0.8c0.2,0,0.4,0,0.6,0C5.4,20.2,5.2,20.5,4.6,20.4z"/>
	<path id="XMLID_417_" class="st15" d="M6.9,18c0.9-0.1,1.9,0.1,2.8-0.1c0,0,0.1,0.1,0.1,0.1c0,0,0,0.1,0,0.1c0,0,0,0,0,0
		c-0.8,0-1.7,0-2.5,0C7.2,18.1,7,18.3,6.9,18z"/>
	<path id="XMLID_416_" class="st17" d="M6,20.7c0,0.3,0,0.6-0.4,0.5c-0.5-0.1-0.2-0.4-0.2-0.6c0.2-0.1,0.4-0.1,0.6,0
		C6,20.6,6,20.6,6,20.7z"/>
	<path id="XMLID_415_" class="st1" d="M6.1,18.5C6,18,6,17.6,6.1,17.1c0,0.1,0,0.2,0,0.3C6.2,17.7,6.2,18.2,6.1,18.5z"/>
	<path id="XMLID_414_" class="st1" d="M9.1,14.3c0,0,0-0.1,0-0.1c0.1,0,0.2,0,0.2-0.1c0.1,0,0.2-0.2,0.3,0c0,0.1,0,0.2,0,0.3
		c-0.1,0.2-0.2,0.2-0.4,0C9.2,14.4,9.2,14.4,9.1,14.3z"/>
	<path id="XMLID_413_" d="M13.7,21.5c0.2,0,0.4,0.1,0.6,0.1c0.1,0.4-0.3,0.2-0.4,0.3C13.6,21.9,13.6,21.7,13.7,21.5z"/>
	<path id="XMLID_412_" class="st1" d="M10.6,7.6c0,0.1,0,0.2,0,0.2c-0.2,0.1-0.4,0.1-0.5-0.1c0,0,0-0.2,0-0.2
		C10.4,7.3,10.5,7.5,10.6,7.6z"/>
	<path id="XMLID_411_" class="st1" d="M14.4,16.4c-0.1,0.1,0,0.2-0.1,0.2c0-0.5,0-1,0-1.5C14.6,15.6,14.3,16,14.4,16.4z"/>
	<path id="XMLID_410_" class="st1" d="M9.8,15.2c-0.5-0.1-1,0.2-1.5-0.1c0.1,0,0.2,0,0.3,0c0,0,0.1-0.1,0.1,0
		C9.2,15.1,9.5,14.9,9.8,15.2z"/>
	<path id="XMLID_409_" class="st15" d="M6.8,22.6c0,0-0.1,0-0.1,0c-0.3-0.4-0.2-0.8-0.1-1.3c0,0,0.1-0.1,0.1-0.1
		C6.9,21.7,6.7,22.2,6.8,22.6z"/>
	<path id="XMLID_408_" class="st13" d="M10,12.9c0,0.5,0,0.9,0,1.4C9.8,13.8,9.8,13.4,10,12.9z"/>
	<path id="XMLID_407_" class="st13" d="M10.7,15.1c0.4,0,0.9,0,1.3,0c0,0,0,0.1,0,0.1C11.6,15,11.1,15.2,10.7,15.1z"/>
	<path id="XMLID_406_" class="st1" d="M7.3,15.9c0,0,0.1,0,0.1,0c0,0.3-0.2,0.4-0.4,0.6C6.9,16.1,7.2,16.1,7.3,15.9z"/>
	<path id="XMLID_405_" class="st1" d="M8.8,15c0,0-0.1,0-0.1,0c0-0.1-0.2-0.1-0.1-0.2c0-0.1,0.2-0.1,0.2-0.1C9,14.8,8.8,14.9,8.8,15
		z"/>
	<path id="XMLID_404_" class="st1" d="M9,19.4c-0.2,0-0.3,0.1-0.3,0.1c-0.1,0-0.1-0.1-0.1-0.2c0.1,0,0.1,0,0.2,0
		C8.8,19.2,8.8,19.3,9,19.4z"/>
	<path id="XMLID_403_" class="st13" d="M10.5,14.3c0.3,0.2,0.1,0.5,0.2,0.7C10.5,14.8,10.7,14.5,10.5,14.3z"/>
	<path id="XMLID_402_" class="st1" d="M11.9,18.7c0.1-0.2,0.2-0.4,0.3-0.3c0.1,0.1,0,0.1-0.1,0.2C12.1,18.6,12,18.6,11.9,18.7z"/>
	<path id="XMLID_401_" class="st1" d="M12.9,17c0,0.1-0.1,0.1-0.1,0.1c-0.1,0-0.2,0-0.1-0.1c0,0,0.1-0.1,0.1-0.1
		C12.8,16.9,12.8,16.9,12.9,17z"/>
	<path id="XMLID_400_" class="st1" d="M9.4,7.3c-0.1,0-0.1,0.1-0.2,0.1c-0.1,0-0.1-0.1-0.1-0.1c0-0.1,0.1-0.1,0.2-0.1
		C9.4,7.2,9.4,7.2,9.4,7.3z"/>
	<path id="XMLID_399_" class="st1" d="M12.7,17.7c-0.1,0-0.1,0.1-0.2,0.1c-0.1,0-0.1,0-0.1-0.1C12.4,17.7,12.5,17.7,12.7,17.7
		C12.6,17.6,12.6,17.7,12.7,17.7z"/>
	<path id="XMLID_398_" class="st1" d="M12.6,18.6c0,0,0-0.1,0-0.1c0-0.1,0.1-0.2,0.2-0.2c0.1,0,0.1,0,0.1,0.1
		C12.8,18.5,12.7,18.5,12.6,18.6z"/>
	<path id="XMLID_397_" class="st1" d="M9.6,6.9C9.7,7,9.9,7.1,9.8,7.2C9.7,7.3,9.6,7.2,9.6,7.1C9.6,7,9.6,7,9.6,6.9z"/>
	<path id="XMLID_396_" class="st1" d="M6.5,18.6c-0.1,0.1-0.1,0.1-0.2,0.2c-0.1,0-0.1-0.1-0.1-0.1C6.3,18.6,6.3,18.5,6.5,18.6
		C6.5,18.6,6.5,18.6,6.5,18.6z"/>
	<path id="XMLID_395_" class="st10" d="M6,20.5c-0.2,0-0.4,0-0.6,0c0-0.1,0.1-0.1,0.1-0.1C5.6,20.5,5.9,20.3,6,20.5z"/>
	<path id="XMLID_394_" class="st1" d="M12.7,21.5c0.2,0,0.3,0,0.2,0.1c0,0.1-0.1,0.1-0.2,0.1c0,0-0.1,0-0.1,0
		C12.7,21.6,12.7,21.5,12.7,21.5z"/>
	<path id="XMLID_393_" class="st1" d="M12.2,21.6c0,0.1,0,0.1-0.1,0.1c-0.1,0-0.1-0.1-0.2-0.1c0,0,0-0.1,0.1-0.1
		C12.2,21.4,12.2,21.5,12.2,21.6z"/>
	<path id="XMLID_392_" class="st1" d="M13.5,17.2c-0.1,0-0.2,0-0.2,0c0,0-0.1-0.1-0.1-0.1c0-0.1,0-0.1,0.1-0.1
		C13.3,17,13.3,17.1,13.5,17.2z"/>
	<path id="XMLID_391_" class="st13" d="M10.5,12.8c0,0,0,0.1,0,0.1c-0.2,0.1-0.3,0-0.5,0C10.1,12.9,10.3,12.8,10.5,12.8z"/>
	<path id="XMLID_390_" class="st15" d="M6.1,21.3c0,0,0.1-0.1,0.1-0.1c0.2,0.1,0.4-0.1,0.5,0.1l0,0C6.5,21.4,6.3,21.4,6.1,21.3z"/>
	<path id="XMLID_389_" class="st1" d="M7.6,15.1c0,0,0,0.1,0,0.1c-0.4,0-0.9,0.2-0.8-0.5c0-0.1-0.1-0.2-0.2-0.2c-0.3,0-0.7,0-1,0
		c-0.2,0-0.3,0.1-0.2,0.3c0.1,0.5-0.2,0.6-0.6,0.5c-0.1,0-0.1,0-0.2,0c-0.6-0.1-0.8,0.2-0.7,0.8c0,0.2,0,0.5,0,0.7
		c0,0.3,0,0.5,0,0.8c0.2,0.2,0.2,0.5,0,0.7c-0.2-0.2,0-0.5-0.1-0.7c-0.2-0.2-0.2-0.5-0.2-0.8c0-0.2,0-0.3-0.1-0.5
		c-0.3,0.1-0.2,0.4-0.3,0.5c-0.3,0.1-0.3-0.2-0.3-0.4c0-0.2,0-0.5,0.3-0.6c0.2-0.1,0.4-0.2,0.5-0.5c0.3-0.8,0.2-1.6,0.1-2.4
		c0.4,0.2,0.1,0.6,0.2,0.9c0,0.1,0,0.3,0,0.4c0,1,0.1,1,1,0.9c0.2,0,0.3-0.1,0.3-0.3c0-0.2-0.1-0.3-0.3-0.3
		c-0.5,0.1-0.5-0.3-0.5-0.6c0-0.3,0.2-0.3,0.4-0.3c0.4,0,0.6,0,0.6,0.5c0,0.4,0.4,0.3,0.6,0.3c0.3,0,0.7,0.2,0.7-0.2
		c0-0.6,0.2-1.3-0.1-1.9c0,0-0.1,0,0-0.1c0,0,0,0,0,0c0.1,0,0.2,0,0.3,0.1c0,0.6,0,1.2,0,1.8c0,0.1-0.1,0.4,0.2,0.3
		C7.7,14.2,7.6,14.7,7.6,15.1z"/>
	<path id="XMLID_388_" class="st1" d="M6.6,12.1c0,0,0,0.1,0,0.1c-0.3,0-0.5,0-0.8,0c-0.3,0-0.4,0.1-0.4,0.4c0,0.4-0.3,0.5-0.8,0.3
		c0.3-0.2,0.3-0.2,0.4-0.5c-0.3,0-0.2,0.4-0.5,0.4c-0.1-0.2,0-0.4-0.1-0.6c0-0.2,0-0.5,0-0.7c0-0.1,0-0.1,0.1-0.2
		c0.2-0.6-0.4-0.4-0.6-0.6l0,0c0.3-0.2,0.5-0.4,0.5-0.8c0.2-0.2,0-0.6,0.2-0.7c0,0.3-0.2,0.6,0.1,0.8c0,0,0.1,0.1,0.1,0.2
		c0,0.2,0,0.4-0.2,0.6c0,0.4-0.3,0.8,0.4,0.7c0.2,0,0.3,0.1,0.3,0.2c-0.1,0.5,0.2,0.5,0.6,0.5C6.2,12.1,6.4,12.1,6.6,12.1z"/>
	<path id="XMLID_387_" class="st1" d="M4.6,10.6c0-0.2-0.1-0.5,0.1-0.6C5,9.8,5.2,9.9,5.5,9.9c0.6,0,0.6,0,0.5,0.7
		C5.5,10.7,5.1,10.6,4.6,10.6z"/>
	<path id="XMLID_386_" class="st1" d="M8.3,11.3c0,0.3,0,0.5,0,0.8c-0.8,0-0.8,0.2-0.7-0.8l0,0C7.8,11.1,8.1,11.1,8.3,11.3L8.3,11.3
		z"/>
	<path id="XMLID_385_" class="st1" d="M6,10.6c0.1-0.5-0.1-0.7-0.6-0.6c-0.2,0-0.4,0-0.6,0c0,0,0-0.1,0-0.1c0.3,0,0.5,0,0.8,0
		C6.2,9.8,6.2,9.9,6,10.6z"/>
	<path id="XMLID_384_" class="st12" d="M7.5,12.2c-0.2,0.4-0.3,0.1-0.5,0C7.1,12.2,7.3,12.2,7.5,12.2z"/>
	<path id="XMLID_383_" class="st21" d="M12.8,2.4c0,0,0.1-0.1,0.1-0.1c0.2-0.1,0.3-0.2,0.5,0c0.2,0.2,0.2,0.5,0.1,0.7
		c-0.1,0.2-0.5,0.1-0.7,0C12.8,2.8,12.8,2.6,12.8,2.4z"/>
	<path id="XMLID_382_" class="st12" d="M3.9,7.6c0-0.5,0-1,0-1.5c0.2,0,0.5,0,0.7,0C5.2,6,5.4,6.3,5.2,6.8C4.7,6.7,4.4,6.8,4.5,7.4
		c0,0.1,0.1,0.3-0.1,0.3C4.2,7.5,4,7.6,3.9,7.6z"/>
	<path id="XMLID_381_" class="st8" d="M4.4,9.8c0.3,0.7,0.3,0.8-0.5,0.8c0.1-0.3-0.3-0.6,0.3-0.8C4.2,9.8,4.3,9.8,4.4,9.8z"/>
	<path id="XMLID_380_" class="st2" d="M3.7,9.1c0,0.3,0.3,0.8-0.4,0.7C2.8,9.8,3.2,9.3,3.1,9.1C3.3,9.1,3.5,9.1,3.7,9.1z"/>
	<path id="XMLID_379_" class="st4" d="M14.3,8.4c-0.3-0.1-0.7,0.2-0.7-0.5c0-1.1,0-1.1-1.1-1.1c-0.1,0-0.2,0-0.3,0
		c-0.2-0.2,0-0.5-0.1-0.7C12.3,6,12.6,6.2,12.8,6c0-0.1,0.1-0.3,0.1-0.4c0-0.3,0.2-0.2,0.4-0.2c0.2,0,0.3,0.1,0.3,0.3
		c0,0.2-0.1,0.5,0.3,0.5c0.5-0.1,0.5,0.2,0.5,0.5C14.3,7.2,14.3,7.8,14.3,8.4z"/>
	<path id="XMLID_378_" class="st8" d="M15.1,9c-0.2,0-0.4,0-0.6,0c0-0.3,0-0.5,0-0.8c0.1,0,0.2,0,0.2,0c0.1-0.1,0.3-0.1,0.4,0
		C15.1,8.6,15.2,8.8,15.1,9z"/>
	<path id="XMLID_377_" class="st18" d="M15.2,5.9L15.2,5.9L15.2,5.9c-0.3,0.1-0.6,0.3-0.7-0.1c-0.1-0.1-0.2-0.4,0.2-0.5
		C15.1,5.2,15.1,5.5,15.2,5.9z"/>
	<path id="XMLID_376_" class="st1" d="M12.2,6c0-0.2,0-0.4,0-0.6c0.5-0.1,0.7,0.1,0.6,0.6C12.6,6,12.4,6,12.2,6z"/>
	<path id="XMLID_375_" class="st1" d="M14.3,5.6C14.3,5.8,14.2,6,14,6c-0.2,0-0.3-0.1-0.3-0.3c0-0.2,0.1-0.3,0.3-0.3
		C14.2,5.4,14.3,5.4,14.3,5.6z"/>
	<path id="XMLID_374_" class="st1" d="M13.7,2.7c0-0.2,0.1-0.3,0.3-0.3c0.2,0,0.3,0.1,0.3,0.3C14.3,2.9,14.2,3,14,3
		C13.8,3,13.7,2.9,13.7,2.7z"/>
	<path id="XMLID_373_" class="st0" d="M14,3.1c0.3-0.1,0.3,0.1,0.3,0.4c0,0.3-0.2,0.3-0.4,0.3c-0.3,0-0.3-0.2-0.3-0.3
		C13.6,3.1,13.8,3.1,14,3.1z"/>
	<path id="XMLID_372_" class="st0" d="M14,5.2c-0.3,0.1-0.3-0.1-0.3-0.4c0-0.3,0.1-0.3,0.4-0.3c0.3,0,0.3,0.1,0.3,0.3
		C14.3,5.2,14.3,5.3,14,5.2z"/>
	<path id="XMLID_371_" class="st1" d="M13.5,4.9c0,0.2-0.1,0.3-0.3,0.3c-0.2,0-0.3-0.1-0.3-0.3c0-0.2,0.1-0.3,0.3-0.3
		C13.5,4.6,13.6,4.7,13.5,4.9z"/>
	<path id="XMLID_370_" class="st1" d="M13.4,2.2c-0.2,0.1-0.3,0.1-0.5,0c0-0.4,0-0.7,0.5-0.6C13.6,1.8,13.5,2,13.4,2.2z"/>
	<path id="XMLID_369_" class="st9" d="M9.8,3.9c0,0,0.1,0,0.1,0c0.2,0.2,0.2,0.4,0,0.6c0,0-0.1,0-0.1,0C9.8,4.3,9.8,4.1,9.8,3.9z"/>
	<path id="XMLID_368_" class="st6" d="M8.3,11.3c-0.3,0-0.5,0-0.8,0c0-0.2,0-0.4,0-0.6c0.3-0.1,0.5-0.2,0.7,0.1
		C8.3,11,8.3,11.2,8.3,11.3z"/>
	<path id="XMLID_367_" class="st11" d="M8.3,10.8c-0.2-0.2-0.5-0.1-0.7-0.1C7.9,10.6,8.2,10.4,8.3,10.8z"/>
	<path id="XMLID_366_" class="st1" d="M8.7,10.6c0.2,0.3-0.1,0.3-0.1,0.5C8.4,10.9,8.6,10.8,8.7,10.6z"/>
	<path id="XMLID_365_" class="st8" d="M10,4.5c0-0.2,0-0.4,0-0.6c0.3-0.1,0.6-0.1,0.6,0.3C10.6,4.6,10.2,4.5,10,4.5z"/>
	<path id="XMLID_364_" class="st1" d="M18.2,18.2c0.1-0.6-0.1-0.9-0.7-0.7c0-0.5,0.1-1,0-1.5l0,0c0.4-0.1,0.9-0.3,0.8,0.5
		c0,0.3,0.2,0.2,0.4,0.2c0.2,0,0.4,0.1,0.4-0.2c-0.1-0.7,0.4-0.5,0.8-0.5c0,1,0,2,0,3c-0.3,0-0.5,0-0.8,0C19,18.3,18.8,18,18.2,18.2
		z"/>
	<path id="XMLID_363_" class="st1" d="M19.6,19.7c0-0.1,0-0.3,0-0.4c0-0.1,0-0.3,0-0.4c0.3,0,0.6,0,0.8,0c0.7-0.1,0.8,0.2,0.7,0.8
		C20.7,19.7,20.2,19.7,19.6,19.7z"/>
	<path id="XMLID_362_" class="st1" d="M21.1,17.4c0.3,0.1,0.4,0.5,0.8,0.6C21.2,18.3,21.2,18.3,21.1,17.4z"/>
	<path id="XMLID_361_" class="st12" d="M16.8,6.4c-0.3,0-0.4,0.2-0.5,0c-0.1-0.2,0-0.2,0.2-0.1C16.6,6.4,16.6,6.4,16.8,6.4z"/>
	<path id="XMLID_360_" class="st1" d="M8.4,23.4c0-0.3,0-0.7,0-1c0-0.3,0-0.5,0.4-0.4c0.4,0,0.4,0.2,0.4,0.4c0,0.3,0,0.7,0,1
		C8.8,23.4,8.6,23.4,8.4,23.4z"/>
	<path id="XMLID_359_" class="st22" d="M6.1,21.3c0.2,0,0.4,0,0.6,0c0,0.4,0,0.9,0,1.3c-0.5,0.2-0.7,0-0.6-0.5
		C6.1,21.8,6,21.5,6.1,21.3z"/>
	<path id="XMLID_358_" class="st9" d="M6.7,24.1c-0.2-0.1-0.4-0.1-0.6,0c-0.2-0.6,0-0.8,0.6-0.6C6.8,23.7,6.8,23.9,6.7,24.1
		L6.7,24.1z"/>
	<path id="XMLID_357_" class="st16" d="M6.7,24.1c0-0.2,0-0.4,0-0.6c0,0,0.1,0,0.1,0C6.7,23.7,6.9,24,6.7,24.1z"/>
	<path id="XMLID_356_" class="st4" d="M25.3,1.5c1.1,0,1.1,0,1.1,1.1c0,1.1,0,1.1-1.1,1.1c-1.1,0-1.1,0-1.1-1.2
		C24.2,1.5,24.2,1.5,25.3,1.5z"/>
	<path id="XMLID_355_" class="st4" d="M3.8,25.3c0,1.2,0,1.2-1.2,1.2c-1.1,0-1.1,0-1.1-1.1c0-1.1,0-1.1,1.1-1.1c0,0,0.1,0,0.1,0
		C3.8,24.2,3.8,24.2,3.8,25.3z"/>
	<path id="XMLID_354_" class="st4" d="M3.8,2.6c0,1.1,0,1.1-1.2,1.1c-1.1,0-1.1,0-1.1-1.1c0-1.2,0-1.2,1.2-1.2
		C3.8,1.5,3.8,1.5,3.8,2.6z"/>
	<path id="XMLID_353_" class="st1" d="M15.1,8.4c-0.1,0-0.2,0-0.4-0.1C14.7,7.9,15,8,15.3,8c0.1,0,0.2,0.4,0.4,0
		c0-0.1,0.1,0,0.1,0.1c0,0.1,0,0.2-0.1,0.2c-0.2,0.1-0.3,0.1-0.5,0.2C15.1,8.4,15.1,8.4,15.1,8.4z"/>
	<path id="XMLID_352_" class="st1" d="M15.2,6.7c0,0.2,0,0.3,0,0.5c0,0-0.1,0-0.1,0C15,7,14.8,6.8,15.2,6.7z"/>
	<path id="XMLID_351_" class="st1" d="M14.6,8c-0.1-0.4-0.1-0.6,0-1C14.7,7.3,14.7,7.6,14.6,8z"/>
	<path id="XMLID_350_" class="st1" d="M15.7,6.8c-0.1,0.2-0.1,0.3-0.2,0.5C15.5,7.2,15.1,6.8,15.7,6.8L15.7,6.8z"/>
	<path id="XMLID_349_" class="st19" d="M15.1,8.4c0,0,0.1,0.1,0.1,0.1c-0.1,0.2,0.1,0.4-0.1,0.6C15.1,8.8,15.1,8.6,15.1,8.4z"/>
	<path id="XMLID_348_" class="st1" d="M12.5,9.3c0,0.1,0.1,0.1,0.1,0.2c0,0.1-0.1,0.1-0.1,0.1c-0.1-0.1-0.1-0.1-0.1-0.2
		C12.4,9.3,12.5,9.3,12.5,9.3z"/>
	<path id="XMLID_347_" class="st12" d="M4.5,11.3c0,0.3,0.2,0.6-0.1,0.8C3.9,12,3.4,12.2,3,11.9c0.2-0.2-0.2-0.8,0.5-0.6
		c0.2,0,0.3,0,0.5,0C4.2,11.2,4.3,11.2,4.5,11.3z"/>
	<path id="XMLID_346_" class="st1" d="M3.5,11.3c-0.6-0.1-0.3,0.4-0.5,0.6c-0.2,0,0.2-0.4-0.2-0.4c-0.5,0-0.3,0.3-0.5,0.4
		c-0.2-0.4-0.3-0.7,0.2-0.8c0.2-0.1,0.3-0.2,0.4-0.4c0-0.1,0.1-0.1,0.1-0.1c0-0.1,0-0.1,0.1-0.2C3,10.8,3.5,11,3.5,11.3z"/>
	<path id="XMLID_345_" class="st6" d="M3,10.6C3,10.6,3,10.7,3,10.6C2.5,11,2.1,11,1.6,10.7c0,0,0-0.1,0-0.1
		C2.1,10.6,2.5,10.6,3,10.6z"/>
	<path id="XMLID_344_" class="st1" d="M4.5,11.3c-0.2,0-0.3,0-0.5,0c0.1-0.1,0.3-0.2,0.5-0.1C4.5,11.2,4.5,11.3,4.5,11.3z"/>
	<path id="XMLID_343_" class="st1" d="M3.6,15.2c0.1,0.3,0.2,0.5-0.3,0.6c-0.5,0.1-0.4,0.5-0.2,0.9c0.2-0.2,0.4-0.2,0.6,0
		c-0.2,0.2,0,0.5,0,0.7c-0.5,0-1,0-1.5,0c-0.6,0.1-0.9-0.1-0.8-0.8c0.3-0.1,0.8,0.2,0.8-0.5C2.2,15,2.4,14.9,3.6,15.2z"/>
	<path id="XMLID_342_" class="st1" d="M3.9,18.1c0-0.2,0-0.5,0-0.7c0.3,0,0.7,0,1,0c0.2,0,0.4,0,0.4,0.3c0,0.3-0.1,0.4-0.4,0.4
		C4.6,18.1,4.2,18.1,3.9,18.1z"/>
	<path id="XMLID_341_" class="st3" d="M4.1,18.6c0.3-0.1,0.6-0.1,1,0C4.7,18.6,4.4,18.6,4.1,18.6z"/>
	<path id="XMLID_340_" class="st13" d="M1.6,10.7c0.4,0,0.9,0,1.3,0c0.3,0.9-0.5,0.5-0.8,0.7c0.1,0.2,0.1,0.4,0.1,0.6
		c-0.2,0.1-0.4,0.2-0.6,0.1C1.5,11.6,1.5,11.1,1.6,10.7L1.6,10.7z"/>
	<path id="XMLID_339_" class="st17" d="M4.5,12.7C4.6,12.5,4.4,12,5,12.1c0.3,0,0.3,0.2,0.3,0.4c0,0.6-0.4,0.2-0.7,0.3
		C4.6,12.8,4.5,12.8,4.5,12.7z"/>
	<path id="XMLID_338_" class="st6" d="M1.6,10.7c0,0.4,0,0.9,0,1.3c-0.2-0.4,0-0.9-0.1-1.3C1.5,10.7,1.6,10.7,1.6,10.7z"/>
	<path id="XMLID_337_" class="st1" d="M3,14.3c-0.2,0.2-0.5,0.2-0.7,0c-0.1-0.1-0.1-0.5,0-0.6c0.2-0.2,0.5-0.2,0.7,0c0,0,0,0,0,0.1
		c-0.1,0.1-0.3,0.1-0.3,0.3c0,0.1,0.2,0.1,0.3,0.2C2.9,14.2,3,14.3,3,14.3z"/>
	<path id="XMLID_336_" class="st1" d="M3,13.7c0.1,0.2,0.1,0.4,0,0.7c0,0,0,0-0.1,0C2.8,14.1,2.8,13.9,3,13.7C3,13.7,3,13.7,3,13.7z
		"/>
	<path id="XMLID_335_" class="st1" d="M15.3,15.9c-0.4-0.3-0.1-0.7-0.2-1.1c0-0.3,0-0.5-0.4-0.4c-0.3,0-0.4,0-0.4-0.4
		c0-0.3,0.1-0.5,0.5-0.5c0.1,0,0.3,0,0.3-0.2c-0.1-0.7,0.4-0.6,0.8-0.6l0,0c0,0.9,0,1.7,0,2.6c0,0.4-0.1,0.6-0.5,0.5
		C15.4,16,15.3,16,15.3,15.9z"/>
	<path id="XMLID_334_" class="st1" d="M17.4,16c-0.2-0.2-0.7,0.3-0.7-0.4c0-0.2-0.1-0.5,0.3-0.5c0.4,0,0.5,0.1,0.4,0.5
		C17.4,15.7,17.5,15.9,17.4,16C17.4,16,17.4,16,17.4,16z"/>
	<path id="XMLID_333_" class="st5" d="M12.9,12.8L12.9,12.8l-0.1,0c0.1-0.7-0.1-1.4,0.1-2.1c0,0.4,0,0.8,0,1.2
		c0,0.2-0.1,0.4,0.3,0.3c0.1,0,0.2,0.1,0.1,0.2c0,0.1-0.1,0.3-0.3,0.2C12.9,12.5,13,12.7,12.9,12.8z"/>
	<path id="XMLID_332_" class="st5" d="M14.6,13.3c0-0.1-0.1-0.2-0.1-0.2c0.1-0.1,0.1-0.1,0.2-0.1c0.1,0,0.1,0.1,0.1,0.1
		C14.7,13.2,14.6,13.2,14.6,13.3z"/>
	<path id="XMLID_331_" class="st12" d="M15.3,15.9c0,0,0.1,0,0.1,0c0.1,0.1,0.2,0.2,0.4,0.3C15.5,16.2,15.3,16.2,15.3,15.9z"/>
	<path id="XMLID_330_" class="st13" d="M16.5,16.2C16.4,16.2,16.4,16.3,16.5,16.2c-0.2,0.1-0.3,0-0.3-0.1c0,0,0.1,0,0.1,0
		C16.3,16.1,16.4,16.1,16.5,16.2z"/>
	<path id="XMLID_329_" class="st12" d="M14.6,14.7c-0.2,0.1-0.3,0.1-0.5,0.1C14.3,14.6,14.4,14.7,14.6,14.7z"/>
	<path id="XMLID_328_" class="st13" d="M9.7,22.1c0.1,0.1,0.1,0.1,0.2,0.2c0,0.1,0,0.1-0.1,0.1C9.7,22.3,9.7,22.2,9.7,22.1
		C9.6,22.2,9.7,22.1,9.7,22.1z"/>
	<path id="XMLID_327_" class="st23" d="M12.1,13.6c-0.3,0-0.5,0-0.8,0c-0.2-0.2-0.1-0.4,0-0.6c0,0,0.1-0.1,0.1-0.1
		C12,12.8,12.2,13.1,12.1,13.6z"/>
	<path id="XMLID_326_" class="st1" d="M12.1,14.5c-0.2-0.2-0.5,0-0.8-0.2C11.6,14.4,11.9,14.1,12.1,14.5z"/>
	<path id="XMLID_325_" class="st1" d="M11.3,12.9c0,0.2,0,0.4,0,0.6c-0.2-0.1-0.6,0.1-0.6-0.3C10.7,12.8,11.1,13,11.3,12.9z"/>
	<path id="XMLID_324_" class="st13" d="M3.7,16.7c-0.2,0-0.4,0-0.6,0c0-0.3-0.3-0.9,0.4-0.7C4,16,3.7,16.4,3.7,16.7z"/>
	<path id="XMLID_323_" class="st0" d="M4.9,14.3c-0.3,0.1-0.4-0.1-0.4-0.3c0-0.3,0.1-0.4,0.4-0.4c0.3,0,0.4,0.1,0.4,0.4
		C5.3,14.3,5.2,14.4,4.9,14.3z"/>
	<path id="XMLID_322_" class="st5" d="M3.4,25.7c0-0.2,0-0.5,0-0.7c0,0,0,0,0.1,0C3.4,25.3,3.4,25.5,3.4,25.7
		C3.4,25.7,3.4,25.7,3.4,25.7z"/>
	<path id="XMLID_321_" class="st3" d="M3,1.8c-0.3,0-0.6,0.1-0.9,0C2.4,1.7,2.7,1.8,3,1.8z"/>
	<path id="XMLID_320_" class="st5" d="M3.4,2.9c0-0.2,0-0.5,0-0.7c0,0,0,0,0.1,0C3.4,2.4,3.4,2.6,3.4,2.9C3.4,2.8,3.4,2.9,3.4,2.9z"
		/>
	<path id="XMLID_319_" class="st1" d="M3,13.7c0,0.2,0,0.4,0,0.6c-0.2,0-0.6,0.2-0.6-0.3C2.4,13.6,2.7,13.7,3,13.7z"/>
</g>
</svg>
