<?xml version="1.0" encoding="utf-8"?>
<!-- Generator: Adobe Illustrator 21.0.0, SVG Export Plug-In . SVG Version: 6.00 Build 0)  -->
<svg version="1.1" id="Layer_1" xmlns="http://www.w3.org/2000/svg" xmlns:xlink="http://www.w3.org/1999/xlink" x="0px" y="0px"
	 viewBox="0 0 500 387" style="enable-background:new 0 0 500 387;" xml:space="preserve">
<style type="text/css">
	.st0{opacity:0.24;fill:#0A458E;enable-background:new    ;}
	.st1{opacity:0.45;fill:#0A458E;enable-background:new    ;}
	.st2{fill:#0A458E;}
	.st3{fill:url(#SVGID_1_);}
	.st4{fill:#606161;}
	.st5{fill:url(#SVGID_2_);}
	.st6{fill:#BA816C;}
	.st7{fill:#FFFFFF;}
	.st8{fill:url(#SVGID_3_);}
	.st9{fill:none;stroke:#0A458E;stroke-width:1.14;stroke-linecap:round;stroke-miterlimit:10;}
	.st10{fill:url(#SVGID_4_);}
	.st11{fill:url(#SVGID_5_);}
	.st12{fill:url(#SVGID_6_);}
	.st13{fill:url(#SVGID_7_);}
	.st14{fill:url(#SVGID_8_);}
	.st15{fill:url(#SVGID_9_);}
	.st16{fill:url(#SVGID_10_);}
</style>
<title>Take a Note 1</title>
<path class="st0" d="M431.7,287.8c-3.4,9.1-7.6,18.2-14.5,25.1c-5.7,5.7-12.5,9.4-20,12c-12.3,4.4-26.2,6.1-39.1,9.3
	c-20.9,5.3-40.3,15.6-56.4,30c-6.4,5.8-12.5,12.3-20.3,15.9c-6.1,2.9-12.9,3.8-19.6,4.4c-43.3,4-86.9-3.4-126.4-21.6
	c-11-5.1-21.9-11.2-29.7-20.4c-5.2-6.1-8.9-13.4-12.3-20.6c-0.4-0.9-0.8-1.8-1.3-2.6C77.1,287,61.9,254,57,218.7
	s2.1-74.1,26.7-100.1c16.8-17.8,40.2-28.1,56.9-45.9c14.6-15.6,23.4-36,38.8-50.8c38.9-37.6,88-15.2,130.8,0.8
	c45.3,17,84.6,50.1,108.2,92.3C447.6,167.1,452.5,232,431.7,287.8z"/>
<path class="st1" d="M397.2,324.9c-12.3,4.4-26.2,6.1-39.1,9.3c-20.9,5.3-40.3,15.6-56.4,30c-6.4,5.8-12.5,12.3-20.3,15.9
	c-6.1,2.9-12.9,3.8-19.6,4.4c-43.3,4-86.9-3.4-126.4-21.6c-11-5.1-21.9-11.2-29.7-20.4c-5.2-6.1-8.9-13.4-12.3-20.6
	c22.9,0.3,45.9,0.5,68.8,0.7c45.7,0.4,91.4,0.6,137.1,0.7c22.6,0.1,45.3,0.1,67.9,0.1C373.5,323.5,388.7,322.7,397.2,324.9z"/>
<path class="st1" d="M158.2,327.8c-6.7,0.6-15.2,3-15.7,9.7c26.6,6,54,7.6,81.2,8.9c12.2,0.6,24.4,1.1,36.6,0.4
	c19.3-1.2,38.2-5.8,55.9-13.4C263.6,328.5,211.2,323.5,158.2,327.8z"/>
<path class="st2" d="M234.1,113.5l10.7-2.1c0,0,0.9-0.1,0.7,1l-15.2,4.1l-2.8,0.7l-1.2-2.2L234.1,113.5z"/>
<linearGradient id="SVGID_1_" gradientUnits="userSpaceOnUse" x1="301.2372" y1="269.2549" x2="302.9381" y2="257.6111" gradientTransform="matrix(1 0 0 -1 -65.89 379.24)">
	<stop  offset="0" style="stop-color:#010101;stop-opacity:0"/>
	<stop  offset="0.47" style="stop-color:#010101;stop-opacity:0.47"/>
	<stop  offset="0.95" style="stop-color:#010101"/>
</linearGradient>
<path class="st3" d="M234.1,113.5l10.7-2.1c0,0,0.9-0.1,0.7,1l-15.2,4.1l-2.8,0.7l-1.2-2.2L234.1,113.5z"/>
<path class="st4" d="M248.9,61.3c-2.1,3-2.4,7-1.7,10.6c0.3,1.3,0.5,2.6,0.7,3.9c0.3,4.7-2.9,9-3.6,13.7c-0.7,4.6,1,9.2,3.6,13
	c2.7,3.8,6.2,6.8,9.8,9.8c3.4-3.5,4.5-8.6,4.6-13.5c0.1-4.9-0.8-9.7-0.9-14.6c-0.1-2.3,0.1-4.6,0.7-6.9c1.2-4,4.2-7.9,3.2-11.9
	c-0.6-2.4-2.5-4.1-4.3-5.8c-2.1-1.9-3.5-2.8-6.4-2.1C252.3,57.9,250.3,59.3,248.9,61.3z"/>
<linearGradient id="SVGID_2_" gradientUnits="userSpaceOnUse" x1="309.9543" y1="294.5565" x2="331.3652" y2="294.5565" gradientTransform="matrix(1 0 0 -1 -65.89 379.24)">
	<stop  offset="0" style="stop-color:#010101;stop-opacity:0"/>
	<stop  offset="0.47" style="stop-color:#010101;stop-opacity:0.47"/>
	<stop  offset="0.95" style="stop-color:#010101"/>
</linearGradient>
<path class="st5" d="M248.9,61.3c-2.1,3-2.4,7-1.7,10.6c0.3,1.3,0.5,2.6,0.7,3.9c0.3,4.7-2.9,9-3.6,13.7c-0.7,4.6,1,9.2,3.6,13
	c2.7,3.8,6.2,6.8,9.8,9.8c3.4-3.5,4.5-8.6,4.6-13.5c0.1-4.9-0.8-9.7-0.9-14.6c-0.1-2.3,0.1-4.6,0.7-6.9c1.2-4,4.2-7.9,3.2-11.9
	c-0.6-2.4-2.5-4.1-4.3-5.8c-2.1-1.9-3.5-2.8-6.4-2.1C252.3,57.9,250.3,59.3,248.9,61.3z"/>
<path class="st6" d="M249.8,147.2l-42.3-15.5l2.4,7.1c0,0,31.3,23.4,38.8,22C256.1,159.5,249.8,147.2,249.8,147.2z"/>
<path class="st7" d="M205.8,130.7l-9.9-23.1c-1-2.4,0.1-5.2,2.5-6.2c0.3-0.1,0.7-0.3,1.1-0.3l17.3-2.9c2.2-0.4,4.4,0.9,5.2,3
	l16.7,45.1c0.9,2.5-0.4,5.2-2.8,6.1c-0.3,0.1-0.6,0.2-0.9,0.2l-15.4,2.3c-2.2,0.3-4.3-0.9-5.1-2.9L205.8,130.7z"/>
<path class="st2" d="M204.3,130.9L195,109c-1-2.3,0.1-4.9,2.4-5.9c0.3-0.1,0.7-0.2,1-0.3l16.4-2.8c2.1-0.4,4.2,0.9,5,2.9l15.8,42.8
	c0.9,2.3-0.3,4.9-2.6,5.8c-0.3,0.1-0.6,0.2-0.9,0.2l-14.6,2.2c-2.1,0.3-4-0.8-4.8-2.8L204.3,130.9z"/>
<linearGradient id="SVGID_3_" gradientUnits="userSpaceOnUse" x1="288.5947" y1="254.7974" x2="239.9381" y2="236.494" gradientTransform="matrix(1 0 0 -1 -65.89 379.24)">
	<stop  offset="0" style="stop-color:#010101;stop-opacity:0"/>
	<stop  offset="0.47" style="stop-color:#010101;stop-opacity:0.47"/>
	<stop  offset="0.95" style="stop-color:#010101"/>
</linearGradient>
<path class="st8" d="M204.3,130.9L195,109c-1-2.3,0.1-4.9,2.4-5.9c0.3-0.1,0.7-0.2,1-0.3l16.4-2.8c2.1-0.4,4.2,0.9,5,2.9l15.8,42.8
	c0.9,2.3-0.3,4.9-2.6,5.8c-0.3,0.1-0.6,0.2-0.9,0.2l-14.6,2.2c-2.1,0.3-4-0.8-4.8-2.8L204.3,130.9z"/>
<path class="st9" d="M210.3,137.6c0,1.5-1.2,2.7-2.6,2.7c-1.5,0-2.7-1.2-2.7-2.6c0-0.8,0.4-1.6,1-2.1"/>
<path class="st9" d="M212.9,144c0,1.5-1.2,2.7-2.6,2.7c-1.5,0-2.7-1.2-2.7-2.6c0-0.8,0.4-1.6,1-2.1"/>
<path class="st9" d="M215.5,150.4c0,1.5-1.2,2.6-2.7,2.6c-1.5,0-2.6-1.2-2.6-2.7c0-0.8,0.4-1.6,1-2.1"/>
<path class="st2" d="M255.1,107L235,143.4l12.5,5.4C247.5,148.9,257.3,110.1,255.1,107z"/>
<path class="st6" d="M285,319.2l0.7,10c-1.7,1-3.8,1.5-5.8,1.3c-3.1-0.4-9.2-6.7-10.6-6.4l0.1-3"/>
<path class="st6" d="M249.3,312.1l0.7,10c-1.7,1-3.8,1.5-5.8,1.3c-3.1-0.4-9.2-6.7-10.6-6.4l0.1-3"/>
<path class="st4" d="M251.8,184.6c0,0,5.4,71.5,6,72.6s11.5,65,11.5,65s7.6,4.9,16.6-1l-7.1-65.8l3.3-62.7
	C282.1,192.8,256.4,182.2,251.8,184.6z"/>
<path class="st4" d="M241.9,178.7c0,0-12.2,68.1-11.8,69.4s3,67.2,3,67.2s6.9,4.6,16.5,0l1.5-66.1l11.4-61.8
	C262.6,187.4,246.8,177,241.9,178.7z"/>
<linearGradient id="SVGID_4_" gradientUnits="userSpaceOnUse" x1="296.0312" y1="131.3182" x2="328.5369" y2="131.3182" gradientTransform="matrix(1 0 0 -1 -65.89 379.24)">
	<stop  offset="0" style="stop-color:#010101;stop-opacity:0"/>
	<stop  offset="0.47" style="stop-color:#010101;stop-opacity:0.47"/>
	<stop  offset="0.95" style="stop-color:#010101"/>
</linearGradient>
<path class="st10" d="M241.9,178.7c0,0-12.2,68.1-11.8,69.4s3,67.2,3,67.2s6.9,4.6,16.5,0l1.5-66.1l11.4-61.8
	C262.6,187.4,246.8,177,241.9,178.7z"/>
<path class="st4" d="M251.8,184.6c0,0,5.4,71.5,6,72.6s11.5,65,11.5,65s7.6,4.9,16.6-1l-7.1-65.8l3.3-62.7
	C282.1,192.8,256.4,182.2,251.8,184.6z"/>
<linearGradient id="SVGID_5_" gradientUnits="userSpaceOnUse" x1="317.6971" y1="125.0398" x2="351.7905" y2="125.0398" gradientTransform="matrix(1 0 0 -1 -65.89 379.24)">
	<stop  offset="0" style="stop-color:#010101;stop-opacity:0"/>
	<stop  offset="0.47" style="stop-color:#010101;stop-opacity:0.47"/>
	<stop  offset="0.95" style="stop-color:#010101"/>
</linearGradient>
<path class="st11" d="M251.8,184.6c0,0,5.4,71.5,6,72.6s11.5,65,11.5,65s7.6,4.9,16.6-1l-7.1-65.8l3.3-62.7
	C282.1,192.8,256.4,182.2,251.8,184.6z"/>
<path class="st7" d="M287.4,101.4c0,0-12.9-6.4-17.6-5.9c-8.5,1.1-12,9.9-14.4,17c-8,24.2-5.6,48.7-12,73.2c0,0,1.8,8.8,12.9,10.5
	c11.1,1.8,6.4-54.5,10.5-65.6C271,119.5,292.1,103.7,287.4,101.4z"/>
<path class="st2" d="M267.9,95.9c0,0-9.8,2.5-12.2,6.6c0,2.2-2.5,6-3.1,8.3c-2.8,11.4-7,22.4-10.9,33.3c-2.6,7.5-4.4,15.3-5.4,23.2
	c-0.5,4-0.5,8.2-1.1,12.2c-0.7,4-0.2,4.8,2.9,7.3c0.5,0.4,8.6,6.8,8.8,5.8c2.4-14.6,4.8-29.2,7.2-43.8c1.1-6.6,1.8-12.9,3.6-19.4
	c1.8-6.3,4.1-12.6,6.7-18.6C264.9,109.8,271.1,95.1,267.9,95.9z"/>
<path class="st2" d="M285.5,103.6c-3.5-2.5-6.6-1.6-9.6,1.5c-2.3,2.4-3.7,5.6-5,8.7c-3.8,8.9-6.9,18.1-9.1,27.6
	c-0.9,4.2-2.1,8.2-2.6,12.6c-0.6,4.7-1,9.4-1.8,14c-1,6.2-2.7,12.7-2.7,19c0,7.6,0.6,14.6,12.3,15.8c11.7,1.2,19,0.2,19,0.2
	s9.7-72.9,7.9-85.8c-0.4-3-0.6-6.1-2.8-8.5c-1.6-1.7-3.3-3.3-5.1-4.8C285.8,103.8,285.7,103.7,285.5,103.6z"/>
<linearGradient id="SVGID_6_" gradientUnits="userSpaceOnUse" x1="333.0479" y1="233.1005" x2="267.9157" y2="245.1335" gradientTransform="matrix(1 0 0 -1 -65.89 379.24)">
	<stop  offset="0" style="stop-color:#010101;stop-opacity:0"/>
	<stop  offset="0.47" style="stop-color:#010101;stop-opacity:0.47"/>
	<stop  offset="0.95" style="stop-color:#010101"/>
</linearGradient>
<path class="st12" d="M267.9,95.9c0,0-9.8,2.5-12.2,6.6c0,2.2-2.5,6-3.1,8.3c-2.8,11.4-7,22.4-10.9,33.3c-2.6,7.5-4.4,15.3-5.4,23.2
	c-0.5,4-0.5,8.2-1.1,12.2c-0.7,4-0.2,4.8,2.9,7.3c0.5,0.4,8.6,6.8,8.8,5.8c2.4-14.6,4.8-29.2,7.2-43.8c1.1-6.6,1.8-12.9,3.6-19.4
	c1.8-6.3,4.1-12.6,6.7-18.6C264.9,109.8,271.1,95.1,267.9,95.9z"/>
<linearGradient id="SVGID_7_" gradientUnits="userSpaceOnUse" x1="323.4184" y1="230.6727" x2="384.0995" y2="216.5496" gradientTransform="matrix(1 0 0 -1 -65.89 379.24)">
	<stop  offset="0" style="stop-color:#010101;stop-opacity:0"/>
	<stop  offset="0.47" style="stop-color:#010101;stop-opacity:0.47"/>
	<stop  offset="0.95" style="stop-color:#010101"/>
</linearGradient>
<path class="st13" d="M285.5,103.6c-3.5-2.5-6.6-1.6-9.6,1.5c-2.3,2.4-3.7,5.6-5,8.7c-3.8,8.9-6.9,18.1-9.1,27.6
	c-0.9,4.2-2.1,8.2-2.6,12.6c-0.6,4.7-1,9.4-1.8,14c-1,6.2-2.7,12.7-2.7,19c0,7.6,0.6,14.6,12.3,15.8c11.7,1.2,19,0.2,19,0.2
	s9.7-72.9,7.9-85.8c-0.4-3-0.6-6.1-2.8-8.5c-1.6-1.7-3.3-3.3-5.1-4.8C285.8,103.8,285.7,103.7,285.5,103.6z"/>
<path class="st6" d="M254.2,62.8c-3.3,5.3-3.6,12.6-4,18.7c-0.3,5.2-1.4,14,5.5,15.7c1.5,0.4,3,0.1,4.5,0.1c0.2,0,0.4,0,0.6,0.1
	c0.3,0.3,0.5,0.6,0.5,1c0.2,1.4,0.5,2.7,1,4c1,2.4,4,4.1,6.5,2.5c2.1-1.3,2.8-5.2,3.4-7.4c1.3-4.7-2.8-10.8-3.5-15.6
	c-1.2-8.2-2.3-17.6-6.4-20.5C258.6,58.9,256,59.9,254.2,62.8z"/>
<path class="st4" d="M253.3,60.5c1.6,2.9,4.8,5.8,6.5,7.8c3.2,3.9,6.9,7.7,7.9,12.8c0.6,3.3-0.2,6.8-0.6,10.1
	c-0.2,1.9-0.4,3.9-0.4,5.8c-0.1,1,0.1,2,0.3,3c1.2,3.5,4.7,4.8,8.2,5.2c2.9,0.3,5.8,0.1,8.7,0.6c5.4,0.9,10,4.3,12.7,9
	c3.9-4.6,4.4-11.2,1.3-16.3c-2.8-4.4-8-7.2-9.3-12.3c-1.3-5,1.6-9.8,2.4-14.8c1-6.1-1.5-12.5-5.8-16.9c-4.3-4.4-10.3-7-16.4-7.8
	c-2.2-0.4-4.5-0.3-6.7,0.2c-2,0.6-3.8,1.6-5.3,3c-2.2,1.9-4,4.3-4.2,7.2C252.4,58.3,252.7,59.5,253.3,60.5z"/>
<linearGradient id="SVGID_8_" gradientUnits="userSpaceOnUse" x1="318.2217" y1="298.5598" x2="365.604" y2="298.5598" gradientTransform="matrix(1 0 0 -1 -65.89 379.24)">
	<stop  offset="0" style="stop-color:#010101;stop-opacity:0"/>
	<stop  offset="0.47" style="stop-color:#010101;stop-opacity:0.47"/>
	<stop  offset="0.95" style="stop-color:#010101"/>
</linearGradient>
<path class="st14" d="M253.3,60.5c1.6,2.9,4.8,5.8,6.5,7.8c3.2,3.9,6.9,7.7,7.9,12.8c0.6,3.3-0.2,6.8-0.6,10.1
	c-0.2,1.9-0.4,3.9-0.4,5.8c-0.1,1,0.1,2,0.3,3c1.2,3.5,4.7,4.8,8.2,5.2c2.9,0.3,5.8,0.1,8.7,0.6c5.4,0.9,10,4.3,12.7,9
	c3.9-4.6,4.4-11.2,1.3-16.3c-2.8-4.4-8-7.2-9.3-12.3c-1.3-5,1.6-9.8,2.4-14.8c1-6.1-1.5-12.5-5.8-16.9c-4.3-4.4-10.3-7-16.4-7.8
	c-2.2-0.4-4.5-0.3-6.7,0.2c-2,0.6-3.8,1.6-5.3,3c-2.2,1.9-4,4.3-4.2,7.2C252.4,58.3,252.7,59.5,253.3,60.5z"/>
<path class="st6" d="M293.9,166.8C284.3,165.3,245,127,245,127s4.4-6.8,5.2-6.6c0.5,0.1,19.4,11.8,34.2,21.2l17.9,11.1
	c1,0.7,1.7,1.8,1.9,3C305.2,160.5,301.5,168,293.9,166.8z"/>
<path class="st2" d="M305.6,149.8c0,2.1,0,4.4-1.2,6.2c-0.1-0.1-0.1-0.1-0.2-0.2c-0.2-1.2-0.9-2.3-1.9-3l-17.9-11.2
	c-2.9-8.3-5.9-16.8-5.7-25.3c0-3,1.4-5.9,3.7-7.8c9.3-6.9,19.1,11.3,21,18.1C305.5,134.1,305.6,142,305.6,149.8z"/>
<polygon class="st2" points="262.6,169 281.8,179.9 280.4,185.6 261.1,173.8 "/>
<path class="st2" d="M239.7,175.4c0.3-0.6,7.9-6.5,7.9-6.5v-4.8l-7.9,5.7V175.4z"/>
<path class="st6" d="M240.7,113.3c-2.4-0.7-5-0.9-7.5-0.8c-1.4,0-3,0.1-3.7,1.3c-0.5,1-0.4,2.1,0.2,3c0.6,0.8,1.4,1.6,2.3,2.2
	c0.9,0.7,1.8,1.5,2.5,2.4c0.5,0.7,0.9,1.5,1.5,2.2c1.5,1.8,4,2.4,6.4,2.7c1.2,0,2.3,0.3,3.3,0.9c0.2,0.2,0.5,0.4,0.8,0.5
	c0.3,0,0.5,0,0.8-0.1c3.1-1.1,4.3-5,2.2-7.5C247.1,117.3,244.3,114.5,240.7,113.3z"/>
<path class="st6" d="M209.7,139.1c-2.9-0.6-6-1.3-8.1-3.5c-1.1-1.2-1.9-2.6-2.5-4.1c-0.6-1.2-1.1-2.5-1.6-3.7
	c-0.8-1.2-0.5-2.8,0.7-3.6c1.2-1.3,2.7-2.6,4.5-2.5c0.7,0.1,1.4,0.3,2.1,0.6c2.4,1,5,2.2,6.1,4.6c0.5,1.2,0.7,2.4,0.8,3.6
	c0.2,1.9,0.3,3.7,0.3,5.6C211.9,137.9,211.7,139.6,209.7,139.1z"/>
<path class="st2" d="M220.2,323.3c-0.9,0.5-1.6,1.3-1.9,2.3c-0.1,1.1,0.5,2.2,1.5,2.6c1,0.5,2.1,0.7,3.1,0.7
	c7.2,0.6,14.5,0.7,21.7,0.2c1.7-0.1,3.5-0.3,4.6-1.6c1.1-1.3,1-3.4,0.7-5.2c-0.1-0.8-0.4-1.9-1.2-2.2c-0.6-0.1-1.2-0.1-1.7,0.2
	c-2.4,0.7-5,0.5-7.4-0.4c-2-0.8-3.9-2.7-6.2-2.7C229.1,317.1,223.6,320.8,220.2,323.3z"/>
<path class="st2" d="M256.6,329.7c-0.9,0.5-1.6,1.3-1.9,2.3c-0.1,1.1,0.5,2.2,1.5,2.7c1,0.5,2.1,0.7,3.1,0.7
	c7.2,0.6,14.5,0.7,21.7,0.2c1.7-0.1,3.5-0.3,4.6-1.6c1.1-1.3,1-3.4,0.7-5.2c-0.1-0.8-0.4-1.9-1.2-2.2c-0.6-0.1-1.2-0.1-1.7,0.2
	c-2.4,0.7-5,0.5-7.4-0.4c-2-0.8-3.9-2.7-6.2-2.7C265.7,323.6,260.1,327.3,256.6,329.7z"/>
<linearGradient id="SVGID_9_" gradientUnits="userSpaceOnUse" x1="300.8445" y1="69.9917" x2="299.2706" y2="37.0322" gradientTransform="matrix(1 0 0 -1 -65.89 379.24)">
	<stop  offset="0" style="stop-color:#010101;stop-opacity:0"/>
	<stop  offset="0.47" style="stop-color:#010101;stop-opacity:0.47"/>
	<stop  offset="0.95" style="stop-color:#010101"/>
</linearGradient>
<path class="st15" d="M220.2,323.3c-0.9,0.5-1.6,1.3-1.9,2.3c-0.1,1.1,0.5,2.2,1.5,2.6c1,0.5,2.1,0.7,3.1,0.7
	c7.2,0.6,14.5,0.7,21.7,0.2c1.7-0.1,3.5-0.3,4.6-1.6c1.1-1.3,1-3.4,0.7-5.2c-0.1-0.8-0.4-1.9-1.2-2.2c-0.6-0.1-1.2-0.1-1.7,0.2
	c-2.4,0.7-5,0.5-7.4-0.4c-2-0.8-3.9-2.7-6.2-2.7C229.1,317.1,223.6,320.8,220.2,323.3z"/>
<linearGradient id="SVGID_10_" gradientUnits="userSpaceOnUse" x1="336.5712" y1="63.2134" x2="336.5712" y2="25.9467" gradientTransform="matrix(1 0 0 -1 -65.89 379.24)">
	<stop  offset="0" style="stop-color:#010101;stop-opacity:0"/>
	<stop  offset="0.47" style="stop-color:#010101;stop-opacity:0.47"/>
	<stop  offset="0.95" style="stop-color:#010101"/>
</linearGradient>
<path class="st16" d="M256.6,329.7c-0.9,0.5-1.6,1.3-1.9,2.3c-0.1,1.1,0.5,2.2,1.5,2.7c1,0.5,2.1,0.7,3.1,0.7
	c7.2,0.6,14.5,0.7,21.7,0.2c1.7-0.1,3.5-0.3,4.6-1.6c1.1-1.3,1-3.4,0.7-5.2c-0.1-0.8-0.4-1.9-1.2-2.2c-0.6-0.1-1.2-0.1-1.7,0.2
	c-2.4,0.7-5,0.5-7.4-0.4c-2-0.8-3.9-2.7-6.2-2.7C265.7,323.6,260.1,327.3,256.6,329.7z"/>
<path class="st9" d="M199.8,112c0,1.5-1.2,2.6-2.7,2.6c-1.5,0-2.6-1.2-2.6-2.7c0-0.8,0.4-1.6,1-2.1"/>
<path class="st9" d="M202.4,118.4c0,1.5-1.2,2.7-2.6,2.7s-2.7-1.2-2.7-2.6c0-0.8,0.4-1.6,1-2.1"/>
</svg>
