<?xml version="1.0" encoding="utf-8"?>
<!-- Generator: Adobe Illustrator 21.0.0, SVG Export Plug-In . SVG Version: 6.00 Build 0)  -->
<svg version="1.1" id="Layer_1" xmlns="http://www.w3.org/2000/svg" xmlns:xlink="http://www.w3.org/1999/xlink" x="0px" y="0px"
	 viewBox="0 0 500 387" style="enable-background:new 0 0 500 387;" xml:space="preserve">
<style type="text/css">
	.st0{opacity:0.24;fill:#0A458E;enable-background:new    ;}
	.st1{fill:#0A458E;}
	.st2{fill:url(#SVGID_1_);}
	.st3{fill:url(#SVGID_2_);}
	.st4{fill:#FFFFFF;}
	.st5{fill:#F5C7C8;}
	.st6{fill:url(#SVGID_3_);}
	.st7{fill:url(#SVGID_4_);}
	.st8{fill:url(#SVGID_5_);}
	.st9{fill:url(#SVGID_6_);}
	.st10{fill:url(#SVGID_7_);}
	.st11{fill:url(#SVGID_8_);}
	.st12{fill:url(#SVGID_9_);}
	.st13{fill:url(#SVGID_10_);}
	.st14{fill:url(#SVGID_11_);}
	.st15{fill:url(#SVGID_12_);}
	.st16{fill:url(#SVGID_13_);}
	.st17{fill:url(#SVGID_14_);}
	.st18{fill:url(#SVGID_15_);}
</style>
<title>Take a Note 2</title>
<path class="st0" d="M426.1,328.9c-4.9,3.6-10.2,6.5-15.8,8.7c-9.7,3.8-20.1,5.5-30.1,8.4c-4.4,1.3-8.8,2.8-13.1,4.5
	c-25.8,10.2-49.6,26.3-76.8,32.2c-50.4,11-99.1-14-147.2-24.6c-41.3-9.1-74.8,12.6-91.5-53c-7-27.3-15.6-56.2-5-82.4
	s25.4-50.4,35.4-76.7c14.4-37.6,19.7-80.9,47.9-109.6c19.6-19.9,47.5-29.5,75.2-32.9s55.7-1.2,83.6-1.1c33.6,0.1,69.4-2.2,98.4,14.7
	c20.7,12.3,35.1,32.9,39.5,56.5c5.8,32.3-7.9,65.8-1.8,98c5.7,30,28,55.1,32.4,85.4C461.4,284.2,448.2,312.8,426.1,328.9z"/>
<path class="st1" d="M371.4,58.2v265.4c0,14-11.4,25.4-25.4,25.4l0,0H178.4c-14,0-25.4-11.4-25.4-25.4c0,0,0,0,0,0V58.2
	c0-14,11.4-25.4,25.4-25.4H346C360,32.8,371.4,44.2,371.4,58.2z"/>
<linearGradient id="SVGID_1_" gradientUnits="userSpaceOnUse" x1="174.2797" y1="157.371" x2="215.4843" y2="157.371" gradientTransform="matrix(1 0 0 -1 -21.29 382.53)">
	<stop  offset="0" style="stop-color:#010101;stop-opacity:0"/>
	<stop  offset="0.95" style="stop-color:#010101"/>
</linearGradient>
<path class="st2" d="M194.2,210.8c-5,12.4-16,20.7-25.5,29.6c-4.9,4.5-8.6,9.6-13,14.6c-0.8,0.9-1.7,1.6-2.7,2.1v-50.5
	c1.3-4.3,2.2-8.7,2.6-13.2c1.6,5.4,0.9,12.1,5.1,15.9c2.7,2.5,6.7,3,10.3,3.1C178.8,212.7,186.5,212.1,194.2,210.8z"/>
<linearGradient id="SVGID_2_" gradientUnits="userSpaceOnUse" x1="192.3671" y1="-35.9048" x2="334.3792" y2="460.3543" gradientTransform="matrix(1 0 0 -1 0 389.23)">
	<stop  offset="0" style="stop-color:#010101;stop-opacity:0"/>
	<stop  offset="0.47" style="stop-color:#010101;stop-opacity:0.47"/>
	<stop  offset="0.95" style="stop-color:#010101"/>
</linearGradient>
<rect x="171.4" y="55.4" class="st3" width="177.4" height="265.8"/>
<path class="st4" d="M351.4,53.3v265H196.2c0,0-21.5-4.5-22.6-40.8c-1.1-36.2,1.1-224.3,1.1-224.3L351.4,53.3z"/>
<path class="st5" d="M341.7,196.7c1,3.6,1.2,7.7,3.3,10.8c2.9,4.2,8.7,5.3,13.8,5c0.7,0,1.3-0.1,2-0.4c0.7-0.4,1.3-0.9,1.7-1.6
	c3.1-4.2,3.1-10.1,1.5-15.1c-2.1-6.9-6.7-12.8-12.8-16.6c-3.3-2.1-17.8-8.2-19.4-2.5C330.5,181.3,340.2,191.8,341.7,196.7z"/>
<linearGradient id="SVGID_3_" gradientUnits="userSpaceOnUse" x1="359.2216" y1="182.0478" x2="467.9387" y2="267.3571" gradientTransform="matrix(1 0 0 -1 -21.29 382.53)">
	<stop  offset="0" style="stop-color:#010101;stop-opacity:0"/>
	<stop  offset="0.47" style="stop-color:#010101;stop-opacity:0.47"/>
	<stop  offset="0.95" style="stop-color:#010101"/>
</linearGradient>
<path class="st6" d="M341.7,196.7c1,3.6,1.2,7.7,3.3,10.8c2.9,4.2,8.7,5.3,13.8,5c0.7,0,1.3-0.1,2-0.4c0.7-0.4,1.3-0.9,1.7-1.6
	c3.1-4.2,3.1-10.1,1.5-15.1c-2.1-6.9-6.7-12.8-12.8-16.6c-3.3-2.1-17.8-8.2-19.4-2.5C330.5,181.3,340.2,191.8,341.7,196.7z"/>
<linearGradient id="SVGID_4_" gradientUnits="userSpaceOnUse" x1="338.5938" y1="120.1076" x2="537.5638" y2="227.7866" gradientTransform="matrix(1 0 0 -1 -21.29 382.53)">
	<stop  offset="0" style="stop-color:#010101;stop-opacity:0"/>
	<stop  offset="0.47" style="stop-color:#010101;stop-opacity:0.47"/>
	<stop  offset="0.95" style="stop-color:#010101"/>
</linearGradient>
<path class="st7" d="M347.5,346.9c-0.6-26-1.2-52.5-10.1-76.9c-5.1-13.9-12.7-26.8-16.8-40.9c-3.2-11.2-2.5-23-2.4-34.7
	c0-6.2,0.1-12.5-1.8-18.3c-1.6-5.1-4.8-9.8-5.5-15.1c7.2,5.2,14.8,11.1,17.4,19.6c1.3,4.1,1.2,8.6,1.9,12.8
	c2.2,13.8,11.8,25.1,18.7,37.2c15.1,26.8,16.9,58.8,16.8,89.6c0,6.7-0.2,13.6-3.1,19.6S354.1,348.1,347.5,346.9z"/>
<path class="st5" d="M190.4,216.1c-12.6,14.1-32.1,21-43.4,36.1c-10.1,13.5-12,31.2-17.1,47.3c-5.7,17.8-15.4,34-25.1,50
	c-1.3,2.1-2.7,4.3-5,5.2c-2,0.8-4.2,0.4-6.3,0c-15.7-3.3-32.9-11.6-36.4-27.3c-2.2-10,1.9-20.4,6.7-29.5
	c16.9-31.6,43.5-57.7,56.5-91.1c8.5-21.8,12.8-46.5,33.6-60.4c0,0.1,0,0.3,0,0.4c-1,8.6,0.8,27.3-0.6,40.6c0,0.5,0,1,0.1,1.4l0,0
	c0.6,2.7,2.9,6,3.9,8c3.2,6,12.1,4.7,18.5,2.5c6.5-2.2,15.3-3.7,18.6,2.3C196.9,206.4,193.9,212.1,190.4,216.1z"/>
<path class="st4" d="M209.4,318.1c-0.1,0.1-0.2,0.2-0.3,0.3h-12.9c0,0-21.5-4.5-22.6-40.8c0,0,7.7,24.4,34.3,19.2
	C207.9,296.8,193.8,319.7,209.4,318.1z"/>
<linearGradient id="SVGID_5_" gradientUnits="userSpaceOnUse" x1="226.7625" y1="101.9383" x2="147.1712" y2="3.6191" gradientTransform="matrix(1 0 0 -1 -21.29 382.53)">
	<stop  offset="0" style="stop-color:#010101;stop-opacity:0"/>
	<stop  offset="0.95" style="stop-color:#010101"/>
</linearGradient>
<path class="st8" d="M209.4,318.1c-0.1,0.1-0.2,0.2-0.3,0.3h-12.9c0,0-21.5-4.5-22.6-40.8c0,0,7.7,24.4,34.3,19.2
	C207.9,296.8,193.8,319.7,209.4,318.1z"/>
<linearGradient id="SVGID_6_" gradientUnits="userSpaceOnUse" x1="200.5715" y1="277.6492" x2="331.6582" y2="277.6492" gradientTransform="matrix(1 0 0 -1 0 389.23)">
	<stop  offset="0" style="stop-color:#010101;stop-opacity:0"/>
	<stop  offset="0.95" style="stop-color:#010101"/>
</linearGradient>
<path class="st9" d="M202.9,109.2h126.4c1.3,0,2.3,1,2.3,2.3l0,0c0,1.3-1,2.3-2.3,2.3H202.9c-1.3,0-2.3-1-2.3-2.3l0,0
	C200.6,110.3,201.6,109.2,202.9,109.2z"/>
<linearGradient id="SVGID_7_" gradientUnits="userSpaceOnUse" x1="200.5715" y1="263.6013" x2="331.6582" y2="263.6013" gradientTransform="matrix(1 0 0 -1 0 389.23)">
	<stop  offset="0" style="stop-color:#010101;stop-opacity:0"/>
	<stop  offset="0.95" style="stop-color:#010101"/>
</linearGradient>
<path class="st10" d="M202.9,123.3h126.4c1.3,0,2.3,1,2.3,2.3l0,0c0,1.3-1,2.3-2.3,2.3H202.9c-1.3,0-2.3-1-2.3-2.3l0,0
	C200.6,124.3,201.6,123.3,202.9,123.3z"/>
<linearGradient id="SVGID_8_" gradientUnits="userSpaceOnUse" x1="200.5715" y1="249.5616" x2="331.6582" y2="249.5616" gradientTransform="matrix(1 0 0 -1 0 389.23)">
	<stop  offset="0" style="stop-color:#010101;stop-opacity:0"/>
	<stop  offset="0.95" style="stop-color:#010101"/>
</linearGradient>
<path class="st11" d="M202.9,137.3h126.4c1.3,0,2.3,1,2.3,2.3l0,0c0,1.3-1,2.3-2.3,2.3H202.9c-1.3,0-2.3-1-2.3-2.3l0,0
	C200.6,138.4,201.6,137.3,202.9,137.3z"/>
<linearGradient id="SVGID_9_" gradientUnits="userSpaceOnUse" x1="200.5715" y1="235.5136" x2="331.6582" y2="235.5136" gradientTransform="matrix(1 0 0 -1 0 389.23)">
	<stop  offset="0" style="stop-color:#010101;stop-opacity:0"/>
	<stop  offset="0.95" style="stop-color:#010101"/>
</linearGradient>
<path class="st12" d="M202.9,151.4h126.4c1.3,0,2.3,1,2.3,2.3l0,0c0,1.3-1,2.3-2.3,2.3H202.9c-1.3,0-2.3-1-2.3-2.3l0,0
	C200.6,152.4,201.6,151.4,202.9,151.4z"/>
<linearGradient id="SVGID_10_" gradientUnits="userSpaceOnUse" x1="200.5715" y1="221.4657" x2="331.6582" y2="221.4657" gradientTransform="matrix(1 0 0 -1 0 389.23)">
	<stop  offset="0" style="stop-color:#010101;stop-opacity:0"/>
	<stop  offset="0.95" style="stop-color:#010101"/>
</linearGradient>
<path class="st13" d="M202.9,165.4h126.4c1.3,0,2.3,1,2.3,2.3l0,0c0,1.3-1,2.3-2.3,2.3H202.9c-1.3,0-2.3-1-2.3-2.3l0,0
	C200.6,166.5,201.6,165.4,202.9,165.4z"/>
<path class="st1" d="M301.4,42.6v7.6c0,9.3-7.5,16.8-16.8,16.8c0,0,0,0,0,0h-45.1c-9.3,0-16.9-7.5-16.9-16.8c0,0,0,0,0,0v-7.6
	c0-9.3,7.6-16.9,16.9-16.8h45.1C293.9,25.8,301.4,33.3,301.4,42.6C301.4,42.6,301.4,42.6,301.4,42.6z"/>
<linearGradient id="SVGID_11_" gradientUnits="userSpaceOnUse" x1="226.0782" y1="339.5214" x2="308.3967" y2="332.106" gradientTransform="matrix(1 0 0 -1 -21.29 382.53)">
	<stop  offset="0" style="stop-color:#010101;stop-opacity:0"/>
	<stop  offset="0.47" style="stop-color:#010101;stop-opacity:0.47"/>
	<stop  offset="0.95" style="stop-color:#010101"/>
</linearGradient>
<path class="st14" d="M222.7,42.4v7.7c0,9.3,7.5,16.9,16.8,16.9c0,0,0,0,0.1,0h3.4c-9.3,0-16.8-7.5-16.8-16.8c0,0,0,0,0-0.1v-7.7
	c0-9.3,7.5-16.8,16.8-16.8c0,0,0,0,0,0h-3.4C230.3,25.6,222.7,33.1,222.7,42.4C222.7,42.4,222.7,42.4,222.7,42.4z"/>
<linearGradient id="SVGID_12_" gradientUnits="userSpaceOnUse" x1="287.6691" y1="378.9577" x2="283.0057" y2="304.4171" gradientTransform="matrix(1 0 0 -1 -21.29 382.53)">
	<stop  offset="0" style="stop-color:#FFFFFF;stop-opacity:0"/>
	<stop  offset="0.95" style="stop-color:#FFFFFF"/>
</linearGradient>
<path class="st15" d="M301.4,42.6v7.6c0,9.3-7.5,16.8-16.8,16.8c0,0,0,0,0,0h-41.7c-9.3,0-16.9-7.5-16.9-16.8c0,0,0,0,0,0v-7.6
	c0-9.3,7.6-16.9,16.9-16.8h41.7C293.9,25.8,301.4,33.3,301.4,42.6C301.4,42.6,301.4,42.6,301.4,42.6z"/>
<linearGradient id="SVGID_13_" gradientUnits="userSpaceOnUse" x1="153.3503" y1="223.9732" x2="343.8173" y2="140.6495" gradientTransform="matrix(1 0 0 -1 -21.29 382.53)">
	<stop  offset="0" style="stop-color:#010101;stop-opacity:0"/>
	<stop  offset="0.95" style="stop-color:#010101"/>
</linearGradient>
<path class="st16" d="M153.2,187.5c0,0.5,0,1,0.1,1.4c-1.6-1.1-3.4-4.5-4.9-8.6c-1-2.5-3.4-14.7-3.4-17.5c0-6.2,4.3-11.5,8.8-15.9
	C152.8,155.6,154.6,174.2,153.2,187.5z"/>
<path class="st5" d="M426.1,328.9c-4.9,3.6-10.2,6.5-15.8,8.7c-9.7,3.8-20.1,5.5-30.1,8.4c-4.4,1.3-8.8,2.8-13.1,4.5
	c-5.1-39-15.2-77.9-34.4-112.1c-5-8.9-8.8-16.4-12.1-26.1s-1.6-35.9,1.5-36.4c5.4-0.9,9,5.5,10.7,10.7c2.9,8.5,5.6,16.3,13.6,21.4
	c3.4,2.2,8.1,3.6,11.4,1.1c1.6-1.4,2.7-3.3,3-5.4c1.4-6.7-1.5-13.8-6.4-18.6c-4.9-4.8-11.5-7.4-18.1-8.9c-3.8-0.8-8-1.4-10.9-4
	c-2.3-2.1-3.5-5.8-1.8-8.4c1.5-2.3,10.6,3,13.3,2.6c6-0.8,6.3-2,12.4-2c6,0.1,12.3,0.6,17.9,2.9c5.8,2.5,10.7,6.6,15.2,11
	c7.1,6.8,13.5,8.8,19.6,16.5c3.9,4.9,7.6,9.9,9.7,15.8c3.7,10.5,1.6,22.1,0.5,33.3c-2.7,28.3,1.7,56.9,12.9,83.1
	C425.6,327.7,425.9,328.3,426.1,328.9z"/>
<linearGradient id="SVGID_14_" gradientUnits="userSpaceOnUse" x1="404.7472" y1="156.8337" x2="305.8431" y2="138.8557" gradientTransform="matrix(1 0 0 -1 -21.29 382.53)">
	<stop  offset="0" style="stop-color:#010101;stop-opacity:0"/>
	<stop  offset="0.47" style="stop-color:#010101;stop-opacity:0.47"/>
	<stop  offset="0.95" style="stop-color:#010101"/>
</linearGradient>
<path class="st17" d="M362.5,224.9c4.9,8.3,11.1,15.7,17.3,23.2c1.7,2.1,4.5,4.4,6.8,2.9c1.7-1.1,1.6-3.7,1.2-5.7
	c-1.8-8.6-6.6-16.4-12.4-22.9c-5.9-6.6-12.8-12.1-19.6-17.6c0.2,0.2-2.4,3.9-1.3,5.9C356.4,213.9,360.6,221.6,362.5,224.9z"/>
<path class="st1" d="M312,164.2c0,0,48.6,52.1,58.5,62.4c9.9,10.3,18.1,17.9,18.1,17.9s9.8,1,10.1-2.3c0.4-3.3-73.9-75.5-81.3-79
	l-7.4-3.5L312,164.2z"/>
<linearGradient id="SVGID_15_" gradientUnits="userSpaceOnUse" x1="383.071" y1="189.6708" x2="368.0013" y2="172.5249" gradientTransform="matrix(1 0 0 -1 -21.29 382.53)">
	<stop  offset="0" style="stop-color:#FFFFFF;stop-opacity:0"/>
	<stop  offset="0.95" style="stop-color:#FFFFFF"/>
</linearGradient>
<path class="st18" d="M398.8,242.3c-0.2,1.6-2.7,2.2-5.2,2.4c-1.6,0.1-3.3,0.1-4.9-0.1c0,0-8.2-7.6-18.1-17.9
	c-9.9-10.3-58.5-62.4-58.5-62.4l-1.9-4.5l7.4,3.5C324.8,166.8,399.2,239,398.8,242.3z"/>
<path class="st1" d="M394.5,244.2l-0.9,0.5c-1.6,0.1-3.3,0.1-4.9-0.1c0,0-8.2-7.6-18.1-17.9c-9.9-10.3-58.5-62.4-58.5-62.4l-1.9-4.5
	L394.5,244.2z"/>
<path class="st4" d="M382.9,236c-0.6,1.1-1.4,2.5-2.6,2.2c-0.3-0.1-0.6-0.3-0.8-0.5l-18.4-15.8c-0.4,2.8,2.2,5.1,4.4,6.9
	c4.1,3.3,7.9,6.9,11.3,10.9c1,1.1,2,2.3,3.4,2.8s3.3-0.2,3.5-1.6c0-0.3,0.1-0.6,0.2-0.9c0.2-0.2,0.4-0.4,0.7-0.5l3-1.5
	c1.2-0.5,2.2-1.2,3.1-2c0.9-0.9,1.3-2.2,1-3.4C390.3,227.7,383.9,234.1,382.9,236z"/>
<path class="st4" d="M393.6,245.7c1.4,1.3,3,2.5,4.9,2.6c0.7,0.1,1.4-0.2,1.8-0.7c0.4-0.6,0.4-1.3,0.1-1.9c-0.3-0.6-0.7-1.1-1.2-1.6
	l-1.9-2.1c-0.6-0.8-1.5-1.4-2.5-1.8c-1.1-0.2-3.7,0.7-3.9,2C390.8,243.6,392.8,245,393.6,245.7z"/>
</svg>
