<?xml version="1.0" encoding="utf-8"?>
<!-- Generator: Adobe Illustrator 21.0.0, SVG Export Plug-In . SVG Version: 6.00 Build 0)  -->
<svg version="1.1" id="Layer_1" xmlns="http://www.w3.org/2000/svg" xmlns:xlink="http://www.w3.org/1999/xlink" x="0px" y="0px"
	 viewBox="0 0 420.1 142.9" style="enable-background:new 0 0 420.1 142.9;" xml:space="preserve">
<style type="text/css">
	.st0{fill:#0A458E;}
	.st1{fill:url(#SVGID_1_);}
	.st2{fill:#009461;}
	.st3{fill:url(#SVGID_2_);}
	.st4{fill:url(#SVGID_3_);}
	.st5{fill:url(#SVGID_4_);}
	.st6{fill:url(#SVGID_5_);}
	.st7{fill:url(#SVGID_6_);}
	.st8{fill:#F7AF87;}
	.st9{fill:#1C1C1C;}
	.st10{fill:url(#SVGID_7_);}
	.st11{fill:url(#SVGID_8_);}
</style>
<title>404 not found 1</title>
<path class="st0" d="M30.8,79.9c6.8-7.6,6.8-7.6,14.5-16.6L78.1,25c7.3-8.3,10.1-12.1,14-18h31c-0.9,8.3-1.3,16.7-1.2,25.1v49.1h4.4
	c5,0,10-0.5,15-1.2v27.5c-4.9-0.6-9.9-0.9-14.8-0.9h-4.5v7.6c-0.1,6.2,0.3,12.4,1.2,18.6H92c0.9-6.3,1.3-12.6,1.2-18.9v-7.4H50.5
	c-9.8,0-14,0.1-19.6,0.6L30.8,79.9z M93.3,63.9c0-6.8,0.3-15.1,0.9-21.8c-3,4.2-5.3,7.3-9.4,12.4L62.8,81.4h30.5V63.9z"/>
<linearGradient id="SVGID_1_" gradientUnits="userSpaceOnUse" x1="-64.9927" y1="102.8531" x2="262.9373" y2="-80.647" gradientTransform="matrix(1 0 0 -1 -0.27 80.23)">
	<stop  offset="0" style="stop-color:#000000;stop-opacity:0"/>
	<stop  offset="0.99" style="stop-color:#000000"/>
</linearGradient>
<path class="st1" d="M30.8,79.9c6.8-7.6,6.8-7.6,14.5-16.6L78.1,25c7.3-8.3,10.1-12.1,14-18h31c-0.9,8.3-1.3,16.7-1.2,25.1v49.1h4.4
	c5,0,10-0.5,15-1.2v27.5c-4.9-0.6-9.9-0.9-14.8-0.9h-4.5v7.6c-0.1,6.2,0.3,12.4,1.2,18.6H92c0.9-6.3,1.3-12.6,1.2-18.9v-7.4H50.5
	c-9.8,0-14,0.1-19.6,0.6L30.8,79.9z M93.3,63.9c0-6.8,0.3-15.1,0.9-21.8c-3,4.2-5.3,7.3-9.4,12.4L62.8,81.4h30.5V63.9z"/>
<path class="st2" d="M198.9,42.1c3,0.5,5.8,2.3,8.8,3c2.6,0.6,5.4,0.3,8,1.2c4.9,1.7,8,7.6,8.7,13.4s-0.5,11.8-1.9,17.5
	c-3.7,15-8.7,30-17.7,41.4c-0.6,0.8-1.4,1.6-2.3,1.6c-0.6-0.1-1.2-0.4-1.7-0.8c-1.9-1.3-3.6-2.8-5.1-4.5c-2.4-2.9-3.8-6.7-5-10.5
	c-3.4-10.6-9.9-17.4-11.1-28.7C178.1,63.9,184.6,39.7,198.9,42.1z"/>
<linearGradient id="SVGID_2_" gradientUnits="userSpaceOnUse" x1="217.1606" y1="10.249" x2="115.3206" y2="-52.421" gradientTransform="matrix(1 0 0 -1 -0.27 80.23)">
	<stop  offset="0" style="stop-color:#000000;stop-opacity:0"/>
	<stop  offset="0.99" style="stop-color:#000000"/>
</linearGradient>
<path class="st3" d="M189.2,49.6c-1.3-0.2-2.6,0-3.7,0.7c-2.4,1.5-4,3.8-4.6,6.5c-0.5,2.7-0.6,5.5-0.3,8.2c0.7,8,2.2,15.9,4.6,23.6
	c0.7,2.2-1.3,7.5,0.1,9.3c1.2,1.5,0.6,10.4,2.1,11.5c4.3,3.1,13.1,1.4,17.4,4.5c5.5,4,5.2-6.6,4.3-10.9c-1-4.9-8.5-4-14.3-20.4
	C187.3,60.8,191.1,50.1,189.2,49.6z"/>
<path class="st0" d="M264,79.4c6.8-7.6,6.8-7.6,14.5-16.6l32.8-38.4c5.1-5.6,9.8-11.7,14-18h31c-0.9,8.3-1.3,16.7-1.2,25.1v49.1h4.4
	c5-0.1,10-0.5,15-1.2v27.5c-4.9-0.6-9.9-0.9-14.8-0.9H355v7.6c-0.1,6.2,0.3,12.4,1.2,18.6h-31.1c0.9-6.2,1.3-12.5,1.2-18.8v-7.4
	h-42.7c-9.8,0-14,0.1-19.6,0.6V79.4z M326.5,63.4c0-6.8,0.3-15.1,0.9-21.7c-3,4.2-5.3,7.2-9.4,12.4l-22,26.9h30.5L326.5,63.4z"/>
<linearGradient id="SVGID_3_" gradientUnits="userSpaceOnUse" x1="425.358" y1="-74.2123" x2="137.358" y2="171.3077" gradientTransform="matrix(1 0 0 -1 -0.27 80.23)">
	<stop  offset="0" style="stop-color:#000000;stop-opacity:0"/>
	<stop  offset="0.99" style="stop-color:#000000"/>
</linearGradient>
<path class="st4" d="M264,79.4c6.8-7.6,6.8-7.6,14.5-16.6l32.8-38.4c5.1-5.6,9.8-11.7,14-18h31c-0.9,8.3-1.3,16.7-1.2,25.1v49.1h4.4
	c5-0.1,10-0.5,15-1.2v27.5c-4.9-0.6-9.9-0.9-14.8-0.9H355v7.6c-0.1,6.2,0.3,12.4,1.2,18.6h-31.1c0.9-6.2,1.3-12.5,1.2-18.8v-7.4
	h-42.7c-9.8,0-14,0.1-19.6,0.6V79.4z M326.5,63.4c0-6.8,0.3-15.1,0.9-21.7c-3,4.2-5.3,7.2-9.4,12.4l-22,26.9h30.5L326.5,63.4z"/>
<path class="st0" d="M166.3,120.2c-4.8-4.7-8.6-10.5-11-16.8c-4-11.1-6-22.8-5.9-34.6c0-15.9,3.8-32.3,9.5-41.8
	c9.2-15.4,24.9-23.9,43.9-23.9c14.6,0,27.5,5,36.7,14c4.8,4.7,8.6,10.5,11,16.8c4,11.1,6,22.9,5.9,34.7c0,15.9-3.8,32.5-9.5,42
	c-9.1,15.1-24.9,23.6-44.1,23.6C188,134.2,175.5,129.4,166.3,120.2z M180.3,67.6c0,27,7.7,40.9,22.6,40.9s22.4-13.6,22.4-40.5
	c0-25.8-7.9-39.4-22.5-39.4C188.6,28.7,180.3,43,180.3,67.6L180.3,67.6z"/>
<linearGradient id="SVGID_4_" gradientUnits="userSpaceOnUse" x1="295.8896" y1="7.7791" x2="-18.1604" y2="20.5191" gradientTransform="matrix(1 0 0 -1 -0.27 80.23)">
	<stop  offset="0" style="stop-color:#000000;stop-opacity:0"/>
	<stop  offset="0.99" style="stop-color:#000000"/>
</linearGradient>
<path class="st5" d="M166.3,120.2c-4.8-4.7-8.6-10.5-11-16.8c-4-11.1-6-22.8-5.9-34.6c0-15.9,3.8-32.3,9.5-41.8
	c9.2-15.4,24.9-23.9,43.9-23.9c14.6,0,27.5,5,36.7,14c4.8,4.7,8.6,10.5,11,16.8c4,11.1,6,22.9,5.9,34.7c0,15.9-3.8,32.5-9.5,42
	c-9.1,15.1-24.9,23.6-44.1,23.6C188,134.2,175.5,129.4,166.3,120.2z M180.3,67.6c0,27,7.7,40.9,22.6,40.9s22.4-13.6,22.4-40.5
	c0-25.8-7.9-39.4-22.5-39.4C188.6,28.7,180.3,43,180.3,67.6L180.3,67.6z"/>
<path class="st0" d="M34.2,79.4c6.8-7.6,6.8-7.6,14.5-16.6l32.8-38.4c5.1-5.6,9.8-11.7,14-18h31c-0.9,8.3-1.3,16.7-1.2,25.1v49.1
	h4.4c5-0.1,10-0.5,15-1.2v27.5c-4.9-0.6-9.9-0.9-14.8-0.9h-4.5v7.6c-0.1,6.2,0.3,12.4,1.2,18.6H95.4c0.9-6.2,1.3-12.5,1.2-18.8v-7.4
	H53.8c-9.8,0-14,0.1-19.6,0.6L34.2,79.4z M96.7,63.4c0-6.8,0.3-15.1,0.9-21.7c-3,4.2-5.3,7.2-9.4,12.4l-22,26.9h30.5V63.4z"/>
<path class="st0" d="M169.6,120.7c-4.8-4.7-8.6-10.5-11-16.8c-4-11.1-6-22.8-5.9-34.6c0-15.9,3.8-32.3,9.5-41.8
	c9.2-15.4,24.9-23.8,43.9-23.8c14.6,0,27.5,5,36.7,14c4.8,4.7,8.6,10.5,11,16.8c4,11.1,6,22.9,5.9,34.8c0,15.9-3.8,32.5-9.5,42
	c-9.1,15.1-24.9,23.6-44.1,23.6C191.4,134.8,178.9,129.9,169.6,120.7z M183.7,68.2c0,27,7.7,40.9,22.6,40.9
	c14.8,0,22.4-13.6,22.4-40.5c0-25.8-7.9-39.4-22.5-39.4C192,29.2,183.7,43.6,183.7,68.2z"/>
<linearGradient id="SVGID_5_" gradientUnits="userSpaceOnUse" x1="259.2373" y1="69.6225" x2="169.0373" y2="-26.9375" gradientTransform="matrix(1 0 0 -1 -0.27 80.23)">
	<stop  offset="0" style="stop-color:#000000;stop-opacity:0"/>
	<stop  offset="0.99" style="stop-color:#000000"/>
</linearGradient>
<path class="st6" d="M230.8,15.7c2.3,1.7,3.4,4.6,2.7,7.3c3.8,0.4,7.3,2.2,9.7,5.2c2.1,2.8,3.4,6.2,3.8,9.8
	c0.3,3.5,0.2,7.1-0.2,10.6c0,1.2-0.3,2.4-0.7,3.5c-1,2-2.9,3.4-5.1,3.9c-2.2,0.4-4.4,0.5-6.6,0.3l-5.3-0.3c-0.2,0-0.3,0-0.5-0.1
	c-0.2-0.2-0.3-0.4-0.4-0.7c-0.4-2.1-0.9-3.1-1.3-5.2c-1-4.5-2.9-8.8-5.6-12.6c-0.5-0.6-0.8-1.2-1-1.9c-0.1-1,0.2-2,0.6-2.9
	c0.7-1.7,1.3-3.5,1.8-5.3c0.4-2.2,1-4.3,1.6-6.4c0.7-2.1,2.1-3.9,4-5.1"/>
<linearGradient id="SVGID_6_" gradientUnits="userSpaceOnUse" x1="246.4111" y1="-5.334" x2="233.1911" y2="57.026" gradientTransform="matrix(1 0 0 -1 -0.27 80.23)">
	<stop  offset="0" style="stop-color:#000000;stop-opacity:0"/>
	<stop  offset="0.99" style="stop-color:#000000"/>
</linearGradient>
<path class="st7" d="M228.4,78.5c0,0,19.2,1.7,28-10c3.5-4.6-4.3-26.5-4.3-26.5l-8.9,15.9l-14,3.2L228.4,78.5z"/>
<path class="st0" d="M267.7,79.4c6.8-7.6,6.8-7.6,14.5-16.6l32.8-38.4c7.3-8.3,10.1-12.1,14-18h31c-0.9,8.3-1.3,16.7-1.2,25.1v49.1
	h4.4c5-0.1,10-0.5,15-1.2v27.5c-4.9-0.6-9.9-0.9-14.8-0.9h-4.5v7.6c-0.1,6.2,0.3,12.4,1.2,18.6h-31.1c0.9-6.2,1.3-12.5,1.2-18.8
	v-7.4h-42.7c-9.8,0-14,0.1-19.6,0.6L267.7,79.4z M330.2,63.4c0-6.8,0.3-15.1,0.9-21.7c-3,4.2-5.3,7.2-9.4,12.4l-22,26.9h30.5
	L330.2,63.4z"/>
<path class="st8" d="M183.3,44.3c-0.5,0.2-1,0.4-1.5,0.7c-0.5,0.2-0.8,0.6-1.2,0.9c-0.3,0.4-0.4,1-0.2,1.4c0.4,0.6,1.2,1,1.9,0.8
	c1.2-0.1,2.4-0.7,3.6-0.9s2.4-1.1,1.5-2.4S184.5,43.8,183.3,44.3z"/>
<path class="st8" d="M187.2,47.2c-1.8-0.5-3.7,0.3-5.3,1.2c-0.4,0.2-0.7,0.4-1,0.8c-0.4,0.3-0.5,1-0.2,1.4c0.2,0.3,0.5,0.4,0.8,0.4
	c0.4,0,0.7,0,1.1-0.1l2.5-0.4c0.6-0.1,1.1-0.2,1.7-0.5C188,49.4,188.9,47.7,187.2,47.2z"/>
<path class="st8" d="M183.7,50.5c-0.5,0.2-1,0.4-1.5,0.7c-0.5,0.2-0.9,0.6-1.2,1c-0.3,0.4-0.4,0.9-0.2,1.4c0.4,0.6,1.2,1,1.9,0.8
	c1.2-0.1,2.4-0.7,3.6-0.9s2.4-1.1,1.5-2.4S184.9,50.1,183.7,50.5z"/>
<path class="st8" d="M187.6,53.1c-1.9-0.1-3.6,1-5,2.1c-0.3,0.3-0.6,0.6-0.9,0.9c-0.4,0.4-0.3,1.1,0.1,1.4c0.2,0.2,0.6,0.3,0.9,0.2
	c0.4,0,0.7-0.1,1.1-0.3l2.4-0.9c0.6-0.2,1.1-0.4,1.6-0.8C188.7,55.1,189.4,53.2,187.6,53.1z"/>
<path class="st8" d="M240.6,24.8c-2.9-1.4-6.1-2.1-9.4-1.9c-0.5,0-1.1,0.1-1.6,0.3c-0.5,0.2-0.8,0.7-0.8,1.3
	c0.1,0.5,0.4,0.9,0.8,1.2c1.2,1.1,2.5,2,3.9,2.7c0.4,0.2,0.8,0.4,1.2,0.8c0.3,0.3,0.4,0.9,0.2,1.3c-0.3,0.5-1.1,0.5-1.3,1
	c-0.3,0.7,0.5,1.3,1.2,1.4c0.8,0.1,1.6,0.1,2.3-0.2c0.5-0.3,1.1-0.4,1.6-0.5c0.6,0.1,1.1,0.4,1.6,0.7c1.6,0.9,6.5,0.9,6.2-1.8
	C246.1,28.4,242.6,25.9,240.6,24.8z"/>
<path class="st2" d="M216.4,46.9c0,0,22.1,9.1,24.6,8.6s-1.6-22.3-1.6-22.3l7.5-3.4c0,0,17,33.7,3.1,38.6
	c-8.6,2.9-17.9,2.8-26.5-0.3L216.4,46.9z"/>
<path class="st8" d="M228.2,34.2c-0.1,2-0.5,3.9-1.4,5.7c-1.6,2.7-4.4,4.5-7.6,4.8c-1.1,0.1-2.2,0.2-3.3,0.5c-1,0.2-1.9,0.9-2.3,1.9
	c-0.9,2.2-1.8,4.4-4.7,3.6c-0.3-0.1-0.5-0.2-0.8-0.3c-0.9-0.4-1.7-1-2.4-1.8c-0.8-0.9-1.6-1.8-2.2-2.8c-0.3-0.5-0.5-1-0.6-1.6
	c-0.1-0.7,0-1.4,0.2-2.1c1-4,1.2-8.5,2.6-12.4c1.5-4,4.2-7.3,7.9-9.4c3.6-2.1,8.6-2.1,11.6,0.7c1.7,1.7,2.7,3.9,3,6.2
	C228.6,29.6,228.5,31.9,228.2,34.2z"/>
<path class="st9" d="M203.9,29.2c0.2-1.9,0.2-3.8,0.6-5.6c0.3-1.9,1.2-3.6,2.7-4.9c0.4-0.3,0.8-0.5,1.2-0.7c0.4-0.1,0.8-0.2,1.2-0.3
	c1.2-0.4,2.3-1,3.3-1.7c1.6-0.9,3.3-1.6,5.1-2c1.2-0.2,2.5-0.3,3.7-0.3c2.3,0,4.5-0.1,6.8-0.1c0.5,0,1.1,0,1.6,0.3
	c0.5,0.3,0.9,0.9,1.1,1.5c0.4,1.4,0.4,2.9,0,4.2c-0.4,1.4-1,2.7-1.8,3.9c-0.4,0.8-0.8,1.5-1.5,2.1c-0.5-0.9-1-1.9-1.5-2.8
	c-1.5,1.6-3.9,2-6.1,1.8s-4.4-0.7-6.6-0.8c-1.1-0.1-2.1,0.2-2.9,0.9c-0.5,0.6-0.8,1.3-1,2c-0.5,1.6-0.8,3.3-1.1,5
	c-0.3-0.5-1.3-1.8-1.9-1.8c-0.3,0-0.6,0.2-0.8,0.4c-0.9,1-0.5,4.7,0.4,5.7c0.2,0.2,0.3,0.4,0.4,0.6c0,0.3-0.1,0.6-0.2,0.8
	c-0.5,0.6-1.2,0.8-1.9,0.8c-0.9,0-1.1-1.7-1.1-2.3C203.1,33.8,203.7,31.5,203.9,29.2z"/>
<linearGradient id="SVGID_7_" gradientUnits="userSpaceOnUse" x1="206.6441" y1="46.5994" x2="209.2341" y2="47.4995" gradientTransform="matrix(1 0 0 -1 -0.27 80.23)">
	<stop  offset="0" style="stop-color:#000000;stop-opacity:0"/>
	<stop  offset="0.99" style="stop-color:#000000"/>
</linearGradient>
<path class="st10" d="M207.4,33.5c-0.1-0.3-0.2-0.5-0.2-0.8c0-0.3,0-0.6-0.1-0.8c-0.1-0.3-0.3-0.5-0.5-0.6c-0.1,0-0.1,0-0.2,0
	c-0.1,0-0.2,0.2-0.2,0.3c-0.3,1.1-0.3,2.3,0.1,3.3c0.1,0.4,0.4,0.7,0.8,0.9c0.3,0.1,0.7,0,0.9-0.3c0.3-0.3,0.4-0.8,0.3-1.3
	C208.1,33.7,207.6,33.8,207.4,33.5z"/>
<linearGradient id="SVGID_8_" gradientUnits="userSpaceOnUse" x1="207.3181" y1="36.6177" x2="222.6081" y2="24.0877" gradientTransform="matrix(1 0 0 -1 -0.27 80.23)">
	<stop  offset="0" style="stop-color:#000000;stop-opacity:0"/>
	<stop  offset="0.99" style="stop-color:#000000"/>
</linearGradient>
<path class="st11" d="M216,45.1c-1,0.2-1.9,0.9-2.3,1.9c-0.9,2.2-1.8,4.4-4.7,3.6c-0.3-0.1-0.5-0.2-0.8-0.3
	c-0.2-0.2-0.4-0.5-0.6-0.8c-0.3-0.7-0.2-1.4,0.1-2.1c0.7-1.7,2.4-2.9,4.2-2.9c0.8,0,1.5,0.1,2.3,0.3c0.5,0.1,1,0,1.4,0.1
	C215.7,45,215.9,45,216,45.1z"/>
</svg>
