<?xml version="1.0" encoding="utf-8"?>
<!-- Generator: Adobe Illustrator 21.0.0, SVG Export Plug-In . SVG Version: 6.00 Build 0)  -->
<svg version="1.1" id="Layer_1" xmlns="http://www.w3.org/2000/svg" xmlns:xlink="http://www.w3.org/1999/xlink" x="0px" y="0px"
	 viewBox="0 0 500 387" style="enable-background:new 0 0 500 387;" xml:space="preserve">
<style type="text/css">
	.st0{opacity:0.24;fill:#0A458E;enable-background:new    ;}
	.st1{opacity:0.26;fill:url(#SVGID_1_);enable-background:new    ;}
	.st2{opacity:0.26;fill:url(#SVGID_2_);enable-background:new    ;}
	.st3{fill:#FDB386;}
	.st4{fill:url(#SVGID_3_);}
	.st5{fill:#0A458E;}
	.st6{fill:#FFFFFF;}
	.st7{fill:url(#SVGID_4_);}
	.st8{fill:url(#SVGID_5_);}
	.st9{fill:url(#SVGID_6_);}
	.st10{opacity:0.13;fill:#0A458E;enable-background:new    ;}
	.st11{fill:url(#SVGID_7_);}
	.st12{fill:url(#SVGID_8_);}
	.st13{fill:url(#SVGID_9_);}
	.st14{fill:url(#SVGID_10_);}
	.st15{fill:url(#SVGID_11_);}
	.st16{fill:url(#SVGID_12_);}
	.st17{fill:url(#SVGID_13_);}
	.st18{fill:url(#SVGID_14_);}
	.st19{fill:url(#SVGID_15_);}
	.st20{fill:url(#SVGID_16_);}
	.st21{fill:url(#SVGID_17_);}
</style>
<title>Transfer Money 2</title>
<path class="st0" d="M493.9,199.7c-0.1,2.1-0.3,4.1-0.5,6.2c-1.5,15.3-5.1,30.4-8.9,45.3c-7.4,29.7-15.9,60.6-36.1,82.8
	c-24.4,26.7-61.5,35.7-96.7,37c-35.1,1.2-70.4-4.1-105.4-0.5c-35.5,3.6-70.2,16.3-105.8,15c-17.6-0.7-34.9-4.8-51-12.1
	c-16-7.3-30.9-17.7-41.7-32.2c-16.8-22.4-21.6-50.4-23.6-77.4c-0.2-2.6-0.6-5.3-1.2-7.9l0,0c-0.2-0.8-0.3-1.6-0.6-2.5
	c-3.2-12.5-9.7-23.4-13.6-35.3c-0.7-2.1-1.3-4.3-1.8-6.5c-1.2-5.4-1.6-10.9-1.1-16.5c1.4-15.1,7-29.6,12.7-43.7
	c2.5-6.3,5.1-12.6,7.9-18.9c6.8-15,14.9-29.3,26.7-41c23.6-23.3,58.5-32.2,91.9-36.4s67.9-5,99.6-16.1c32.8-11.5,62.1-34,96.9-37.3
	c25.4-2.4,50.9,5.9,72.8,18.7c48.3,28.2,74.9,96.4,79.1,153.4C494.3,182.5,494.4,191.1,493.9,199.7z"/>
<linearGradient id="SVGID_1_" gradientUnits="userSpaceOnUse" x1="153.84" y1="166.4318" x2="156.1097" y2="-37.2363" gradientTransform="matrix(1 0 0 -1 0 388.91)">
	<stop  offset="0" style="stop-color:#010101;stop-opacity:0"/>
	<stop  offset="0.95" style="stop-color:#010101"/>
</linearGradient>
<ellipse class="st1" cx="154.4" cy="277.1" rx="65.2" ry="12.5"/>
<linearGradient id="SVGID_2_" gradientUnits="userSpaceOnUse" x1="343.125" y1="185.201" x2="346.0321" y2="-75.4819" gradientTransform="matrix(1 0 0 -1 0 388.91)">
	<stop  offset="0" style="stop-color:#010101;stop-opacity:0"/>
	<stop  offset="0.95" style="stop-color:#010101"/>
</linearGradient>
<ellipse class="st2" cx="343.9" cy="273.6" rx="81" ry="16"/>
<path class="st3" d="M133.2,228.1c-3.9-0.1-7.7-0.5-11.5-1.1c-1-0.2-2-0.3-2.9-0.2c-1.2,0.2-2.4,0.6-3.5,1.2
	c-6.7,2.9-14.1,3.7-21.2,2.3c-1.4-0.3-2.8-0.7-3.6-1.9c-0.3-0.6-0.5-1.3-0.6-2.1c-0.3-2.3-0.3-4.6-0.1-6.9c0-1.3,0.3-2.5,0.9-3.7
	c0.7-1.2,1.8-2.1,3-2.7c4.6-2.4,10.1-1.7,15.3-1.6c6.1,0.2,12.4-0.3,18.3,1.4c4.2,1.2,8.3,3.8,10.6,7.6
	C140.5,224.9,138.5,228.3,133.2,228.1z"/>
<linearGradient id="SVGID_3_" gradientUnits="userSpaceOnUse" x1="125.9965" y1="129.9213" x2="102.5568" y2="173.7104" gradientTransform="matrix(1 0 0 -1 -3.03 370.76)">
	<stop  offset="0" style="stop-color:#010101;stop-opacity:0"/>
	<stop  offset="0.95" style="stop-color:#010101"/>
</linearGradient>
<path class="st4" d="M133.2,228.1c-3.9-0.1-7.7-0.5-11.5-1.1c-1-0.2-2-0.3-2.9-0.2c-1.2,0.2-2.4,0.6-3.5,1.2
	c-6.7,2.9-14.1,3.7-21.2,2.3c-1.4-0.3-2.8-0.7-3.6-1.9c-0.3-0.6-0.5-1.3-0.6-2.1c-0.3-2.3-0.3-4.6-0.1-6.9c0-1.3,0.3-2.5,0.9-3.7
	c0.7-1.2,1.8-2.1,3-2.7c4.6-2.4,10.1-1.7,15.3-1.6c6.1,0.2,12.4-0.3,18.3,1.4c4.2,1.2,8.3,3.8,10.6,7.6
	C140.5,224.9,138.5,228.3,133.2,228.1z"/>
<polygon class="st5" points="270.3,246.5 301,268.3 402.5,269 374,248.8 "/>
<polygon class="st6" points="281.8,247.3 305.5,264.1 383.5,264.7 361.6,249.1 "/>
<path class="st5" d="M256.6,176.7c0,0,25-12.3,33.4-31.9l26.9,8.5c0,0-28.8,38.4-40,39.6L256.6,176.7z"/>
<path class="st5" d="M282.4,199.4c1.5-1,24.2-8.5,33.6-26.3l22.9,12.1c0,0-22.5,30.4-42.6,31.3L282.4,199.4z"/>
<polygon class="st5" points="363.3,230.1 380.2,249.3 318,256.5 310,242.4 "/>
<linearGradient id="SVGID_4_" gradientUnits="userSpaceOnUse" x1="319.9671" y1="152.9893" x2="336.8856" y2="60.4176" gradientTransform="matrix(1.18 0.12 0.1 -0.99 -52.8204 330.5388)">
	<stop  offset="0" style="stop-color:#010101;stop-opacity:0"/>
	<stop  offset="0.95" style="stop-color:#010101"/>
</linearGradient>
<path class="st7" d="M318.4,240.6l40.3-7.8c0,0,1.9,1.7,5.8,1.7l7.1,8.3c0,0-2.1,2.8-0.9,4.6l-44.7,6.3c0,0-3.4-2.1-6.4-2l-5.2-7.6
	C314.4,244.1,319.1,243.6,318.4,240.6z"/>
<path class="st5" d="M220.2,205.8l-1.6-6.5c-1-3.7-3.9-0.5-7.4,1.2l-97.8,47.1c-2.6,1.3-4,4.1-3.3,6.9l1.3,5.6
	c0.3,1.4,1.1,2.7,2.3,3.5l16.3,12.6c2.3,1.7,5.4,1.7,7.6-0.1l80.6-64C220,210.7,220.8,208.2,220.2,205.8z"/>
<linearGradient id="SVGID_5_" gradientUnits="userSpaceOnUse" x1="179.1538" y1="102.3187" x2="155.0855" y2="185.305" gradientTransform="matrix(1 0 0 -1 -3.03 370.76)">
	<stop  offset="0" style="stop-color:#010101;stop-opacity:0"/>
	<stop  offset="0.95" style="stop-color:#010101"/>
</linearGradient>
<path class="st8" d="M220.2,205.8l-1.6-6.5c-1-3.7-3.9-0.5-7.4,1.2l-97.8,47.1c-2.6,1.3-4,4.1-3.3,6.9l1.3,5.6
	c0.3,1.4,1.1,2.7,2.3,3.5l16.3,12.6c2.3,1.7,5.4,1.7,7.6-0.1l80.6-64C220,210.7,220.8,208.2,220.2,205.8z"/>
<path class="st5" d="M112.2,247.2l72.3-59.3c0.8-0.7,2-0.9,3-0.6l28.9,9.4c1.7,0.5,2.6,2.4,2.1,4c-0.2,0.6-0.6,1.1-1.1,1.5
	l-81.9,63.9c-1.1,0.9-2.7,0.9-3.9,0.1l-19.3-14.1c-1.4-1.1-1.7-3.1-0.7-4.5C111.8,247.5,112,247.4,112.2,247.2z"/>
<linearGradient id="SVGID_6_" gradientUnits="userSpaceOnUse" x1="177.8804" y1="138.8108" x2="65.1951" y2="194.132" gradientTransform="matrix(1 0 0 -1 -3.03 370.76)">
	<stop  offset="0" style="stop-color:#010101;stop-opacity:0"/>
	<stop  offset="0.95" style="stop-color:#010101"/>
</linearGradient>
<path class="st9" d="M112.2,247.2l72.3-59.3c0.8-0.7,2-0.9,3-0.6l28.9,9.4c1.7,0.5,2.6,2.4,2.1,4c-0.2,0.6-0.6,1.1-1.1,1.5
	l-81.9,63.9c-1.1,0.9-2.7,0.9-3.9,0.1l-19.3-14.1c-1.4-1.1-1.7-3.1-0.7-4.5C111.8,247.5,112,247.4,112.2,247.2z"/>
<polygon class="st6" points="212.8,203.1 210.8,204.6 139.8,259.9 118.5,245.9 117.2,245 180.7,192.7 "/>
<polygon class="st10" points="210.8,204.6 139.8,259.9 118.5,245.9 180.5,194.8 "/>
<polygon class="st5" points="159,243.9 136,231.9 143.1,225.7 166.1,237.7 "/>
<linearGradient id="SVGID_7_" gradientUnits="userSpaceOnUse" x1="155.409" y1="160.7919" x2="143.3705" y2="142.3457" gradientTransform="matrix(1 0 0 -1 0 388.91)">
	<stop  offset="0" style="stop-color:#010101;stop-opacity:0"/>
	<stop  offset="0.95" style="stop-color:#010101"/>
</linearGradient>
<polygon class="st11" points="159,243.9 136,231.9 143.1,225.7 166.1,237.7 "/>
<path class="st5" d="M207.3,185l-2.5-1.1c0.8-1.7,1.7-3.4,2.6-5l2.4,1.4C208.9,181.9,208,183.4,207.3,185z"/>
<path class="st5" d="M215.1,172.5l-2.1-1.7c2-2.6,4.3-5,6.7-7.3l1.9,2C219.1,167.7,217,170,215.1,172.5z M228.9,159.8l-1.4-2.3
	c2.8-1.8,5.8-3.3,9-4.4l0.9,2.6C234.4,156.7,231.5,158.1,228.9,159.8z M255.8,153.9c-3.1-0.4-6.2-0.5-9.4-0.2l-0.3-2.7
	c3.3-0.3,6.7-0.2,10,0.2L255.8,153.9z"/>
<path class="st5" d="M270,157.9c-1.7-0.7-3.4-1.3-5-1.9l0.9-2.6c1.7,0.6,3.5,1.2,5.2,1.9L270,157.9z"/>
<polygon class="st5" points="271.1,255.2 270.3,246.5 301,268.3 402.5,269 400.5,274.5 298.1,275 "/>
<linearGradient id="SVGID_8_" gradientUnits="userSpaceOnUse" x1="337.4387" y1="136.6535" x2="327.8358" y2="85.9504" gradientTransform="matrix(1 0 0 -1 0 388.91)">
	<stop  offset="0" style="stop-color:#010101;stop-opacity:0"/>
	<stop  offset="0.95" style="stop-color:#010101"/>
</linearGradient>
<polygon class="st12" points="271.1,255.2 270.3,246.5 301,268.3 402.5,269 400.5,274.5 298.1,275 "/>
<path class="st3" d="M451.6,190.9c-0.1,3.4-0.3,6.9-0.5,10.3c-0.1,2-0.2,3.9-0.4,5.9c-0.1,1.4-0.4,3.1-1.6,3.8
	c-0.2,0.1-0.4,0.2-0.5,0.2c-0.6,0.1-1.2,0.1-1.9,0.1l-8.5-0.6c-2.8-0.3-5.6-0.3-8.4,0c-5.5,0.7-10.6,3.5-16.1,4.2
	c-2.4,0.2-4.9,0.2-7.3-0.1l-22.4-1.5c-1.9,0-3.8-0.4-5.6-1.1c-1.8-0.7-3.2-2.3-3.5-4.2c-0.1-1.3,0.4-2.7,0.3-4c0-0.1,0-0.1,0-0.2
	c-0.4-3.6-5.2-6.6-3.7-9.9c0.3-0.8,1-1.5,1-2.3c0-0.7-0.3-1.3-0.7-1.9c-1.3-2-2.5-4.4-1.9-6.7c0.4-1.7,1.6-3.2,1.5-4.9
	c-0.1-1.9-1.7-3.5-2-5.4c-0.2-1.9,1.3-4,3.1-4.8c1.9-0.7,4-1.1,6-1l10.8-0.3c1.7-0.1,3.7-0.2,5-1.4c1.6-1.5,1.6-4,0.9-6
	c-0.7-2-2-3.8-2.6-5.9c-1-3.4-0.3-7,1.9-9.7c0.4-0.5,0.8-0.9,1.4-1.1c1.9-0.7,3.6,1.6,4.4,3.5c3.1,7,7.4,13.4,12.8,18.9
	c6.8,6.6,15.3,11.1,24.6,13.1c2.7,0.6,6.6,0.2,9.7,0.7c0.9,0.1,1.8,0.3,2.6,0.7C453.4,180.9,451.7,187.7,451.6,190.9z"/>
<path class="st3" d="M493.9,199.7c0,0.7-0.1,1.4-0.1,2.1c-0.1,1.4-0.2,2.7-0.3,4.1c-0.5,1.3-1.2,2.5-2.2,3.5
	c-2.5,2.4-6.1,2.6-9.4,2.6c-10.6,0.1-21.2-0.2-31.8-0.9c-0.5,0-1.1-0.1-1.6-0.1c-1.4-0.1-2.8-0.6-4.1-1.4c-2.5-1.8-3.2-5.4-3.7-8.6
	c-0.9-6.2-1.9-12.6-0.4-18.6c0.1-0.6,0.3-1.2,0.6-1.8c0.3-0.6,0.6-1.1,1.1-1.5c0.9-0.5,2-0.8,3.1-0.7c0.7,0,1.4,0,2.1,0
	c7.7-0.1,15.5,0.7,23.2,0.5c4.4,0,8.7-0.5,12.9-1.5c2.1-0.5,7.3-3.4,10.1-3.6C494.2,182.5,494.3,191.1,493.9,199.7z"/>
<linearGradient id="SVGID_9_" gradientUnits="userSpaceOnUse" x1="436.7493" y1="208.282" x2="439.3072" y2="6.9798" gradientTransform="matrix(1 0 0 -1 -3.03 370.76)">
	<stop  offset="0" style="stop-color:#010101;stop-opacity:0"/>
	<stop  offset="0.95" style="stop-color:#010101"/>
</linearGradient>
<path class="st13" d="M493.8,201.8c-0.1,1.4-0.2,2.7-0.3,4.1c-0.5,1.3-1.2,2.5-2.2,3.5c-2.5,2.4-6.1,2.6-9.4,2.6
	c-10.6,0.1-21.2-0.2-31.8-0.9c-0.5,0-1.1-0.1-1.6-0.1c-0.6,0.1-1.2,0.1-1.9,0.1l-8.5-0.6c-2.8-0.3-5.6-0.3-8.4,0
	c-5.5,0.7-10.6,3.5-16.1,4.2c-2.4,0.2-4.9,0.2-7.3-0.1l-22.4-1.5c-1.9,0-3.8-0.4-5.6-1.1c-1.8-0.7-3.2-2.3-3.5-4.2
	c-0.1-1.3,0.4-2.7,0.3-4c0-0.1,0-0.1,0-0.2c4.6,4,11.4,4.1,17.6,3.9c10.8-0.3,21.6-0.7,32-3.3c-1.3-3.2-0.7-6.9,1.5-9.6
	c1-1.1,2.2-2,3.3-3c2.3-2.2,3.5-5.2,5.6-7.7c1.4-1.8,3.5-3,5.8-3.3c0.9-0.1,1.7,0.1,2.5,0.5c3.3,1.6,3.6,6.1,3.4,9.7
	c-0.2,3.6-0.1,8,3.1,9.8c0.3,0.2,0.7,0.3,1.1,0.5c1.2,0.3,2.4,0.5,3.7,0.5c9.9,0.3,19.8,0.2,29.7-0.1
	C487.6,201.4,490.7,201.5,493.8,201.8z"/>
<path class="st3" d="M101.5,198.1c5.9-0.8,11.9-0.5,17.7,0.9c4.3,1.2,8.4,3.2,12.1,5.7c10.1,6.7,18.2,16,23.6,26.9
	c0.8,1.6,1.4,3.9-0.1,4.9c-1.3,0.9-3,0-4.3-0.9c-5.6-3.8-24.2-22.7-37.5-16.5c-0.4,2.9,3.3,8.5,3.8,11.3c0.4,2.6-1.7,5-4.1,5.9
	c-2.4,0.9-5.1,0.7-7.7,0.4c-7.4-0.8-14.7,0.1-22.1-0.1c-17.3-0.4-28.1-12.9-27.1-19.3C56.8,211.9,70.4,201.9,101.5,198.1z"/>
<polygon class="st5" points="299.5,231.9 347.2,216.3 362.5,235.5 308.4,248.5 "/>
<path class="st5" d="M70,227.6c-0.7,3.3-2,6.4-4,9.1c-2.2-0.5-4.6-0.4-6.7,0.3c-3.3,0.9-6.5,2.6-9.6,4.2c-7.4,4-15,7.6-22.8,10.7
	c-1.4,0.6-2.9,1.2-4.5,1.7c-1.9-7.6-5.1-14.6-8.2-21.6c-2-4.5-3.8-9-5.4-13.7c-0.7-2.1-1.3-4.3-1.8-6.5c12.5-5.1,32.8-1.3,43.4-3.6
	c3-0.7,5.9-1.5,8.8-2.5c3.1-1.1,6.2-2,9.4-2.6C70.3,211,71.7,219.8,70,227.6z"/>
<linearGradient id="SVGID_10_" gradientUnits="userSpaceOnUse" x1="44.7613" y1="143.7515" x2="56.6776" y2="67.6881" gradientTransform="matrix(1 0 0 -1 -3.03 370.76)">
	<stop  offset="0" style="stop-color:#010101;stop-opacity:0"/>
	<stop  offset="0.95" style="stop-color:#010101"/>
</linearGradient>
<path class="st14" d="M70,227.6c-0.7,3.3-2,6.4-4,9.1c-5.6-1.3-11.2,1.7-16.3,4.5c-7.4,4-15,7.6-22.8,10.7c-1.4,0.6-2.9,1.2-4.5,1.7
	c-1.9-7.6-5.1-14.6-8.2-21.6c4.8,1.7,10,2.4,15.1,2.1c7.4-0.3,14.6-2.1,21.8-3.5C57.4,229.3,63.7,228.4,70,227.6z"/>
<linearGradient id="SVGID_11_" gradientUnits="userSpaceOnUse" x1="271.8659" y1="225.6373" x2="333.7171" y2="148.0374" gradientTransform="matrix(1 0 0 -1 -3.03 370.76)">
	<stop  offset="0" style="stop-color:#010101;stop-opacity:0"/>
	<stop  offset="0.95" style="stop-color:#010101"/>
</linearGradient>
<path class="st15" d="M294,148.5l13.2,4.4c0,0-1.7,4.1,0.4,6c0,0-15.1,22.2-27.8,27.6c0,0-1.8-2-7.6-1.4l-9-6.8c0,0,3.4-1.6,2.6-4.2
	c0,0,18.1-9.2,23.1-21.5C288.9,152.6,294,153.3,294,148.5z"/>
<linearGradient id="SVGID_12_" gradientUnits="userSpaceOnUse" x1="298.6225" y1="202.0457" x2="344.3321" y2="124.4458" gradientTransform="matrix(1 0 0 -1 -3.03 370.76)">
	<stop  offset="0" style="stop-color:#010101;stop-opacity:0"/>
	<stop  offset="0.95" style="stop-color:#010101"/>
</linearGradient>
<path class="st16" d="M319.5,178.6l11.1,5.4c0,0-2,3.5-0.3,5.4c0,0-15.8,17.9-27.6,21.3c0,0-1.4-2-6.5-2.1l-7.2-7
	c0,0,3.2-1.1,2.8-3.5c0,0,17-6.1,22.8-16.5C314.5,181.6,318.9,182.8,319.5,178.6z"/>
<linearGradient id="SVGID_13_" gradientUnits="userSpaceOnUse" x1="328.0108" y1="160.6613" x2="343.7421" y2="74.5673" gradientTransform="matrix(1 0 0 -1 -3.03 370.76)">
	<stop  offset="0" style="stop-color:#010101;stop-opacity:0"/>
	<stop  offset="0.95" style="stop-color:#010101"/>
</linearGradient>
<path class="st17" d="M308,231.5l33.4-10.6c1.4,1,3.2,1.5,5,1.2l6.7,7.5c0,0-1.5,3.1-0.4,4.6l-37.2,9.5c0,0-3.1-1.7-5.6-1.3l-5.1-7
	C305,235.3,308.9,234.4,308,231.5z"/>
<linearGradient id="SVGID_14_" gradientUnits="userSpaceOnUse" x1="71.4516" y1="174.0179" x2="58.1298" y2="103.6813" gradientTransform="matrix(1 0 0 -1 -3.03 370.76)">
	<stop  offset="0" style="stop-color:#010101;stop-opacity:0"/>
	<stop  offset="0.95" style="stop-color:#010101"/>
</linearGradient>
<path class="st18" d="M70,227.6c-0.7,3.3-2,6.4-4,9.1c-2.2-0.5-4.6-0.4-6.7,0.3v-31.3c3.1-1.1,6.2-2,9.4-2.6
	C70.3,211,71.7,219.8,70,227.6z"/>
<path class="st5" d="M437.4,176.1l7.1,0.5c1.8,0.1,3.1,1.7,3,3.5l-2.1,29.4c-0.1,1.8-1.7,3.1-3.5,3l-7.1-0.5c-1.8-0.1-3.1-1.7-3-3.5
	l2.1-29.4C434.1,177.3,435.6,176,437.4,176.1z"/>
<linearGradient id="SVGID_15_" gradientUnits="userSpaceOnUse" x1="425.5388" y1="183.4036" x2="457.8044" y2="170.3437" gradientTransform="matrix(1 0 0 -1 -3.0342 370.7639)">
	<stop  offset="0" style="stop-color:#010101;stop-opacity:0"/>
	<stop  offset="0.95" style="stop-color:#010101"/>
</linearGradient>
<path class="st19" d="M437.4,176.1l7.1,0.5c1.8,0.1,3.1,1.7,3,3.5l-2.1,29.4c-0.1,1.8-1.7,3.1-3.5,3l-7.1-0.5
	c-1.8-0.1-3.1-1.7-3-3.5l2.1-29.4C434.1,177.3,435.6,176,437.4,176.1z"/>
<circle class="st5" cx="439.1" cy="194.5" r="11.2"/>
<linearGradient id="SVGID_16_" gradientUnits="userSpaceOnUse" x1="439.1296" y1="229.6274" x2="439.1296" y2="173.1538" gradientTransform="matrix(1 0 0 -1 0 388.91)">
	<stop  offset="0" style="stop-color:#010101;stop-opacity:0"/>
	<stop  offset="0.95" style="stop-color:#010101"/>
</linearGradient>
<circle class="st20" cx="439.1" cy="194.5" r="11.2"/>
<circle class="st5" cx="439.1" cy="194.6" r="9.6"/>
<linearGradient id="SVGID_17_" gradientUnits="userSpaceOnUse" x1="429.422" y1="194.3063" x2="448.6801" y2="194.3063" gradientTransform="matrix(1 0 0 -1 0 388.91)">
	<stop  offset="0" style="stop-color:#FFFFFF;stop-opacity:0"/>
	<stop  offset="0.13" style="stop-color:#FFFFFF;stop-opacity:0.23"/>
	<stop  offset="0.23" style="stop-color:#FFFFFF;stop-opacity:0.41"/>
	<stop  offset="0.35" style="stop-color:#FFFFFF;stop-opacity:0.59"/>
	<stop  offset="0.48" style="stop-color:#FFFFFF;stop-opacity:0.74"/>
	<stop  offset="0.6" style="stop-color:#FFFFFF;stop-opacity:0.85"/>
	<stop  offset="0.72" style="stop-color:#FFFFFF;stop-opacity:0.93"/>
	<stop  offset="0.84" style="stop-color:#FFFFFF;stop-opacity:0.98"/>
	<stop  offset="0.95" style="stop-color:#FFFFFF"/>
</linearGradient>
<circle class="st21" cx="439.1" cy="194.6" r="9.6"/>
<path class="st5" d="M419.1,138.6v-3.2c-1.7,0-3.4-0.5-4.9-1.4l0.8-2.1c1.4,0.9,3,1.4,4.6,1.4c2.3,0,3.8-1.3,3.8-3.1
	c0-1.8-1.2-2.8-3.6-3.8c-3.3-1.3-5.2-2.7-5.2-5.5s1.9-4.7,4.8-5.1v-3.2h2v3.1c1.5,0,2.9,0.4,4.1,1.1l-0.8,2.1
	c-1.2-0.7-2.6-1.1-4-1.1c-2.5,0-3.4,1.5-3.4,2.7c0,1.7,1.2,2.5,4,3.6c3.3,1.3,4.9,3,4.9,5.8c0,2.5-1.7,4.9-5,5.4v3.3H419.1z"/>
<path class="st5" d="M357.5,155.1v-1.7c-0.9,0-1.8-0.3-2.6-0.8l0.4-1.1c0.7,0.5,1.6,0.7,2.5,0.7c1.2,0,2-0.7,2-1.7
	c0-1-0.7-1.5-1.9-2c-1.7-0.7-2.8-1.5-2.8-3c0-1.4,1.1-2.6,2.6-2.7v-1.7h1.1v1.7c0.8,0,1.5,0.2,2.2,0.6l-0.4,1.1
	c-0.7-0.4-1.4-0.6-2.2-0.6c-1.3,0-1.8,0.8-1.8,1.5c0,0.9,0.6,1.3,2.1,1.9c1.7,0.7,2.6,1.6,2.6,3.1c0,1.5-1.2,2.8-2.7,2.9v1.7
	L357.5,155.1z"/>
<path class="st5" d="M416.2,241.2v-1.7c-0.9,0-1.8-0.3-2.6-0.8l0.4-1.1c0.7,0.5,1.6,0.7,2.5,0.7c1.2,0,2-0.7,2-1.7s-0.7-1.5-1.9-2
	c-1.7-0.7-2.8-1.5-2.8-3c0-1.4,1.1-2.6,2.6-2.8v-1.7h1.1v1.7c0.8,0,1.5,0.2,2.2,0.6l-0.4,1.1c-0.7-0.4-1.4-0.6-2.1-0.6
	c-1.3,0-1.8,0.8-1.8,1.5c0,0.9,0.6,1.3,2.1,1.9c1.7,0.7,2.6,1.6,2.6,3.1c0,1.5-1.2,2.8-2.7,2.9v1.7L416.2,241.2z"/>
</svg>
