<?xml version="1.0" encoding="utf-8"?>
<!-- Generator: Adobe Illustrator 21.0.0, SVG Export Plug-In . SVG Version: 6.00 Build 0)  -->
<svg version="1.1" id="Layer_1" xmlns="http://www.w3.org/2000/svg" xmlns:xlink="http://www.w3.org/1999/xlink" x="0px" y="0px"
	 viewBox="0 0 500 387" style="enable-background:new 0 0 500 387;" xml:space="preserve">
<style type="text/css">
	.st0{opacity:0.18;fill:#0A458E;enable-background:new    ;}
	.st1{fill:#0A458E;}
	.st2{fill:url(#SVGID_1_);}
	.st3{fill:url(#SVGID_2_);}
	.st4{fill:#3F3D56;}
	.st5{fill:url(#SVGID_3_);}
	.st6{fill:url(#SVGID_4_);}
	.st7{fill:url(#SVGID_5_);}
	.st8{fill:#FFFFFF;}
	.st9{fill:url(#SVGID_6_);}
	.st10{fill:url(#SVGID_7_);}
	.st11{fill:#FF979A;}
	.st12{fill:url(#SVGID_8_);}
	.st13{fill:#FFDAD2;}
	.st14{fill:url(#SVGID_9_);}
	.st15{fill:url(#SVGID_10_);}
	.st16{fill:url(#SVGID_11_);}
	.st17{fill:url(#SVGID_12_);}
	.st18{fill:none;stroke:url(#SVGID_13_);stroke-width:0.95;stroke-miterlimit:10;}
	.st19{fill:none;stroke:url(#SVGID_14_);stroke-width:0.95;stroke-miterlimit:10;}
	.st20{fill:none;stroke:url(#SVGID_15_);stroke-width:0.95;stroke-miterlimit:10;}
	.st21{fill:none;stroke:url(#SVGID_16_);stroke-width:0.92;stroke-miterlimit:10;}
	.st22{fill:none;stroke:url(#SVGID_17_);stroke-width:0.92;stroke-miterlimit:10;}
	.st23{fill:none;stroke:url(#SVGID_18_);stroke-width:0.92;stroke-miterlimit:10;}
	.st24{fill:none;stroke:url(#SVGID_19_);stroke-width:0.92;stroke-miterlimit:10;}
	.st25{fill:none;stroke:url(#SVGID_20_);stroke-width:0.92;stroke-miterlimit:10;}
	.st26{fill:none;stroke:url(#SVGID_21_);stroke-width:0.92;stroke-miterlimit:10;}
	.st27{fill:none;stroke:url(#SVGID_22_);stroke-width:0.92;stroke-miterlimit:10;}
	.st28{fill:none;stroke:url(#SVGID_23_);stroke-width:0.92;stroke-miterlimit:10;}
	.st29{fill:none;stroke:url(#SVGID_24_);stroke-width:0.92;stroke-miterlimit:10;}
	.st30{fill:none;stroke:url(#SVGID_25_);stroke-width:0.92;stroke-miterlimit:10;}
	.st31{fill:none;stroke:url(#SVGID_26_);stroke-width:0.92;stroke-miterlimit:10;}
	.st32{fill:url(#SVGID_27_);}
	.st33{fill:url(#SVGID_28_);}
	.st34{fill:url(#SVGID_29_);}
	.st35{fill:url(#SVGID_30_);}
	.st36{fill:url(#SVGID_31_);}
	.st37{fill:url(#SVGID_32_);}
	.st38{fill:url(#SVGID_33_);}
	.st39{fill:url(#SVGID_34_);}
	.st40{fill:url(#SVGID_35_);}
	.st41{fill:url(#SVGID_36_);}
</style>
<title>Accountant</title>
<path class="st0" d="M76.5,326.4c-29.3-26.3-46.3-63.6-46.9-102.9c-0.4-38.8,22.1-70.9,50.7-97.1c20.4-18.7,92.5-171,229.4-113
	c44.7,18.9,42.8,86.7,72.7,125.1c8.9,11.5,20,21.2,30.4,31.6c18.4,18.3,35,39.3,43.3,63.9s7.4,53.4-7.3,74.8
	c-12.5,18.3-33.1,29.3-53.8,37c-53,19.8-110.7,22.6-167.3,20.8C176.2,365,115.2,360.7,76.5,326.4z"/>
<path class="st1" d="M236,251.6c-0.1,0.5-0.3,0.9-0.6,1.3c-4.7,6.8-9.6,13.4-14.9,19.7c-0.2,0.2-0.4,0.4-0.7,0.6
	c-0.6,0.1-1.1-0.1-1.5-0.5c-0.3-0.2-0.5-0.4-0.8-0.7c-6.8-5.9-11.2-14.1-15.4-22.1c-1.8-3.5-3.7-7-5.5-10.5c-1.6-2.9-3-6-4.2-9.1
	c-1.7-5-2-10.3-2.4-15.6c-0.7-10.6-3.8-22-7.7-32.4c-1-2.8-2.1-5.5-3.3-8.1c8.6,1.3,17.1,3.1,25.5,5.4c1.4,0.3,2.8,0.8,4,1.6
	c2.5,1.7,3.7,4.8,4.6,7.7c1.6,5.2,2.8,10.5,3.9,15.8c3.1,15.7,8.6,31.7,18.2,44.7C235.7,250,236,250.8,236,251.6z"/>
<linearGradient id="SVGID_1_" gradientUnits="userSpaceOnUse" x1="188.0303" y1="146.6707" x2="222.5177" y2="171.5329" gradientTransform="matrix(1 0 0 -1 -7.88 388)">
	<stop  offset="1.000000e-02" style="stop-color:#000000"/>
	<stop  offset="1" style="stop-color:#000000;stop-opacity:0"/>
</linearGradient>
<path class="st2" d="M227.6,257.6c-0.1,0.5-0.3,0.9-0.6,1.3c-3,4.5-6.2,8.8-9.5,13c-6.8-5.9-11.2-14.1-15.4-22.1
	c-1.8-3.5-3.7-7-5.5-10.5c-1.6-2.9-3-6-4.2-9.1c-1.7-5-2-10.3-2.4-15.6c-0.7-10.6-3.8-22-7.7-32.4c4.9,1,9.9,2.2,13.8,3.3
	c1.4,0.3,2.7,0.8,4,1.6c2.5,1.7,3.7,4.8,4.6,7.7c1.5,5.2,2.8,10.5,3.8,15.8c3.1,15.8,8.6,31.7,18.2,44.7
	C227.3,256,227.6,256.8,227.6,257.6z"/>
<path class="st1" d="M193.4,185.4c3.9,6.3,5.6,13.9,6.4,21.3c0.8,7.4,0.7,15,1.6,22.4c0.6,5.4,1.7,10.7,1.2,16.1
	c-1,10.8-10.9,17.3-9.4,32.3c0.2,2.2-8.3-0.5-10.2,0.6c-2.3,1.4-5.1,1.7-7.8,1.9c-13.7,1.3-27.9,2.5-40.9-1.9
	c-1.4-0.4-2.7-1.1-3.8-2c-1-1.1-1.8-2.5-2.2-4c-2.5-6.7-4.4-13.7-5.7-20.7c-1.2-6.4-1.9-12.9-3.1-19.4c-1.4-6.9-3.3-13.7-5.9-20.3
	c-1.5-3.8-3.2-7.5-3.7-11.6c-1-7.2-7.8-18-2-22.3c2.4-1.8,25.3-4.2,29.1-5.8c1.9-0.9,3.9-1.6,5.9-2.2c4-1,8.2-1.4,12.3-1.2
	c3.9,0,7.8,0.4,11.6,1.1c3.6,0.8,6.7,2.8,10.1,3.6C183.6,175,189.7,179.3,193.4,185.4z"/>
<linearGradient id="SVGID_2_" gradientUnits="userSpaceOnUse" x1="123.3617" y1="111.0387" x2="173.7235" y2="182.1711" gradientTransform="matrix(1 0 0 -1 -7.88 388)">
	<stop  offset="1.000000e-02" style="stop-color:#000000"/>
	<stop  offset="1" style="stop-color:#000000;stop-opacity:0"/>
</linearGradient>
<path class="st3" d="M193.4,185.4c3.9,6.3,5.6,13.9,6.4,21.3c0.8,7.4,0.7,15,1.6,22.4c0.6,5.4,1.7,10.7,1.2,16.1
	c-1,10.8-10.9,17.3-9.4,32.3c0.2,2.2-8.3-0.5-10.2,0.6c-2.3,1.4-5.1,1.7-7.8,1.9c-13.7,1.3-27.9,2.5-40.9-1.9
	c-1.4-0.4-2.7-1.1-3.8-2c-1-1.1-1.8-2.5-2.2-4c-2.5-6.7-4.4-13.7-5.7-20.7c-1.2-6.4-1.9-12.9-3.1-19.4c-1.4-6.9-3.3-13.7-5.9-20.3
	c-1.5-3.8-3.2-7.5-3.7-11.6c-1-7.2-7.8-18-2-22.3c2.4-1.8,25.3-4.2,29.1-5.8c1.9-0.9,3.9-1.6,5.9-2.2c4-1,8.2-1.4,12.3-1.2
	c3.9,0,7.8,0.4,11.6,1.1c3.6,0.8,6.7,2.8,10.1,3.6C183.6,175,189.7,179.3,193.4,185.4z"/>
<polygon class="st4" points="54.3,386.9 470.2,386.9 381.9,277.1 56.2,277.1 "/>
<linearGradient id="SVGID_3_" gradientUnits="userSpaceOnUse" x1="256.0788" y1="-34.1233" x2="266.8666" y2="104.3855" gradientTransform="matrix(1 0 0 -1 0 389.18)">
	<stop  offset="1.000000e-02" style="stop-color:#000000"/>
	<stop  offset="1" style="stop-color:#000000;stop-opacity:0"/>
</linearGradient>
<polygon class="st5" points="54.3,386.9 470.2,386.9 381.9,277.1 56.2,277.1 "/>
<polygon class="st1" points="141.2,300.3 141.2,303.7 155.8,323 194.1,316.3 194.5,308.4 179.4,294.2 "/>
<linearGradient id="SVGID_4_" gradientUnits="userSpaceOnUse" x1="168.236" y1="98.9304" x2="167.0287" y2="52.7497" gradientTransform="matrix(1 0 0 -1 0 389.18)">
	<stop  offset="1.000000e-02" style="stop-color:#000000"/>
	<stop  offset="1" style="stop-color:#000000;stop-opacity:0"/>
</linearGradient>
<polygon class="st6" points="141.2,300.3 141.2,303.7 155.8,323 194.1,316.3 194.5,308.4 179.4,294.2 "/>
<path class="st1" d="M123.4,213.7c-0.1,2.2-0.5,4.4-1.1,6.5c-0.9,2.7-2.4,5.1-3.4,7.7c-1.4,3.4-1.8,7.1-1.5,10.8
	c0.3,1.5,0.4,3,0.3,4.6c-0.1,1.1-0.6,2.1-0.8,3.2c-0.8,3.7,0.4,7.5,1.7,11.1c-3.4,1.1-6.6,2.5-9.7,4.2l-0.8,0.5
	c-3.3,2-5.8,5.2-6.9,9c-0.3,1.3-0.7,2.9-2,3.2c-0.6,0.1-1.3-0.1-1.8-0.4c-2.2-1.5-2.7-4.5-2.9-7.2c-0.8-9.3-5-61.4,6.7-81.7
	c1.3-2.3,4.2-8.8,10.5-8.5c4.9,0.3,7.9,3.5,9.7,8.1C124.5,192.9,124,205.2,123.4,213.7z"/>
<linearGradient id="SVGID_5_" gradientUnits="userSpaceOnUse" x1="157.4321" y1="119.8473" x2="113.9455" y2="176.5364" gradientTransform="matrix(1 0 0 -1 -7.88 388)">
	<stop  offset="1.000000e-02" style="stop-color:#000000"/>
	<stop  offset="1" style="stop-color:#000000;stop-opacity:0"/>
</linearGradient>
<path class="st7" d="M123.4,213.7c-0.1,2.2-0.5,4.4-1.1,6.5c-0.9,2.7-2.4,5.1-3.4,7.7c-1.4,3.4-1.8,7.1-1.5,10.8
	c0.3,1.5,0.4,3,0.3,4.6c-0.1,1.1-0.6,2.1-0.8,3.2c-0.8,3.7,0.4,7.5,1.7,11.1c-3.4,1.1-6.6,2.5-9.7,4.2c-1.1-19.1-1.7-54.4,7.5-70.2
	c0.9-1.5,2.3-4.7,4.9-6.7C124.5,192.9,124,205.2,123.4,213.7z"/>
<path class="st8" d="M145.8,169.7c0.3,2.3,0.5,4.6,0.5,6.9c1,21,8.1,41.2,16.9,60.2c1.6,3.2,2.9,6.6,3.9,10.1
	c0.5,2.4,0.7,4.9,0.8,7.4l0.9,14.8c-0.5-7.4,0.9-14.8,4-21.5c2.6-5.6,6.3-10.5,8.4-16.3c3.9-10.3,2.2-21.8,0.2-32.7
	c-1.5-7.7-4.2-17-3.5-24.9c0.3-0.1-18-5.8-27.3-6.5C148.6,166.9,146.7,168,145.8,169.7z"/>
<path class="st1" d="M139.7,171.2l-9.8,31.2l12.6,5.7l-4.3,13.6l17.2,17.6c2.5,2.6,4.5,5.7,5.9,9.1l7.2,18.2c0,0,2.3-16.3-7-35.4
	c-9.3-19.1-15.7-61.5-15.7-61.5L139.7,171.2z"/>
<linearGradient id="SVGID_6_" gradientUnits="userSpaceOnUse" x1="191.0724" y1="185.5746" x2="145.5065" y2="159.7845" gradientTransform="matrix(1 0 0 -1 -7.88 388)">
	<stop  offset="1.000000e-02" style="stop-color:#000000"/>
	<stop  offset="1" style="stop-color:#000000;stop-opacity:0"/>
</linearGradient>
<path class="st9" d="M139.7,171.2l-9.8,31.2l12.6,5.7l-4.3,13.6l17.2,17.6c2.5,2.6,4.5,5.7,5.9,9.1l7.2,18.2c0,0,2.3-16.3-7-35.4
	c-9.3-19.1-15.7-61.5-15.7-61.5L139.7,171.2z"/>
<path class="st1" d="M177.9,173.8l3.4,1.1l13,24.7c0,0-5.2,12.2-5.2,11.2s5.7,13.1,5.7,13.1s-9.3,19.6-15.7,22.4
	c-6.4,2.9-10.4,23.4-10.4,23.4s-2.4-18.3,12.6-38.4c0.9-1.1,2.6-9.8,0.9-24.1C180.4,192.9,175.7,178,177.9,173.8z"/>
<linearGradient id="SVGID_7_" gradientUnits="userSpaceOnUse" x1="160.3083" y1="174.8975" x2="202.8559" y2="157.5252" gradientTransform="matrix(1 0 0 -1 -7.88 388)">
	<stop  offset="1.000000e-02" style="stop-color:#000000"/>
	<stop  offset="1" style="stop-color:#000000;stop-opacity:0"/>
</linearGradient>
<path class="st10" d="M177.9,173.8l3.4,1.1l13,24.7c0,0-5.2,12.2-5.2,11.2s5.7,13.1,5.7,13.1s-9.3,19.6-15.7,22.4
	c-6.4,2.9-10.4,23.4-10.4,23.4s-2.4-18.3,12.6-38.4c0.9-1.1,2.6-9.8,0.9-24.1C180.4,192.9,175.7,178,177.9,173.8z"/>
<path class="st11" d="M130.4,150.4c-1.4-9.2-5-34.7,8.8-47.8c17-16.2,34.9-13.8,47.4-4.5c4.7,3.3,8.3,7.8,10.6,13
	c2,4.9,2.4,10.3,2.7,15.6c0.4,3.6,0.4,7.2,0.1,10.8c-0.5,3.5-1.7,6.8-3.5,9.8c-0.6,1.1-1.4,2.1-2,3.2c-1.7,3.1-2.8,6.6-3,10.2
	c-0.2,3.6-0.2,7.2,0.2,10.7c0.1,0.6,0.4,0.6-0.2,0.8c-0.5,0.1-1,0-1.6-0.1c-1-0.1-1.9-0.4-2.8-0.5c-3-0.4-6-0.9-8.9-1.3l-33.7-0.4
	l-15.7-2.6C130.8,161.9,131.4,156.1,130.4,150.4z"/>
<linearGradient id="SVGID_8_" gradientUnits="userSpaceOnUse" x1="187.246" y1="197.3673" x2="158.5716" y2="286.9341" gradientTransform="matrix(1 0 0 -1 -7.88 388)">
	<stop  offset="1.000000e-02" style="stop-color:#000000"/>
	<stop  offset="1" style="stop-color:#000000;stop-opacity:0"/>
</linearGradient>
<path class="st12" d="M130.4,150.4c-1.4-9.2-5-34.7,8.8-47.8c17-16.2,34.9-13.8,47.4-4.5c6.5,5,10.9,12.2,12.5,20.2
	c0.7,3.3,1,6.7,1.1,10.1c0.1,4.2,0,9.3-1.5,13.2c-1,2.6-2.7,4.9-3.9,7.4c-1.6,3.7-2.6,7.5-3.1,11.5c-0.6,3.8-0.5,7.8,0.3,11.6
	c-2.4,0.3-5.4-0.6-7.8-1c-2-0.3-4-0.6-6-0.9l-33.7-0.4l-15.7-2.6C130.8,161.9,131.4,156.1,130.4,150.4z"/>
<path class="st13" d="M174.3,184c-2,3-5.1,5-8.7,5.4c-0.3,0-0.5,0-0.8,0c-0.9,0-1.8-0.1-2.6-0.4c-2.4-0.7-4.5-1.9-6.4-3.6
	c-4.3-3.5-7.6-8-9.8-13.1c-0.2-0.4-0.3-0.9-0.4-1.4c0-0.3,0.9-0.9,2-2.3c1.8-2.4,3.1-5.1,3.7-8.1c0.5-2.2-0.3-7.5-0.3-10.5
	c0-1.3,0-2.1,0.4-2.1c0.9,0.1,1.7,0.4,2.4,1c4,2.8,7.4,6.4,9.8,10.6l0.5,1c1.3,2.3,2.3,4.8,2.9,7.4c0.5,2.7,3.2,1.4,6.3,2.2
	c0.4,0.1,0.8,0.8,1.1,1.9C175.3,175.5,175.4,182.5,174.3,184z"/>
<linearGradient id="SVGID_9_" gradientUnits="userSpaceOnUse" x1="183.8481" y1="241.7918" x2="162.5408" y2="209.3836" gradientTransform="matrix(1 0 0 -1 -7.88 388)">
	<stop  offset="1.000000e-02" style="stop-color:#000000"/>
	<stop  offset="1" style="stop-color:#000000;stop-opacity:0"/>
</linearGradient>
<path class="st14" d="M174.4,172.1c0,0.4,0,0.8,0,1.1c-0.1,2.7-0.2,5.4-0.3,8c-0.1,1.4-0.2,3.1-1.4,3.9c-2.5,1.6-5.1,3.1-7.8,4.2
	c-0.5,0.3-1.1,0.3-1.6,0.2c-0.4-0.2-0.7-0.4-1-0.6c-4.6-3.4-11.6-14.3-14.6-20.3c1.8-2.4,3.1-5.1,3.7-8.1c0.5-2.2-0.3-7.5-0.3-10.5
	c2,1.5,7.7,5.8,12.6,9.5c3.4,2.6,6.5,4.8,7.5,5.6c0.7,0.5,1.4,1,1.9,1.6C174.1,168.3,174.5,170.2,174.4,172.1z"/>
<path class="st13" d="M155.1,274c1.4,0.8,2.6,1.9,4,2.7c0.7,0.4,1.4,0.8,2,1.1c2.1,1.2,4.1,2.6,6,4.2c0.5,0.3,0.8,0.8,0.9,1.4
	c0,0.6-0.4,1-0.9,1.3c-1.3,0.6-2.9,0.6-4.2,0c-1.3-0.6-2.7-1-4.1-1.2c-0.6,0-1.1,0-1.7,0c-0.6-0.1-1.2-0.4-1.7-0.7
	c-2.6-1.7-4.8-4.1-6.3-6.8c-0.6-0.7-0.9-1.5-1-2.4c0-0.9,0.9-0.8,1.6-0.8C151.6,272.6,153.4,273.1,155.1,274z"/>
<path class="st13" d="M234.6,253.8c10.3,3.8,20.9,6.4,31.8,7.5c4.9,0.5,9.9,0.8,14.3,2.9c5.3,2.6,8.9,7.6,12.3,12.4
	c0.7,0.7,1,1.7,0.8,2.7c-0.4,1.1-1.8,1.5-3.1,1.4c-6.8-0.3-12.4-5.8-19.1-7.1c-0.2,1.2,0.3,2.5,1.4,3.1c1.1,0.6,2.1,1.3,3,2
	c0.3,0.3,0.6,0.7,0.5,1.1c-0.1,0.2-0.3,0.4-0.5,0.5c-1.5,0.9-3.5,0.4-5.1-0.2c-3.6-1.2-7.2-2.6-9.8-5.5c-1.1-1.3-2.1-2.9-3.7-3.6
	c-1.4-0.5-2.9-0.7-4.3-0.4c-9.9,0.8-22.6,5-32.4,2.7c-0.6-0.1-1.3-0.4-1.8-0.7c-1.2-0.9-2.5-4.5-2.4-6c0.1-3.2,1.3-6.3,3.4-8.8
	C222.2,255.4,231.6,252.7,234.6,253.8"/>
<polygon class="st1" points="226.4,299.8 286.4,323 377.1,304.8 318.5,281.9 226.4,295.8 "/>
<polygon class="st1" points="226.4,295.8 286.4,319 377.1,300.9 318.5,277.9 "/>
<linearGradient id="SVGID_10_" gradientUnits="userSpaceOnUse" x1="307.1389" y1="76.5598" x2="290.974" y2="119.6663" gradientTransform="matrix(1 0 0 -1 0 389.18)">
	<stop  offset="1.000000e-02" style="stop-color:#000000"/>
	<stop  offset="1" style="stop-color:#000000;stop-opacity:0"/>
</linearGradient>
<polygon class="st15" points="226.4,295.8 286.4,319 377.1,300.9 318.5,277.9 "/>
<polygon class="st1" points="156.6,315.2 194.5,308.4 179.4,294.2 142.2,300.2 "/>
<polygon class="st8" points="118.5,304.3 140.5,362.9 68.8,365.4 69.2,305.1 "/>
<path class="st13" d="M128.9,266.9c3.4,1.8,6.9,3.7,10.7,4.4c3.1,0.6,6.3,0.3,9.3,1.1c5.2,1.3,9.5,5.4,11.9,10.3
	c2.4,4.9,3.1,10.4,3.2,15.8c0,0.5-0.1,1.1-0.6,1.1c-0.2,0-0.5-0.1-0.6-0.2c-3.7-2.6-4.2-8.2-7.8-10.9l2.6,9.4c0.2,0.9,0.3,2-0.5,2.4
	c-0.3,0.1-0.7,0.1-1,0c-2.7-0.8-4.5-3.2-6-5.6c-1.5-2.3-2.9-5-5.3-6.4c1.4,3.7,2.6,7.5,3.8,11.2c-1.3,0.5-2.6-0.3-3.7-1.2
	c-3-2.8-4.8-6.6-6.5-10.3c0.9,3,1.4,6.2,1.4,9.4c-1.4,0.2-2.3-1.3-3-2.6l-6.6-13.6c-0.2-0.4-0.4-0.8-0.7-1.1
	c-0.4-0.3-0.8-0.5-1.3-0.6c-8.5-2.6-17.5-1.2-26-3.8c-1.2-0.3-2.4-0.8-3.5-1.4c-1.9-1.2-2.5-7.4-2.5-9.7c0-2.3,1.2-4.5,3.1-5.7
	c2.3-1.5,5.2-1.4,7.8-1.5c2.2-0.1,6.5-1,8.4,0.1C120.7,260.3,123.5,264,128.9,266.9z"/>
<polygon class="st8" points="153.8,309.1 156.9,313 190.8,307 185.6,303.2 "/>
<polygon class="st1" points="286.4,323 377.1,304.8 398.9,223.8 308.2,241.9 "/>
<linearGradient id="SVGID_11_" gradientUnits="userSpaceOnUse" x1="286.3824" y1="115.7939" x2="398.9334" y2="115.7939" gradientTransform="matrix(1 0 0 -1 0 389.18)">
	<stop  offset="1.000000e-02" style="stop-color:#000000"/>
	<stop  offset="1" style="stop-color:#000000;stop-opacity:0"/>
</linearGradient>
<polygon class="st16" points="286.4,323 377.1,304.8 398.9,223.8 308.2,241.9 "/>
<polygon class="st1" points="288.9,322.6 379.6,304.4 401.4,223.3 310.7,241.5 "/>
<path class="st1" d="M120,257.8c-0.4-1-1-1.9-1.8-2.7c-0.6-0.7-1.2-1.3-2-1.8c-1-0.4-2-0.5-3.1-0.4l-11.3,0.2
	c-2.2,0-4.7,0.1-6.5,1.5c-2.1,1.5-2.8,4.4-2.7,7c0.4,2.6,0.9,5.1,1.6,7.7c0.2,1.8,0.7,3.5,1.6,5c1,1.5,3.1,2.3,4.6,1.3
	c-0.7-3.3-0.8-6.8-0.2-10.1c0.2-1.8,1.3-3.3,2.8-4.2c0.9-0.3,1.8-0.5,2.8-0.4l9.5-0.1C117.4,260.6,121.3,261.4,120,257.8z"/>
<linearGradient id="SVGID_12_" gradientUnits="userSpaceOnUse" x1="101.2078" y1="105.0407" x2="119.1838" y2="138.0079" gradientTransform="matrix(1 0 0 -1 -7.88 388)">
	<stop  offset="1.000000e-02" style="stop-color:#000000"/>
	<stop  offset="1" style="stop-color:#000000;stop-opacity:0"/>
</linearGradient>
<path class="st17" d="M120,257.8c-0.4-1-1-1.9-1.8-2.7c-0.6-0.7-1.2-1.3-2-1.8c-1-0.4-2-0.5-3.1-0.4l-11.3,0.2
	c-2.2,0-4.7,0.1-6.5,1.5c-2.1,1.5-2.8,4.4-2.7,7c0.4,2.6,0.9,5.1,1.6,7.7c0.2,1.8,0.7,3.5,1.6,5c1,1.5,3.1,2.3,4.6,1.3
	c-0.7-3.3-0.8-6.8-0.2-10.1c0.2-1.8,1.3-3.3,2.8-4.2c0.9-0.3,1.8-0.5,2.8-0.4l9.5-0.1C117.4,260.6,121.3,261.4,120,257.8z"/>
<linearGradient id="SVGID_13_" gradientUnits="userSpaceOnUse" x1="73.3067" y1="54.7895" x2="133.9304" y2="54.7895" gradientTransform="matrix(1 0 0 -1 0 389.18)">
	<stop  offset="1.000000e-02" style="stop-color:#000000"/>
	<stop  offset="1" style="stop-color:#000000;stop-opacity:0"/>
</linearGradient>
<polygon class="st18" points="75.8,359.4 133.3,356.6 116.9,309.4 73.8,309.4 "/>
<linearGradient id="SVGID_14_" gradientUnits="userSpaceOnUse" x1="75.7849" y1="36.0089" x2="130.8987" y2="36.0089" gradientTransform="matrix(1 0 0 -1 0 389.18)">
	<stop  offset="1.000000e-02" style="stop-color:#000000"/>
	<stop  offset="1" style="stop-color:#000000;stop-opacity:0"/>
</linearGradient>
<line class="st19" x1="75.8" y1="354.2" x2="130.9" y2="352.2"/>
<linearGradient id="SVGID_15_" gradientUnits="userSpaceOnUse" x1="75.7849" y1="40.6035" x2="130.8987" y2="40.6035" gradientTransform="matrix(1 0 0 -1 0 389.18)">
	<stop  offset="1.000000e-02" style="stop-color:#000000"/>
	<stop  offset="1" style="stop-color:#000000;stop-opacity:0"/>
</linearGradient>
<line class="st20" x1="75.8" y1="349.6" x2="130.9" y2="347.6"/>
<linearGradient id="SVGID_16_" gradientUnits="userSpaceOnUse" x1="75.4043" y1="46.1036" x2="127.009" y2="46.1036" gradientTransform="matrix(1 0 0 -1 0 389.18)">
	<stop  offset="1.000000e-02" style="stop-color:#000000"/>
	<stop  offset="1" style="stop-color:#000000;stop-opacity:0"/>
</linearGradient>
<line class="st21" x1="75.4" y1="344.1" x2="127" y2="342.1"/>
<linearGradient id="SVGID_17_" gradientUnits="userSpaceOnUse" x1="75.1285" y1="50.9273" x2="125.5073" y2="50.9273" gradientTransform="matrix(1 0 0 -1 0 389.18)">
	<stop  offset="1.000000e-02" style="stop-color:#000000"/>
	<stop  offset="1" style="stop-color:#000000;stop-opacity:0"/>
</linearGradient>
<line class="st22" x1="75.1" y1="339" x2="125.5" y2="337.5"/>
<linearGradient id="SVGID_18_" gradientUnits="userSpaceOnUse" x1="74.9839" y1="55.7735" x2="124.6122" y2="55.7735" gradientTransform="matrix(1 0 0 -1 0 389.18)">
	<stop  offset="1.000000e-02" style="stop-color:#000000"/>
	<stop  offset="1" style="stop-color:#000000;stop-opacity:0"/>
</linearGradient>
<line class="st23" x1="75" y1="334.7" x2="124.6" y2="332.1"/>
<linearGradient id="SVGID_19_" gradientUnits="userSpaceOnUse" x1="74.9885" y1="60.0942" x2="123.4115" y2="60.0942" gradientTransform="matrix(1 0 0 -1 0 389.18)">
	<stop  offset="1.000000e-02" style="stop-color:#000000"/>
	<stop  offset="1" style="stop-color:#000000;stop-opacity:0"/>
</linearGradient>
<line class="st24" x1="75" y1="330.1" x2="123.4" y2="328"/>
<linearGradient id="SVGID_20_" gradientUnits="userSpaceOnUse" x1="74.9906" y1="64.2696" x2="122.3698" y2="64.2696" gradientTransform="matrix(1 0 0 -1 0 389.18)">
	<stop  offset="1.000000e-02" style="stop-color:#000000"/>
	<stop  offset="1" style="stop-color:#000000;stop-opacity:0"/>
</linearGradient>
<line class="st25" x1="75" y1="325.8" x2="122.4" y2="324"/>
<linearGradient id="SVGID_21_" gradientUnits="userSpaceOnUse" x1="74.8456" y1="68.5176" x2="120.8714" y2="68.5176" gradientTransform="matrix(1 0 0 -1 0 389.18)">
	<stop  offset="1.000000e-02" style="stop-color:#000000"/>
	<stop  offset="1" style="stop-color:#000000;stop-opacity:0"/>
</linearGradient>
<line class="st26" x1="74.9" y1="321.5" x2="120.9" y2="319.8"/>
<linearGradient id="SVGID_22_" gradientUnits="userSpaceOnUse" x1="74.5714" y1="72.3967" x2="119.3682" y2="72.3967" gradientTransform="matrix(1 0 0 -1 0 389.18)">
	<stop  offset="1.000000e-02" style="stop-color:#000000"/>
	<stop  offset="1" style="stop-color:#000000;stop-opacity:0"/>
</linearGradient>
<line class="st27" x1="74.6" y1="317.4" x2="119.4" y2="316.2"/>
<linearGradient id="SVGID_23_" gradientUnits="userSpaceOnUse" x1="74.2974" y1="76.5721" x2="118.3118" y2="76.5721" gradientTransform="matrix(1 0 0 -1 0 389.18)">
	<stop  offset="1.000000e-02" style="stop-color:#000000"/>
	<stop  offset="1" style="stop-color:#000000;stop-opacity:0"/>
</linearGradient>
<line class="st28" x1="74.3" y1="312.9" x2="118.3" y2="312.3"/>
<linearGradient id="SVGID_24_" gradientUnits="userSpaceOnUse" x1="77.5341" y1="55.1977" x2="81.4484" y2="55.1977" gradientTransform="matrix(1 0 0 -1 0 389.18)">
	<stop  offset="1.000000e-02" style="stop-color:#000000"/>
	<stop  offset="1" style="stop-color:#000000;stop-opacity:0"/>
</linearGradient>
<line class="st29" x1="81" y1="358.6" x2="78" y2="309.4"/>
<linearGradient id="SVGID_25_" gradientUnits="userSpaceOnUse" x1="91.959" y1="55.7511" x2="99.8109" y2="55.7511" gradientTransform="matrix(1 0 0 -1 0 389.18)">
	<stop  offset="1.000000e-02" style="stop-color:#000000"/>
	<stop  offset="1" style="stop-color:#000000;stop-opacity:0"/>
</linearGradient>
<line class="st30" x1="92.4" y1="309.3" x2="99.3" y2="357.6"/>
<linearGradient id="SVGID_26_" gradientUnits="userSpaceOnUse" x1="108.8066" y1="55.9523" x2="122.9405" y2="55.9523" gradientTransform="matrix(1 0 0 -1 0 389.18)">
	<stop  offset="1.000000e-02" style="stop-color:#000000"/>
	<stop  offset="1" style="stop-color:#000000;stop-opacity:0"/>
</linearGradient>
<line class="st31" x1="109.2" y1="309.3" x2="122.5" y2="357.2"/>
<path class="st13" d="M191.5,161.1c-1.3,2.1-2.9,4.1-4.7,5.9c-3.1,3.4-6.3,6.8-10.5,8.7c-1.4,0.7-2.8,1-4.3,1
	c-2.6-0.1-4.9-1.6-6.9-3.4c-12.6-10.6-18.1-28.3-15.7-44.6c0.5-3.9,1.8-7.7,3.9-11.1c3.6-5.2,9.9-8,16.1-8.8c4.7-0.6,9.6,0,14,1.8
	c4.4,1.9,8,5.2,10.3,9.4c0.9,2,1.7,4.2,2.2,6.4C197.1,130.5,193,158.5,191.5,161.1z"/>
<path class="st11" d="M186.8,122.1c-2.9,2.5-6.2,4.4-9.9,5.6c-2.3,0.9-4.7,1.6-7.2,2.1c-3.9,0.8-8,1.3-11.5,3.2
	c-4.9,2.7-7.9,7.8-9.7,13.1c-1.8-1.5-3.3-3.4-4.2-5.6c-1-2.4-1.5-4.9-1.5-7.5c-0.2-5.7,0.9-11.4,3.4-16.6c2.1-4.7,5.7-8.6,10.1-11.2
	c2.5-1.3,5.2-2.2,7.9-2.6c3.7-0.9,7.6-1.1,11.4-0.7c5.4,0.7,10.3,3.2,14.1,7.1c2.1,2.2,2.2,3.4,1.4,6.2
	C190.3,117.8,188.8,120.2,186.8,122.1z"/>
<linearGradient id="SVGID_27_" gradientUnits="userSpaceOnUse" x1="153.4884" y1="80.3057" x2="153.8237" y2="84.5761" gradientTransform="matrix(1 0 0 -1 0 389.18)">
	<stop  offset="1.000000e-02" style="stop-color:#000000"/>
	<stop  offset="1" style="stop-color:#000000;stop-opacity:0"/>
</linearGradient>
<polygon class="st32" points="152.5,308.2 149.3,305.2 154.8,304.2 158.2,306.9 "/>
<linearGradient id="SVGID_28_" gradientUnits="userSpaceOnUse" x1="149.4038" y1="83.7269" x2="149.728" y2="87.9972" gradientTransform="matrix(1 0 0 -1 0 389.18)">
	<stop  offset="1.000000e-02" style="stop-color:#000000"/>
	<stop  offset="1" style="stop-color:#000000;stop-opacity:0"/>
</linearGradient>
<polygon class="st33" points="148.4,304.7 145.2,301.8 150.7,300.7 154.1,303.5 "/>
<linearGradient id="SVGID_29_" gradientUnits="userSpaceOnUse" x1="160.0616" y1="81.446" x2="160.397" y2="85.7164" gradientTransform="matrix(1 0 0 -1 0 389.18)">
	<stop  offset="1.000000e-02" style="stop-color:#000000"/>
	<stop  offset="1" style="stop-color:#000000;stop-opacity:0"/>
</linearGradient>
<polygon class="st34" points="159.1,307 155.8,304.1 161.3,303 164.7,305.8 "/>
<linearGradient id="SVGID_30_" gradientUnits="userSpaceOnUse" x1="155.9754" y1="84.8672" x2="156.3108" y2="89.1488" gradientTransform="matrix(1 0 0 -1 0 389.18)">
	<stop  offset="1.000000e-02" style="stop-color:#000000"/>
	<stop  offset="1" style="stop-color:#000000;stop-opacity:0"/>
</linearGradient>
<polygon class="st35" points="155,303.6 151.8,300.6 157.3,299.6 160.6,302.3 "/>
<linearGradient id="SVGID_31_" gradientUnits="userSpaceOnUse" x1="166.6423" y1="82.5865" x2="166.9665" y2="86.857" gradientTransform="matrix(1 0 0 -1 0 389.18)">
	<stop  offset="1.000000e-02" style="stop-color:#000000"/>
	<stop  offset="1" style="stop-color:#000000;stop-opacity:0"/>
</linearGradient>
<polygon class="st36" points="165.7,305.9 162.4,302.9 167.9,301.9 171.3,304.6 "/>
<linearGradient id="SVGID_32_" gradientUnits="userSpaceOnUse" x1="162.5546" y1="86.0182" x2="162.89" y2="90.2886" gradientTransform="matrix(1 0 0 -1 0 389.18)">
	<stop  offset="1.000000e-02" style="stop-color:#000000"/>
	<stop  offset="1" style="stop-color:#000000;stop-opacity:0"/>
</linearGradient>
<polygon class="st37" points="161.6,302.5 158.3,299.5 163.8,298.5 167.2,301.2 "/>
<linearGradient id="SVGID_33_" gradientUnits="userSpaceOnUse" x1="173.219" y1="83.7266" x2="173.5544" y2="87.9969" gradientTransform="matrix(1 0 0 -1 0 389.18)">
	<stop  offset="1.000000e-02" style="stop-color:#000000"/>
	<stop  offset="1" style="stop-color:#000000;stop-opacity:0"/>
</linearGradient>
<polygon class="st38" points="172.2,304.7 169,301.8 174.5,300.7 177.9,303.5 "/>
<linearGradient id="SVGID_34_" gradientUnits="userSpaceOnUse" x1="169.1353" y1="87.1588" x2="169.4595" y2="91.4292" gradientTransform="matrix(1 0 0 -1 0 389.18)">
	<stop  offset="1.000000e-02" style="stop-color:#000000"/>
	<stop  offset="1" style="stop-color:#000000;stop-opacity:0"/>
</linearGradient>
<polygon class="st39" points="168.2,301.3 164.9,298.4 170.4,297.3 173.8,300.1 "/>
<linearGradient id="SVGID_35_" gradientUnits="userSpaceOnUse" x1="179.7924" y1="84.8668" x2="180.1278" y2="89.1484" gradientTransform="matrix(1 0 0 -1 0 389.18)">
	<stop  offset="1.000000e-02" style="stop-color:#000000"/>
	<stop  offset="1" style="stop-color:#000000;stop-opacity:0"/>
</linearGradient>
<polygon class="st40" points="178.8,303.6 175.6,300.6 181.1,299.6 184.5,302.3 "/>
<linearGradient id="SVGID_36_" gradientUnits="userSpaceOnUse" x1="175.7068" y1="88.2992" x2="176.0422" y2="92.5696" gradientTransform="matrix(1 0 0 -1 0 389.18)">
	<stop  offset="1.000000e-02" style="stop-color:#000000"/>
	<stop  offset="1" style="stop-color:#000000;stop-opacity:0"/>
</linearGradient>
<polygon class="st41" points="174.7,300.2 171.5,297.2 177,296.2 180.4,298.9 "/>
</svg>
