<?xml version="1.0" encoding="utf-8"?>
<!-- Generator: Adobe Illustrator 21.0.0, SVG Export Plug-In . SVG Version: 6.00 Build 0)  -->
<svg version="1.1" id="Layer_1" xmlns="http://www.w3.org/2000/svg" xmlns:xlink="http://www.w3.org/1999/xlink" x="0px" y="0px"
	 viewBox="0 0 500 387" style="enable-background:new 0 0 500 387;" xml:space="preserve">
<style type="text/css">
	.st0{opacity:0.4;fill:#0A458E;enable-background:new    ;}
	.st1{fill:#0A458E;}
	.st2{fill:url(#SVGID_1_);}
	.st3{fill:#606161;}
	.st4{fill:url(#SVGID_2_);}
	.st5{fill:#CCE8EC;}
	.st6{fill:url(#SVGID_3_);}
	.st7{fill:url(#SVGID_4_);}
	.st8{fill:#2A2D6B;}
	.st9{fill:url(#SVGID_5_);}
	.st10{fill:#F2DDCA;}
	.st11{fill:url(#SVGID_6_);}
	.st12{fill:url(#SVGID_7_);}
	.st13{fill:#EFFAFF;}
	.st14{fill:url(#SVGID_8_);}
	.st15{fill:url(#SVGID_9_);}
	.st16{fill:url(#SVGID_10_);}
	.st17{fill:url(#SVGID_11_);}
	.st18{fill:url(#SVGID_12_);}
	.st19{fill:url(#SVGID_13_);}
	.st20{fill:url(#SVGID_14_);}
	.st21{fill:url(#SVGID_15_);}
</style>
<title>Customer services</title>
<path class="st0" d="M225.4,383.2c50.1-0.7,100.3-1.5,150-8.1c12.4-1.7,25.2-3.8,35.5-10.9c8.8-6.1,15-15.3,19.9-24.8
	c7.7-14.8,13-31.2,12.6-47.8c-0.4-19.4-8.5-38.2-7.3-57.6c1.3-20.8,13-39.3,21.8-58.2c9.2-19.7,15.6-41.5,13-63.1
	c-3.8-30.7-25.7-57-52.3-72.9c-26.6-15.9-57.5-22.9-88-28C292.5,5.2,253.9,1.4,215.1,0.4c-18.6-0.4-37.7,0-54.8,7.2
	c-15.9,6.7-28.8,18.7-40.8,31.2c-29.6,31-55.1,65.6-75.9,103c-7.8,14-15,29.1-15.3,45.1c-0.4,27.5,19.5,50.5,30.3,75.8
	c10.2,23.9,11.3,49.1,6.4,74.4c-3.4,17.4-8.6,35.9,10.9,44.9c19.1,8.8,48.3,2.8,68.6,2.5L225.4,383.2z"/>
<path class="st1" d="M269.3,375.9c0.3,0.8-0.2,1.6-0.9,1.8c-0.2,0.1-0.4,0.1-0.5,0.1c-11.4,1.9-23,1.2-34.5,0.6
	c-0.9-5,3.1-9.7,7.7-11.9c4.6-2.2,9.8-2.5,14.7-3.8c2-0.7,4.1-1.2,6.2-1.4C270.9,360.6,269.1,369.7,269.3,375.9z"/>
<linearGradient id="SVGID_1_" gradientUnits="userSpaceOnUse" x1="309.2682" y1="50.0077" x2="268.6694" y2="-6.3086" gradientTransform="matrix(1 0 0 -1 -29.74 386.39)">
	<stop  offset="0" style="stop-color:#010101;stop-opacity:0"/>
	<stop  offset="0.95" style="stop-color:#010101"/>
</linearGradient>
<path class="st2" d="M269.3,375.9c0.3,0.8-0.2,1.6-0.9,1.8c-0.2,0.1-0.4,0.1-0.5,0.1c-11.4,1.9-23,1.2-34.5,0.6
	c-0.9-5,3.1-9.7,7.7-11.9c4.6-2.2,9.8-2.5,14.7-3.8c2-0.7,4.1-1.2,6.2-1.4C270.9,360.6,269.1,369.7,269.3,375.9z"/>
<path class="st3" d="M234.9,106.2c-1.2-8.2-1.7-17.4,3.3-24.1c4-5.4,11.1-8,17.9-7.6c6.7,0.4,13.1,3.4,18.5,7.5
	c3,2.2,5.6,4.9,7.6,8.1c7.1,11.9,1.7,29.3,11.2,39.4c3.3,3.6,8.1,5.6,11.5,9.1c6.8,7.1,6.7,18.3-0.4,25.2c-2.9,2.9-6.8,4.6-10.9,5
	c-5.2,0.4-10.3-1.4-15.4-2.1c-8.3-1.1-16.7,0.7-24.9-0.2s-17.3-6-18.2-14.3c-1-8.3,6.2-15.5,5.5-23.7c-0.4-5.7-4.5-10.3-7.1-15.4
	c-2.6-5-3.2-12.4,1.7-15.4"/>
<linearGradient id="SVGID_2_" gradientUnits="userSpaceOnUse" x1="303.9153" y1="284.6851" x2="297.3711" y2="233.9246" gradientTransform="matrix(1 0 0 -1 -29.74 386.39)">
	<stop  offset="0" style="stop-color:#010101;stop-opacity:0"/>
	<stop  offset="0.95" style="stop-color:#010101"/>
</linearGradient>
<path class="st4" d="M234.9,106.2c-1.2-8.2-1.7-17.4,3.3-24.1c4-5.4,11.1-8,17.9-7.6c6.7,0.4,13.1,3.4,18.5,7.5
	c3,2.2,5.6,4.9,7.6,8.1c7.1,11.9,1.7,29.3,11.2,39.4c3.3,3.6,8.1,5.6,11.5,9.1c6.8,7.1,6.7,18.3-0.4,25.2c-2.9,2.9-6.8,4.6-10.9,5
	c-5.2,0.4-10.3-1.4-15.4-2.1c-8.3-1.1-16.7,0.7-24.9-0.2s-17.3-6-18.2-14.3c-1-8.3,6.2-15.5,5.5-23.7c-0.4-5.7-4.5-10.3-7.1-15.4
	c-2.6-5-3.2-12.4,1.7-15.4"/>
<rect x="313.1" y="364.2" class="st5" width="2.3" height="3.7"/>
<rect x="306.5" y="296.7" class="st1" width="15.4" height="40.3"/>
<linearGradient id="SVGID_3_" gradientUnits="userSpaceOnUse" x1="345.1373" y1="40.9162" x2="342.5177" y2="107.0679" gradientTransform="matrix(1 0 0 -1 -29.75 386.39)">
	<stop  offset="0" style="stop-color:#010101;stop-opacity:0"/>
	<stop  offset="0.95" style="stop-color:#010101"/>
</linearGradient>
<rect x="306.5" y="296.7" class="st6" width="15.4" height="40.3"/>
<rect x="306.5" y="356.1" class="st1" width="15.4" height="7.5"/>
<rect x="308.9" y="336.7" class="st1" width="10.8" height="19.6"/>
<linearGradient id="SVGID_4_" gradientUnits="userSpaceOnUse" x1="338.6046" y1="39.8464" x2="349.3996" y2="39.8464" gradientTransform="matrix(1 0 0 -1 -29.75 386.39)">
	<stop  offset="0" style="stop-color:#FFFFFF;stop-opacity:0"/>
	<stop  offset="0.95" style="stop-color:#FFFFFF"/>
</linearGradient>
<rect x="308.9" y="336.7" class="st7" width="10.8" height="19.6"/>
<rect x="279.1" y="360.5" class="st1" width="70.3" height="3.7"/>
<path class="st8" d="M316.3,376.2h-4c-0.7,0-1.4-0.6-1.4-1.4v-7.3c0-0.7,0.6-1.4,1.4-1.4h4c0.7,0,1.4,0.6,1.4,1.4v7.3
	C317.6,375.6,317,376.2,316.3,376.2z"/>
<rect x="345.1" y="364.1" class="st5" width="2.3" height="5.1"/>
<rect x="281.2" y="364.1" class="st5" width="2.3" height="5.1"/>
<circle class="st8" cx="348.1" cy="371.7" r="5"/>
<circle class="st8" cx="280.4" cy="371.4" r="5"/>
<path class="st1" d="M375.8,165.3h-54c-5.8,0-10.8,4.1-11.9,9.9L288,291.8l62.9-5.2L375.8,165.3z"/>
<linearGradient id="SVGID_5_" gradientUnits="userSpaceOnUse" x1="424.5515" y1="165.381" x2="252.3114" y2="150.978" gradientTransform="matrix(1 0 0 -1 -29.74 386.39)">
	<stop  offset="0" style="stop-color:#010101;stop-opacity:0"/>
	<stop  offset="0.95" style="stop-color:#010101"/>
</linearGradient>
<path class="st9" d="M375.8,165.3h-54c-5.8,0-10.8,4.1-11.9,9.9L288,291.8l62.9-5.2L375.8,165.3z"/>
<path class="st1" d="M299.3,289.8c0-4.8,3.9-8.7,8.7-8.7h42C357,237.6,366.5,178,367,173.4c0.4-4.8,4.6-8.4,9.4-8
	c4.5,0.4,8,4.1,8,8.7c0,0.9,0,2.5-18.3,117.1c-0.7,4.2-4.3,7.4-8.6,7.4h-49.5C303.2,298.5,299.3,294.6,299.3,289.8z M367,174.1
	c0-0.2,0-0.4,0-0.6C367,173.7,367,173.9,367,174.1z"/>
<path class="st1" d="M255.3,298.5h58.6c4.8-0.2,8.6-4.2,8.4-9c-0.2-4.6-3.8-8.3-8.4-8.4h-58.6c-4.8-0.2-8.9,3.6-9,8.4
	c-0.2,4.8,3.6,8.9,8.4,9C254.9,298.5,255.1,298.5,255.3,298.5z"/>
<path class="st3" d="M311.2,244c0,0-79.8,29.9-80.2,31.3c-2.6,9.6,22.1,88.3,22.1,88.3s8.2,5.2,17.9-1l-7.6-70.7l39.1-11.4
	C302.4,280.5,320.4,272.7,311.2,244z"/>
<path class="st3" d="M258.6,242.6c0,0-55.7,26.3-55.2,27.6c0.5,1.3,10.8,85.9,10.8,85.9s7.4,5,17.8,0l1.6-71.1l67.3-9.7
	c0,0,6.6-9.9,10.3-31.3C303.9,238.3,260.5,241.9,258.6,242.6z"/>
<path class="st10" d="M196.2,200.9c0,0-11.3-3.3-15.7-2.9c-4.4,0.4-14.2,5.2-15.1,5.6c-0.9,0.4-2.2,2.6,6.7,1.8
	c8.9-0.8,12.3,5.9,18.9,4.5c6.6-1.4,8.1-5.3,8.1-5.3"/>
<path class="st1" d="M247.3,134.3L228.8,188l-34.3,11.3c0,0-3.4,2.4,1,11c0,0,34.4-0.3,42.4-3.8c8-3.5,21.5-54.1,21.5-54.1"/>
<linearGradient id="SVGID_6_" gradientUnits="userSpaceOnUse" x1="243.7031" y1="200.0433" x2="310.181" y2="237.0437" gradientTransform="matrix(1 0 0 -1 -29.74 386.39)">
	<stop  offset="0" style="stop-color:#010101;stop-opacity:0"/>
	<stop  offset="0.95" style="stop-color:#010101"/>
</linearGradient>
<path class="st11" d="M247.3,134.3L228.8,188l-34.3,11.3c0,0-3.4,2.4,1,11c0,0,34.4-0.3,42.4-3.8c8-3.5,21.5-54.1,21.5-54.1"/>
<path class="st1" d="M282.2,137.9c4.7,5.9,8.2,13.4,11.3,19.8c6.5,13.4,10.7,27.9,12.5,42.7c1,8.8,1,17.8,2,26.8
	c0.2,1.4,2.9,17.1,1.7,17.6c0,0-18.3,6.6-46,6.9c-3,0-12.9,1.6-14.7-1.7c-1.1-2,1-8.5,1.1-10.8c1.1-13.1,0.9-19.8,1.3-32.9
	c0.1-4.8-7.7-24.6-10-27.1c-2.9-3.3-4-8-3.6-12.4c0.4-4,2.5-7.2,3.2-10.9c0.7-3.4,0.4-6.8,1.5-10.2c3.8-11.4,14-20.9,26.7-18.7
	C276.1,128.2,278,132.6,282.2,137.9z"/>
<linearGradient id="SVGID_7_" gradientUnits="userSpaceOnUse" x1="278.6532" y1="192.9283" x2="389.9808" y2="214.5375" gradientTransform="matrix(1 0 0 -1 -29.74 386.39)">
	<stop  offset="0" style="stop-color:#010101;stop-opacity:0"/>
	<stop  offset="0.95" style="stop-color:#010101"/>
</linearGradient>
<path class="st12" d="M282.2,137.9c4.7,5.9,8.2,13.4,11.3,19.8c6.5,13.4,10.7,27.9,12.5,42.7c1,8.8,1,17.8,2,26.8
	c0.2,1.4,2.9,17.1,1.7,17.6c0,0-18.3,6.6-46,6.9c-3,0-12.9,1.6-14.7-1.7c-1.1-2,1-8.5,1.1-10.8c1.1-13.1,0.9-19.8,1.3-32.9
	c0.1-4.8-7.7-24.6-10-27.1c-2.9-3.3-4-8-3.6-12.4c0.4-4,2.5-7.2,3.2-10.9c0.7-3.4,0.4-6.8,1.5-10.2c3.8-11.4,14-20.9,26.7-18.7
	C276.1,128.2,278,132.6,282.2,137.9z"/>
<path class="st13" d="M250.1,239.2c0,0-13,9.2-9.2,11.5c3.4,2.1,27.7,2.4,30.9,4.5c3.3,2.2,8.7,9.8,21.8,13.2
	c13,3.4,17.6-5.6,18.6-13.2c0.6-4.4-0.3-8.8-2.5-12.6C309.6,242.6,261.8,247.9,250.1,239.2z"/>
<rect x="117" y="205.1" class="st1" width="78.5" height="5.2"/>
<linearGradient id="SVGID_8_" gradientUnits="userSpaceOnUse" x1="156.0166" y1="188.4771" x2="156.7458" y2="161.955" gradientTransform="matrix(1 0 0 -1 0 388.3)">
	<stop  offset="0" style="stop-color:#010101;stop-opacity:0"/>
	<stop  offset="0.95" style="stop-color:#010101"/>
</linearGradient>
<rect x="117" y="205.1" class="st14" width="78.5" height="5.2"/>
<rect x="108.8" y="209.9" class="st1" width="175.5" height="5.2"/>
<rect x="109.8" y="214.8" class="st1" width="139.6" height="167"/>
<linearGradient id="SVGID_9_" gradientUnits="userSpaceOnUse" x1="177.121" y1="44.8987" x2="189.5664" y2="272.15" gradientTransform="matrix(1 0 0 -1 0 388.3)">
	<stop  offset="0" style="stop-color:#010101;stop-opacity:0"/>
	<stop  offset="0.95" style="stop-color:#010101"/>
</linearGradient>
<rect x="109.8" y="214.8" class="st15" width="139.6" height="167"/>
<path class="st1" d="M98.9,116h83.7c5.5,0,9.9,4.4,9.9,9.9V182c0,5.5-4.4,9.9-9.9,9.9H98.9c-5.5,0-9.9-4.4-9.9-9.9v-56.2
	C89,120.4,93.4,116,98.9,116z"/>
<linearGradient id="SVGID_10_" gradientUnits="userSpaceOnUse" x1="139.3707" y1="190.2426" x2="142.6428" y2="296.3309" gradientTransform="matrix(1 0 0 -1 0 388.3)">
	<stop  offset="0" style="stop-color:#FFFFFF;stop-opacity:0"/>
	<stop  offset="0.95" style="stop-color:#FFFFFF"/>
</linearGradient>
<path class="st16" d="M98.9,116h83.7c5.5,0,9.9,4.4,9.9,9.9V182c0,5.5-4.4,9.9-9.9,9.9H98.9c-5.5,0-9.9-4.4-9.9-9.9v-56.2
	C89,120.4,93.4,116,98.9,116z"/>
<path class="st1" d="M128.5,161.2h12.8c4.7,0,8.6,3.8,8.6,8.6l0,0v40.5l0,0h-30l0,0v-40.5C119.9,165,123.8,161.2,128.5,161.2z"/>
<linearGradient id="SVGID_11_" gradientUnits="userSpaceOnUse" x1="164.4416" y1="207.8606" x2="102.3104" y2="195.0889" gradientTransform="matrix(1 0 0 -1 0 388.3)">
	<stop  offset="0" style="stop-color:#FFFFFF;stop-opacity:0"/>
	<stop  offset="0.95" style="stop-color:#FFFFFF"/>
</linearGradient>
<path class="st17" d="M128.5,161.2h12.8c4.7,0,8.6,3.8,8.6,8.6l0,0v40.5l0,0h-30l0,0v-40.5C119.9,165,123.8,161.2,128.5,161.2z"/>
<path class="st10" d="M252.5,137.1c0,0.7,0.1,1.3,0.3,1.9c0.5,1.1,1.6,1.8,2.8,2c1.2,0.1,2.4,0,3.5-0.4c5.1-1.6,9.9-5.7,10.5-11
	c0.1-1.6,0-3.2-0.4-4.8c-0.5-2.5-1.2-4.9-2.2-7.2c-1-2.2-2.4-4.4-4.7-4.8s-4.7,1.5-6.1,3.6C252.2,122.1,252.4,130.3,252.5,137.1z"/>
<linearGradient id="SVGID_12_" gradientUnits="userSpaceOnUse" x1="289.0377" y1="290.4003" x2="290.3427" y2="186.2694" gradientTransform="matrix(1 0 0 -1 -29.74 386.39)">
	<stop  offset="0" style="stop-color:#010101;stop-opacity:0"/>
	<stop  offset="0.95" style="stop-color:#010101"/>
</linearGradient>
<path class="st18" d="M266.3,125.3c-1,3.1-3.1,5.7-5.8,7.4c-1.1,0.7-2.3,1-3.5,0.9c-2.1-0.2-3.8-2-4.6-3.9c-0.7-1.7-1.1-3.6-1.1-5.5
	c-0.3-3.4,0.4-6.7,2-9.7c1.7-2.9,4.8-5.1,8.2-5C270.1,109.7,268.3,120,266.3,125.3z"/>
<path class="st10" d="M237.8,94.2l2,12.7c0.5,4.3,1.5,8.6,2.8,12.7c1.2,3.3,3,6.6,6.1,8.3c3.1,1.6,6.7,1.7,9.9,0.3
	c3.1-1.4,5.8-3.7,7.7-6.6c4.9-6.9,6.2-15.8,5.5-24.2c-0.4-5-1.6-10-4.7-14c-3.7-4.6-9.5-6.9-15.4-6.2
	C243.7,78.4,236.6,86,237.8,94.2z"/>
<path class="st1" d="M279.2,99c-0.3-0.9-0.7-1.8-1.2-2.6c0.2-1.3,0.3-2.6,0.3-3.8c0-13.2-10.7-23.9-23.9-23.9
	c-13.2,0-23.9,10.7-23.9,23.9c0,0,0,0,0,0c0,1.3,0.1,2.6,0.3,3.9c-0.5,0.8-0.8,1.7-1.1,2.6c-0.6,1.5-0.2,8.8,0.5,9.8
	c1.3,1.8,4.7,3.3,6.9,3.5c0.3,0.3,0.7,0.5,1.1,0.4c0.7-0.1,1.2-0.7,1.2-1.4c0,0,0,0,0,0l-1.2-13.2c-0.1-0.7-0.7-1.2-1.4-1.2
	c-0.3,0-0.6,0.2-0.8,0.4h-0.4c-1-0.2-1.8-0.8-2.2-1.7c-0.2-1.1-0.3-2.2-0.3-3.3c0-12,9.5-20.2,21.3-20.2c11.8,0,21.3,8.2,21.3,20.2
	c0,1.1-0.1,2.2-0.3,3.3c-0.5,0.8-1.3,1.4-2.2,1.6H273c-0.5-0.5-1.3-0.5-1.9,0c-0.2,0.2-0.4,0.5-0.4,0.8l-1.2,13.2
	c-0.1,0.7,0.5,1.3,1.2,1.4c0.4,0,0.8-0.1,1.1-0.4c2.2-0.3,5.6-1.7,6.9-3.5C279.4,107.8,279.8,100.5,279.2,99z"/>
<linearGradient id="SVGID_13_" gradientUnits="userSpaceOnUse" x1="285.6829" y1="310.7431" x2="282.4108" y2="251.4714" gradientTransform="matrix(1 0 0 -1 -29.74 386.39)">
	<stop  offset="0" style="stop-color:#010101;stop-opacity:0"/>
	<stop  offset="0.95" style="stop-color:#010101"/>
</linearGradient>
<path class="st19" d="M279.2,99c-0.3-0.9-0.7-1.8-1.2-2.6c0.2-1.3,0.3-2.6,0.3-3.8c0-13.2-10.7-23.9-23.9-23.9
	c-13.2,0-23.9,10.7-23.9,23.9c0,0,0,0,0,0c0,1.3,0.1,2.6,0.3,3.9c-0.5,0.8-0.8,1.7-1.1,2.6c-0.6,1.5-0.2,8.8,0.5,9.8
	c1.3,1.8,4.7,3.3,6.9,3.5c0.3,0.3,0.7,0.5,1.1,0.4c0.7-0.1,1.2-0.7,1.2-1.4c0,0,0,0,0,0l-1.2-13.2c-0.1-0.7-0.7-1.2-1.4-1.2
	c-0.3,0-0.6,0.2-0.8,0.4h-0.4c-1-0.2-1.8-0.8-2.2-1.7c-0.2-1.1-0.3-2.2-0.3-3.3c0-12,9.5-20.2,21.3-20.2c11.8,0,21.3,8.2,21.3,20.2
	c0,1.1-0.1,2.2-0.3,3.3c-0.5,0.8-1.3,1.4-2.2,1.6H273c-0.5-0.5-1.3-0.5-1.9,0c-0.2,0.2-0.4,0.5-0.4,0.8l-1.2,13.2
	c-0.1,0.7,0.5,1.3,1.2,1.4c0.4,0,0.8-0.1,1.1-0.4c2.2-0.3,5.6-1.7,6.9-3.5C279.4,107.8,279.8,100.5,279.2,99z"/>
<path class="st1" d="M273.6,111.7c-1.4-1.1-1.9,0-1.9,0c-0.8,1.4-5.2,7.5-14.7,10.3c-0.9-0.9-2.2-1.3-3.4-1.2c-2.1,0-3.9,1-3.9,2.3
	c0,1.3,1.7,2.3,3.9,2.3c2.1,0,3.8-1,3.9-2.3C260.8,122,269.1,118.9,273.6,111.7z"/>
<linearGradient id="SVGID_14_" gradientUnits="userSpaceOnUse" x1="294.2371" y1="283.6927" x2="288.8347" y2="256.1918" gradientTransform="matrix(1 0 0 -1 -29.74 386.39)">
	<stop  offset="0" style="stop-color:#010101;stop-opacity:0"/>
	<stop  offset="0.95" style="stop-color:#010101"/>
</linearGradient>
<path class="st20" d="M273.6,111.7c-1.4-1.1-1.9,0-1.9,0c-0.8,1.4-5.2,7.5-14.7,10.3c-0.9-0.9-2.2-1.3-3.4-1.2c-2.1,0-3.9,1-3.9,2.3
	c0,1.3,1.7,2.3,3.9,2.3c2.1,0,3.8-1,3.9-2.3C260.8,122,269.1,118.9,273.6,111.7z"/>
<path class="st3" d="M241.5,88.4c0.9,0.9,1.7,1.8,2.4,2.8c4.2,4.8,10.9,6.4,16.8,4c1.9-0.8,3.9-2.1,5.9-1.5c1,0.4,2,1,2.9,1.7
	c1,0.6,2.3,0.9,3.2,0.1c0.6-0.6,0.9-1.3,0.8-2.1c0.1-3-1.7-5.6-3.5-8c-1.4-2.1-3-4-5-5.5c-1.6-1.1-3.5-1.9-5.4-2.3
	c-5-1.2-10.3-0.7-15,1.4c-1.7,0.7-3.3,1.8-4.6,3.2c-0.8,0.9-2.2,3.1-1.8,4.3C238.7,87.8,240.4,87.5,241.5,88.4z"/>
<path class="st10" d="M280,96.1c-0.5-0.4-1.1-0.6-1.7-0.6c-0.8,0.1-1.5,0.7-1.7,1.5c-0.2,0.8-0.3,1.6-0.2,2.4l0.6,11
	c0,1.2,0.2,2.4,0.5,3.6c0.9,3.1,3.4,5.4,5.8,7.6c1,1,2.2,1.8,3.6,2.2c2,0.2,3.9-0.6,5-2.3C298.4,113.2,287,100.3,280,96.1z"/>
<path class="st1" d="M291.7,180.3c6.1,6.8,14.1,12.2,23,14c1.1,0.5,2.4,0,2.9-1.1c0.1-0.2,0.1-0.4,0.2-0.6
	c2.7-7.2,2.2-15.2,0.3-22.7s-5-14.5-7.3-21.8c-2.9-8.9-16.1-32.9-17.1-32.9c-3.6,0-7,3.9-9.2,6.4c0.3,8.2,6.8,14.2,8,22.3
	c-1-4.5-7.5-9.6-11.6-11.6c-1.7-0.9-9.1-5.5-10.6-4.4c-1.2,0.9,3.5,6.6,3.2,8.1C270.5,151.3,281.7,169.3,291.7,180.3z"/>
<linearGradient id="SVGID_15_" gradientUnits="userSpaceOnUse" x1="357.2697" y1="241.5734" x2="197.6382" y2="172.8117" gradientTransform="matrix(1 0 0 -1 -29.74 386.39)">
	<stop  offset="0" style="stop-color:#010101;stop-opacity:0"/>
	<stop  offset="0.95" style="stop-color:#010101"/>
</linearGradient>
<path class="st21" d="M291.7,180.3c6.1,6.8,14.1,12.2,23,14c1.1,0.5,2.4,0,2.9-1.1c0.1-0.2,0.1-0.4,0.2-0.6
	c2.7-7.2,2.2-15.2,0.3-22.7s-5-14.5-7.3-21.8c-2.9-8.9-16.1-32.9-17.1-32.9c-3.6,0-7,3.9-9.2,6.4c0.3,8.2,6.8,14.2,8,22.3
	c-1-4.5-7.5-9.6-11.6-11.6c-1.7-0.9-9.1-5.5-10.6-4.4c-1.2,0.9,3.5,6.6,3.2,8.1C270.5,151.3,281.7,169.3,291.7,180.3z"/>
</svg>
