<svg id="Ñëîé_1" data-name="Ñëîé 1" xmlns="http://www.w3.org/2000/svg" viewBox="0 0 226.17 227.92"><defs><style>.cls-1{fill:#57f7e0;}.cls-1,.cls-3,.cls-4{opacity:0.8;}.cls-2{fill:none;stroke:#e9fffb;stroke-linecap:round;stroke-miterlimit:10;}.cls-3,.cls-5{fill:#0b3fa5;}</style></defs><title>banner-image-3</title><g id="_Group_" data-name="&lt;Group&gt;"><path id="_Path_" data-name="&lt;Path&gt;" class="cls-1" d="M97.46,60.29v90.6c0,2,1.43,2.86,3.19,1.84l43.53-25.13a7.06,7.06,0,0,0,3.19-5.53V31.48c0-2-1.43-2.86-3.19-1.84L100.65,54.76A7.06,7.06,0,0,0,97.46,60.29Z"/><path id="_Path_2" data-name="&lt;Path&gt;" class="cls-2" d="M97.46,60.29v90.6c0,2,1.43,2.86,3.19,1.84l43.53-25.13a7.06,7.06,0,0,0,3.19-5.53V31.48c0-2-1.43-2.86-3.19-1.84L100.65,54.76A7.06,7.06,0,0,0,97.46,60.29Z"/><path id="_Path_3" data-name="&lt;Path&gt;" class="cls-3" d="M103.72,115.07,121.14,105c.71-.41,1.28-.08,1.28.74v.07a2.82,2.82,0,0,1-1.28,2.21l-17.41,10.05c-.71.41-1.28.08-1.28-.74v-.07A2.82,2.82,0,0,1,103.72,115.07Z"/><path id="_Path_4" data-name="&lt;Path&gt;" class="cls-3" d="M126.1,102.15l15-8.66c.71-.41,1.28-.08,1.28.74v.07a2.82,2.82,0,0,1-1.28,2.21l-15,8.66c-.71.41-1.28.08-1.28-.74v-.07A2.82,2.82,0,0,1,126.1,102.15Z"/><g id="_Group_2" data-name="&lt;Group&gt;" class="cls-4"><g id="_Group_3" data-name="&lt;Group&gt;"><path class="cls-5" d="M103.72,129.28l17.41-10.05c.71-.41,1.28-.08,1.28.74V120a2.82,2.82,0,0,1-1.28,2.21L103.72,132.3c-.71.41-1.28.08-1.28-.74v-.07A2.82,2.82,0,0,1,103.72,129.28Z"/></g><g id="_Group_4" data-name="&lt;Group&gt;"><path class="cls-5" d="M126.1,116.36l15-8.66c.71-.41,1.28-.08,1.28.74v.07a2.82,2.82,0,0,1-1.28,2.21l-15,8.66c-.71.41-1.28.08-1.28-.74v-.07A2.82,2.82,0,0,1,126.1,116.36Z"/></g></g><g id="_Group_5" data-name="&lt;Group&gt;" class="cls-4"><g id="_Group_6" data-name="&lt;Group&gt;"><path class="cls-5" d="M103.72,122.17l9.43-5.44c.71-.41,1.28-.08,1.28.74v.07a2.82,2.82,0,0,1-1.28,2.21l-9.43,5.44c-.71.41-1.28.08-1.28-.74v-.07A2.82,2.82,0,0,1,103.72,122.17Z"/></g><g id="_Group_7" data-name="&lt;Group&gt;"><path class="cls-5" d="M117.38,114.28l8-4.64c.7-.41,1.27-.08,1.27.73v.07a2.83,2.83,0,0,1-1.27,2.21l-8,4.64c-.7.41-1.27.08-1.27-.73v-.07A2.83,2.83,0,0,1,117.38,114.28Z"/></g><g id="_Group_8" data-name="&lt;Group&gt;"><path class="cls-5" d="M129.91,107l11.19-6.43c.71-.41,1.28-.07,1.28.74v.07a2.81,2.81,0,0,1-1.28,2.21L129.91,110c-.71.41-1.28.07-1.28-.74v-.07A2.81,2.81,0,0,1,129.91,107Z"/></g></g><g id="_Group_9" data-name="&lt;Group&gt;" class="cls-4"><g id="_Group_10" data-name="&lt;Group&gt;"><path class="cls-5" d="M103.73,136.46l15.19-8.75c.71-.41,1.28-.08,1.28.74v.07a2.82,2.82,0,0,1-1.28,2.21l-15.19,8.75c-.71.41-1.28.08-1.28-.74v-.07A2.82,2.82,0,0,1,103.73,136.46Z"/></g><g id="_Group_11" data-name="&lt;Group&gt;"><path class="cls-5" d="M123.14,125.27l8-4.64c.7-.41,1.28-.08,1.28.73v.07a2.83,2.83,0,0,1-1.28,2.21l-8,4.64c-.7.41-1.28.08-1.28-.73v-.07A2.83,2.83,0,0,1,123.14,125.27Z"/></g><g id="_Group_12" data-name="&lt;Group&gt;"><path class="cls-5" d="M135.67,118l5.43-3.12c.71-.41,1.28-.07,1.28.74v.07a2.82,2.82,0,0,1-1.28,2.21L135.67,121c-.71.41-1.28.07-1.28-.74v-.07A2.81,2.81,0,0,1,135.67,118Z"/></g></g><polygon id="_Path_5" data-name="&lt;Path&gt;" class="cls-3" points="104.95 104.14 139.87 83.97 139.87 43.65 104.89 63.85 104.95 104.14"/></g></svg>