<svg xmlns="http://www.w3.org/2000/svg" viewBox="0 0 226.17 227.92"><defs><style>.cls-1{isolation:isolate;}.cls-2{fill:#ffa8a7;}.cls-3{fill:#6a89ce;}.cls-4{fill:#2d2979;}.cls-5{fill:#c4d9ff;}.cls-6{fill:#aacaf9;}.cls-7{fill:#f28f8f;}.cls-8{fill:#543354;}.cls-9{fill:#7fa8e6;}.cls-10{fill:#f5fbfb;}.cls-11{fill:#6b99d1;opacity:0.15;mix-blend-mode:multiply;}</style></defs><title>banner-image-4</title><g class="cls-1"><g id="Ñëîé_1" data-name="Ñëîé 1"><g id="_Group_" data-name="&lt;Group&gt;"><path id="_Path_" data-name="&lt;Path&gt;" class="cls-2" d="M181.82,99.49c.23,2,2.64,10.1,2.14,13s-8.6,8.14-8.6,8.14l-1.11-5,3.42-3.36a2.81,2.81,0,0,0,.81-2.41l-1-6.84Z"/><path id="_Path_2" data-name="&lt;Path&gt;" class="cls-3" d="M177.57,109.41l-3.33-15c-.45-5.56,4.65-5.08,5.83-3.12s3.58,14.76,3.69,15.91c.44,2.9.51,4.31.26,5.5s-3.09,4.58-8.67,7.94l-1.11-5Z"/><path id="_Path_3" data-name="&lt;Path&gt;" class="cls-4" d="M176.73,180.21a16.6,16.6,0,0,0,.36,2c.21.85.25,2-.71,2.27a2.34,2.34,0,0,1-2.67-.62c-.77-1-1.17-2.33-2.28-3.33s-2.39-2.06-2.77-3.59-.13-2.26.82-2.4c1.2-.17,3.09.83,4.07,1.54A37,37,0,0,1,176.73,180.21Z"/><path id="_Path_4" data-name="&lt;Path&gt;" class="cls-4" d="M163.81,188.29s.07,1.1.14,2,.38,2.28.1,2.93-1.73,1.13-3.43,1.12a8.28,8.28,0,0,0-4,1.5,6.27,6.27,0,0,1-5,.86c-1.46-.46-3.08-1.13-3.33-1.81s.52-1,4.08-2.64,6.2-2.76,7.58-4.64Z"/><path id="_Path_5" data-name="&lt;Path&gt;" class="cls-5" d="M177.59,161.26a41.24,41.24,0,0,0-1.57-7.44s.47-6.42.7-12.5c.25-6.57.66-14.8.77-16.44l-21.31,4.74s1.34,25.48,1.57,28.81.49,8,.84,12.25c.44,5.42.9,17.41.9,17.41a6.48,6.48,0,0,0,4.34.84s1.85-15,2.15-18.8a29.32,29.32,0,0,0-.9-9.6s.59-6.6,1.11-12c.46-4.84,1-7.74,1.11-10.11l.42-.23s.43,9.4.67,12.74.73,6.54,1.62,12.74c.78,5.38,2.81,16.46,2.81,16.46a3.62,3.62,0,0,0,3.89.13S178.2,165.93,177.59,161.26Z"/><path id="_Path_6" data-name="&lt;Path&gt;" class="cls-6" d="M167.32,138.38a40.86,40.86,0,0,0,7.18-4.82,16.34,16.34,0,0,1-5.14,4.86s-1,11.68-1,11.45l-.6-11.5Z"/><path id="_Path_7" data-name="&lt;Path&gt;" class="cls-2" d="M174.48,90.07c-1.62.08-2.83.5-3,0a21,21,0,0,1-.37-2.54c.19-.47.35-1,.35-1a8,8,0,0,0-3.34-14.7c-4.12-.43-7.15,2.47-8,6.44a21.05,21.05,0,0,0,.15,9.36c.52,1.87,1,2.41,1.77,2.67a14.66,14.66,0,0,0,2.74.18h0s.22,1.22.37,2,.09,1.19-1.47,2.15,2.35,2.93,4.91,2.74S174,95.68,174.79,94C175.67,92.18,175.59,90,174.48,90.07Z"/><path id="_Path_8" data-name="&lt;Path&gt;" class="cls-7" d="M174.48,90.07c-1.62.08-2.83.5-3,0a21,21,0,0,1-.37-2.54c.19-.47.35-1,.35-1a8.13,8.13,0,0,0,1.91-1.64l-5.39,1.78-1.58-.32-.64-.37-.42-.74a10.35,10.35,0,0,1-.77,3.25,4.57,4.57,0,0,1-2.6,1.77l.09,0a14.66,14.66,0,0,0,2.74.18h0s.22,1.22.37,2,.09,1.12-1.07,1.89l2.19,1.68L172.8,96c.18-.11.35-.22.52-.34l2-3C175.57,91.25,175.32,90,174.48,90.07Z"/><path id="_Path_9" data-name="&lt;Path&gt;" class="cls-8" d="M172.29,86.84a8.66,8.66,0,0,0,2.9-6.2,8,8,0,0,0-7.11-8.76,6.88,6.88,0,0,0-6.6,3.12,4.43,4.43,0,0,0,.75,1,1.88,1.88,0,0,0,.28,1.74A2.59,2.59,0,0,1,163,79.7c0,.76-.1,2.09,0,2.91.11,1.16,1.4,1.41,1.4,1.41a14,14,0,0,1,.3-2.86,1.5,1.5,0,0,1,2.72.13,4.64,4.64,0,0,1-.16,3.26,1.29,1.29,0,0,1-1.93.74c0,.52-.19,2.33,1.54,2.81a6,6,0,0,0,4.23-.42A7.68,7.68,0,0,0,172.29,86.84Z"/><path id="_Path_10" data-name="&lt;Path&gt;" class="cls-8" d="M162.23,76a5,5,0,0,1-4-2c-1.89-2.16-.82-4.17,1.45-3.26s6.09.39,8,.2,7,.84,6.5,5Z"/><path id="_Path_11" data-name="&lt;Path&gt;" class="cls-9" d="M172.13,90.31c.45,1.12-.69,2.49-3.74,3.45s-3.32-.28-3.32-.28a60,60,0,0,0-5.92,3.05c-1.83,1.28-2.64,5-2.89,11.22-.28,7.23-.88,21.49-.64,23.33,0,0,2.07,1.2,3.94-1.52a10,10,0,0,0,5.8,4.12,11.36,11.36,0,0,0,13.18-6c0-6.34-1.82-11.66-.8-15.31,2.35-8.36,3.59-11.78,2.44-17.34-.94-4.58-2.26-5.15-4.07-5.1A37.69,37.69,0,0,0,172.13,90.31Z"/><path id="_Path_12" data-name="&lt;Path&gt;" class="cls-3" d="M171.25,89a.58.58,0,0,1,.61.06c.33.23,1.22,1.09,1.22,1.09a3.33,3.33,0,0,1-1.88,3.12c-2.16,1.34-4.74,2-7.4.77a20.63,20.63,0,0,1,.67-2,.73.73,0,0,1,.51-.34s.68.87,3.25,0,3.06-2.11,3.06-2.11Z"/><path id="_Path_13" data-name="&lt;Path&gt;" class="cls-2" d="M149.39,114.91c3.59.9,4.43-1.36,4.9-3.23,1.14-4.54,1.76-8.64,2.61-11.21,1-3,2.06-3.52,3.53-4.11,1.73-.7,3.22.77,2.65,4.64a77.48,77.48,0,0,1-3.29,13.2c-.45,1.41-1.45,3.92-2.95,5.14-1.85,1.5-4.64,1.43-8.86.38-1.8-.45-3.77-1.52-7.18-3.11-.91-.43-1.62-.71-3.38-1.53a12,12,0,0,1-4.5-3.51c-.92-1.33-1-2-.85-2.26s.65-.3,1.14.26a9.85,9.85,0,0,0,2.58,2.39s-1.13-1.17-1.75-1.93a9.75,9.75,0,0,1-1.36-2.22c-.32-.78.35-1.83.85-1.28s.75,1.12,1.68,2.23a9.66,9.66,0,0,0,1.66,1.59,18.29,18.29,0,0,1-1.53-2.47,4.07,4.07,0,0,1-.56-2.23c0-.41.6-.89,1.14-.12a14.72,14.72,0,0,0,1.93,2.94c.82.85,1.52,1.34,1.54,1.11s-.5-.7-.79-1.69,0-2,.55-2.15.44-.08.88.84a27.08,27.08,0,0,1,1.63,3,6.12,6.12,0,0,0,1.48,2.54C144,113,146,114.05,149.39,114.91Z"/><path id="_Path_14" data-name="&lt;Path&gt;" class="cls-10" d="M147.06,114.18l-2-.91c-1.17.5-2.13,2.53-1.76,4.64l2.44,1Z"/><path id="_Path_15" data-name="&lt;Path&gt;" class="cls-3" d="M160.69,95.63c-2.33.28-3.37.94-4.49,6.1s-1.84,10.17-2.73,11.31-1.3,2.73-6.69.72c0,0-2.49,1-2.25,5.16a42,42,0,0,0,6.16,1.74c3.25.63,6.24.33,8.21-3.75a63.47,63.47,0,0,0,4.42-15.34C163.66,98.29,162.82,95.37,160.69,95.63Z"/><path id="_Path_16" data-name="&lt;Path&gt;" class="cls-11" d="M149.86,184.21l10.22-5.9c6.93-4,16.5-5,21.38-2.15s3.21,8.34-3.72,12.34l-10.22,5.9c-6.93,4-16.5,5-21.38,2.15S142.93,188.21,149.86,184.21Z"/></g></g></g></svg>