<svg id="Ñëîé_1" data-name="Ñëîé 1" xmlns="http://www.w3.org/2000/svg" viewBox="0 0 226.17 227.92"><defs><style>.cls-1{fill:#c8e2ff;}.cls-2{fill:#a5cbfa;}.cls-3{fill:#dceeff;}.cls-4{fill:#031f60;}.cls-5{fill:#1e3779;}.cls-6{fill:#2b3d89;}.cls-7{fill:#344593;}</style></defs><title>banner-image-1</title><g id="_Group_" data-name="&lt;Group&gt;"><g id="_Group_2" data-name="&lt;Group&gt;"><g id="_Group_3" data-name="&lt;Group&gt;"><path id="_Path_" data-name="&lt;Path&gt;" class="cls-1" d="M44.46,191.12h0l6.25,3.61L51.78,186l49.28-28.46a7.06,7.06,0,0,0,3.19-5.53V44.12l4.46-19.05-6.25-3.61h0a2.25,2.25,0,0,0-2.24.23L46.68,52.58a7.06,7.06,0,0,0-3.19,5.53V189A2.22,2.22,0,0,0,44.46,191.12Z"/><path id="_Path_2" data-name="&lt;Path&gt;" class="cls-2" d="M108.7,25.07l-6.25-3.61h0a2.25,2.25,0,0,0-2.24.23L46.68,52.58A6.53,6.53,0,0,0,44.43,55L73,71.44l31.27-17.62v-9.7Z"/><g id="_Group_4" data-name="&lt;Group&gt;"><path id="_Compound_Path_" data-name="&lt;Compound Path&gt;" class="cls-3" d="M109.65,27.15c0-2-1.42-2.86-3.18-1.84L53,56.2a7,7,0,0,0-3.19,5.53V192.67c0,2,1.42,2.85,3.18,1.84l53.51-30.9a7,7,0,0,0,3.19-5.53ZM105,158.7,54.36,187.93c-1.18.68-2.13.14-2.13-1.23l0-121.84a4.73,4.73,0,0,1,2.13-3.69l13-7.51.31-.17c1.18-.68,2.13-.12,2.13,1.23v.85a1.6,1.6,0,0,0,.5,1.3l.12.07h0a1.51,1.51,0,0,0,1.51-.16l15.7-9.07A4.68,4.68,0,0,0,89.7,44V43.2a4.75,4.75,0,0,1,2.13-3.69l13.12-7.57c1.17-.68,2.13-.13,2.13,1.23l0,121.83A4.72,4.72,0,0,1,105,158.7Z"/><path id="_Path_3" data-name="&lt;Path&gt;" class="cls-4" d="M74.37,49.61,82,45.21c.65-.38,1.18-.21,1.18.38A2.37,2.37,0,0,1,82,47.34l-7.62,4.4c-.65.38-1.18.2-1.18-.39A2.37,2.37,0,0,1,74.37,49.61Z"/><path id="_Path_4" data-name="&lt;Path&gt;" class="cls-4" d="M84,45.06c0,.57.4.8.9.52a2,2,0,0,0,.9-1.55c0-.57-.4-.8-.9-.52A2,2,0,0,0,84,45.06Z"/></g><path id="_Path_5" data-name="&lt;Path&gt;" class="cls-4" d="M107.1,155a4.72,4.72,0,0,1-2.13,3.7L54.36,187.93c-1.18.68-2.13.14-2.13-1.23v-.47l0-121.37a4.73,4.73,0,0,1,2.13-3.69l13-7.51.31-.17c1.18-.68,2.13-.12,2.13,1.23v.85c0,1.36,1,1.92,2.14,1.23l15.7-9.07A4.68,4.68,0,0,0,89.7,44V43.2a4.75,4.75,0,0,1,2.13-3.69l12.82-7.4.31-.17c1.17-.68,2.13-.13,2.13,1.23Z"/><path id="_Path_6" data-name="&lt;Path&gt;" class="cls-5" d="M104.95,31.94l-.31.17-2.53,1.46V153.76l4.67,2.7a4,4,0,0,0,.32-1.47l0-121.83C107.07,31.81,106.11,31.27,104.95,31.94Z"/><path id="_Path_7" data-name="&lt;Path&gt;" class="cls-6" d="M104.67,153.47a4.72,4.72,0,0,1-2.13,3.7l-50.3,29.06,0-121.37a4.73,4.73,0,0,1,2.13-3.69l13-7.51V54c0,1.36,1,1.92,2.14,1.23l.29-.17v.47c0,1.36,1,1.92,2.14,1.23l15.7-9.07A4.68,4.68,0,0,0,89.7,44V43.2a4.75,4.75,0,0,1,2.13-3.69l12.82-7.4Z"/><path id="_Path_8" data-name="&lt;Path&gt;" class="cls-7" d="M95.32,114.69c5.87-22.17,8.49-61.44,9.32-76.57v-6l-12.82,7.4A4.75,4.75,0,0,0,89.7,43.2V44a4.68,4.68,0,0,1-2.13,3.69L71.87,56.8c-1.18.69-2.14.14-2.14-1.23V55.1l-.29.17c-1.18.69-2.14.14-2.14-1.23v-.38l-13,7.51a4.73,4.73,0,0,0-2.13,3.69l0,107C52.92,171.41,85.9,150.24,95.32,114.69Z"/><path id="_Path_9" data-name="&lt;Path&gt;" class="cls-4" d="M70.24,56.87,67.88,55.4A1.53,1.53,0,0,1,67.3,54v-.38l.31-.17c1.18-.68,2.13-.12,2.13,1.23v.85A1.6,1.6,0,0,0,70.24,56.87Z"/></g></g></g></svg>