<svg id="Ñëîé_1" data-name="Ñëîé 1" xmlns="http://www.w3.org/2000/svg" viewBox="0 0 226.17 227.92"><defs><style>.cls-1{fill:#e9fffb;opacity:0.2;}.cls-2{fill:none;stroke:#e9fffb;stroke-miterlimit:10;}</style></defs><title>banner-image-2</title><g id="_Group_" data-name="&lt;Group&gt;"><path id="_Path_" data-name="&lt;Path&gt;" class="cls-1" d="M124.32,149.48a4.47,4.47,0,0,0,.21-.67l0-.12a3.45,3.45,0,0,0,.08-.68l0-121.83c0-1.36-1-1.9-2.13-1.23l-.31.17-2.53,1.46h0l-10.28,5.93a4.75,4.75,0,0,0-2.13,3.69v.85a4.67,4.67,0,0,1-2.13,3.69l-15.7,9.07c-1.18.69-2.14.14-2.14-1.23v-.85c0-1.35-.95-1.9-2.13-1.23l-.31.17-13,7.51a4.73,4.73,0,0,0-2.13,3.69l0,121.37v.47c0,1.36.95,1.9,2.13,1.23l50.61-29.23a4.64,4.64,0,0,0,1.81-2.23Z"/><path id="_Path_2" data-name="&lt;Path&gt;" class="cls-2" d="M124.32,149.48a4.47,4.47,0,0,0,.21-.67l0-.12a3.45,3.45,0,0,0,.08-.68l0-121.83c0-1.36-1-1.9-2.13-1.23l-.31.17-2.53,1.46h0l-10.28,5.93a4.75,4.75,0,0,0-2.13,3.69v.85a4.67,4.67,0,0,1-2.13,3.69l-15.7,9.07c-1.18.69-2.14.14-2.14-1.23v-.85c0-1.35-.95-1.9-2.13-1.23l-.31.17-13,7.51a4.73,4.73,0,0,0-2.13,3.69l0,121.37v.47c0,1.36.95,1.9,2.13,1.23l50.61-29.23a4.64,4.64,0,0,0,1.81-2.23Z"/></g></svg>