<?xml version="1.0" standalone="no"?>
<!DOCTYPE svg PUBLIC "-//W3C//DTD SVG 20010904//EN"
 "http://www.w3.org/TR/2001/REC-SVG-20010904/DTD/svg10.dtd">
<svg version="1.0" xmlns="http://www.w3.org/2000/svg"
 width="260.000000pt" height="260.000000pt" viewBox="0 0 260.000000 260.000000"
 preserveAspectRatio="xMidYMid meet">
<metadata>
Created by potrace 1.11, written by Peter Selinger 2001-2013
</metadata>
<g transform="translate(0.000000,260.000000) scale(0.100000,-0.100000)"
fill="#000000" stroke="none">
<path d="M865 2059 l-429 -430 430 -424 c236 -234 433 -424 439 -425 5 0 125
117 267 260 141 143 260 260 262 260 11 0 327 323 324 332 -4 11 -850 858
-858 858 -3 0 -199 -194 -435 -431z m437 316 l3 -90 70 -53 c39 -30 103 -79
144 -110 40 -32 97 -75 126 -97 29 -22 81 -62 116 -89 35 -28 138 -106 229
-175 l165 -126 -99 -5 -100 -5 -68 -90 c-37 -49 -76 -101 -87 -115 -69 -89
-84 -108 -109 -136 -27 -32 -49 -59 -80 -103 -9 -13 -25 -32 -34 -43 -10 -10
-18 -22 -18 -28 0 -5 -4 -10 -8 -10 -4 0 -15 -12 -24 -28 -9 -15 -25 -36 -35
-47 -10 -11 -30 -36 -43 -55 -13 -19 -30 -41 -36 -47 -7 -7 -22 -28 -34 -48
-12 -19 -25 -35 -30 -35 -5 0 -11 -9 -15 -19 -3 -11 -12 -21 -19 -24 -9 -4
-12 16 -12 87 l1 91 -199 153 c-109 85 -208 159 -220 165 -11 7 -97 71 -191
142 -93 72 -185 141 -203 154 -18 13 -30 26 -27 30 4 3 41 7 83 7 106 2 112 3
112 14 0 6 6 18 13 26 27 32 34 41 76 99 25 33 47 62 51 65 3 3 23 30 44 60
21 30 45 62 53 70 7 8 37 46 66 85 29 38 105 139 171 225 65 85 128 168 139
183 12 16 23 25 24 20 2 -4 4 -48 5 -98z"/>
<path d="M1300 2203 c0 -13 -12 -25 -221 -224 -96 -92 -216 -207 -268 -257
-56 -54 -89 -92 -82 -96 6 -4 11 -4 11 -1 0 3 30 -26 68 -66 37 -40 135 -141
217 -225 83 -84 177 -180 209 -213 33 -34 63 -61 68 -61 5 0 7 4 4 8 -4 8 215
222 234 230 5 2 53 47 108 100 56 53 130 125 165 158 l64 62 -121 124 c-67 68
-177 184 -246 257 -197 210 -210 222 -210 204z m3 -118 l2 -77 150 -104 c83
-57 157 -107 165 -111 8 -4 20 -12 26 -17 6 -6 54 -40 107 -76 l97 -65 -84 -3
-84 -3 -93 -137 c-50 -75 -106 -155 -124 -177 -17 -22 -58 -79 -90 -128 -32
-48 -61 -85 -64 -81 -3 3 -6 39 -7 80 0 73 -1 75 -32 94 -18 11 -39 20 -46 20
-8 0 -16 3 -18 8 -1 4 -43 34 -93 67 -49 32 -94 64 -100 70 -5 6 -28 22 -50
35 -66 40 -195 133 -195 140 0 3 34 6 76 5 l75 -1 28 40 c15 23 74 111 132
196 57 85 106 157 109 160 3 3 27 38 54 78 27 40 51 71 53 68 3 -2 5 -39 6
-81z"/>
<path d="M1300 1908 c0 -19 -12 -35 -42 -59 -24 -19 -45 -36 -48 -39 -3 -4
-48 -41 -100 -84 -106 -87 -123 -107 -87 -101 19 4 36 -11 97 -87 41 -50 84
-101 95 -114 11 -12 33 -38 50 -58 33 -40 50 -47 40 -16 -4 13 1 25 17 39 13
10 81 68 152 128 118 98 127 108 105 113 -14 3 -41 23 -60 45 -19 22 -36 42
-39 45 -3 3 -24 27 -45 55 -40 49 -59 73 -109 130 l-25 30 -1 -27z m5 -120 l0
-61 113 -45 c61 -25 112 -48 112 -51 0 -3 -26 -5 -58 -3 -52 3 -60 1 -74 -20
-8 -13 -17 -32 -21 -43 -7 -26 -50 -125 -64 -149 -8 -15 -10 -6 -9 44 l2 63
-55 24 c-31 14 -70 31 -88 39 -17 8 -35 14 -40 14 -5 0 -17 6 -27 13 -16 11
-11 13 38 12 30 -1 59 1 64 4 5 3 19 33 31 66 12 33 27 65 32 71 5 6 10 19 12
30 6 27 18 54 26 54 3 0 6 -28 6 -62z"/>
<path d="M2310 589 c-111 -19 -187 -99 -197 -208 -14 -148 74 -256 217 -266
84 -6 181 50 221 127 23 46 27 181 5 222 -48 92 -145 142 -246 125z m127 -85
c87 -71 90 -215 7 -295 -32 -31 -40 -34 -97 -34 -70 0 -96 14 -136 74 -19 29
-24 50 -25 107 -1 63 3 76 28 112 58 85 146 98 223 36z"/>
<path d="M40 561 c13 -25 13 -371 0 -405 l-10 -26 63 0 c43 0 57 3 47 10 -12
8 -15 43 -16 207 -1 109 3 206 8 216 8 15 3 17 -47 17 -52 0 -55 -1 -45 -19z"/>
<path d="M203 562 c24 -27 25 -376 1 -410 -15 -22 -15 -22 42 -22 57 0 57 0
39 20 -16 18 -19 40 -19 170 -1 83 2 150 6 150 3 0 17 -15 30 -32 50 -72 199
-261 227 -289 59 -58 61 -52 61 182 0 126 4 218 10 230 10 17 7 19 -34 19 -45
0 -45 0 -36 -26 6 -14 10 -89 10 -167 l0 -142 -25 30 c-27 33 -111 145 -183
243 -45 62 -46 62 -95 62 -48 0 -49 -1 -34 -18z"/>
<path d="M670 561 c13 -26 14 -398 0 -406 -25 -15 -5 -25 51 -25 55 0 59 1 45
16 -13 13 -16 46 -16 209 0 118 4 196 10 200 24 15 6 25 -45 25 -52 0 -55 -1
-45 -19z"/>
<path d="M877 558 c3 -16 -10 -43 -39 -83 -85 -118 -84 -98 -16 -200 83 -125
96 -137 158 -143 l52 -5 -46 48 c-25 26 -46 53 -46 60 0 7 -4 15 -8 17 -20 8
-92 126 -86 141 3 10 10 17 15 17 5 0 9 6 9 13 0 8 11 24 25 37 14 13 25 29
25 36 0 7 3 14 8 16 4 2 17 18 30 36 l23 32 -54 0 c-51 0 -54 -1 -50 -22z"/>
<path d="M1060 561 c6 -12 10 -97 10 -206 0 -109 -4 -194 -10 -206 -10 -18 -7
-19 50 -19 60 0 60 0 47 22 -11 18 -14 67 -13 213 1 105 5 196 9 203 6 9 -6
12 -48 12 -52 0 -55 -1 -45 -19z"/>
<path d="M1220 570 c21 -13 25 -371 5 -412 l-13 -28 54 0 c55 0 55 0 40 22
-13 18 -16 53 -16 173 l0 150 23 -27 c12 -14 31 -38 41 -53 11 -14 27 -35 35
-45 9 -10 23 -28 31 -40 8 -12 20 -28 25 -34 6 -6 24 -29 40 -51 39 -53 86
-100 108 -108 16 -6 17 8 17 209 0 129 4 223 10 235 10 17 7 19 -35 19 -44 0
-45 -1 -34 -22 11 -21 17 -293 7 -303 -4 -4 -99 119 -163 209 -11 16 -25 33
-30 40 -6 6 -21 26 -34 44 -20 29 -27 32 -74 32 -37 0 -48 -3 -37 -10z"/>
<path d="M1680 570 c13 -8 15 -43 15 -215 0 -172 -2 -207 -15 -215 -22 -14
181 -13 238 2 119 30 189 187 137 311 -20 49 -96 113 -142 121 -62 10 -250 7
-233 -4z m229 -55 c14 -7 39 -27 55 -44 26 -27 29 -39 32 -102 2 -40 -2 -82
-8 -93 -17 -34 -88 -96 -111 -97 -35 -3 -101 2 -106 7 -4 3 -5 266 -2 326 2
28 88 30 140 3z"/>
</g>
</svg>
