<svg id="Layer_1" data-name="Layer 1" xmlns="http://www.w3.org/2000/svg" viewBox="0 0 643.15 2344"><defs><style>.cls-1{fill:none;stroke:#d1d6e4;stroke-linecap:round;stroke-linejoin:round;stroke-dasharray:5 6;}</style></defs><title>dot</title><path class="cls-1" d="M.56,13V437.63A32.87,32.87,0,0,0,33.44,470.5H609.69a32.87,32.87,0,0,1,32.88,32.88V895.13A32.87,32.87,0,0,1,609.69,928H33.44A32.87,32.87,0,0,0,.56,960.88v391.75a32.88,32.88,0,0,0,32.88,32.88H609.69a32.88,32.88,0,0,1,32.88,32.88v391.75A32.88,32.88,0,0,1,609.69,1843H33.44A32.88,32.88,0,0,0,.56,1875.88V2300.5"/></svg>