<?xml version="1.0" encoding="utf-8"?>
<!-- Generator: Adobe Illustrator 21.0.0, SVG Export Plug-In . SVG Version: 6.00 Build 0)  -->
<svg version="1.1" id="Layer_1" xmlns="http://www.w3.org/2000/svg" xmlns:xlink="http://www.w3.org/1999/xlink" x="0px" y="0px"
	 viewBox="0 0 586.7 562.3" style="enable-background:new 0 0 586.7 562.3;" xml:space="preserve">
<style type="text/css">
	.st0{fill:#FED385;}
	.st1{opacity:0.71;fill:#FD8369;enable-background:new    ;}
	.st2{opacity:0.53;fill:#56CAD8;enable-background:new    ;}
</style>
<path id="_2002" class="st0" d="M104.8,35.6L201.6,15c21.6-4.6,42.8,9.2,47.4,30.8l20.6,96.8c4.6,21.6-9.2,42.8-30.8,47.4L142,210.7
	c-21.6,4.6-42.8-9.2-47.4-30.8L74,83C69.4,61.4,83.2,40.2,104.8,35.6z"/>
<g id="Groupe_141" transform="translate(761.215 2060.653) rotate(-162)">
	<path id="Rectangle_273" class="st1" d="M1195,1300.7l26.4,21.4c6.4,5.2,7.4,14.7,2.2,21.1l-21.4,26.4c-5.2,6.4-14.7,7.4-21.1,2.2
		l-26.4-21.4c-6.4-5.2-7.4-14.7-2.2-21.1l21.4-26.4C1179.1,1296.5,1188.6,1295.5,1195,1300.7z"/>
	<path id="Rectangle_274" class="st2" d="M1128.3,1278.8l7,5.7c3.4,2.8,4,7.8,1.2,11.3l-5.7,7c-2.8,3.4-7.8,4-11.3,1.2l-7-5.7
		c-3.4-2.8-4-7.8-1.2-11.3l5.7-7C1119.8,1276.6,1124.9,1276,1128.3,1278.8z"/>
</g>
<path id="equipe-creation-creative-concepteur-publicitaire-asiatique-discutant-idees-au-bureau_1418-2283" class="st2" d="
	M168.2,379l96.1-24c21.4-5.3,43.1,7.7,48.5,29.1l24,96.1c5.3,21.4-7.7,43.1-29.1,48.5l-96.1,24C190,558,168.3,545,163,523.5
	l-24-96.1C133.7,406,146.7,384.3,168.2,379z"/>
<path class="st1" d="M184.5,63l245.4-47.7c43.4-8.4,85.4,19.9,93.8,63.3l47.7,245.4c8.4,43.4-19.9,85.4-63.3,93.8l-245.4,47.7
	c-43.4,8.4-85.4-19.9-93.8-63.3l-47.7-245.4C112.8,113.4,141.1,71.4,184.5,63z"/>
</svg>
