<?xml version="1.0" encoding="utf-8"?>
<!-- Generator: Adobe Illustrator 21.0.0, SVG Export Plug-In . SVG Version: 6.00 Build 0)  -->
<svg version="1.1" id="Layer_1" xmlns="http://www.w3.org/2000/svg" xmlns:xlink="http://www.w3.org/1999/xlink" x="0px" y="0px"
	 viewBox="0 0 634 594" style="enable-background:new 0 0 634 594;" xml:space="preserve">
<style type="text/css">
	.st0{opacity:0.71;fill:#FD8369;enable-background:new    ;}
	.st1{opacity:0.53;fill:#56CAD8;enable-background:new    ;}
	.st2{fill:#FED385;}
</style>
<path id="Rectangle_273" class="st0" d="M605.9,93.4l16.5,13.3c6.4,5.2,7.4,14.7,2.2,21.1l-13.3,16.5c-5.2,6.4-14.7,7.4-21.1,2.2
	l-16.5-13.3c-6.4-5.2-7.4-14.7-2.2-21.1l13.3-16.5C590,89.2,599.5,88.2,605.9,93.4z"/>
<path id="Rectangle_274" class="st1" d="M551.5,75.1l3.1,2.5c3.4,2.8,4,7.8,1.2,11.3l-2.5,3.1c-2.8,3.4-7.8,4-11.3,1.2l-3.1-2.5
	c-3.4-2.8-4-7.8-1.2-11.3l2.5-3.1C543,72.8,548.1,72.3,551.5,75.1z"/>
<path class="st2" d="M133.9,98.2l187.2-57.2c73.9-22.6,152.2,19,174.8,93l57.2,187.2c22.6,73.9-19,152.2-93,174.8L273,553.1
	c-73.9,22.6-152.2-19-174.8-93L40.9,273C18.3,199,59.9,120.8,133.9,98.2z"/>
</svg>
