<svg id="OBJECTS" xmlns="http://www.w3.org/2000/svg" viewBox="0 0 435.28 161.24"><defs><style>.cls-1{fill:#e5e5e5;}</style></defs><title>Artboard 3</title><path class="cls-1" d="M309.46,47.7h.13a.75.75,0,0,0,.46-.24.94.94,0,0,1,.35-.23,1.91,1.91,0,0,1,.13-.59,2,2,0,0,1-.46.35c-.29.17-.58.36-.63.7Z"/><path class="cls-1" d="M261.92,66.15l.08,0-.06,0a1,1,0,0,1-.24,0A.36.36,0,0,0,261.92,66.15Z"/><path class="cls-1" d="M267.79,63.67l-.12.2.07-.06a.85.85,0,0,0,.1-.11Z"/><path class="cls-1" d="M140.45,72.84l0,0-.12-.09v0A.2.2,0,0,0,140.45,72.84Z"/><path class="cls-1" d="M310.84,46.14a.23.23,0,0,1-.12.05.73.73,0,0,1,0,.13Z"/><path class="cls-1" d="M355.26,87.36a.3.3,0,0,0,0,.14l.08-.17Z"/><path class="cls-1" d="M110,114.13a.52.52,0,0,0-.1-.14l.11.18Z"/><path class="cls-1" d="M200.54,92.64l0,0s0,.06.09.22l0,0,.08-.15h0l-.17,0v0Z"/><path class="cls-1" d="M2.39,1.86c.49-.39.32-.77.16-1.15A1.65,1.65,0,0,1,2.37.07L1.9.08,1.42.1A2.42,2.42,0,0,1,.87,0,1.7,1.7,0,0,0,.5,0,.49.49,0,0,0,.13.13S.09.22.07.26l0,0A1.46,1.46,0,0,0,0,.82C0,.91,0,1,0,1.11a2.26,2.26,0,0,0,1.6,1A1.74,1.74,0,0,0,2.39,1.86Z"/><path class="cls-1" d="M435.28,91.15V81.42a.47.47,0,0,0-.21-.05.25.25,0,0,0-.14,0,2.68,2.68,0,0,0-.83-.16,1.69,1.69,0,0,1-1.24-.46l-.55-.71a1.55,1.55,0,0,0-1.63-1c-.23,0-.46,0-.77,0a1.57,1.57,0,0,0-.46-.06l-.36,0-.35,0a1.17,1.17,0,0,1-.89-.32,1.42,1.42,0,0,0-1.22-.78,3.33,3.33,0,0,0-1.4.45h-1.35l-1.24-.4a10.83,10.83,0,0,0-3.75-1.75,17.5,17.5,0,0,1-2.37-.88,13.16,13.16,0,0,1-2.28-1.33,8.34,8.34,0,0,0-4-1.76,5.12,5.12,0,0,1-3.32-1.11,2.4,2.4,0,0,0-1.85-.89,5.67,5.67,0,0,0-1.43.25l-.32.08a6.65,6.65,0,0,0-1.54.69l-.67.36-.72.32a16.14,16.14,0,0,1-1.73.69l-.27.08c-.41.11-.78.23-.88.69h0a1,1,0,0,0,0,.27v.89c-.1.18.05.39.21.58s.27.35.22.49-.22.23-.56.33a.58.58,0,0,0,0,.18l-.37.21-.18.06a1.47,1.47,0,0,0-.38-.07,1.7,1.7,0,0,0-.69.24.64.64,0,0,1-.46.15h-.48a.62.62,0,0,0-.62.34l-.2.08a1,1,0,0,1-.4.11h0c-.31,0-.62,0-.91,0a2.17,2.17,0,0,0-2.51,2.27,1.13,1.13,0,0,1-.06.26v0a2.77,2.77,0,0,1-1.28,1.25,2.86,2.86,0,0,0-2.52,2.64,1.08,1.08,0,0,1-.27.53,1.66,1.66,0,0,0-.2.3c-.1.11-.21.21-.32.31a1.79,1.79,0,0,0-.76,1.19,2.87,2.87,0,0,1-.42.16,1.23,1.23,0,0,0-.87.6l-.68,1-.3.06a12.47,12.47,0,0,1-2.38.32,3.64,3.64,0,0,1-3-1.37l-.24-.57c0-.08,0-.13-.07-.14a.22.22,0,0,0,0-.27,1.88,1.88,0,0,1,.31-.59c.28-.42.57-.85,0-1.41a.71.71,0,0,0-.49-.24,1.1,1.1,0,0,0-.63.32,1.5,1.5,0,0,0-.19.17h0l-.34-1a5.16,5.16,0,0,1,0-.86c.06-.84.11-1.72-1-2.16,0-.08,0-.16-.07-.26a2.17,2.17,0,0,0-.53-.08,1,1,0,0,0-.18,0l-.14,0a.92.92,0,0,0-.35.18l-.07.07a2.57,2.57,0,0,0-.52,1.12l-.69-.9-.62-.8a1.47,1.47,0,0,0,.07-.44,5.45,5.45,0,0,1-.79-3.6c0-.27,0-.54,0-.81a4,4,0,0,1,.39-2.36,6.85,6.85,0,0,0,.41-1.31l0-1.24a2.47,2.47,0,0,0-1.23-2.39l-.49-.62a2.7,2.7,0,0,0-.12-.27c-.14-.26-.27-.51-.11-.8a1.59,1.59,0,0,0,.28-1.18c-.13-.42-.58-.66-1.1-.94l-.45-.24a2.65,2.65,0,0,0-1.38-.34,8,8,0,0,0-.95.08,7.55,7.55,0,0,1-.91.07A2.53,2.53,0,0,1,364,63a1.61,1.61,0,0,0-1-.42.59.59,0,0,0-.28.05c0-.07,0-.14-.12-.21a1.38,1.38,0,0,1-1-.6,2,2,0,0,0-.63-.51l-.13,0-.1,0-.12-.17a1.33,1.33,0,0,0-.71-.17h0a1.09,1.09,0,0,0-.27.06,11.54,11.54,0,0,0-3.35-1.39l-.44-.05a8.08,8.08,0,0,0-1-.09,2.87,2.87,0,0,0-.88.12l-2,0-1.08.6-.87.43-.26.4-.16,0a1.25,1.25,0,0,0-1,.81,1.06,1.06,0,0,1-.87.43h0a.25.25,0,0,0-.16.06v0s0,0,0,0a3.12,3.12,0,0,0-.75-.11,1.11,1.11,0,0,0-.94.44,1.62,1.62,0,0,0-.18.26l0,0-.14-.3a2.06,2.06,0,0,0-.64-.1,4.49,4.49,0,0,0-1.37.29l-.36.11a3.48,3.48,0,0,0-1.4,2.51,3.41,3.41,0,0,0,0,.64,2.54,2.54,0,0,1-.24-.54c-.15-.42-.3-.86-.86-1l-.22,0a2.52,2.52,0,0,1-.41-.07,1.29,1.29,0,0,1-.09-.86,2,2,0,0,0,0-.43l-.31-.1a.86.86,0,0,0-.45-.16.51.51,0,0,0-.44.27h-.14a8.12,8.12,0,0,0-1.59.37,1.49,1.49,0,0,1-.53.27l-.61,0-.63,0-.17.16-.25,0a1.16,1.16,0,0,0-.41.52v.06a1.44,1.44,0,0,0-.15,1.28v0h0v0a3.9,3.9,0,0,0,.66-.21,2.68,2.68,0,0,1,.95-.24,1.52,1.52,0,0,1,.39.05,2.1,2.1,0,0,1,.2.86,1.53,1.53,0,0,0,.49,1.19,5.34,5.34,0,0,0,2.3,2.36.6.6,0,0,0,.59.38,1.48,1.48,0,0,0,.88.4,2.3,2.3,0,0,1,.56.16l.13.1.14,0a1.16,1.16,0,0,0,.74.29,1.32,1.32,0,0,0,.75-.27h.21c.28,0,.56,0,.72-.31l4,1.53a1.53,1.53,0,0,1,.45,1.52,1.92,1.92,0,0,0,.17,1.23c0,1.19.77,1.74,1.73,2.29a2.45,2.45,0,0,0,.61.22c.47.13.92.25,1,.89.27.3.52.5.8.5a.82.82,0,0,0,.57-.29c.05-.22.2-.46.44-.46l.11,0c.21.06.45.09.68.14l.21,0a11,11,0,0,0,2,.19c.93,0,1.88-.09,2.8-.17l.75-.07a12.8,12.8,0,0,0,2.12.21,6.36,6.36,0,0,0,1.68-.21,3.16,3.16,0,0,0,.44-.31,2.72,2.72,0,0,0,.66-.12,2.71,2.71,0,0,1,.65-.12.64.64,0,0,1,.47.17,1,1,0,0,1-.1.62c-.59.85-1,1.27-1.52,1.27a3.27,3.27,0,0,1-1.42-.54l-.22-.12a2.68,2.68,0,0,0-1.29-.49,1.36,1.36,0,0,0-.8.28,3.6,3.6,0,0,0-2.33,1.4.93.93,0,0,0-.73,1,.57.57,0,0,0-.29.08c-.36.05-.48.35-.59.65s-.24.63-.69.63c-.74-.69-2.63-1-4.17-1a5.3,5.3,0,0,0-3.22.73.48.48,0,0,0-.12.65c.45,1,.92,2,2.2,2l.37,0a4.57,4.57,0,0,1,.59,0,3.14,3.14,0,0,1,2.77,1.59,6,6,0,0,1,.46.88v0a2.87,2.87,0,0,0,2,1.92l.13.63-.72,1.34a3.66,3.66,0,0,0,0,2.76,2.38,2.38,0,0,0,1.3,1.31,1,1,0,0,0,.45.35h0a.66.66,0,0,0,.21.06,1.65,1.65,0,0,0,.83-.35l.19-.13,1,.06a1.38,1.38,0,0,0,.88.46,2.61,2.61,0,0,1,.51.16,2.83,2.83,0,0,0,1.17,1,5.35,5.35,0,0,1,.66.4l.14.11a1.27,1.27,0,0,0,.68.36.52.52,0,0,0,.44-.32c.34-.58-.41-1.05-.65-1.21a6.79,6.79,0,0,0-.65-.35,2.61,2.61,0,0,1-1.47-1.28L363,94c.83-.29.74-.85.65-1.39a2,2,0,0,1,0-.76,2.35,2.35,0,0,1,1.22-.42,1.52,1.52,0,0,1,1,.44,1,1,0,0,0,.92.44,1.94,1.94,0,0,1,.5.09l.5.3a8.5,8.5,0,0,1,3.27,2.78l.15,0a.44.44,0,0,0,.42-.3.92.92,0,0,0,.28-.35c.1-.19.2-.36.36-.36a.59.59,0,0,1,.37.23A15.23,15.23,0,0,0,376,97.21l.71.37.24-.07.07.14a.65.65,0,0,0,.26.06c.25.68.86.88,1.45,1.07l.29.1,1,.27c.61.1,1.23.18,1.84.25.85.11,1.69.22,2.54.37a39.15,39.15,0,0,1,10.33,3.79l1.7.56c.56.21,1.13.38,1.7.55a21.63,21.63,0,0,1,2.45.85l.05,0c.25.11.5.23.74.37.07.27.26.3.46.33a.72.72,0,0,1,.28.08l.18.08.25.12s0,.11,0,.11a10.76,10.76,0,0,0,1.58,1.23,5.33,5.33,0,0,1,2.61,3l.06.29.08.31.36.22a2.71,2.71,0,0,1,1.53,1.63l.1.4c.47,1.83,1,3.73,2.62,5a1.81,1.81,0,0,1,.57,1.79,4.1,4.1,0,0,0-.28.72,3.76,3.76,0,0,1-.33.8,1.64,1.64,0,0,0-.1.22h0a1.21,1.21,0,0,0-.11.4.75.75,0,0,0,0,.17.77.77,0,0,0,0,.13.78.78,0,0,0,.37.39l0,0a1.2,1.2,0,0,0,.2.11l0,0h0l0,0h0l-.06,0,.06,0a.72.72,0,0,0,.18.29c.15.17.3.34.05.63a1.13,1.13,0,0,0-.06,1.29l.06.14a2,2,0,0,0-1,.33,2,2,0,0,1-1.5.61,2,2,0,0,0-1.59.71c-2.26,1.27-3.25,3.47-4.21,5.6l-.5,1.1s-.07,0-.1.08h0a.25.25,0,0,0-.07.18s0,0,0,0a.36.36,0,0,0,0,.11,5.22,5.22,0,0,1-.25.47c-.32.54-.64,1.1-.17,1.78a.85.85,0,0,0,.46.35h0a.64.64,0,0,0,.14,0,1.66,1.66,0,0,0,.64-.19,1.62,1.62,0,0,1,.64-.18l.65,0a3.45,3.45,0,0,1,.93-.13,3.33,3.33,0,0,1,1.6.42,3.64,3.64,0,0,0,1.68.5,1.83,1.83,0,0,0,.9-.22,2.41,2.41,0,0,1,1.19-.31,5.39,5.39,0,0,1,1.52.3l.12,0a2.93,2.93,0,0,0,.52-.16,1.69,1.69,0,0,0,.36,0,1,1,0,0,0,.75-.3v0h0l.13,0a1.37,1.37,0,0,0,.77-.6c.81-1.11,1.14-1.56,1.72-1.56a6,6,0,0,1,1.85.59,2.85,2.85,0,0,0,2.07-.64l.12-.12a1.41,1.41,0,0,0,.45.07,4,4,0,0,0,.66-.08,3.88,3.88,0,0,1,.65-.08h.32a3.47,3.47,0,0,1,.72.08l.16,0a.63.63,0,0,1,.39.16.71.71,0,0,0,.27.06h0a1.45,1.45,0,0,0,.76.8,1.91,1.91,0,0,1,.61.5,1.63,1.63,0,0,0,.93.89l.13.07.45.27.16.09c.09.38.41.51.73.64a8.25,8.25,0,0,1,1.37,1.69,6.41,6.41,0,0,0,1.91,2.09,3.23,3.23,0,0,1,.85.87,2.29,2.29,0,0,0,1.35,1h0a1.38,1.38,0,0,0,.24,0l.24,0,.35,0V122.29h-.21a6.57,6.57,0,0,1,.21-4.68Zm-80-3.79,0,0-.08.17A.3.3,0,0,1,355.26,87.36Z"/><path class="cls-1" d="M95.44,111.92l.14-.11c.18-.13.36-.26.38-.46a.59.59,0,0,0-.22-.44c-.37-.26-.32-.58-.26-.92a1.61,1.61,0,0,0,0-.41.58.58,0,0,1,.46-.27,1.24,1.24,0,0,1,.49.16,2.06,2.06,0,0,1,.32.17c.06.09.12.19.25.19h0a.12.12,0,0,1,.08,0l.33.72,1.38,1.52.65.7.29,0a1.77,1.77,0,0,0,1.32-.5,3.34,3.34,0,0,0,.69-2.43l.07-3.26.24-.18,0-.63v-.72l.17-.21.27-.34c.06-.18.09-.35.14-.52l.06-.22a7.9,7.9,0,0,0,.19-.94c0-.15,0-.29,0-.44a5.65,5.65,0,0,0,0-.74c0-.12,0-.24,0-.36a4.91,4.91,0,0,0-.18-.79c0-.1-.07-.19-.1-.29s-.08-.28-.15-.41l-.08-.83a9.61,9.61,0,0,1,.72-5.53c-1.5-2.52-1.49-3.19.12-5.1.14-.17.28-.35.42-.53l.17-.24a.7.7,0,0,0,.29-.13c.25-.42.43-.86,0-1.29-.35-.11-.33-.39-.31-.71a.81.81,0,0,1-.25-.52.77.77,0,0,0-.3-.53l-.09-.06h0l.18.07a5.76,5.76,0,0,0,1.41.41,4.6,4.6,0,0,1,1.74.6,2.51,2.51,0,0,0,2.24,1.36,4.22,4.22,0,0,0,1.45-.29l.08-.09h.14c1.71-.54,1.86-.82,1.41-2.65a1.71,1.71,0,0,0-.8-.19,4.16,4.16,0,0,0-1.17.23l-.27.1a1.47,1.47,0,0,1,.42-1.57,1.44,1.44,0,0,0,.46-1.23.51.51,0,0,0-.3-.63,1.54,1.54,0,0,0-1.48-.73l-.72,0-.44,0a2.49,2.49,0,0,0-.39,0,2.47,2.47,0,0,1-.41,0c-.27,0-.55-.09-.58-.74a.73.73,0,0,0,0-.14.69.69,0,0,0,0-.14.52.52,0,0,0-.13-.2l-.11-.08s-.06-.07-.11-.08a1.8,1.8,0,0,1-.8-1.72,8.74,8.74,0,0,0-1.05-4.43c-.66-1.25-1.21-1.93-2.18-1.93a4.41,4.41,0,0,0-1.56.37H100a2.5,2.5,0,0,1-.81-.2,2.55,2.55,0,0,0-.82-.2,1,1,0,0,0-.93.65,1.82,1.82,0,0,0-.94,1.83c0,.85-.4,1.21-1.34,1.23a.76.76,0,0,0-.57.34,1.69,1.69,0,0,1-.7.82.77.77,0,0,0-.25.86,1.56,1.56,0,0,0,.43.58,2.31,2.31,0,0,0,1.12.48,6.52,6.52,0,0,1,.86.18l.32.08a6.12,6.12,0,0,0,1.33.13l.65,0h.22c1,0,1.55.45,2,1.65A12.8,12.8,0,0,1,101,81.1c.05.24.11.47.18.7l0,.2-.26-.34a3.28,3.28,0,0,1-.7-1.23c-.43-1.78-.52-2.15-1.82-2.15-.3,0-.65,0-1.11,0l-.16,0a1.22,1.22,0,0,0-.59.22c-.32,0-.64-.08-1-.1-2.79-.18-2.79-.18-2.93-3l-1.27-.15c-1.11-.38-1.41-1.3-1.71-2.19a4.91,4.91,0,0,0-.67-1.46,3.49,3.49,0,0,1-.66-2.2,7.32,7.32,0,0,0-.15-1.07v0a2.82,2.82,0,0,0-.11-.43,1.76,1.76,0,0,0-.2-1,3.12,3.12,0,0,1-.19-.54,1.12,1.12,0,0,0-1.11-.81c-.24,0-.48,0-.73,0a4.39,4.39,0,0,1-1.52-.21,4.85,4.85,0,0,0-1.31.16,2.08,2.08,0,0,1-.58.08,4.41,4.41,0,0,1-3.78-2.86l1-1.28a5.7,5.7,0,0,1,.79-.44,2.53,2.53,0,0,0,1.27-1h0a1,1,0,0,0,.11-.33c.07-.69-.53-.89-1.12-1.08a3.21,3.21,0,0,1-.77-.33c-.16-.11-.24-.21-.24-.29s.14-.18.28-.26.32-.19.31-.31l.48-.14.61-.15h.33c.31,0,.65,0,.78-.24s.06-.5-.16-.95l-.37-.58a3.11,3.11,0,0,1,0-.51,1.52,1.52,0,0,0-.34-1.25l0-.47c-.27-1.32-1.35-1.53-2.42-1.75l-.82-.22L77.77,51c.05-.22.16-.32.35-.32a1.34,1.34,0,0,1,.27,0l.15,0,.23,0a1,1,0,0,0,.59-.2l.09-.08s.1-.07.13-.12a.84.84,0,0,0,0-.16l0-.08a.85.85,0,0,0,0-.35l0-.08a.83.83,0,0,0,0-.17,6,6,0,0,1-.42-1.43,5.78,5.78,0,0,0-.41-1.39l0-.1c-.18-.37-.38-.8-.8-.8a.86.86,0,0,0-.36.09,1,1,0,0,0-.65,1.46l.09.24a1.9,1.9,0,0,1,.15,1.5,1.08,1.08,0,0,1-.13.19l0,0a1.53,1.53,0,0,1-.27.24.48.48,0,0,0-.06-.25h-.13a1,1,0,0,0-.15,0h0a1.13,1.13,0,0,0-.45.19l-.05,0a1.42,1.42,0,0,0-.18.13s-.08,0-.1.13,0,.1,0,.13a2.77,2.77,0,0,1-.44.34l-.16.08a.4.4,0,0,0,0-.56,1,1,0,0,0,.39-.5c0-.05.06-.1.08-.16l0-.06a.7.7,0,0,0,.3.08c.25,0,.43-.2.55-.61A3.26,3.26,0,0,0,74,46a.87.87,0,0,0-.28-.06l-.36-.66a1.17,1.17,0,0,0-1.09-.68,1.74,1.74,0,0,0-.5.08,2,2,0,0,1-.54.09c-.58,0-.77-.42-.93-1.2a3.12,3.12,0,0,1,0-.37,1.3,1.3,0,0,0-.27-.87,3.11,3.11,0,0,0-1.25-1.18h0a2.19,2.19,0,0,0-1-.24c-.08,0-.17,0-.25,0h0A2.92,2.92,0,0,0,67,41a.55.55,0,0,0-.18.12l-.59-.28-.62-.29-.29.13a.91.91,0,0,0-.58.3.86.86,0,0,1-.55.29l-.2,0A1.22,1.22,0,0,0,64,41l-.4-.14-.39-.12a1.59,1.59,0,0,0,0-.19,16.13,16.13,0,0,0-.09-1.9v-.1c0-.2,0-.4-.07-.59l-.39-.59-.25-.13a.4.4,0,0,1,0-.27.69.69,0,0,0-.8-1h0a3.94,3.94,0,0,1-1.93.56,4.57,4.57,0,0,1-3.17-1.6c-.19-.19-.39-.35-.6-.52l-.27-.23a1.49,1.49,0,0,0-1-.49c-.5,0-.85.49-1.18,1l-.19.28-.08.87a1.29,1.29,0,0,1-.65.18,2.76,2.76,0,0,1-1.13-.35l-.15-.06a1.66,1.66,0,0,0-.15-.21L51,35.19a3.12,3.12,0,0,0-.74-.63,2.1,2.1,0,0,1-.48-1.13,2,2,0,0,0-.53-1.19l-.71-1.57a1.67,1.67,0,0,0-.82-.75,1.76,1.76,0,0,1-.83-.76,5,5,0,0,0-2.69-2.29l-7-5.43a1.7,1.7,0,0,0-.46-.23l-.19.07a2.19,2.19,0,0,0-.65-.12h-.2a4.8,4.8,0,0,0-2.65-2.27l-.54-.29-.66-.75A2.17,2.17,0,0,0,31,17a2.26,2.26,0,0,1-.79-.8l-.06-1c.06-1.2-.8-1.56-1.64-1.91l-.15-.06-.17-.05c-.11,0-.24-.07-.26-.12l-.05-.16c-.73-2.14-1.48-4.36-4.07-5.13-.13,0-.21-.21-.3-.4a1.5,1.5,0,0,0-.24-.4l-.18-.19c-.31-.33-.6-.65-1-.65a.9.9,0,0,0-.18,0h0a1.54,1.54,0,0,0-.65.39,1.08,1.08,0,0,1-.77.28,3.32,3.32,0,0,1-1.27-.33,6.53,6.53,0,0,0-2.59-.53,6.86,6.86,0,0,0-1.85.25,13.61,13.61,0,0,1-3.7.53h-.2L8.46,5.35a7.54,7.54,0,0,0-4.08-3l-.47,0-.49,0a1.42,1.42,0,0,0-.52.08,3.77,3.77,0,0,1-.7.16C1.54,2.68.84,2.8.69,3.77a5,5,0,0,0,0,2.34c0,.28-.07.57.26.73.14.19,0,.37-.13.56a.66.66,0,0,0-.19.47.46.46,0,0,0,.26.3h0a.49.49,0,0,1,0,.31l2.28,3.73a2,2,0,0,0,.93.88l.19.12L6,14.83l1,1.38c.19.59.71.79,1.2,1s1,.39,1.17.95a1,1,0,0,0,.7.68l1.57,1.42c.08.12.16.26.23.39a1.81,1.81,0,0,0,.86.94A6.88,6.88,0,0,1,17.86,25a2.13,2.13,0,0,0,.61.56,2.91,2.91,0,0,1,.34.28l0,0h0l0,0h0l0,0,0,0h0a2.22,2.22,0,0,0,.68,1.36A8.26,8.26,0,0,0,21.33,29a6.54,6.54,0,0,1,2.1,2.4l0,0a3.52,3.52,0,0,1,.14.46c0,.1,0,.2.06.31a3.69,3.69,0,0,1,.05.38,2,2,0,0,0,.08,2.33c.32.79,1,.83,1.67.85h.18a12.12,12.12,0,0,1,3.93,1.12l.26.44a4.39,4.39,0,0,1,2.13,1.45c.18.18.35.36.53.53a1.2,1.2,0,0,0,1,.7.23.23,0,0,0,.15,0h0c0,.22,0,.44,0,.67a4.83,4.83,0,0,1,0,1.05c.17.54.37,1.07.56,1.61a15.82,15.82,0,0,1,1.1,4.17,11.23,11.23,0,0,0,.88,3.33A11.87,11.87,0,0,1,37,53.93c0,.35.38.58.68.71l.11,0,.11.09c2.1.5,4.07,1.14,5,3.3a4.36,4.36,0,0,0,1,1.63,6.45,6.45,0,0,1,.73,1c.1.22.24.44.5.44a.39.39,0,0,0,.15,0,1.8,1.8,0,0,0,1,1l.42.63.42.61a.66.66,0,0,0,0,.26l.46.84a17.09,17.09,0,0,0,1.7,2.71l0,0h0a1,1,0,0,0,.28,1.05,5.2,5.2,0,0,1,1.89,3.09,9,9,0,0,0,.78,1.93,2.85,2.85,0,0,0,1.08,1.55,1.15,1.15,0,0,1,.48.66l.06.09v0h0c-1.37,1.28-1.32,1.76.38,3.68L56,81.31a1.66,1.66,0,0,0,.51.72l.53.38c.25.17.5.35.74.54a3.22,3.22,0,0,0,.6.32.86.86,0,0,0,.3.5,6.11,6.11,0,0,0,1.57,2.49,1.4,1.4,0,0,0,.72,1.18l.3.25a17.84,17.84,0,0,0,3.41,2.42.77.77,0,0,0,.42.5.62.62,0,0,0,.24,0h0l0,0v.09l.34.16.42.21a.78.78,0,0,0,.15.69,4.56,4.56,0,0,1,.5,1.31,2.63,2.63,0,0,0,1.42,2.08,1.07,1.07,0,0,0,1.06.66h0L70.66,97a1.1,1.1,0,0,0,.88.57h0l.77.61a1.48,1.48,0,0,0,1,.71,1.69,1.69,0,0,1,.82.85c.27.45.54.91,1.18.91h0a.28.28,0,0,0,.15.19h0a.31.31,0,0,0,.12,0h.07A10.3,10.3,0,0,0,78.62,103l.53.29c2,1.09,4.06,2.22,5,4.58a4,4,0,0,0,1.57,1.65l.4.28,0,.14c.11.64.23,1.3,1,1.35a.76.76,0,0,0,.72.59l.51,0c.4.81.81,1.19,1.28,1.19a1.64,1.64,0,0,0,1.06-.54c0-.07,0-.14,0-.21a.92.92,0,0,1,.09-.42c.15-.25,0-.5-.16-.75s-.24-.39-.19-.56.16-.22.38-.31a1.2,1.2,0,0,1,.46-.1,2,2,0,0,1,1.38.82,2.93,2.93,0,0,0,2.36.89Z"/><path class="cls-1" d="M197.59,93.32c.06.09.11.18.15.27a2.86,2.86,0,0,0,.18.31,1.11,1.11,0,0,0,.22.61.71.71,0,0,0,.42.85.49.49,0,0,0,.18,0c.22,0,.34-.19.45-.38l.09-.15.65-.28a4.25,4.25,0,0,1,.5-.49,1.69,1.69,0,0,0,.81-1.62h0l.06-.12a1.24,1.24,0,0,0-.08-.21,1,1,0,0,0-.15-.37.88.88,0,0,1-.15-.42.48.48,0,0,1,0-.09.42.42,0,0,1,0-.08h.49a.62.62,0,0,0,.47-.15.64.64,0,0,0,.12-.5c0-.21,0-.47,0-.73,0-.58,0-1.17-.18-1.4-.06-.06-.13-.09-.31-.09h0c-.66,0-.7-.3-.75-.61a1.17,1.17,0,0,0-.1-.38c-.6-1.13-.07-2.06.53-2.91.29-.2.21-.46.11-.68a1.64,1.64,0,0,1,.1-1.13,3.61,3.61,0,0,0,.14-.47.89.89,0,0,1,.08-.69.37.37,0,0,1,.3-.11,1.48,1.48,0,0,1,.38.07A4.41,4.41,0,0,0,203.84,79a2.33,2.33,0,0,0,0-1.7,1,1,0,0,0-.49-.44.92.92,0,0,1-.64-.36,1.21,1.21,0,0,1,.05-.92,2.74,2.74,0,0,0-.19-2.26c-.15-.25-.21-.44-.16-.56a.21.21,0,0,1,.14-.13,1.66,1.66,0,0,0,1-1.34,2.93,2.93,0,0,1,.32-.8,6.8,6.8,0,0,1,1.56-.86,4.18,4.18,0,0,0,2.36-1.85l1-1a2.91,2.91,0,0,1,2.21-1.08,5.75,5.75,0,0,0,1.17-.27l.08-.15c.12-.23.23-.44.51-.52.33-.28.59-.54.45-1a1.86,1.86,0,0,1,.06-2.27,1.09,1.09,0,0,0,.24-.52s0,0,0,0a.57.57,0,0,0,0-.2.72.72,0,0,0-.53-.43c-.73-.23-1.1-.48-1.21-.81s0-.73.42-1.33a1.44,1.44,0,0,0,.34-1.39c-.72-2.05.31-3.59,1.29-4.71a6.41,6.41,0,0,1,.59-.76,3.39,3.39,0,0,0,.88-1.47,2,2,0,0,0,.05-.44,2.76,2.76,0,0,1,.53.12,2.35,2.35,0,0,0,.62.12.56.56,0,0,0,.41-.15,2,2,0,0,0,.6-.15,16.63,16.63,0,0,0,2.22.12,11.58,11.58,0,0,1,3.18.33,3.13,3.13,0,0,0,.87.14,2,2,0,0,0,1.79-1.17l.69-1c.32-.6.44-.91.33-1.11s-.49-.3-1.34-.38a7.48,7.48,0,0,0-.51-.67l-.17-.23a9,9,0,0,0-.62-.67l-.13-.12a20.77,20.77,0,0,0-2.83-2.14c-.7-.47-1.43-.95-2.09-1.47a1.29,1.29,0,0,0-1-.7l-.37-.24a3.38,3.38,0,0,1-1.47-1.91l-.08-.15a.18.18,0,0,0,0-.28,4.06,4.06,0,0,1,.8-1.17,3.35,3.35,0,0,0,.91-1.51c.37-.54.08-.92-.21-1.29l-.18-.24c-1.73-1.17-2.44-3-3.12-4.75-.24-.61-.48-1.23-.76-1.82-.17-.36-.14-.5.19-.76,1-.77.66-1.77.27-2.56a.79.79,0,0,0-.32-.26c.05-.45.39-.65.86-.87a1.9,1.9,0,0,0,1.07-1,1.6,1.6,0,0,0-.16-1.26A.56.56,0,0,0,215,20h-.25a.53.53,0,0,1-.43-.16.44.44,0,0,1-.32-.17.61.61,0,0,1,0-.46,1.91,1.91,0,0,0,1-.38,1.9,1.9,0,0,1,1-.38,1.94,1.94,0,0,1,.38,0s.06,0,.09,0l0,0s.06,0,.08,0a.6.6,0,0,0,0-.53l-.08-.21a2.1,2.1,0,0,0-.94-1.32h0a1.71,1.71,0,0,0-.73-.14h0l-.73,0-1.22,0H212a4.38,4.38,0,0,0-1.82-1.21h0a4,4,0,0,0-1.29-.22,5.58,5.58,0,0,0-1,.09,18,18,0,0,1-3.08.28,13.55,13.55,0,0,1-3.2-.37,1,1,0,0,0-.46-.36h0a.59.59,0,0,0-.17-.05.77.77,0,0,0-.41.13,6,6,0,0,0-.68.35,2.75,2.75,0,0,1-1.28.49,1.52,1.52,0,0,1-1.17-.68.51.51,0,0,0-.41-.18,1.11,1.11,0,0,0-.69.27c-.17.15-.36.29-.55.44a3,3,0,0,0-1.31,1.58.44.44,0,0,0-.05.21c-.08.3-.14.6-.21.9a14,14,0,0,1-.72,2.44,4.87,4.87,0,0,0-.24,2.35,5.55,5.55,0,0,1-.1,1.92,1.5,1.5,0,0,0-.25,1v.21c0,1.21-.53,1.8-1.54,1.8a3.28,3.28,0,0,1-.49,0,2.24,2.24,0,0,0-.36,0c-1,0-1.34.85-1.54,1.65a1.49,1.49,0,0,0,0,.59,1,1,0,0,1-.12.85,3.32,3.32,0,0,1-.15.35c-.2.42-.41.86.14,1.3.2.16.3.3.3.42s-.16.25-.31.35a.77.77,0,0,0-.29.28,2,2,0,0,0-1,.94,2.25,2.25,0,0,0-1.35,1.17,2.75,2.75,0,0,0,.22,2.16,1.53,1.53,0,0,1,.07.89,3.43,3.43,0,0,0-1.34,2.11c-.45.11-.59.6-.7,1s-.16.55-.33.55l-.11,0a2.53,2.53,0,0,0-1.07-.23,5.71,5.71,0,0,0-1.53.28,5.52,5.52,0,0,1-1.47.28,2.32,2.32,0,0,1-.72-.11h-.22a2.22,2.22,0,0,0-1.82.9,1.76,1.76,0,0,1-1.42.67,5.38,5.38,0,0,1-1.07-.15,5.37,5.37,0,0,0-1.08-.15,1,1,0,0,0-.32,0c0-.08-.07-.17-.1-.27l-.67-.4h-.64a5.46,5.46,0,0,0-.4-.39l-.15-.15a4.67,4.67,0,0,0-1.53-.92l-.22-.07a5.11,5.11,0,0,0-1-.2l-.23,0c-.14,0-.26,0-.4,0a7.25,7.25,0,0,0-.88.05,8.77,8.77,0,0,1-1,.05h-1a4.06,4.06,0,0,0-3.28,1.12,1.67,1.67,0,0,0-.78,1.42,2,2,0,0,1-.45,1.18.19.19,0,0,0-.14.05.11.11,0,0,0,0,.13,4.7,4.7,0,0,0-1.43.62,3.69,3.69,0,0,1-1.81.66,2.41,2.41,0,0,1-.67-.1l-.11.06a.57.57,0,0,0-.23.16h-.25a4.36,4.36,0,0,1-1.31-.27A4.36,4.36,0,0,0,153.2,46H153l-.64-.06a1.33,1.33,0,0,0-.68-.18,3.37,3.37,0,0,0-.82.14,3.27,3.27,0,0,1-.81.14h-.21a4.41,4.41,0,0,0-2.06.94,1.78,1.78,0,0,1-1.18.49,2.12,2.12,0,0,1-1.17-.41l-.1,0a1.85,1.85,0,0,0-.66-.16.23.23,0,0,0-.13,0,5,5,0,0,0-2.27-2.12l-.26-.16-.33-.11c-.08-.11-.18-.19-.26-.29l-.24-.27a7.86,7.86,0,0,0-1.2-1,1,1,0,0,0-.66-.66A16.79,16.79,0,0,1,137,38a1,1,0,0,0,.59-.48.49.49,0,0,0,0-.39c-.06-.13-.13-.19-.22-.19s-.28.15-.42.29h-.34a3,3,0,0,0-2.73,1.05s0,.16,0,.16c-.25.36-.52.72-.79,1.07a9.38,9.38,0,0,0-1.74,2.94c-.11.53-.18,1.08-.25,1.62a8.46,8.46,0,0,1-1.38,4.29.66.66,0,0,0-.28.44.75.75,0,0,0,.24.55A1,1,0,0,1,130,50a1.3,1.3,0,0,0,.22.6V51a5.49,5.49,0,0,1,0,.91c-.08.8-.17,1.64.67,2.15a3.61,3.61,0,0,1,1.75,3.31v.31c-1.31.77-1.54,1.75-.77,3.26.16.31.34.6.53.9a4.11,4.11,0,0,1,.91,3.21c-.1.1-.14.18-.12.23s.1.09.24.1c.69,0,1.44.13,1.71.59s.14.79-.15,1.43a1,1,0,0,0,0,1.37,1.54,1.54,0,0,0,1.17.63,2.14,2.14,0,0,0,1.41-.69,2,2,0,0,1,1.34-.64,2.15,2.15,0,0,1,1.11.36l1,2.32-.71,2v0c-.61.76-.89,1.11-.85,1.42s.33.51.9.94l0,.14.28.09a1.59,1.59,0,0,1,.69.34.8.8,0,0,1,.1.1,4.14,4.14,0,0,1,.09,1.61,3.78,3.78,0,0,0,.17,1.81,2.44,2.44,0,0,1,.47,1.14,2.84,2.84,0,0,0,.53,1.27l-.07,2.2a1,1,0,0,0-.21.57v0a.92.92,0,0,0,0,.22,1.54,1.54,0,0,0,.67.93.83.83,0,0,0,.23.06l.07,0a.85.85,0,0,0,.13,0,2,2,0,0,0,1.08-.5,4.38,4.38,0,0,1,.5-.32l1,.05.09.15a2.17,2.17,0,0,0,1,1.1h0a.8.8,0,0,0,.23.06,1.68,1.68,0,0,0,.89-.33.44.44,0,0,1,.24-.06.59.59,0,0,1,.55.37,1,1,0,0,0,.93.58,2.12,2.12,0,0,0,.77-.17l.61-.41A5,5,0,0,1,153.92,85a3,3,0,0,1,1.82.72.71.71,0,0,0,.25-.1l.14-.07h.17l.14-.13a2.64,2.64,0,0,1,.95-.24h.29a6,6,0,0,1-.16.73,3.09,3.09,0,0,0-.13,1.52,4.07,4.07,0,0,0,.18.7,2.52,2.52,0,0,1,.18,1.17.73.73,0,0,1-.12.71.87.87,0,0,0-.15.72,5.15,5.15,0,0,0,1.19.19,1.69,1.69,0,0,0,1.42-.7,2.82,2.82,0,0,1,4.44-.82,2,2,0,0,0,1.06.44c.44,0,.74-.32.86-.92.27-.15.55-.27.84-.4,1.06-.47,2.15-1,2.24-2.56,0-.12.06-.13.09-.13a1.15,1.15,0,0,1,.45.23,2,2,0,0,0,.32.19l.25.33a1.13,1.13,0,0,0,.78.6,2.25,2.25,0,0,0,1.19.55l.47.13a.68.68,0,0,0,.22,0,1.76,1.76,0,0,0,.6-.15,1.74,1.74,0,0,1,.59-.15.78.78,0,0,1,.57.26l-.31.66c-.31.8.17,1.28.69,1.72a1.79,1.79,0,0,0,.7.2.79.79,0,0,0,.57-.25,3.63,3.63,0,0,1,2.39-1,3.33,3.33,0,0,1,.67.07,2,2,0,0,0,1.11.43,5.76,5.76,0,0,1,.78.17,2.08,2.08,0,0,1,1.46.78,3.24,3.24,0,0,1,.45,3,3.72,3.72,0,0,0,.61,3,1.17,1.17,0,0,0,.77.32,1.56,1.56,0,0,0,.87-.32l2.22-.79,2.28-.81.18-.06a1.65,1.65,0,0,0,1.17-.83l0,0,0-.05a.85.85,0,0,0,.34.09c.27,0,.46-.19.6-.59,0-.16.11-.24.34-.24h0a1.16,1.16,0,0,1,.68-.16l.6,0a.93.93,0,0,0,1.06-.77,1.62,1.62,0,0,0,.67.11h.52A1,1,0,0,1,197.59,93.32Zm3.12-.64h0l-.08.15,0,0c-.1-.16-.1-.21-.09-.22l0,0h0v0Zm-60.41-20,.12.09,0,0a.2.2,0,0,1-.14-.1Z"/><path class="cls-1" d="M305.27,136.18A2.37,2.37,0,0,1,305,136a8.1,8.1,0,0,0-2.71-.56,4.48,4.48,0,0,0-2.77.94,2.13,2.13,0,0,1-1.21.51,1.28,1.28,0,0,1-.7-.22c0-.26-.22-.3-.39-.34a1,1,0,0,1-.23-.08,2.24,2.24,0,0,1-.47,0h-.22l-.55,0a2.37,2.37,0,0,0-1,.31,2.5,2.5,0,0,1-1.39.31,3.17,3.17,0,0,0-1.11.16,7.24,7.24,0,0,0-.79,0,2.08,2.08,0,0,0-.94-.2,19.42,19.42,0,0,0-3.31.43c-.27.06-.56.1-.85.14-1.11.16-2.25.33-2.72,1.38-.9,2-2.56,2.74-4.31,3.51-.38.17-.75.33-1.12.51a21.14,21.14,0,0,0-7.38,3.84,2.88,2.88,0,0,0-1.32,1.89,9.39,9.39,0,0,1-.63,2.45,11.74,11.74,0,0,0-.39,1.27l0,.13v.05l-.22,0a1.86,1.86,0,0,0-1.21.74l-.17.23a1.78,1.78,0,0,0-.53,1.26c.25,1.61-.85,2.28-1.92,2.94l-.24.14a3.28,3.28,0,0,0-.59.42l0,0a1.22,1.22,0,0,0-.2.21,2.12,2.12,0,0,0-1.05.59s-.09.08-.08.09c.14.22,0,.55-.05.88s-.21.71,0,.95c0,0,.06,0,.08.05l0,0a1.07,1.07,0,0,0,.69.18h.29l.42-.22.22.09c.28,0,.57-.08.86-.1,1.22-.11,2.47-.23,2.83-1.93a2.3,2.3,0,0,0,.69-2.25c0-.17,0-.34,0-.5a1,1,0,0,1,.16-.69.33.33,0,0,1,.25-.09,1.79,1.79,0,0,1,.63.19,12.44,12.44,0,0,0,1.9.18A4.46,4.46,0,0,0,274,155a4,4,0,0,1,2.7-1,6.88,6.88,0,0,1,.81.05l.35,0a1.13,1.13,0,0,0,.7-.22h0a1.45,1.45,0,0,0,.5-1l.15,0,.32-.36.4-.4c.34-.17.69-.34.64-.77a.78.78,0,0,0,.6-.59l.14-.19a1.46,1.46,0,0,1,1.2-.79.74.74,0,0,0,.36-.24,2.27,2.27,0,0,0,.57-1.13c.17-.57.32-1.1,1-1.32a13.56,13.56,0,0,0,2.14-1,9.14,9.14,0,0,1,3.27-1.29.89.89,0,0,1,.45-.11l.34,0,.34,0a.87.87,0,0,0,.62-.22l.37-.21a4.37,4.37,0,0,0,.77-.49,5.66,5.66,0,0,1,2.74-1c1.34-.25,2.72-.51,3.51-2a.39.39,0,0,1,.28-.11,7,7,0,0,0,2.95-1,14.24,14.24,0,0,1,1.33-.63,2,2,0,0,0,.34-.14l0,0a3.72,3.72,0,0,0,1.45-1.4l.3-.42C305.89,136.51,305.57,136.34,305.27,136.18Z"/><path class="cls-1" d="M265.62,138.76a4.06,4.06,0,0,1,1.44.26.74.74,0,0,0,.23-.07.64.64,0,0,0,.45.18,1,1,0,0,0,.17,0h0a1.06,1.06,0,0,0,.23-.06c.15-.05.17-.14.14-.18a10.43,10.43,0,0,0,3.87-2.63h.07l0,0h0a1.46,1.46,0,0,0-.24,1.21,1.75,1.75,0,0,0,1.12,1,2,2,0,0,0,1.39.65,1.49,1.49,0,0,0,.16,0l.12,0a1.67,1.67,0,0,0,.51-.19l.09-.05a2.12,2.12,0,0,0,.28-.18,2.23,2.23,0,0,1,1.46-.44,4.19,4.19,0,0,0,.72-.08,3.35,3.35,0,0,1,2.11-.53h.59a6.27,6.27,0,0,0,1.4-.13,1.28,1.28,0,0,0,1.07-.64,1.7,1.7,0,0,0,1.27-.34,1.61,1.61,0,0,0,.31-1.22c0-1-.46-1.25-1.12-1.25l-.66,0c-.7,0-1.41,0-2.11,0l-1.88,0h-.21c-.27,0-.55,0-.82,0s-.55,0-.82,0a4.2,4.2,0,0,1-1.18-.15l-.71.66a1.73,1.73,0,0,1-1.22.69c-.47,0-.92-.31-1.39-1a.92.92,0,0,0-.75-.46,1.09,1.09,0,0,0-.68.28,3,3,0,0,1-2,.64c-.29,0-.58,0-.88,0s-.59,0-.88,0h-.2l-.31-.09a.69.69,0,0,0-.49-.21,1.28,1.28,0,0,0-.62.23,1.74,1.74,0,0,1-.84.31c-.47,0-.57-.5-.67-1,0-.16-.06-.33-.11-.48a1,1,0,0,0-.72-.38,1.09,1.09,0,0,0-.61.22,1.44,1.44,0,0,0-1.19.5c-.28.46,0,1.14.29,1.87l0,.06v0a5.7,5.7,0,0,0-.77-.06,2.23,2.23,0,0,0-.83.16l-.08,0a1.48,1.48,0,0,0-.49.35l0,.05a2.13,2.13,0,0,0-.41.75c-.28.9-.76,1.35-1.45,1.35a2.81,2.81,0,0,1-1.38-.46.39.39,0,0,0-.38-.21H256l-.15,0a3.43,3.43,0,0,1-.29-.39c-.24-.36-.5-.74-1-.74a1.43,1.43,0,0,0-.31,0c-.51.11-1,.26-1.53.41a10.92,10.92,0,0,1-3,.58,4.22,4.22,0,0,1-2.94-1.17.67.67,0,0,0-.43-.09h-.21a1.85,1.85,0,0,0-1.72-.69,2.42,2.42,0,0,1-1.31-.27c-.07-.2-.22-.23-.38-.26a.54.54,0,0,1-.3-.13l-1-.07a1.86,1.86,0,0,0-1.18-.44,3.86,3.86,0,0,0-1.47.41,4.85,4.85,0,0,1-1.24.4.18.18,0,0,0-.12-.08.15.15,0,0,0-.12.09,9.73,9.73,0,0,1-1.22.73c-1.06.56-2.15,1.15-2.43,2.58a.58.58,0,0,1-.37.16.85.85,0,0,1-.52-.28.89.89,0,0,0-.54-.29.15.15,0,0,0-.13,0h0a2.64,2.64,0,0,0-1.27-1.8l-.15-.1-.72.31a2,2,0,0,0-.49,1.27,3.71,3.71,0,0,1-.14.69c0,.06-.08.09-.2.09h0a1.21,1.21,0,0,0,0,1.71,1.77,1.77,0,0,0,1,.37,1.36,1.36,0,0,0,1.08-.7l.21-.29a1.86,1.86,0,0,0,.84,1.16,3.5,3.5,0,0,0,.44.27h0l0,0a1.2,1.2,0,0,0,.17,0l.12,0a1,1,0,0,0,.57-.35,1.31,1.31,0,0,0,.47.45,1.83,1.83,0,0,0,.51.16c.63.06,1.25.07,1.72.07h2.3a4.25,4.25,0,0,1,1-.12c.35,0,.7,0,1.05.06s.71.06,1.06.06a4.08,4.08,0,0,0,1-.11l-.07.1a1,1,0,0,0,1,.6l.45,0,.3,0a.74.74,0,0,1,.37-.13.34.34,0,0,1,.17,0,.72.72,0,0,1,.19.5,1,1,0,0,0,.58.19l.22,0,.86-.23a16.23,16.23,0,0,1,4.2-.75,7.47,7.47,0,0,1,1.86.23.71.71,0,0,0,.28-.11,8.07,8.07,0,0,1,2.1-.62A7.17,7.17,0,0,0,256,141a5.11,5.11,0,0,1,1.56-.16,7.88,7.88,0,0,0,.94,0,3.19,3.19,0,0,0,.82-.24,2.94,2.94,0,0,1,.78-.23,9.62,9.62,0,0,0,2.55-.77A8.12,8.12,0,0,1,265.62,138.76Z"/><path class="cls-1" d="M195.18,135.44c-1.17-1.42-2.38-2.7-4.37-2.77l-.11,0a.23.23,0,0,1-.16-.07.62.62,0,0,0-.38-.15s-.08,0-.12,0l-.05,0a.57.57,0,0,0-.16.05l-.35.25c-.24.17-.48.34-.73.5a4,4,0,0,1-4.74-.59l0,0a1.92,1.92,0,0,1-.19-.29,4.51,4.51,0,0,1,0-.67c0-.66.09-1.33-.69-1.78h-1a3.75,3.75,0,0,1-.91-.36,2.81,2.81,0,0,0-1.26-.4h-.12l-.29-.32a1.41,1.41,0,0,0-.82-.28,2.51,2.51,0,0,0-1.37.6l-2.69.12-.28,0-.28,0a.66.66,0,0,0-.62.34.46.46,0,0,1-.2,0h0a7.71,7.71,0,0,1-3.79-1.34c-.81-.53-1.21-1-1.21-1.5a1.46,1.46,0,0,1,.47-.93,4.28,4.28,0,0,1,.72-.57l0-.07h0l.46,0a6.34,6.34,0,0,1,.47.52,2.76,2.76,0,0,0,1.72.58,6,6,0,0,0,2-.45l.54-.36c.43-.1.52-.42.58-.83l0-.12a.12.12,0,0,0,0,0l.87,0,.56-.24.17-.07a6.19,6.19,0,0,1,2.14-.43l.45,0c.7-.28,1.06-.6,1.12-1s-.18-.75-.7-1.19a.7.7,0,0,0-.5-.15h-.25a.57.57,0,0,1-.59-.3.66.66,0,0,0-.45-.22,1,1,0,0,0-.65.4,12.08,12.08,0,0,1-2.72.24h-1.41c-.42,0-.85,0-1.27,0s-.62,0-.94,0h-1a7,7,0,0,0-2.77.43l-.37.36a2.54,2.54,0,0,1-1.09.39.85.85,0,0,1-.72-.41,1.69,1.69,0,0,0-1.5-.77,6.27,6.27,0,0,0-.83.07,1.61,1.61,0,0,0-.69-.11l-1.41-.22a2.1,2.1,0,0,0-2.1-1h-.57c-.2,0-.39,0-.58,0a5.65,5.65,0,0,1-.68-.54,2.46,2.46,0,0,0-1.52-.82,1.75,1.75,0,0,0-1,.37l-.64,0a1.25,1.25,0,0,1-.51.13c-.54,0-.82-.51-1-1a2.36,2.36,0,0,0-1.78-1.48l-2,0c-1.71.18-1.93,1.39-2.13,2.55-.05.31-.11.62-.19.91-.36,1.19-.72,1.57-1.49,1.57A5.9,5.9,0,0,1,143,122a4.26,4.26,0,0,0-1.08-.17,2.13,2.13,0,0,0-.61.09v0l-.09-.06-.05,0h0l-.73-.11c-.31-.05-.63-.11-.94-.14l-.29-.07a8.8,8.8,0,0,0-2-.32,4,4,0,0,0-.53,0h-.34a1.75,1.75,0,0,0-.51-.07,4.39,4.39,0,0,0-1.21.24,4.33,4.33,0,0,1-1.2.24,1.73,1.73,0,0,1-1.09-.38l-.31,0-.68-.1-.71-.11c-1.51-.21-2.93-.4-3.23-2.73a3.29,3.29,0,0,0-2.81-2.7,2,2,0,0,0-.42,0,6.69,6.69,0,0,1-1.44.15,13.24,13.24,0,0,1-3.43-.6c-.44-.12-.89-.24-1.33-.33-.19-.19-.37-.4-.55-.62A3.47,3.47,0,0,0,115.7,113l-.12,0a2,2,0,0,0-.38-.07,5.76,5.76,0,0,1-.79-.25,3.59,3.59,0,0,0-1.14-.29c-.62,0-1,.48-1.13,1.49a2,2,0,0,1-1.11.33,3.35,3.35,0,0,1-.87-.15l-.3-.1,0,0-.84-.27a9.42,9.42,0,0,0-2.9-.62,4.41,4.41,0,0,0-1,.11.63.63,0,0,1-.3.09c-.17,0-.33-.08-.57-.34l-.13-.51-.23-.06a1.31,1.31,0,0,0-.35-.07.62.62,0,0,0-.46.24h-.24a4.85,4.85,0,0,0-2,3.63c-.12.15,0,.33.11.58a2,2,0,0,0-.06.48l-.2.09a2.16,2.16,0,0,0-.79-.17,1.17,1.17,0,0,0-.63.2l0,0a2,2,0,0,0-.74,1.2,12.52,12.52,0,0,0-.4,2v.37a.22.22,0,0,1-.13,0c-.16,0-.28-.23-.4-.45s-.26-.47-.5-.47h-.2c-.15,0-.31,0-.37-.11s0-.28.08-.57a.74.74,0,0,0-.08-.73,1.14,1.14,0,0,0-.77-.5c-.46,0-.76.37-1,.73a3.75,3.75,0,0,1-.43.48c-.41.35-.23.58,0,.81a1.64,1.64,0,0,1,.18.25,3.72,3.72,0,0,0,3.63,2l.52,0,.72,0c.52,0,1.06,0,1.58-.09a6.33,6.33,0,0,1,.72,0,8.52,8.52,0,0,1,3.86,1.06c.54.27,1.08.58,1.17,1a1.26,1.26,0,0,1-.41,1c-.49.57,0,1,.28,1.3a3.7,3.7,0,0,0,2.64,1.14l8.16.95.35.31a7.28,7.28,0,0,1,.73.48,6.24,6.24,0,0,0,.72.45,2.88,2.88,0,0,0,.54.24h0a.64.64,0,0,0,.09.18h0a.38.38,0,0,0,.16.16l.06,0s.05,0,.09,0a1.66,1.66,0,0,0,.61-.21,1.13,1.13,0,0,1,.3,0,2.38,2.38,0,0,1,.8.19,3.08,3.08,0,0,0,.55.16l.34.35a5.12,5.12,0,0,1,1.07.48,3.47,3.47,0,0,0,1.6.56,1.89,1.89,0,0,0,1-.33c.05-.14.1-.29.15-.51l1.16-.86.31,0h.49a1.77,1.77,0,0,0,.53-.06,1.87,1.87,0,0,0,.38.11,4.35,4.35,0,0,0,.55,0,3,3,0,0,0,.68-.08l.29-.1.12.09a8.09,8.09,0,0,1,1.41-.12,18.08,18.08,0,0,1,4,.61,24.63,24.63,0,0,0,2.92.55,24.18,24.18,0,0,1,2.37,1.2,15.76,15.76,0,0,0,3.68,1.62l.16,0a7.13,7.13,0,0,0,.8.16.88.88,0,0,0,.84.53l.23,0,.14,0a2.8,2.8,0,0,0,1.95.75,3.86,3.86,0,0,0,.53,0,10,10,0,0,1,1.32-.11,4.69,4.69,0,0,1,1.44.21l.49.07a1.84,1.84,0,0,0,1.15.31,1.49,1.49,0,0,1,1.34.53.76.76,0,0,0,.47.33h0a.62.62,0,0,0,.13,0,1.56,1.56,0,0,0,.72-.25,1.09,1.09,0,0,1,1.13-.76c.16,0,.33,0,.49,0s.34,0,.5,0h.19l1,0c.33.07.66.18,1,.28a5.8,5.8,0,0,0,1.77.37h.26l1.66.36a2.94,2.94,0,0,0,.28.14l.21.1a2.64,2.64,0,0,0,.5.16l.35.05c.08,0,.16,0,.24,0h0l.26-.13a2.32,2.32,0,0,0,.54.06,5.12,5.12,0,0,0,2.07-.66.32.32,0,0,0,.21-.07l.39,0a3.82,3.82,0,0,0,.53,0,3.19,3.19,0,0,0,.45-.1,3.52,3.52,0,0,1,1-.18,1.69,1.69,0,0,1,.67.13l.36.22.19.16a7.82,7.82,0,0,0,1,.69l.1.06a3.12,3.12,0,0,0,.37.21,1.92,1.92,0,0,0,.44.09l.14,0,.13.13.44.13a1.65,1.65,0,0,1,.25.37,3,3,0,0,0,1.14.65l.37.14a6.81,6.81,0,0,0,2.55.43h.29a2.38,2.38,0,0,1,1.52.41,2.58,2.58,0,0,0,1.63.56l.23,0h0a3.61,3.61,0,0,0,.65-.09,1.1,1.1,0,0,0,.43-.29,1.53,1.53,0,0,0-.13-1.69,2.13,2.13,0,0,0-.34-.35,4.4,4.4,0,0,0-1.22-.65l-.25-.08-.34-.68h0l.11-.07a.66.66,0,0,1,.47-.25.89.89,0,0,1,.61.36,2.13,2.13,0,0,0,1.44.76,7.82,7.82,0,0,1,3.37,1.27.8.8,0,0,0,.2.06,2.14,2.14,0,0,1,.08.5,1.83,1.83,0,0,0-.59,1c.25.86.76,1,1.17,1a4.51,4.51,0,0,0,.69-.08,5.71,5.71,0,0,1,.58-.07c.61-.23.72-.76.83-1.28l0-.16c.12-.25.23-.37.32-.37s.16.13.23.26a.73.73,0,0,0,.19.26l.13.08a1.18,1.18,0,0,0,1.19.86h.13c.54,0,.6-.49.67-.91a4.06,4.06,0,0,1,.08-.41l-.07-.15c-.1-.24-.2-.5-.51-.5h0c-.22-.52.1-.68.44-.85a2,2,0,0,0,.33-.2l.15-.12c.59-.46,1.19-.94.65-1.87ZM110,114.13v0l-.11-.18A.52.52,0,0,1,110,114.13Z"/><path class="cls-1" d="M376.54,115.85c-.44-.21-.44-.87-.44-1.49a11.44,11.44,0,0,0-.45-3.39,2.06,2.06,0,0,1-.12-1.1,1.82,1.82,0,0,0-.24-1.31c-.6-.53-1.08-.89-1.46-.89a.6.6,0,0,0-.12,0h0c-.41.09-.72.59-1.1,1.42a2.09,2.09,0,0,1-1.62,1.24.87.87,0,0,0-.75.7.65.65,0,0,0,.31.68c.4.22.61.43.61.64s-.41.53-.74.72c-1.42.82-1.76,1.81-1.22,3.5a3.09,3.09,0,0,1-1.12,3.38c-.33,1.21-.24,1.38,1.24,2.32a2.17,2.17,0,0,1,.38.16,1.43,1.43,0,0,0,.63.2.78.78,0,0,0,.33-.08l.86-.5.19-.11a5.73,5.73,0,0,0,2.22-2.75l.2-.09a1.39,1.39,0,0,0,.22-.13l.09,0a1.68,1.68,0,0,0,0,.27c0,.23,0,.45-.16.61a1.23,1.23,0,0,0-.41,1,.73.73,0,0,0,.42.53.93.93,0,0,0,.42.12c.39,0,.6-.37.79-.72a2.77,2.77,0,0,1,.28-.45.7.7,0,0,0,.32-.49.81.81,0,0,0-.33-.6.2.2,0,0,1-.14-.21c-.14-.36-.3-.54-.5-.54h0a.73.73,0,0,1,.5-.16l.46,0a.77.77,0,0,0,.55-.18l.22-.28c.33-.41.64-.79.55-1.19S377.06,116.11,376.54,115.85Z"/><path class="cls-1" d="M184.19,96.5h0Z"/><path class="cls-1" d="M350,124.91c-.11-.45-.58-.78-1.11-1.07a3,3,0,0,0-1.39-.33c-.11,0-.21,0-.32,0h-.09a3.43,3.43,0,0,0-1.54.57l-.11.08a2.82,2.82,0,0,0-.38.33l0,.05a2.48,2.48,0,0,0-.32.41,3.19,3.19,0,0,1-2.89,1.94l-.45,0h-.25a3.61,3.61,0,0,0-.74.09.69.69,0,0,0-.61.87.56.56,0,0,0,.58.51l.19,0a2.67,2.67,0,0,1,.54-.07.49.49,0,0,1,.43.15c.13.19,0,.53-.11.84a3.32,3.32,0,0,0-.12.37,3,3,0,0,1-.47.9,1.58,1.58,0,0,0,0,2.29c0,.16-.34.37-.49.47l-1.51,1-.38.24c-.64.39-1.31.8-1.21,1.81a1.12,1.12,0,0,0,.42.08,1.91,1.91,0,0,0,1-.38,2,2,0,0,1,.88-.37c1.18,0,2.46-.22,3-1.73a1,1,0,0,1,.48-.38c.24-.12.49-.25.56-.55l1.4-2.33c1.38-1.22,2.47-2.4,1.77-4.35a.3.3,0,0,1,0-.25c.07-.12.26-.16.5-.2a2.65,2.65,0,0,0,.42,0,2.53,2.53,0,0,1,.41,0,.93.93,0,0,1,.54.17c.62,0,1.4-.08,1.46-.82a.74.74,0,0,0,0-.18S350,124.93,350,124.91Z"/><path class="cls-1" d="M228.41,139.25a1.71,1.71,0,0,0-.08-.53,1.48,1.48,0,0,0-.9-.82l-.41-.3a5.64,5.64,0,0,1,.26-1.91,1.06,1.06,0,0,1,.32-.37c.28-.24.57-.49.15-1a.36.36,0,0,0-.37-.26h-.15a2.92,2.92,0,0,0-1.61.66,4.19,4.19,0,0,1-1.06.57l-.58.08-.11,0a.25.25,0,0,0-.19.08l-1.37-.3a1.25,1.25,0,0,0-.85-.44,1.6,1.6,0,0,0-1,.59,4,4,0,0,1-.49.42c-1.08-.22-1.29-1-1.51-1.88,0-.15-.08-.29-.13-.45-.21-.08-.4-.11-.6-.17h0a6.43,6.43,0,0,0-1.11-.21h-.11c-.12,0-.25,0-.37,0a4,4,0,0,0-2.49.83,1.21,1.21,0,0,1-.78.21l-.42,0-.35,0c-.25,0-.51,0-.54.32-.17,1.52-.65,1.77-1.66,1.77-.25,0-.54,0-.86,0h-.18a6.3,6.3,0,0,0-3.65,2.06,3.63,3.63,0,0,0-.9,2.32,5.83,5.83,0,0,1-.33,1.48,1.37,1.37,0,0,0,.88,1.49l.88.24a10.07,10.07,0,0,0,2.76.51c.13,0,.24,0,.36,0l.24,0c.16,0,.33,0,.49-.05.76-.17,1.51-.37,2.26-.58a25.71,25.71,0,0,1,3.73-.84l.63-.62a5.71,5.71,0,0,1,1-.17,3.25,3.25,0,0,0,1.62-.49,1.84,1.84,0,0,0,.2-.18,1.51,1.51,0,0,0,.12-.1l.23.17.3.24a2.24,2.24,0,0,0,1.37.69,1.29,1.29,0,0,0,.41-.07,11.19,11.19,0,0,1,2.56-.42c.52,0,1-.09,1.56-.17C226.81,141.19,228.21,140.95,228.41,139.25Z"/><path class="cls-1" d="M299.83,129.15l-.23-.13a2,2,0,0,0-1.61-1,3.52,3.52,0,0,0-1.75.61,4.18,4.18,0,0,1-2.11.71,2.52,2.52,0,0,1-1.68-.67h0l0,0,0,0a3.54,3.54,0,0,1-1.37,1.48,2.25,2.25,0,0,0-1,2.33c0,.49.21.72.5.72a1.08,1.08,0,0,0,.51-.17,7.39,7.39,0,0,1,3.77-.79l1.08,0h.78a.94.94,0,0,0,.47.14A1.21,1.21,0,0,0,298,132a2,2,0,0,1,1.71-1l.58-.36a1.16,1.16,0,0,0,.28-.59v0a.64.64,0,0,0,0-.15C300.5,129.54,300.16,129.34,299.83,129.15Z"/><path class="cls-1" d="M118.48,87.66a.39.39,0,0,0,.34.18,2.14,2.14,0,0,0,1-.48l.14-.1a.91.91,0,0,0,.49-.21.87.87,0,0,1,.47-.2.6.6,0,0,1,.24.06c.2.88.59,1.07.88,1.07a1.4,1.4,0,0,0,1-.62,7.79,7.79,0,0,0,1.84-4.22.88.88,0,0,0-.07-.33l-.54-.37-.13-.09-.12-.07s0-.12,0-.12a1,1,0,0,0-.78-.73l-1.29-.7a6.51,6.51,0,0,0-1.81-.27,5.25,5.25,0,0,0-1.69.28,6.31,6.31,0,0,0-.59,2.24,6.59,6.59,0,0,1-.59,2.28c-.3.58.26,1.26.76,1.86C118.2,87.3,118.35,87.48,118.48,87.66Z"/><path class="cls-1" d="M89.06,54.09a1.25,1.25,0,0,0-.53-.18.49.49,0,0,0-.31.11.6.6,0,0,0-.22.45.63.63,0,0,0,.16.47c.56.55.23.92-.15,1.36A2.78,2.78,0,0,0,87.45,58c-.16.37,0,.62.23.89a2.15,2.15,0,0,1,.33.54l0,.06a2.66,2.66,0,0,0-.42,0,1.84,1.84,0,0,0-.36.06l-.14,0a1.64,1.64,0,0,0-.3.11,1.48,1.48,0,0,0-.21.13,1.56,1.56,0,0,0-.31.28l-.1.15a2,2,0,0,0-.23.49l0,.13a2.32,2.32,0,0,0-.09.29c-.08.57.35.64.77.71a1.16,1.16,0,0,1,.75.31.36.36,0,0,0,.15.09,2.52,2.52,0,0,1,.4.23,1.36,1.36,0,0,0,.71.31.77.77,0,0,0,.54-.26l.16-.15c.48-.46,1-.94.63-1.85a1,1,0,0,1-.05-.92.71.71,0,0,1,.62-.24,2.91,2.91,0,0,1,.65.09,3.26,3.26,0,0,1,.72.3,2.38,2.38,0,0,0,1.07.34.75.75,0,0,0,.26,0A2.14,2.14,0,0,0,93,58.47a1,1,0,0,0-.2-.15l-.07,0a1.58,1.58,0,0,0-.72-.23c-.7-.17-.79-.73-.9-1.38A3.32,3.32,0,0,0,89.06,54.09Z"/><path class="cls-1" d="M314.13,38.09h0c2.65,0,4.2-1.64,4.25-4.43a3.53,3.53,0,0,0-.88-2.36,1.1,1.1,0,0,0-.75-.38.66.66,0,0,0-.25,0,5.83,5.83,0,0,0-3.12,3.32,4.16,4.16,0,0,0,.22,3.45A.56.56,0,0,0,314.13,38.09Z"/><path class="cls-1" d="M306.12,69.72a.43.43,0,0,0-.47.27,1.84,1.84,0,0,0,0,2.14l.09.5c.26.5.53,1,1,1.11h0a.68.68,0,0,0,.16,0,1.44,1.44,0,0,0,.82-.34,3.1,3.1,0,0,1,1.59-.37c.25,0,.5,0,.75,0l.75,0a3.93,3.93,0,0,0,.79-.07h.13a2.44,2.44,0,0,1,.45.06,2.39,2.39,0,0,0,.47.07c.34,0,.53-.2.58-.61,0-.11,0-.2,0-.3s0-.12,0-.18a2.59,2.59,0,0,0-.05-.51,1.77,1.77,0,0,0-.11-.35,1.51,1.51,0,0,0-.15-.25,1.46,1.46,0,0,0-.18-.2,1.59,1.59,0,0,0-.34-.26l-.15-.07a2,2,0,0,0-.29-.14,4.2,4.2,0,0,1-1.86-1,1.17,1.17,0,0,0-.69-.56l-.17,0-.18-.34-.43-.31-.15-.37a1.72,1.72,0,0,0-1.1-.6,1.2,1.2,0,0,0-.83.4.86.86,0,0,0-.07.17l0,.09a.87.87,0,0,0-.06.14l-.29.27c-.27.37-.09.65.09.93a1,1,0,0,1,.22.61h-.26Z"/><path class="cls-1" d="M334.42,60.09h.19a.65.65,0,0,0,.18-.06h0a.9.9,0,0,1-.14.54.81.81,0,0,0-.11.67l.59.52.36.34a2.68,2.68,0,0,0,.9.16,4.56,4.56,0,0,0,2.39-1l.39-.26a.72.72,0,0,0,.44.22,4,4,0,0,0,1.09-.2L341,61a2.64,2.64,0,0,1,.74-.15,1.49,1.49,0,0,0,1.27-.6.71.71,0,0,0,0-.21l.12-.07c.35-.2.72-.4.75-.93l-.67-.73-.42-.58-1.41-1a1.33,1.33,0,0,1-.46.08,2.85,2.85,0,0,1-1-.24,2.87,2.87,0,0,0-1-.24h-.13a5.17,5.17,0,0,0-.94-.08,10.79,10.79,0,0,0-3.08.61c-.54.16-1.1.33-1.65.44a1,1,0,0,0-.83.63,1.6,1.6,0,0,0,.44,1.47A2.3,2.3,0,0,0,334.42,60.09Z"/><path class="cls-1" d="M82.72,47l.14.09a5.06,5.06,0,0,1,2.45,2.55l0,0h0a1.93,1.93,0,0,0,1.89-1.49s0,0,0-.07a2.2,2.2,0,0,1,.45.39,1,1,0,0,0,.73.41l.59,0c1.39,0,1.63-.56,1.76-2.65a2.54,2.54,0,0,0-1-1,2.32,2.32,0,0,0-1.65-.54l-.6,0-.6,0h-.27l-.31,0a5.76,5.76,0,0,1-.67-.05,6.11,6.11,0,0,0-.68-.05,1.57,1.57,0,0,0-1.29.56c-.13.32-.4.34-.68.37s-.54.05-.69.33a.71.71,0,0,0-.1.56A.86.86,0,0,0,82.72,47Z"/><path class="cls-1" d="M327.69,74.49a.84.84,0,0,0,.19.34h0a1.21,1.21,0,0,0,.18.19,16.14,16.14,0,0,0,2.67,1.68,2.13,2.13,0,0,0,.9.17c1.27,0,3-.71,3.11-1.46a3.33,3.33,0,0,0-.6-3,2.72,2.72,0,0,1-.27-.19,1.52,1.52,0,0,0-.5-.27h0a.6.6,0,0,0-.15,0,.76.76,0,0,0-.42.15,4.14,4.14,0,0,1-2.2.73l-.46,0a3.3,3.3,0,0,0-2,.73,1.1,1.1,0,0,0-.53.83.69.69,0,0,0,0,.12Z"/><path class="cls-1" d="M303.38,64.23s0,0,.2.11l.1,0a4.64,4.64,0,0,0,1.5.73c.25,0,.31-.25.33-.75,0-.12,0-.26,0-.41.37,1,1.31,1.22,2.21,1.41a8.58,8.58,0,0,1,.89.21.49.49,0,0,0,.21-.07,1,1,0,0,0,.28.11,1.7,1.7,0,0,0,.37,0,.87.87,0,0,0,.88-.67l.37-.56a2.63,2.63,0,0,0,.5-.28,1.51,1.51,0,0,1,.78-.33.9.9,0,0,1,.6.26,1,1,0,0,0,.5.32.87.87,0,0,1,.66.63c0,.06.06.09.08.13a.53.53,0,0,0,.06.1.47.47,0,0,0,.18.13l.14,0s.07,0,.12,0a2.91,2.91,0,0,0,.46-.05,3,3,0,0,1,.4,0,.56.56,0,0,0,.59-.5c.06-.47-.25-.66-.56-.85l-.2-.13-.93-.63-2.68-4.61a1.83,1.83,0,0,0-.37-1.17c-.08-.14-.16-.27-.23-.41a.83.83,0,0,0-.07-.16v-.49a3.43,3.43,0,0,0,.69-2.32c0-.35,0-.71.08-1l.3,0h.08a5,5,0,0,1,1.22.2c1,.27,2,.44,3,.61l1.22.21.74.48a2,2,0,0,0,.8.18,1.46,1.46,0,0,1,1,.36.75.75,0,0,0,.47.27.3.3,0,0,0,.24-.13c.16-.2,0-.4-.07-.58a1.14,1.14,0,0,1-.15-.33l-2-1.34c0-.11,0-.23,0-.34a1.57,1.57,0,0,0-.28-1A.73.73,0,0,0,318,51a1.18,1.18,0,0,0-.88-.35H317a2.39,2.39,0,0,1-1.2-.41,3.66,3.66,0,0,0-.7-.33c-.39-.12-.74-.27-.68-.75s.44-.57.81-.7c3.61-1.32,3.7-1.63,3.81-5.43,0-.88-.08-1.38-.35-1.65a.92.92,0,0,0-.7-.25,3.06,3.06,0,0,0-.88.16,7,7,0,0,0-4.76,3,.91.91,0,0,0-.18.67.3.3,0,0,0,.09.13v0a2,2,0,0,0-.31.11,2.88,2.88,0,0,0-.4.32l-.08.06,0-.07.16-.24c0-.09.09-.17.13-.25a1.64,1.64,0,0,0,.26-.73,4.18,4.18,0,0,0-.17-4.5c-.91-1.16-.58-1.66.14-2.52.32-.38.8-1,.29-1.51a1,1,0,0,0-.76-.33,1.82,1.82,0,0,0-1,.33,7.84,7.84,0,0,0-2.91,3.15,2.67,2.67,0,0,0-.58,1.29,3.23,3.23,0,0,1-.41,1.08l-.37,2.43c-1.36,1.63-1.35,2.29,0,3.72a2.17,2.17,0,0,1,.38,2.56,3.15,3.15,0,0,0-.07,1.73l0,.24a3,3,0,0,1,.11.43,1.56,1.56,0,0,0,.36.84l.32.37.36,1.58.27,1.6a2,2,0,0,0-.89,1.37,3.63,3.63,0,0,1-.3.79.69.69,0,0,0-.07.15l-.22,0a2.42,2.42,0,0,1-1.16-.42,2.43,2.43,0,0,0-1.18-.43,1.31,1.31,0,0,0-.31,0,1.84,1.84,0,0,0-1.28,1.6,5.26,5.26,0,0,0,.37,1.85A4.05,4.05,0,0,1,303.38,64.23ZM310.07,47a2,2,0,0,0,.46-.35,1.91,1.91,0,0,0-.13.59.94.94,0,0,0-.35.23.75.75,0,0,1-.46.24h-.15C309.49,47.36,309.79,47.18,310.07,47Zm.76-.86-.13.19a.73.73,0,0,0,0-.13A.23.23,0,0,0,310.84,46.14Z"/><path class="cls-1" d="M388.31,71.59a3.6,3.6,0,0,0-.93.11c-.66-.11-1.33-.16-2-.2a19.09,19.09,0,0,1-2.2-.24l-.36-.08-.49-.12c-.44.5-.6.9-.5,1.2s.5.54,1.2.69a6.35,6.35,0,0,0,1.15.11,3.28,3.28,0,0,1,2.17.6A10.6,10.6,0,0,0,390.11,75l.55.12a4.41,4.41,0,0,0,1,.12,2.39,2.39,0,0,0,1.81-.73l1.67-.24h.27a1.7,1.7,0,0,0,.78-.16c.25-.21.35-.37.33-.5s0-.06-.06-.08h0a.81.81,0,0,0-.32-.2c-.17-.07-.34-.14-.36-.27a1,1,0,0,0-.82-.35l-.37,0-.46,0-.5-.34-.53-.34a3.69,3.69,0,0,1-.86.1,8.83,8.83,0,0,1-1.94-.29A8.84,8.84,0,0,0,388.31,71.59Z"/><path class="cls-1" d="M289.63,73.39l-1.7-.37a3,3,0,0,1-1.29-.42,3,3,0,0,0-1.31-.42,1.19,1.19,0,0,0-.6.16h0a1.56,1.56,0,0,0,0-.31,20.74,20.74,0,0,0-5.28-.82c-.36,0-.73,0-1.1,0a1.49,1.49,0,0,0-1.38.83,4.16,4.16,0,0,1-.36,1.33,3,3,0,0,0-.29,1.95,1.09,1.09,0,0,0,1,1c0,.11.1.16.17.16s0,0,.07,0h0s.06,0,.09-.06h.14a5.9,5.9,0,0,0,2.38-.67,6.77,6.77,0,0,1,2.07-.66l.76.61a.51.51,0,0,0,.34.17.43.43,0,0,0,.33-.2,2,2,0,0,1,1.39-.53,1.92,1.92,0,0,1,.44,0,11.6,11.6,0,0,0,2.65.32,8.28,8.28,0,0,0,2.63-.41l.17,0a3.84,3.84,0,0,0,.65,3.45l.12.18a1.43,1.43,0,0,1,.35,1l.62.77a1.21,1.21,0,0,0,.53.18.53.53,0,0,0,.47-.32,1.39,1.39,0,0,0,.08-1.82c-.67-1.17-.86-1.78-.7-2.27s.83-.9,1.81-1.31a2.46,2.46,0,0,0,.4-.23,3.16,3.16,0,0,1,.32-.19c.33-.16.51-.37.49-.59s-.21-.4-.51-.49l-.29-.09a11,11,0,0,0-3.19-.66A4.27,4.27,0,0,0,289.63,73.39Z"/><path class="cls-1" d="M122.33,20.39c.17.1.31.18.2.44-.4.39-.55.72-.48,1s.68.61,1.11.72a1.46,1.46,0,0,0,.4.05h0a3.22,3.22,0,0,0,1.36-.41,2.18,2.18,0,0,0,1-1.33,2,2,0,0,0,0-2l-1.37-1.67c-.25-.66-.54-1-.86-1s-.73.4-1.09.79l-.14.15c-.88.58-1.28,1-1.32,1.5s.25,1,1,1.66A.89.89,0,0,0,122.33,20.39Z"/><path class="cls-1" d="M297.75,18.93l0,.06a1,1,0,0,0,.07.19,2.45,2.45,0,0,1,.25.68c.12.45.26.9.66,1h0a.77.77,0,0,0,.3.07,1.81,1.81,0,0,0,.62-.13c.1-.14.21-.28.32-.41a1.81,1.81,0,0,0,.6-1.63,2.27,2.27,0,0,1,.46-1.41,5.87,5.87,0,0,0,.29-.53,2.65,2.65,0,0,0,0-2.35,2.68,2.68,0,0,0-2-1.36c-.23.11-.48.26-.55.48a.63.63,0,0,0,.11.52l.11,2a.41.41,0,0,0,.17.38,1.07,1.07,0,0,1,0,.87.83.83,0,0,1-.58.37,1.13,1.13,0,0,0-.88.59.75.75,0,0,0,0,.15.77.77,0,0,0,0,.08A.84.84,0,0,0,297.75,18.93Z"/><path class="cls-1" d="M269.88,69.4c0-.46-.31-.92-1-1.42-.32-.13-.63-.27-.95-.41a7.63,7.63,0,0,0-3-.88,3.73,3.73,0,0,0-1.62.37.81.81,0,0,0-.17.34.92.92,0,0,0-.72.57,3.62,3.62,0,0,1-.38.82,1.75,1.75,0,0,0-.23,1.95c.47.8.94,1.18,1.5,1.18a1.7,1.7,0,0,0,.81-.24,1,1,0,0,1,.44-.15c.17,0,.3.09.49.32s.57.55.81.55.58-.31.83-1l.28-.31.34,0a2.78,2.78,0,0,0,1.39-.37C269.45,70.33,269.86,69.88,269.88,69.4Z"/><path class="cls-1" d="M293.09,85.81a1,1,0,0,0-.86.88c-.56,1.11-.44,1.88.37,2.51,1.51,2.26,4,3.34,6.19,4.18a1.48,1.48,0,0,0,.52.09,4.5,4.5,0,0,0,2.18-.95,10.19,10.19,0,0,1,1.19-.7c1,0,1.85-.08,2.4-1a3.47,3.47,0,0,0-.08-2.36,9.49,9.49,0,0,1-1.62-1.36A7,7,0,0,0,301,85.4a.27.27,0,0,0-.17-.07l-.12,0h0a1.53,1.53,0,0,0-1.22-.67,1.7,1.7,0,0,0-.5.08c-.66.12-1.33.29-2,.46a14.32,14.32,0,0,1-3.58.61Z"/><path class="cls-1" d="M361.53,108.14l0-.06a1.61,1.61,0,0,0,0-.49s0-.08,0-.12a2.35,2.35,0,0,0-.15-.53l0-.06a3.15,3.15,0,0,0-.13-.3,1.79,1.79,0,0,0-1-.41c-.41,0-.73.27-1,.84a1.25,1.25,0,0,0-.06.5c0,.36,0,.7-.55.81h0l0,0-.07,0,0,0,0,0,0,0,.09.1v0h0a.22.22,0,0,1-.07.23,5,5,0,0,0-.21.66,2.78,2.78,0,0,1-.45,1.07,6.45,6.45,0,0,1-.77.43h0l-.09-.24a2.31,2.31,0,0,0-.56-.95l0,0a1.05,1.05,0,0,0-.42-.19l-.12,0a1.15,1.15,0,0,0-.19,0l0,0h-.08v.06l0,0,0,.14a1,1,0,0,0-.57.83l-.07.27.63,1,0,.27a1.7,1.7,0,0,0,.41,1.21l.06.05a1,1,0,0,0,.14.12.51.51,0,0,0,.08.32l.34.07.34-.1h.52a1.05,1.05,0,0,0,.17.15,1,1,0,0,0,.27,0,.72.72,0,0,0,.24-.07l.07,0a.79.79,0,0,0,.19-.14l.06-.07a1,1,0,0,0,.16-.18,2.3,2.3,0,0,0,.31-1.34l.63-.9a20.8,20.8,0,0,1,1.51-2,2.52,2.52,0,0,0,.21-.31h0A1.89,1.89,0,0,0,361.53,108.14Z"/><path class="cls-1" d="M290.33,24.77a1.36,1.36,0,0,0,.18.15l.08.07a1.1,1.1,0,0,0,.32.18l.15,0a1,1,0,0,0,.17,0,1.53,1.53,0,0,0,.86-.31c.57-.39.64-1,.23-1.76-.13-.16-.27-.3-.41-.45a3.71,3.71,0,0,1-.77-1c-.27-.66-.62-1-1.07-1a2.15,2.15,0,0,0-1.13.46,1.6,1.6,0,0,0,.06,1.68Z"/><path class="cls-1" d="M254.24,58.94a2.54,2.54,0,0,0-1.12.35l-.23.05a5.42,5.42,0,0,0-2.11,2,1,1,0,0,0-.11.46l.12.2.33.31h0l.91-.27c.67-.2,1.35-.4,2-.65.81-.3,1.33-.57,1.41-.93s-.29-.84-1-1.52Z"/><path class="cls-1" d="M190.74,123.84l.09,0a2.87,2.87,0,0,1,1.28-.33,1.88,1.88,0,0,0,1.67-.78c.1-.16-.13-.57-.27-.76a1.89,1.89,0,0,0-1.73-.73h-.27l-.21,0c-.54.06-1.27.14-1.38,1a2.09,2.09,0,0,0,.5,1.37A.5.5,0,0,0,190.74,123.84Z"/><path class="cls-1" d="M313.2,134.75a1.78,1.78,0,0,1-.07-.18c-.06-.16-.11-.33-.22-.36a6.53,6.53,0,0,1-1.09-.43,4.17,4.17,0,0,0-1.74-.51,2.19,2.19,0,0,0-.36,0,.83.83,0,0,0-.66.37.78.78,0,0,0,.1.71,3,3,0,0,0,1.82,1.27,7.85,7.85,0,0,1,.76.31l.09,0a1.85,1.85,0,0,0,1.18-.88,1.53,1.53,0,0,0,.08-.16A1.38,1.38,0,0,0,313.2,134.75Z"/><path class="cls-1" d="M376.3,67.74a.62.62,0,0,0,.55.26h.43a.78.78,0,0,1,.27,0h0a.79.79,0,0,0,.61-.38,2,2,0,0,1,.19-.2,1.23,1.23,0,0,0,.34-1c-.08-.35-.4-.66-1-1a2,2,0,0,0-.85-.23c-.58,0-1,.38-1.23,1.14A1.09,1.09,0,0,0,376.3,67.74Z"/><path class="cls-1" d="M381.45,64l.13.11.12.15a.86.86,0,0,0,.42.36h0a.62.62,0,0,0,.18,0h.06c0,.38.33.43.63.48.11.35.4.45.69.54s.55.18.65.49a.88.88,0,0,0,.39.51,3.33,3.33,0,0,0,2.21,1.43c.3.09.6.19.89.31a3.52,3.52,0,0,0,1.36.31,2.73,2.73,0,0,0,2.21-1.32c0-.65-.49-1-1-1.39a.77.77,0,0,0-.32-.09c-.15,0-.26.09-.32.28a.6.6,0,0,1-.37.2c-.21,0-.3-.27-.35-.5a3.71,3.71,0,0,0-.74-1.45l-.25-.36a.64.64,0,0,0-.36-.24h-.11l-.2-.26-.37-.47-.65,0h-1a3.43,3.43,0,0,0-1.52-.39,3.44,3.44,0,0,1-1.34-.32,1.76,1.76,0,0,0-.82-.26c-.42,0-.71.28-1,.94A1.82,1.82,0,0,0,381.45,64Z"/><path class="cls-1" d="M167.13,110.14a2.3,2.3,0,0,0-1.65-.83,2.07,2.07,0,0,0-1.06.32,2,2,0,0,0,.36.69,1.33,1.33,0,0,1,.27,1.45.45.45,0,0,0,0,.42c.18.28.76.31,1.17.34h.1a1,1,0,0,0,.59-.18l0,0s.08,0,.1-.07a.65.65,0,0,0,0-.6,1.56,1.56,0,0,1,0-.82A1.62,1.62,0,0,0,167.13,110.14Z"/><path class="cls-1" d="M318.66,123.65a3.09,3.09,0,0,1-.36-.25,1.37,1.37,0,0,0-.78-.37.9.9,0,0,0-.6.27,1.46,1.46,0,0,0-.61,1.59,1.37,1.37,0,0,0,1.17,1h.12c.52,0,.66-.38.79-.75a1.38,1.38,0,0,1,.31-.57.71.71,0,0,0,.26-.54A.63.63,0,0,0,318.66,123.65Z"/><path class="cls-1" d="M100.29,29.93h.14a1.43,1.43,0,0,0,.22-.08l.08,0a1.59,1.59,0,0,0,.42-.23l0,0a1.63,1.63,0,0,0,.32-.34l.06-.1a1.36,1.36,0,0,0,.15-.37,1.23,1.23,0,0,0,0-.13,1.16,1.16,0,0,0,0-.2,1.06,1.06,0,0,0-.07-.25h0c-.15-.48-.61-.87-1.47-1.19a1.65,1.65,0,0,0-.81,1.67C99.44,29,99.54,29.93,100.29,29.93Z"/><path class="cls-1" d="M325.46,58.41c.28.22.56.44.82.67a.48.48,0,0,0,.32.14.41.41,0,0,0,.3-.14c.26-.27.09-.49-.1-.75a14.78,14.78,0,0,0-2.69-2.68h-.68A4.42,4.42,0,0,0,325.46,58.41Z"/><path class="cls-1" d="M320.79,133.91l-.45,0a1.53,1.53,0,0,0-1.44.75.52.52,0,0,0-.1.43s.06.07.1.11v0a1.14,1.14,0,0,0,.37.22l.1,0a2.2,2.2,0,0,0,1.38.56h0c.78-.14,1.23-.56,1.22-1.14S321.36,134,320.79,133.91Z"/><path class="cls-1" d="M129.73,73l.2,0c.57-.14,1.64-.39,1.63-1.23s-.57-.7-1-.7a1.9,1.9,0,0,1-.44,0l-.36,0a.86.86,0,0,0-.69.22.84.84,0,0,0-.12.69C129,72.63,129.31,73,129.73,73Z"/><path class="cls-1" d="M242.75,126.25l.06,0s0,.06.09.07a4.31,4.31,0,0,1,.8.35,2.81,2.81,0,0,0,1.28.43,1.41,1.41,0,0,0,.74-.21,2.46,2.46,0,0,0,0-.31s0-.07,0-.11a1.68,1.68,0,0,0-.09-.43,1.06,1.06,0,0,0-.13-.25s0-.07,0-.1a1.9,1.9,0,0,0-1.38-.39,4.1,4.1,0,0,1-1-.12l-.11.19c-.16.27-.34.57-.26.77C242.7,126.23,242.74,126.23,242.75,126.25Z"/><path class="cls-1" d="M268.87,107.56a3.47,3.47,0,0,0,1.18.33.53.53,0,0,0,.48-.28l0,0a3.28,3.28,0,0,0,.25-1.34,1.61,1.61,0,0,0-2.14,0c-.4.32-.17.7,0,1C268.75,107.36,268.81,107.46,268.87,107.56Z"/><path class="cls-1" d="M224.63,81.09a3.58,3.58,0,0,1-.51.49c-.45.38-.92.77-.77,1.54,0,.31.17.47.36.62a1,1,0,0,1,.34.39h.27a1.9,1.9,0,0,1-.15,1.5,1.94,1.94,0,0,0-.16,1.52c0,.13,0,.27,0,.4a2,2,0,0,0,.3,1.41c0,.23,0,.46.25.58.34.67.72,1.11,1.42,1.11a2.83,2.83,0,0,0,.93-.19l.53-.2a5.79,5.79,0,0,1,2.07-.52,3.86,3.86,0,0,1,.52,0,2.75,2.75,0,0,0,.14.25c.11.17.21.35.17.47-.56,1.55.16,2.68,1,3.67a1.51,1.51,0,0,1,.28.94,3.24,3.24,0,0,0,.06.47,8.76,8.76,0,0,1-.65,4.72,12,12,0,0,0-.75,3.41v0c0,.18,0,.36,0,.54s-.24.38-.37.5a3.17,3.17,0,0,0-.87,3.06,1.86,1.86,0,0,0,1.31,1.76,4.66,4.66,0,0,0,.43.25,2,2,0,0,1,.94.79,1.31,1.31,0,0,0,1.17.71,1.92,1.92,0,0,0,1.55-.94,9.85,9.85,0,0,0,1.62-.24,9,9,0,0,1,1.77-.24,3.18,3.18,0,0,1,2,.62.5.5,0,0,0,.3.1.6.6,0,0,0,.55-.42c.12-.35-.15-.52-.38-.68l-.12-.06a.63.63,0,0,0-.23-.67,1.36,1.36,0,0,1-.2-.25,8.56,8.56,0,0,0-.35-2.21,5.71,5.71,0,0,1-.16-3.31h0a3.53,3.53,0,0,1,.21-.48c.6-1.16,1.21-2.37.34-3.69v-.28a3.09,3.09,0,0,0-.28-1.45c.07-.53.08-1.08.09-1.61a7.76,7.76,0,0,1,.58-3.33.66.66,0,0,0,0-.61s0-.05,0-.08h0v0l-.08,0V88.24a.52.52,0,0,0,.24-.37,1.12,1.12,0,0,1,0-.26c0-.23,0-.49-.34-.49h0a1.24,1.24,0,0,0-.34-.88,1.71,1.71,0,0,1-.46-1.31,1.77,1.77,0,0,1,.91-1.13,3.07,3.07,0,0,0,.75-.66,1.13,1.13,0,0,1,.18-.23l0,0a2.28,2.28,0,0,1,.8-.42,2.69,2.69,0,0,0,.65-.3h1.22a3,3,0,0,1,1.73.41l.09,2.16a1.71,1.71,0,0,1-.59,1.6,2.58,2.58,0,0,0-.73,1.61,3.37,3.37,0,0,0-.45,1.79s0,.08,0,.12a1.61,1.61,0,0,0,.16.51l.08.13a1.56,1.56,0,0,0,.14.23,25.11,25.11,0,0,0,5.36,4.46.53.53,0,0,0,.47.25.9.9,0,0,1,.28.07c.25.09.4.22.44.38a.69.69,0,0,1-.23.59,1.63,1.63,0,0,0-.31,1.38,3,3,0,0,0-.47,3.11,1.45,1.45,0,0,0,.12.3c.91,1.69,2.56,2,4,2a1.7,1.7,0,0,0,.85.24,2.43,2.43,0,0,0,1.55-.78,1,1,0,0,0-.2-1.17.31.31,0,0,1-.22-.15,2.39,2.39,0,0,1,0-.9,1.8,1.8,0,0,0,.28-.35l.06-.13a1.84,1.84,0,0,1,.39-.09,1.26,1.26,0,0,0,.55-.17v0h0l.12,0a1.82,1.82,0,0,0,.46-.06,5,5,0,0,0,.87-.33l.15-.06,0,0,0,0a.74.74,0,0,0,.33.08.73.73,0,0,0,.44-.15,1.81,1.81,0,0,0,.69.55,4,4,0,0,0,.5.24l.25.09.19.09-.26,0a3.48,3.48,0,0,0-2,1l-.51.39a2.18,2.18,0,0,0-.31.13.52.52,0,0,0-.19.21l-.3.31-.3.33a3.74,3.74,0,0,1,.22,2.77,2.41,2.41,0,0,1-.56.61c-.31,1.71,0,2.15,1.56,2.46l.28,0c.34,0,.66.08.83.47l.09.24a2.89,2.89,0,0,1,.16.53,2.58,2.58,0,0,0,.1.32l0,.15a1.92,1.92,0,0,0,.2.42,1.51,1.51,0,0,0,.16.21,1.43,1.43,0,0,0,.25.21,1.52,1.52,0,0,0,.26.14,2.11,2.11,0,0,0,.51.13l.15,0c.09,0,.15,0,.25,0h.15c1.16,0,1.71-.61,1.84-1.88a3.84,3.84,0,0,1,.18-.75,1.44,1.44,0,0,0,.07-.33l.17,0,.12-.08a1,1,0,0,0,.4.09,1.55,1.55,0,0,0,1-.5c.59-.17,1.49-.42,1.3-1.35a1.55,1.55,0,0,0-.76-1.09h0a1.42,1.42,0,0,0-.69-.19h-.19c-.73-.41-.85-.94-.39-1.78l.13-.26c.15-.32.27-.56.59-.56a1.4,1.4,0,0,1,.58.17.62.62,0,0,0,.27.07.48.48,0,0,0,.17-.06h0a.6.6,0,0,0,.33-.3.83.83,0,0,0,0-.15l0-.07a.76.76,0,0,0,0-.33.61.61,0,0,0,0-.09.62.62,0,0,0,0-.14,4.17,4.17,0,0,1-.58-1.58c-.26-1.13-.52-2.3-2.3-2.36a.28.28,0,0,1-.11,0l-.06,0a.69.69,0,0,1-.15-.47.87.87,0,0,0-.11-.42c.14-.14.25-.21.34-.21s.19.08.28.24a2.15,2.15,0,0,0,1.26.54,1.42,1.42,0,0,0,1.11-.62A3.17,3.17,0,0,0,266.9,95c-.06-.53-.22-1.15-.6-1.15l-.14,0a3.19,3.19,0,0,1-1,.13,2,2,0,0,0-1.41.41l0,.06a1.26,1.26,0,0,0-.21.25l-1-.21a.4.4,0,0,0-.26-.1,1.18,1.18,0,0,0-.5.18.85.85,0,0,1-.33.13s-.12,0-.15-.16a2.84,2.84,0,0,0-.17-.4l0,0a6.3,6.3,0,0,0-1.66-2c-1.06-.94-2.15-1.9-1.88-3.65a4.48,4.48,0,0,1,.71-.46,2.71,2.71,0,0,0,1-.83l0,0a1.36,1.36,0,0,0,.14-.32v-.05a1.49,1.49,0,0,0,.07-.39c.06-.47-.27-.62-.64-.73l-1-.71a1.83,1.83,0,0,0,0-.38s0,0,0-.05a3.21,3.21,0,0,0-.92-1.68c-.15-.17-.29-.33-.43-.51a3,3,0,0,1-.38-.31l-.05,0a6.92,6.92,0,0,1-.94-1.24,8.71,8.71,0,0,0-.72-1l-1.94-2.71a2.61,2.61,0,0,0-.33-.25,2,2,0,0,1-.6-.55,1.38,1.38,0,0,1-.16-.33,3,3,0,0,0,1.81-1.62,4.93,4.93,0,0,1,1-1.21l.31-.09h.25a2.64,2.64,0,0,0,1.79-.63,3.64,3.64,0,0,1,.35-.37l.05-.05a8.38,8.38,0,0,1,1.35-.93,10.77,10.77,0,0,0,1.21-.8c.59,0,.81-.43,1-.88,0-.1,0-.2,0-.29a3.65,3.65,0,0,0,1.38-2,1.77,1.77,0,0,0,.67-.85l.21,0c.3-.14.62-.26.93-.37l.54-.2.32,0,.29.1a2.42,2.42,0,0,1,1.19.66,1.39,1.39,0,0,0,1.05.49,1.57,1.57,0,0,0,.22,0l.14,0a1.79,1.79,0,0,0,.41-.16l.23-.14c.05,0,.11-.05.16-.1a2.22,2.22,0,0,1,.23-1A1.76,1.76,0,0,0,268.6,64c.21-1.21-.18-1.84-1.43-2.32a4.32,4.32,0,0,0-1.58-.29,9.12,9.12,0,0,0-2.58.5,13.54,13.54,0,0,1-1.85.45l-.81.93a.26.26,0,0,0-.19.07h-3.65a.73.73,0,0,0-.54.16.69.69,0,0,0-.14.53l0,.16v.15a3.89,3.89,0,0,1-2.3.94A3.17,3.17,0,0,1,251.13,64l-.34,0a1,1,0,0,0-.41-.11c-.27,0-.45.18-.53.53l-.48.35-.38,0a2.26,2.26,0,0,0-1.47,2.13,1,1,0,0,0,.07.33,5.1,5.1,0,0,1-.51.47,2.08,2.08,0,0,0-.93,1.31,2,2,0,0,0-.24.32,1.06,1.06,0,0,0-.09.33,3.71,3.71,0,0,1-.72.07,4,4,0,0,1-.8-.08.79.79,0,0,0-.25-.31.68.68,0,0,0-.25,0h0l-.23-.07c-.81-.25-1.57-.49-1.78-1.48a2.59,2.59,0,0,0-.29-.47,1.51,1.51,0,0,1-.38-.89A.6.6,0,0,1,241,66a.62.62,0,0,0-.13-.37.34.34,0,0,0-.19-.06l-.1,0,.05-.06a.91.91,0,0,0-.15-.74,2.64,2.64,0,0,0-1.12-.57c-.61-.2-1.25-.4-1.49-1.22-.88-3-1.41-6.44,1.39-9.45a2.36,2.36,0,0,1,2-.85c.31,0,.63,0,.95.06s.53.05.86.06a.75.75,0,0,0,.3-.07h.09l0,0a1,1,0,0,0,1.09.6h.3a1.23,1.23,0,0,0,.25-.15.89.89,0,0,0,.6.28,1.45,1.45,0,0,0,.82-.4,2.23,2.23,0,0,1,.61-.38.66.66,0,0,1,.11-.21l.58.2a4.12,4.12,0,0,0,1.36.33,1.6,1.6,0,0,0,.28,0h0a1.54,1.54,0,0,0,.72-.31l.37.08a4.87,4.87,0,0,0,.71.05l.5,0a1.68,1.68,0,0,0,.41-.1,2.42,2.42,0,0,0,1.12.32,1.4,1.4,0,0,0,.62-.14s.09,0,.12.06l.15.08c.05,0,.09.06.15.07a2.52,2.52,0,0,0,.63.07,6.47,6.47,0,0,0,1-.1l.32,0a1.41,1.41,0,0,0,.42-.34l3.1-.25,2.32,0a1.62,1.62,0,0,0,.18.19,3.55,3.55,0,0,0,.71.06l.81,0a3,3,0,0,1,1,.14,2.27,2.27,0,0,1,.76.65,1.63,1.63,0,0,0,1.2.75,1.37,1.37,0,0,0,.4-.06h.33c.52,0,1,0,1.55.06s1.15.06,1.73.06a8.11,8.11,0,0,0,3.09-.51,3.52,3.52,0,0,1,.57,0h.38a2.24,2.24,0,0,0,1.09-.21l.3,0a1.6,1.6,0,0,0,.33-.06l.1,0a1.22,1.22,0,0,0,.28-.11l.08-.06a1.12,1.12,0,0,0,.24-.17,5,5,0,0,0,2.63-2.67l.14-.24a3.5,3.5,0,0,1,1.29-1.54c1.83-1,2.49-2.72,3.13-4.43l.17-.48a1.59,1.59,0,0,0,1.15-.66c.22-.42,0-1-.23-1.48-.08-.2-.17-.39-.24-.6l-.47-.33a2.82,2.82,0,0,0-1.63-.74,1.74,1.74,0,0,0-.61.11l-.38.53a8.84,8.84,0,0,0-.68.83A3.26,3.26,0,0,1,279.15,43c-.19,0-.4.27-.49.46a5.45,5.45,0,0,1-1.59,1.69c-.24.19-.48.38-.71.59a8.52,8.52,0,0,1-3.75,2.17l-.1,0a5.89,5.89,0,0,1-1.23.13h0a6.54,6.54,0,0,1-.89-.07h-.07a10.53,10.53,0,0,1-3.08-1,1.51,1.51,0,0,0-1-.38,2.38,2.38,0,0,0-.8.16.74.74,0,0,0-.35.41l-1.86.85-3.34-.68a1.58,1.58,0,0,0-1.18-.43c-.19,0-.39,0-.59,0l-.14,0a1.14,1.14,0,0,0-.57-.21.88.88,0,0,1-.68-.34l0-.07,0-.06,0,0v-.05l-.07.09h-.46a.9.9,0,0,0-.06-.17,6.52,6.52,0,0,0-2-.85c-.31,0-.62.07-.94.11a9.74,9.74,0,0,1-1.33.13,2.73,2.73,0,0,1-1.81-.59,3,3,0,0,1-.45-.46h0l0,0-.1,0a.51.51,0,0,0,0-.17h-.67l-.66,0a.25.25,0,0,0-.18-.08.15.15,0,0,0-.12,0,4.41,4.41,0,0,0-2.65-.63h-.72l-.7,0c-.45.1-.51.44-.57.76a2.1,2.1,0,0,1-.08.33L243,45.91l-.24.39-.72.6h-.11c-.36,0-.49.29-.62.56-.26.56-.61,1.14-1.17,1.14l-.2,0c-.54-.13-.52-.62-.5-1.09a2.7,2.7,0,0,0,0-.48,1.39,1.39,0,0,0-.88-.35,1.46,1.46,0,0,0-.81.27c0,.05,0,.09-.13.09h-.05c-.5.19-.48.6-.47,1.09l.15.28-.25.16a3.43,3.43,0,0,0-1.11,1c-.21,0-.3.2-.38.35l-.09.17a1.25,1.25,0,0,1-.53,1.16,1.79,1.79,0,0,0-.52.74l-.37.53c-.62.86-1.23,1.75-.7,2.72a2.14,2.14,0,0,0,.19.3l.13.14a3.62,3.62,0,0,0,.41.4.57.57,0,0,1-.34.11,1.89,1.89,0,0,1-.48-.09,2,2,0,0,0-.51-.09.8.8,0,0,0-.73.53,1.32,1.32,0,0,0,.17,1.48,3.2,3.2,0,0,1,.24.43c.34,1.93.5,3.79-1.22,5.25a.87.87,0,0,0-.23.52,1,1,0,0,1-.22.53v.69l-.71,1.3a5.63,5.63,0,0,0-1.06,6.45l0,.67.05.84c-1.62,1-1.65,2.6-1.67,4a.44.44,0,0,0-.11.4,3.87,3.87,0,0,1-2.29,2Zm37.37-15-.08,0a.36.36,0,0,1-.21-.1,1,1,0,0,0,.24,0Zm5.67-2.26.12-.2,0,0a.85.85,0,0,1-.1.11Z"/><path class="cls-1" d="M328.48,68.62c.22,0,.45,0,.67,0a2.42,2.42,0,0,0,1.27-.31l.15-.06.06,0h0l-.21-.19a1.09,1.09,0,0,0-1.22-.89l-.39,0h-.44c-.46,0-.68.23-.71.73S328.06,68.59,328.48,68.62Z"/><path class="cls-1" d="M242.28,125.07a1.49,1.49,0,0,0,.48-.09l.65-.75a1.18,1.18,0,0,0-.17-1,.92.92,0,0,0-.75-.25h0a1.36,1.36,0,0,0-.76.26l0,0a1,1,0,0,0-.13.09.84.84,0,0,0-.19.65C241.43,124.7,241.75,125.07,242.28,125.07Z"/><path class="cls-1" d="M286.27,31.67s.07,0,.1.08h0a.76.76,0,0,0,.47.13H287c.83-.06,1-.7,1-1.33s-.29-.81-1-.84a.82.82,0,0,0-.59.25.83.83,0,0,0,0,.65.89.89,0,0,1,0,.61A.43.43,0,0,0,286.27,31.67Z"/><path class="cls-1" d="M329.73,131.38c-.13-.3-.27-.6-.64-.71a2.08,2.08,0,0,0-1.31-.66l-.38,0a1,1,0,0,0-.77.25,1.62,1.62,0,0,0-.17,1.22c0,.18,0,.36,0,.53.25,1.1.6,1.59,1.14,1.59a2.24,2.24,0,0,0,1.21-.54l.13,0c.2,0,.43,0,.46-.35l.36-.34a.48.48,0,0,0,.08-.68C329.81,131.57,329.77,131.48,329.73,131.38Z"/><path class="cls-1" d="M306.64,127.65l-.33,0a2.33,2.33,0,0,0-.38,0,.64.64,0,0,0-.63.42c.16.24,0,.48-.15.71a.78.78,0,0,0-.21.54.51.51,0,0,0,.24.31,1.32,1.32,0,0,0,.71.18,1.17,1.17,0,0,0,.57-.12c.59-.34.45-.82.31-1.28A2.89,2.89,0,0,1,306.64,127.65Z"/><path class="cls-1" d="M182.33,123.1a1,1,0,0,0-.5.17c-.46.27-.71.56-.75.86a1.07,1.07,0,0,0,.38.86,2.3,2.3,0,0,0,.29.05l.1,0a2.29,2.29,0,0,0,.29.05.83.83,0,0,0,.75-.39,1.13,1.13,0,0,0,.12-.22l0-.06a2,2,0,0,0,.11-.43l0,0v0C182.94,123.53,182.75,123.1,182.33,123.1Z"/><path class="cls-1" d="M129.77,29.65h.15c.63-.1.89-.63,1.08-1.14-.19-.39-.41-.81-.78-.81l-.15,0A1.42,1.42,0,0,0,129,28.89a.69.69,0,0,0,.18.52A.79.79,0,0,0,129.77,29.65Z"/><path class="cls-1" d="M239,117.3c-.05.2.07.44.38.75a1.73,1.73,0,0,1,.31.3c.18.2.36.41.63.41a.77.77,0,0,0,.45-.18l.11-1.59c.89-1.68.85-2.29-.44-5.91a1.74,1.74,0,0,0-1.16,1.85,12.55,12.55,0,0,0,.36,3.94C239.26,117,239,117.11,239,117.3Z"/><path class="cls-1" d="M338.11,93.67c.28,0,.46,0,.57-.14s.18-.64.13-1.69a1.48,1.48,0,0,0,.49-1.59,3.55,3.55,0,0,0-1-1.2l-.26-.24c-.13-.13-.26-.24-.4-.35a2.74,2.74,0,0,1-.89-1.08c-1-2.43-2.15-3.25-4.72-3.25h-.19a7.37,7.37,0,0,1-2.75-.38l-1.3-.35a.93.93,0,0,0-.74-.39,1.16,1.16,0,0,1-.61-.22.66.66,0,0,0,0-.35,2.72,2.72,0,0,0-1.05-.3,1.16,1.16,0,0,0-1,.57l-.68.85a1.62,1.62,0,0,0-.45.28,1,1,0,0,1-.56.29.43.43,0,0,1-.29-.12A4.54,4.54,0,0,0,319.22,83c-.34,0-.69,0-1,0s-.69,0-1,0l-.62,0c-.39,0-.77,0-1.15,0a3.73,3.73,0,0,0-3.91,2.28,1,1,0,0,1-.49.39l-.28.16-3,1c-.78.11-1.26.23-1.4.52s0,.66.36,1.22a1.94,1.94,0,0,1,.7.25,1.9,1.9,0,0,0,.75.26c.38,0,.6-.34.71-1.08a2.11,2.11,0,0,1,.79-.09l.43,0c.41.05.4.34.39.66a1.87,1.87,0,0,0,0,.24,9.18,9.18,0,0,1,0,1,4.5,4.5,0,0,0,.24,2.07,1.15,1.15,0,0,0,.15.85.43.43,0,0,0,.34.14,1.08,1.08,0,0,0,.4-.09,1.75,1.75,0,0,1,.68-.14,1.91,1.91,0,0,1,.7.15h.16a4.06,4.06,0,0,0,1.84-.59,5.44,5.44,0,0,1,1.32-.54,2,2,0,0,0,.34-.16l.16,0,.49-.06h.21l.32,0,.33,0a.78.78,0,0,0,.85-.59,1.38,1.38,0,0,0-.76-1.67c-.05,0-.05-.16-.06-.27a.3.3,0,0,0,0-.15l1.17-.51,1.15-.52.31.36c0,.36,0,.7.46.79l.93.21c.8.18,1.62.36,2.45.47a3.58,3.58,0,0,0,.47,0,2.41,2.41,0,0,0,1.77-.76,1.78,1.78,0,0,1,1.25-.56,2.11,2.11,0,0,1,1.59.89,4.08,4.08,0,0,0,3.28,1.63h.18l4.69,2.81Z"/><path class="cls-1" d="M25,45a3,3,0,0,1-1.74-1.59,2.74,2.74,0,0,0-1.12-1.13h0a1.89,1.89,0,0,0-.85-.23,2.94,2.94,0,0,0-1.59.55,1.87,1.87,0,0,1-1,.41h-.21a1.09,1.09,0,0,0-.11.87,1.46,1.46,0,0,0,.88.75,4.59,4.59,0,0,1,.34.4l.06.08a10.89,10.89,0,0,1,.86,1.45A10.34,10.34,0,0,0,21.42,48,9.28,9.28,0,0,1,23,50.71a1.47,1.47,0,0,0,1.45,1,2.68,2.68,0,0,0,.61-.08A1.46,1.46,0,0,0,26.34,50v-.12a2.67,2.67,0,0,1,.13-1.34C27,46.89,26.38,45.42,25,45Z"/><path class="cls-1" d="M12.81,32.54l-.36-.36a2.84,2.84,0,0,0-.22-.27l-.15-.19a3.46,3.46,0,0,0-.6-.54h0a8.18,8.18,0,0,0-1.76-.87l-.29-.11a5.56,5.56,0,0,0-.54-.3c-.57-.29-1.11-.56-1.23-1.33a1.42,1.42,0,0,0-1.08-.62,2.29,2.29,0,0,0-1.44.84,1.87,1.87,0,0,0-.66,1.41,1.81,1.81,0,0,0,.8,1.28,3.74,3.74,0,0,0,2,1.1,9.14,9.14,0,0,1,2.21.93l0,0a4.92,4.92,0,0,1,.7.54l.16.15c.1.1.19.2.28.31a1.66,1.66,0,0,0,1.24.7h0a1.3,1.3,0,0,0,.55-.13c.61-.28.6-.83.59-1.36,0-.14,0-.28,0-.42a1.38,1.38,0,0,0-.2-.69Z"/><path class="cls-1" d="M50.41,86.6a1.07,1.07,0,0,0,.18-.14,1.17,1.17,0,0,0,0-1.66l-.17-.29a2.67,2.67,0,0,0-1.26-1.36l-.58-1.07a.66.66,0,0,1-.16-.56.67.67,0,0,0-.22-.62,4.27,4.27,0,0,1-.45-.31,4.15,4.15,0,0,0-.5-.34L47,80.05a2.08,2.08,0,0,0-1-.41.93.93,0,0,0-.62.24c-.78.66-.45,1.48,0,2.2a3.85,3.85,0,0,0,1.82,2.49,4.61,4.61,0,0,1,1.58,2.27c.11.26.23.52.35.77a.89.89,0,0,0,.82.59,1.55,1.55,0,0,0,.41-.07c.24-.07.38-.16.4-.29s-.16-.39-.35-.57-.21-.25-.21-.36S50.27,86.69,50.41,86.6Z"/><path class="cls-1" d="M45,78.55a.67.67,0,0,1-.14-.46c-.12-.18-.23-.37-.34-.56a7.21,7.21,0,0,0-.84-1.22,2.13,2.13,0,0,0-1.51-.76,1.49,1.49,0,0,0-.62.14c-.61.28-.49.86-.39,1.37a3.88,3.88,0,0,1,.08.45c0,.46.38.54.71.62a1.68,1.68,0,0,1,.56.22l0,0h0l0,0a1.06,1.06,0,0,1,.71.37,1.51,1.51,0,0,0,.46.33,1.8,1.8,0,0,1,.28.15,1.06,1.06,0,0,0,.53.21.59.59,0,0,0,.39-.17C45.3,79,45.16,78.78,45,78.55Z"/><path class="cls-1" d="M66.79,106.48h-.17a.19.19,0,0,1-.13,0l-.21,0a1.39,1.39,0,0,0-.26,0c-.22,0-.35.11-.41.36-.11.45.21.67.53.89l.2.14.47.35c.29.21.58.42.85.66l.2.19a1,1,0,0,0,.66.41.76.76,0,0,0,.52-.28,1.23,1.23,0,0,0,0-1.82A2.87,2.87,0,0,0,66.79,106.48Z"/><path class="cls-1" d="M31.53,55a1.21,1.21,0,0,0,1.35.95h.21l1.59,0,.81,0,0,0c.11-1.39-.73-1.48-1.54-1.56a4.16,4.16,0,0,1-.79-.13l-1,.06A.91.91,0,0,0,31.53,55Z"/><path class="cls-1" d="M20.25,37.57h0c.53-.12.61-.55.7-1,0-.08,0-.17.06-.26-.07-1-.55-1.49-1.42-1.49H19c-.32,0-.63.08-.65.63a3.76,3.76,0,0,0,.94,1.32C19.45,37,20,37.57,20.25,37.57Z"/><path class="cls-1" d="M39.47,71.41l-.7-.75-.24-.24,0-.38-.84-1.6a.29.29,0,0,0,0-.26.26.26,0,0,0-.22-.09h0c-.27-.16-.29-.43-.29-.71a.3.3,0,0,0-.13,0l-.14,0h0c.16-.87-.44-1.3-1-1.7a.79.79,0,0,0-.2-.71c-.06-.08-.11-.17-.17-.27l-.16,0a1.3,1.3,0,0,0-.77.35,1.25,1.25,0,0,1-.76.34h0c-.8,0-1.23.43-1.36,1.35l-.39.66a.88.88,0,0,0,0,1l.34.34a1.23,1.23,0,0,0,.64,1.12c.11.09.22.17.31.26l.22.55c0,.63,0,1.31.81,1.59l0,.23,0,.25L36.73,74a2.76,2.76,0,0,1,.09.28,1.07,1.07,0,0,0,.69.34.85.85,0,0,0,.7-.51l.68-.61c.94-.26.81-.83.68-1.38A2.33,2.33,0,0,1,39.47,71.41Z"/><path class="cls-1" d="M32.48,40.51a1.35,1.35,0,0,1-.31-.27l-.22,0a3.13,3.13,0,0,0-.65-.09,1.17,1.17,0,0,0-.51.11c-.3.46-.38.74-.29.92,0,0,.05,0,.07.06h0a.72.72,0,0,0,.5.15l.28,0c.33,0,.65,0,1,0l.47,0C33,40.85,32.72,40.68,32.48,40.51Z"/><path class="cls-1" d="M32.15,62c.24-.25.54-.56.34-1v-.19a3.18,3.18,0,0,0-.28-1.91,3,3,0,0,0-1.06-2.34,1.2,1.2,0,0,0-.86-.36,1.8,1.8,0,0,0-.85.24c-.15.08-.23.17-.25.27s.08.26.19.38a.54.54,0,0,1,.19.42s0,0,0,0h0s0,0,0,0l.17,0c.22,0,.43.06.48.35a.82.82,0,0,0,0,.48.66.66,0,0,1-.06.56,5.25,5.25,0,0,1-.19.71,2.4,2.4,0,0,0-.13,1.62,1.45,1.45,0,0,0,.12.68l0,0a.73.73,0,0,0,.07.15.68.68,0,0,0,.52.18,3.63,3.63,0,0,0,.46,0,3.35,3.35,0,0,1,.45,0,1.1,1.1,0,0,1,.38.06l.32-.06A.24.24,0,0,0,32.15,62Z"/><path class="cls-1" d="M289,133.89a1.38,1.38,0,0,0-1.37,1.23,1,1,0,0,0,.06.61h0a.64.64,0,0,0,0,.12.42.42,0,0,0,.34.16h.06a1.74,1.74,0,0,0,1.53-1.27.85.85,0,0,0-.17-.67.63.63,0,0,0-.5-.18Z"/><path class="cls-1" d="M254.14,104.21a.89.89,0,0,0-.23,0,1,1,0,0,0-.72.41,2,2,0,0,1-.4.34l-.09.57a1.42,1.42,0,0,0,.06,1.76l.92,1.36a2,2,0,0,0,1,.92h0c0-.1.12-.16.21-.22s.28-.18.24-.4a2.47,2.47,0,0,1,.26-1.36,2.28,2.28,0,0,0-.24-1.77C255.14,105.12,255,104.41,254.14,104.21Z"/><path class="cls-1" d="M204.32,139.12a1.38,1.38,0,0,0,.34-1.24.62.62,0,0,0,.26-.23,1.73,1.73,0,0,0,.32-1.4c-.13-.46-.53-.84-1.27-1.2a5.34,5.34,0,0,0-2.39-.64,4.08,4.08,0,0,0-1.54.3,1.76,1.76,0,0,0-1.47,1.33l-.31.47-.08.17h0v0l.1,0a1.13,1.13,0,0,0-.1.81l0,.17c0,.28,0,.57-.09.84a2.82,2.82,0,0,1-1.88,1.47,1.06,1.06,0,0,0,.68,1.07,2.3,2.3,0,0,0,1.83.62h.47c1.06,0,2.12,0,3.17,0l1.19,0h.31A2.15,2.15,0,0,1,204.32,139.12Z"/><path class="cls-1" d="M242.66,150.44l-.9-.7-.18-.19a2.54,2.54,0,0,0-1.13-.83,3.35,3.35,0,0,0-1.62-1l-.35-.13-.35-.42c-.91-1.1-1.93-2.34-3-2.34a1.33,1.33,0,0,0-.31,0,15.74,15.74,0,0,1-3.36.31,10.71,10.71,0,0,0-4.77.84c-.87.54-1.27,1-1.32,1.48s.32,1.15,1.26,2a2.53,2.53,0,0,0,1.77.6c.25,0,.51,0,.76,0s.51,0,.76,0a3.53,3.53,0,0,1,.65.05,2.07,2.07,0,0,0,.38,0h.4a.92.92,0,0,1,1.08.8,6.19,6.19,0,0,0,2.71,1.74.69.69,0,0,0,.46.62c.15,1,.93,1.29,1.68,1.56l.58.22.11,0,.1.09a1.1,1.1,0,0,0,.54.18.52.52,0,0,0,.4-.17.78.78,0,0,0,.49.25h0l1.15-.35.16-.13a1.15,1.15,0,0,1,.36-.22c1.66-.5,2.45-1,2.65-1.64a1.23,1.23,0,0,0,0-.19s0,0,0-.07C243.88,152.23,243.53,151.5,242.66,150.44Z"/><path class="cls-1" d="M253.81,155.53a1.77,1.77,0,0,0-.31,0l-.19.17a1.89,1.89,0,0,0-.4.4,1.72,1.72,0,0,1-.73.5c-.34.16-.66.31-.75.58a.75.75,0,0,0,.1.59,1,1,0,0,0,1,.49,5.31,5.31,0,0,0,1-.14l.43-.08.16-.05.36-.21c.45-.18,1-.38.9-1.06A1.59,1.59,0,0,0,253.81,155.53Z"/></svg>