<?xml version="1.0" encoding="utf-8"?>
<!-- Generator: Adobe Illustrator 21.0.0, SVG Export Plug-In . SVG Version: 6.00 Build 0)  -->
<svg version="1.1" id="a15731c2-5ed4-409b-a7c9-bb3c5f711d85"
	 xmlns="http://www.w3.org/2000/svg" xmlns:xlink="http://www.w3.org/1999/xlink" x="0px" y="0px" viewBox="0 0 772 533"
	 style="enable-background:new 0 0 772 533;" xml:space="preserve">
<style type="text/css">
	.st0{fill:#F2F2F2;}
	.st1{fill:url(#SVGID_1_);}
	.st2{fill:#3F3D56;}
	.st3{fill:url(#SVGID_2_);}
	.st4{fill:#A0616A;}
	.st5{fill:#65617D;}
	.st6{fill:#2F2E41;}
	.st7{fill:#E8EAF2;}
	.st8{opacity:5.000000e-02;enable-background:new    ;}
	.st9{opacity:0.1;enable-background:new    ;}
	.st10{fill:#55E5E0;}
</style>
<title>click here</title>
<polygon class="st0" points="772,170.1 772,224.7 721.5,202.5 701,193.5 685,186.5 603,150.5 587.1,143.5 566.6,134.5 271.6,5 
	396,5 "/>
<linearGradient id="SVGID_1_" gradientUnits="userSpaceOnUse" x1="597" y1="66" x2="729" y2="66">
	<stop  offset="0" style="stop-color:#0072BC"/>
	<stop  offset="1" style="stop-color:#55E5E0"/>
</linearGradient>
<circle class="st1" cx="663" cy="66" r="66"/>
<path class="st2" d="M698,374c-6.6,0-12-5.4-12-12s5.4-12,12-12s12,5.4,12,12S704.6,374,698,374z M698,352c-5.5,0-10,4.5-10,10
	s4.5,10,10,10s10-4.5,10-10S703.5,352,698,352z"/>
<path class="st2" d="M46.9,56.6h-26v-26h26V56.6z M22.9,54.6h22v-22h-22C22.9,32.6,22.9,54.6,22.9,54.6z"/>
<path class="st2" d="M413,30h-26V4h26V30z M389,28h22V6h-22V28z"/>
<rect x="118.5" y="151.6" class="st0" width="515" height="16"/>
<path class="st2" d="M621.5,159.6h-517v-18h517V159.6z M106.5,157.6h513v-14h-513V157.6z"/>
<rect x="118.5" y="201.6" class="st0" width="515" height="16"/>
<path class="st2" d="M621.5,209.6h-517v-18h517V209.6z M106.5,207.6h513v-14h-513V207.6z"/>
<rect x="118.5" y="251.6" class="st0" width="515" height="16"/>
<path class="st2" d="M621.5,259.6h-517v-18h517V259.6z M106.5,257.6h513v-14h-513V257.6z"/>
<rect x="118.5" y="301.6" class="st0" width="515" height="16"/>
<path class="st2" d="M621.5,309.6h-517v-18h517V309.6z M106.5,307.6h513v-14h-513V307.6z"/>
<rect x="118.5" y="351.6" class="st0" width="515" height="16"/>
<path class="st2" d="M621.5,359.6h-517v-18h517V359.6z M106.5,357.6h513v-14h-513V357.6z"/>
<rect x="118.5" y="401.6" class="st0" width="515" height="16"/>
<path class="st2" d="M621.5,409.6h-517v-18h517V409.6z M106.5,407.6h513v-14h-513V407.6z"/>
<path class="st2" d="M664.5,473.9H75V64.6h589.5V473.9z M77,472.6h585.5V65.9H77V472.6z"/>
<g>
	
		<linearGradient id="SVGID_2_" gradientUnits="userSpaceOnUse" x1="814.9075" y1="618.7392" x2="814.9075" y2="610.5614" gradientTransform="matrix(1 0 0 1 -754.545 -113.8671)">
		<stop  offset="0" style="stop-color:#808080;stop-opacity:0.25"/>
		<stop  offset="0.5351" style="stop-color:#808080;stop-opacity:0.12"/>
		<stop  offset="1" style="stop-color:#808080;stop-opacity:0.1"/>
	</linearGradient>
	<path class="st3" d="M58.7,504.8C58.6,504.8,58.6,504.9,58.7,504.8c1-2.4,2.1-4.8,3-7.3c0.1-0.3,0.2-0.6,0.3-0.9c0,0.1,0,0.1,0,0.2
		c0,0.5-0.1,0.9-0.1,1.4c-0.1,0.7-0.1,1.5-0.1,2.2c0,0.2,0,0.5,0,0.7c0,0.9,0.1,1.8,0.3,2.7l0,0c-0.2,0-0.4,0-0.7,0.1
		c-0.9,0.1-1.7,0.4-2.6,0.7C58.7,504.8,58.7,504.8,58.7,504.8z"/>
	<path class="st4" d="M76.4,137.7c0.1,3.9,1.4,7.7,1.6,11.6c-11.5,0.6-22.8-5-34.2-3.3c3.2-2.1,4.9-5.8,5.9-9.4
		c1.3-4.7,1.7-9.6,1.1-14.5c0-0.3-0.1-0.5-0.1-0.8c-0.4-1.9-1.5-4.6-1.2-6.1c0.4-2,2.3-1.6,3.9-1.5c5.1,0.4,10.3,1.1,15.3,2
		c1.3,0.2,14.2,3.4,14.4,3.1c-2.3,3.6-4.1,7.5-5.6,11.5C76.7,132.7,76.3,135.2,76.4,137.7z"/>
	<path class="st4" d="M190,125.7c-1,1.3-2.2,2.5-3.5,3.5c-0.9,0.7-1.8,1.4-2.7,2.1c-1.7,1.3-3.7,2.1-5.7,2.3
		c-2.7,0.2-8.5-1.4-10.2-3.8c-0.7-1.2-1.1-2.5-1-3.9c0-1.9,0.3-3.7,0.9-5.5c1.1-2.9,2.6-5.6,4.4-8c2-2.8,4.2-5.5,7.1-7.1
		c1-0.5,2-1,3-1.4c1.8-0.7,3.6-1.5,5.4-2.2c0.3-0.1,0.6-0.2,1-0.3c1.4,0,1.7,2.2,0.9,3.4c-1.6,2.4-5.3,3.1-6.3,5.8
		c1.8,0.1,3.3,1.2,3.8,3c0,0.4,0.2,0.9,0.5,1.2c0.5,0.4,1.2,0.2,1.7,0.5c1,0.5,0.5,1.9,0.6,3c0.2,0.9,0.6,1.8,1,2.7
		C191.4,122.6,191,124.3,190,125.7z"/>
	<path class="st5" d="M31.6,517c0.9-0.9,2.3-0.7,3.6-0.5c6.6,1,13.3,1.6,20,1.6c0.8-4.1-1.6-8.1-2.4-12.2c-0.1-1.1-0.4-2.1-0.8-3.1
		c-0.9-1.8-3.1-2.6-5.1-3.1c-3.6-0.8-9.3-2.1-11.3,1.5C33.3,505.6,32.5,512.1,31.6,517z"/>
	<path class="st2" d="M105.1,501.5c-2.7,1.9-6.1,2.4-9.4,2.9c-3.3,0.4-6.6,0.7-9.6,2.2c-2.6,1.3-4.7,3.3-7.4,4.2
		c-2.5,0.7-5.2,0.7-7.7,0.1c-3-0.6-6.3-1.7-7.9-4.3c-1.5-2.3-1.3-5.3-1.1-8.1c0.2-3.1,0.5-6.2,0.7-9.3c0-0.8,0.2-1.6,0.6-2.3
		c2.2-3.2,7.6,1.3,10.4,1.3c4.5,0,9.4-2.5,12.7-5.5c0.3-0.3,0.6-0.6,1-0.7c1.3-0.6,2.6,0.5,3.7,1.4c0.1,0.1,0.3,0.2,0.4,0.3
		c2.7,2.1,6.2,2.5,9.5,3.4s6.8,2.6,7.8,5.8c0.1,0.2,0.1,0.4,0.2,0.6C109.4,496.6,107.6,499.7,105.1,501.5z"/>
	<path class="st6" d="M105.1,501.5c-2.7,1.9-6.1,2.4-9.4,2.9c-3.3,0.4-6.6,0.7-9.6,2.2c-2.6,1.3-4.7,3.3-7.4,4.2
		c-2.5,0.7-5.2,0.7-7.7,0.1c-3-0.6-6.3-1.7-7.9-4.3c-1.5-2.3-1.3-5.3-1.1-8.1c0.2-3.1,0.5-6.2,0.7-9.3c0-0.8,0.2-1.6,0.6-2.3
		c2.2-3.2,7.6,1.3,10.4,1.3c4.5,0,9.4-2.5,12.7-5.5c0.3-0.3,0.6-0.6,1-0.7c1.3-0.6,2.6,0.5,3.7,1.4c0.1,0.1,0.3,0.2,0.4,0.3
		c2.7,2.1,6.2,2.5,9.5,3.4s6.8,2.6,7.8,5.8c0.1,0.2,0.1,0.4,0.2,0.6C109.4,496.6,107.6,499.7,105.1,501.5z"/>
	<path class="st7" d="M105.1,502.5c-2.7,1.9-6.1,2.4-9.4,2.9c-3.3,0.4-6.6,0.7-9.6,2.2c-2.6,1.3-4.7,3.3-7.4,4.2
		c-2.5,0.7-5.2,0.7-7.7,0.1c-3.2-0.7-6.1-2.6-7.9-5.4c-1.5-2.3-1.3-5.3-1.1-8.1c0.2-3.1,0.5-6.2,0.7-9.3c0-0.8,0.2-1.6,0.6-2.3
		c2.2-3.2,7.6,1.3,10.4,1.3c4.5,0,9.4-2.5,12.7-5.5c0.3-0.3,0.6-0.6,1-0.7c1.3-0.6,2.6,0.5,3.7,1.4c-0.8,2.3-1.8,4.5-3.2,6.6
		c-2.2,3.5-5.9,5.8-10,6.3c-2,0.2-4.1-0.3-6.1,0.3c-2,0.5-3.8,2.5-3.1,4.4c0.7,1.9,3.1,2.3,5.1,2.4c2.8,0.2,5.6,0.3,8.2-0.6
		c1.6-0.5,3.1-1.4,4.6-2.1c6.7-2.8,15.1-1.2,20.6-5.9c0.5-0.5,1.1-0.9,1.7-1.3C110.3,496.6,107.6,500.8,105.1,502.5z"/>
	<path class="st8" d="M105.1,502.5c-2.7,1.9-6.1,2.4-9.4,2.9c-3.3,0.4-6.6,0.7-9.6,2.2c-2.6,1.3-4.7,3.3-7.4,4.2
		c-2.5,0.7-5.2,0.7-7.7,0.1c-3.2-0.7-6.1-2.6-7.9-5.4c-1.5-2.3-1.3-5.3-1.1-8.1c0.2-3.1,0.5-6.2,0.7-9.3c0-0.8,0.2-1.6,0.6-2.3
		c2.2-3.2,7.6,1.3,10.4,1.3c4.5,0,9.4-2.5,12.7-5.5c0.3-0.3,0.6-0.6,1-0.7c1.3-0.6,2.6,0.5,3.7,1.4c-0.8,2.3-1.8,4.5-3.2,6.6
		c-2.2,3.5-5.9,5.8-10,6.3c-2,0.2-4.1-0.3-6.1,0.3c-2,0.5-3.8,2.5-3.1,4.4c0.7,1.9,3.1,2.3,5.1,2.4c2.8,0.2,5.6,0.3,8.2-0.6
		c1.6-0.5,3.1-1.4,4.6-2.1c6.7-2.8,15.1-1.2,20.6-5.9c0.5-0.5,1.1-0.9,1.7-1.3C110.3,496.6,107.6,500.8,105.1,502.5z"/>
	<path class="st6" d="M32.8,298.9c-2.1,10.4-0.1,21.2,5.6,30.2c1.6,2.4,3.4,4.7,4.6,7.3c0.8,1.9,1.4,3.8,1.8,5.8l5.1,20.9
		c1.4,5.6,2.7,11.4,2.3,17.2c-0.3,4-1.3,8.6,1.2,11.8c0.6,0.6,1.1,1.3,1.5,2.1c0.2,0.9,0.3,1.8,0,2.7c-2.6,15.2-4.5,31.1,0.2,45.7
		c4.2,13.3,4.4,28.1,8,41.6c0.4,1.7,0.9,3.4,2.2,4.6c1,0.8,2.1,1.3,3.3,1.6c5.2,1.2,10.8-0.2,15.7-2.5c3.4-1.6,7.1-4.4,6.8-8.2
		c-0.1-1.8-1.2-3.4-1.9-5c-1.4-3.2-1.5-6.9-1.9-10.4c-0.9-8.8-3.7-17.3-5.7-26s-3.5-17.7-1.7-26.4c3.6-18,9.2-35.5,17-52.2
		c0.3-0.9,0.9-1.7,1.6-2.3c0.8-0.4,1.5-0.9,2.2-1.5c0.5-0.8,0.9-1.8,1-2.7c0.8-2.8,3-4.8,4.6-7.2c3.8-6.1,2.6-13.9,2.5-21.2
		c-0.1-7,0.9-14.1-0.3-21c-1.2-6.9-5.1-14-11.8-16.2c-3.3-1.1-6.9-0.8-10.3-0.5C67.9,289,50,292.3,32.8,298.9z"/>
	<path class="st9" d="M32.8,298.9c-2.1,10.4-0.1,21.2,5.6,30.2c1.6,2.4,3.4,4.7,4.6,7.3c0.8,1.9,1.4,3.8,1.8,5.8l5.1,20.9
		c1.4,5.6,2.7,11.4,2.3,17.2c-0.3,4-1.3,8.6,1.2,11.8c0.6,0.6,1.1,1.3,1.5,2.1c0.2,0.9,0.3,1.8,0,2.7c-2.6,15.2-4.5,31.1,0.2,45.7
		c4.2,13.3,4.4,28.1,8,41.6c0.4,1.7,0.9,3.4,2.2,4.6c1,0.8,2.1,1.3,3.3,1.6c5.2,1.2,10.8-0.2,15.7-2.5c3.4-1.6,7.1-4.4,6.8-8.2
		c-0.1-1.8-1.2-3.4-1.9-5c-1.4-3.2-1.5-6.9-1.9-10.4c-0.9-8.8-3.7-17.3-5.7-26s-3.5-17.7-1.7-26.4c3.6-18,9.2-35.5,17-52.2
		c0.3-0.9,0.9-1.7,1.6-2.3c0.8-0.4,1.5-0.9,2.2-1.5c0.5-0.8,0.9-1.8,1-2.7c0.8-2.8,3-4.8,4.6-7.2c3.8-6.1,2.6-13.9,2.5-21.2
		c-0.1-7,0.9-14.1-0.3-21c-1.2-6.9-5.1-14-11.8-16.2c-3.3-1.1-6.9-0.8-10.3-0.5C67.9,289,50,292.3,32.8,298.9z"/>
	<path class="st6" d="M107.5,342.9c-0.1,2.7-0.4,5.4-0.9,8.1c-3.2,18.1-6.7,36.2-10.3,54.2c-0.3,1.6-0.6,3.1-1.1,4.7
		c-1.4,5-3.7,9.7-7,13.8c-15.2,19-16.5,46.6-24.8,69.4c-0.6,1.6-1.1,3.1-1.7,4.6c-1.5,3.9-3.2,7.7-5.1,11.4c-0.2,0.5-0.6,1-1.1,1.4
		c-0.5,0.3-1.1,0.4-1.7,0.3c-7.4,0-14.8-1.6-21.5-4.9c-1-0.4-1.8-1-2.3-1.9c-0.3-0.7-0.3-1.4-0.2-2.2c0.2-4.5,0.5-9.2,2.7-13.2
		c1.4-2.4,3.2-4.5,5.3-6.4c0.6-14.2,2.1-28.5,5.2-42.4c1.6-7.1,3.6-14.3,7.7-20.3c3-4.4,7.4-8.8,6.9-14.2c-0.2-2.4-1.2-5.3,0.7-6.7
		c0.8-0.6,2.1-0.7,2.6-1.6c0.2-0.4,0.4-0.9,0.4-1.3c0.4-3.7,0.2-7.4-0.7-11c-0.7-2.4-1.2-4.7-1.6-7.2c-0.2-2.4,0.2-5.1,1.8-6.9
		c0.1-4.9,0-10,0.1-14.8c0.2-2.8,0-5.6-0.7-8.3c-0.4-1.3-0.9-2.5-1.2-3.8c-1-4.7,1.5-10.3-1.5-14c-1.3-1.5-3.2-2.3-4.9-3.4
		c-3.3-2.2-5.5-5.8-6.7-9.6c-1.1-3.8-1.7-7.8-1.9-11.8c-0.1-0.8-0.1-1.7,0-2.5c0.1-0.4,0.2-0.9,0.3-1.3c0.9-2.1,3.5-2.9,5.7-3.5
		c14.4-3.4,29.1-5.2,43.8-5.1c5.5-3.7,8.5-2.4,10.9,1.6c1.3,2.4,2.3,4.9,3.1,7.5c1.1,3.2,1.1,21.1,2.2,24.3
		C111.3,330,107.4,338.5,107.5,342.9z"/>
	<path class="st10" d="M8.8,180.1c-0.4,2.8,0.9,5.6,1.1,8.4c0.1,2.5-0.7,4.9-1.1,7.3C7,205.3,10.4,215,13.9,224
		c0.7,1.5,1.1,3,1.2,4.6c0.1,3-1.6,5.7-2.1,8.6c-1,6.1,3.5,11.9,3.6,18.1c0,2.9-0.9,5.8-0.1,8.5c0.5,1.8,1.6,3.4,2.5,5.2
		c1.5,3.1,1.8,6.5,3.2,9.6c2.5,5.6,7.9,9.2,13,12.6c2.9-1,6.1-2.1,7.7-4.7c0.7-1.3,1.2-2.7,1.3-4.2c1.1-6.4,1.1-12.9,1-19.3
		c0.1-5.6-0.2-11.1-0.9-16.6c-1-7-3.3-13.8-4.9-20.7c-2.1-8.7-3.1-17.7-6.3-26c-2.8-7.3-7.2-13.9-11.8-20.2
		c-1.8-2.4-3.2-5.8-6.6-5.3C11.6,174.9,9.3,177.2,8.8,180.1z"/>
	<path class="st8" d="M8.8,180.1c-0.4,2.8,0.9,5.6,1.1,8.4c0.1,2.5-0.7,4.9-1.1,7.3C7,205.3,10.4,215,13.9,224
		c0.7,1.5,1.1,3,1.2,4.6c0.1,3-1.6,5.7-2.1,8.6c-1,6.1,3.5,11.9,3.6,18.1c0,2.9-0.9,5.8-0.1,8.5c0.5,1.8,1.6,3.4,2.5,5.2
		c1.5,3.1,1.8,6.5,3.2,9.6c2.5,5.6,7.9,9.2,13,12.6c2.9-1,6.1-2.1,7.7-4.7c0.7-1.3,1.2-2.7,1.3-4.2c1.1-6.4,1.1-12.9,1-19.3
		c0.1-5.6-0.2-11.1-0.9-16.6c-1-7-3.3-13.8-4.9-20.7c-2.1-8.7-3.1-17.7-6.3-26c-2.8-7.3-7.2-13.9-11.8-20.2
		c-1.8-2.4-3.2-5.8-6.6-5.3C11.6,174.9,9.3,177.2,8.8,180.1z"/>
	<circle class="st4" cx="71.2" cy="103.8" r="26.5"/>
	<path class="st10" d="M86.7,147.3c-1.2,1.3-2.7,2.8-4.4,2.4c-0.6-0.2-1.2-0.5-1.7-0.9c-3.1-2-6.8-2.4-10.4-3
		c-7.3-1.1-14.4-2.7-21.4-4.8c-2-0.7-4.2-1.2-6.3-1.3c-4.5,0-8.5,3-11.3,6.5s-4.8,7.6-7.6,11.2c-2,2.5-4.3,4.8-6.2,7.4
		c-4.6,6.6-5.6,15.3-4.4,23.3s4.4,15.5,7.6,23c1.7,4.3,3.8,8.5,6.2,12.5c-1.1,6.1-0.5,13,2.4,18.5c0.9,1.8,2.1,3.5,2.4,5.5
		c0.1,1.3,0.1,2.7-0.2,4l-1.4,9.6c-0.4,2.9-0.8,5.9-1.4,8.8c-1,5.3-2.3,11.1,0.2,15.9c3,5.8-0.1,13.2,0.6,19.6
		c8.3-3.2,17-5.3,25.9-6.1c5.7-0.6,11.5-0.6,17-2.2c3.4-1,6.7-2.6,10.2-3.4c2.8-0.6,5.7-0.8,8.6-0.9c6.4-0.3,12.8-0.5,19.1,0.4
		c0.5,0.1,1.1,0.1,1.4-0.3c0.1-0.2,0.2-0.5,0.2-0.8c0.1-2.4-0.5-4.7-1.6-6.8c-0.8-1.4-1.9-2.8-1.9-4.4c0.1-0.8,0.2-1.5,0.6-2.2
		l2.8-7.4c2.4-6.3,1.2-13.6,2.5-20.2c1-5.2,1.6-10.4,1.8-15.6c0.2-4.5,0.1-9.3-2.6-12.9c-0.8-0.9-1.5-1.8-2-2.8
		c-0.4-1.1-0.6-2.2-0.5-3.4c-0.1-9,0.2-17.9,0.7-26.9c-2.4-4.2-4.8-8.6-7.2-12.8c-2.7-4.9-5.5-9.9-6.6-15.5
		c-0.7-3.7-0.7-7.4-1.2-11.1c-0.1-0.9-0.4-1.8-0.9-2.6c-0.9-1-2.4-1.2-3.8-1.1C89.9,146.4,88.2,146.7,86.7,147.3z"/>
	<path class="st10" d="M95.5,188.7c1.6,2,3.3,4.1,5.6,5.3c2.6,1.4,5.7,1.4,8.7,1.3c12.2-0.3,24.4-1.6,36.4-4c1.4-0.2,2.7-0.6,4-1.1
		c1.4-0.7,2.8-1.5,4.1-2.5c3.9-2.8,8-5.7,11-9.6c3.6-4.6,5.8-10.1,6.5-15.9c2.9-2.6,4.4-6.4,5.8-10c0.7-1.5,1.2-3.2,1.3-4.8
		c0.1-1.7-1.1-3.5-0.7-5.2c0.6-2.9,2-5.6,4.2-7.6c0.5-0.3,0.8-0.8,1-1.3c0.1-0.4,0-0.9-0.2-1.3c-1.2-2.7-4-4.5-6.9-5.2
		c-2.9-0.6-5.9-0.7-8.9-0.4c-1,0.2-2,0.4-2.9,0.8l-2.1,5.5c-0.3,0.9-0.7,1.8-1.4,2.5c-0.5,0.4-1,0.8-1.5,1.2
		c-2.1,1.8-3.2,4.6-2.9,7.4c-3.9,1.5-5.9,5.8-4.7,9.8c-3.2,0.7-5.8,3-6.8,6c-0.1,0.7-0.5,1.3-0.9,1.9c-0.7,0.5-1.5,0.8-2.4,0.7
		c-2.3,0.1-4.4,2-6.5,1c-2.4-1.1-5.1-1.5-7.7-1.1c-0.5,0.1-1.1,0.2-1.7,0.1c-0.5-0.1-0.9-0.2-1.4-0.5c-1-0.6-2-1-3.1-1.2
		s-2.3,0.2-2.9,1.1c-0.7-0.8-1.2-1.9-1.9-2.7c-0.6-0.9-1.7-1.5-2.8-1.4c0.7-0.6,0-1.9-0.9-2.1c-0.9-0.1-1.9,0-2.8,0.1
		c-2.5,0-4.3-2.2-6.7-2.8c-2.2-0.5-5.1,0.1-6.2-1.9c-0.4-0.7-0.5-1.6-1.2-2.1c-0.5-0.2-1-0.3-1.5-0.2c-1.6,0.2-3.1,0.7-4.5,1.4
		c-2.3,9-1.1,18.3,0.7,27.4C91.2,181.5,92.9,185.4,95.5,188.7z"/>
	<path class="st10" d="M82.2,140.6c-2.8-1.8-6.2-2.5-9.5-3.1c-2-0.5-4-0.6-6-0.4c-1.9,0.2-3.7,1-5.5,1.1c-2.6,0.1-5.2-0.9-7.7-1.6
		c-2.5-0.7-5.5-1-7.6,0.6c-0.5,0.4-1,0.8-1.7,0.9c-0.7-0.1-1.3-0.4-1.7-0.8c-3.7-2.7-8.8-2.4-12.2,0.6c-4.9,4.6-4.3,13.5-10,16.9
		c-1.6,1-3.6,1.5-4.5,3.1c-0.2,0.5-0.5,1-0.8,1.5c-0.4,0.4-0.8,0.8-1.4,1c-1.7,0.7-3.2,1.6-4.7,2.7c-1.5,1.1-2.5,2.7-2.7,4.5
		c0,1.3,0.3,2.6,0.8,3.8c5.7,14,19.6,22.9,34.8,22.2c1.3,0.1,2.6-0.3,3.6-1.1c0.5-0.6,1-1.3,1.3-2.1c2.7-5.6,7.7-9.8,10.9-15.1
		c1.9-3.2,3.1-6.7,5.1-9.9c3-4.8,7.6-8.3,12.1-11.7c2.5-1.9,5.3-3.9,8.5-3.8c2.8,0.1,4.9,0.3,3.8-3.2
		C86.2,144,84.4,141.9,82.2,140.6z"/>
	<path class="st8" d="M82.2,140.6c-2.8-1.8-6.2-2.5-9.5-3.1c-2-0.5-4-0.6-6-0.4c-1.9,0.2-3.7,1-5.5,1.1c-2.6,0.1-5.2-0.9-7.7-1.6
		c-2.5-0.7-5.5-1-7.6,0.6c-0.5,0.4-1,0.8-1.7,0.9c-0.7-0.1-1.3-0.4-1.7-0.8c-3.7-2.7-8.8-2.4-12.2,0.6c-4.9,4.6-4.3,13.5-10,16.9
		c-1.6,1-3.6,1.5-4.5,3.1c-0.2,0.5-0.5,1-0.8,1.5c-0.4,0.4-0.8,0.8-1.4,1c-1.7,0.7-3.2,1.6-4.7,2.7c-1.5,1.1-2.5,2.7-2.7,4.5
		c0,1.3,0.3,2.6,0.8,3.8c5.7,14,19.6,22.9,34.8,22.2c1.3,0.1,2.6-0.3,3.6-1.1c0.5-0.6,1-1.3,1.3-2.1c2.7-5.6,7.7-9.8,10.9-15.1
		c1.9-3.2,3.1-6.7,5.1-9.9c3-4.8,7.6-8.3,12.1-11.7c2.5-1.9,5.3-3.9,8.5-3.8c2.8,0.1,4.9,0.3,3.8-3.2
		C86.2,144,84.4,141.9,82.2,140.6z"/>
	<path class="st6" d="M96,525.3c-1.9,1.8-4.6,2.6-7.1,3.1c-5.9,1.1-11.8,1.9-17.8,2.2c-1.9,0.1-3.9,0.3-5.8,0.4
		c-5.7,0.4-11.3,0.9-17,0.9c-7,0-14-0.6-20.9-1.8c-1,0.1-1.8-0.6-1.9-1.6c0-0.2,0-0.4,0-0.5c0.1-7.1,1-14.1,2.6-21
		c0.7-2.8,5.7,3.5,6,3.8c1.4,1.6,2.5,2.3,4.6,2.5c5.8,0.3,12.4-3.2,17-6.4c1-0.7,2-1.4,3.2-2c0.8-0.4,1.7-0.6,2.6-0.7
		c3-0.3,6,0.3,8.7,1.8c3.5,1.7,6.5,4.2,10,6c2.8,1.4,5.8,2.4,9,2.8c3.2,0.4,6.9,0.6,8.6,3.4l0,0C98.9,520.4,97.9,523.5,96,525.3z"/>
	<path class="st7" d="M96,526.3c-1.9,1.8-4.6,2.6-7.1,3.1c-5.9,1.1-11.8,1.9-17.8,2.2c-1.9,0.1-3.9,0.3-5.8,0.4
		c-5.7,0.4-11.3,0.9-17,0.9c-7,0-14-0.6-20.9-1.8c-0.6,0-1.2-0.3-1.7-0.8c-0.5-0.7-1-1.5-1.3-2.4c0.1-7.1,2-14.1,3.6-21
		c0.7-2.8,5.7,3.5,6,3.8c1.4,1.6,2.5,2.3,4.6,2.5c5.8,0.3,12.4-3.2,17-6.4c1-0.7,2-1.4,3.2-2c0.8-0.4,1.7-0.6,2.6-0.7
		c-0.8,4.2-6.8,9.3-9.9,10.8c-6.3,3.1-13.8,1.6-20.8,1.9c-0.5,0-1,0.1-1.5,0.4c-0.8,0.6-0.9,1.8-0.9,2.8c0.1,1.7,0.3,3.6,1.7,4.5
		c0.7,0.3,1.5,0.5,2.3,0.5c17.3,0.8,34.6,0.2,51.8-1.8c2.9-0.2,5.7-0.8,8.4-1.9c1.8-0.8,3.4-1.9,4.9-3.2
		C99.7,519.9,97.9,524.6,96,526.3z"/>
	<path class="st6" d="M81.5,103.5c-0.1,2.7,1.8,8.1-3.4,6.6c-3.1-0.9-3.9-4.5-7.8-3.7s-4.8,5.6-6.1,8.7c-2.2,5.1-6.7,8.7-12.1,9.8
		c-1.1,0.3-2.2,0.3-3.3,0c-2.5-0.7-3.9-3.3-5-5.7c-0.9-2-1.6-4.1-2.2-6.2c-0.4-1.5-0.7-3-0.8-4.6l0,0c-0.1-1.1-0.1-2.1,0-3.2
		c0.5-6.2,4-11.9,8.6-16.2C54,84.7,59.5,81.6,65,78.5c1.8-1.1,3.7-2,5.7-2.6c2-0.4,4-0.5,6-0.3c2.7,0.1,5.3,0.7,7.7,1.8
		c1,0.5,1.9,1.1,2.7,1.9c1.1,1.1,2,2.4,2.3,3.9c1,4-1.6,7.7-3.7,10.9C84,97,81.7,100,81.5,103.5z"/>
	<path class="st2" d="M87.1,88c-0.5,0.8-1,1.5-1.6,2.2c-1.1,1.4-2.3,2.6-3.6,3.8c-0.8,0.7-1.6,1.3-2.5,1.9c-1.6,1.1-3.2,2.1-5,3
		c-5,2.5-10.5,4.1-15.9,5.7c-3.5,1-7.1,2.1-10.6,3.1c-3.7,2.8-16.1,12-18.2,10.8c-2.5-1.4,11-10.9,11-10.9l0.6,0.5
		c-2-1.2-3-4.1-3.4-6.6c-0.8-4.4-1.2-9-0.1-13.4c1.1-4.4,3.7-8.6,7.7-10.6c1.8-0.9,3.9-1.5,5.2-2.9c0.2-0.2,0.4-0.4,0.5-0.7
		c0.1-0.1,0.1-0.2,0.2-0.4c0.1-0.4,0.3-0.8,0.6-1.1c0.7-0.9,2.1-0.6,3.2-0.5c0.1,0,0.2,0,0.4,0s0.4,0,0.6,0c4,0.1,7.8-2.1,11.9-2.1
		c4.4,0,8.2,2.6,12.1,4.3c0.8,0.4,1.5,0.7,2.2,1c2.8,1.3,4.9,2.7,6.1,6.4C89.2,83.7,88.3,86.1,87.1,88z"/>
</g>
<path class="st9" d="M43.6,301c0.6,0.4,1.3,0.6,2,0.7c1.8,0.5,3.7,0.2,5.2-0.8L43.6,301z"/>
</svg>
