<?xml version="1.0" encoding="utf-8"?>
<!-- Generator: Adobe Illustrator 21.0.0, SVG Export Plug-In . SVG Version: 6.00 Build 0)  -->
<svg version="1.1" id="Layer_1" xmlns="http://www.w3.org/2000/svg" xmlns:xlink="http://www.w3.org/1999/xlink" x="0px" y="0px"
	 viewBox="0 0 586.7 562.3" style="enable-background:new 0 0 586.7 562.3;" xml:space="preserve">
<style type="text/css">
	.st0{fill:#00447E;}
	.st1{opacity:0.71;fill:#009461;enable-background:new    ;}
	.st2{opacity:0.53;fill:#009461;enable-background:new    ;}
</style>
<path id="_2002" class="st0" d="M104.8,35.6L201.6,15c21.6-4.6,42.8,9.2,47.4,30.8l20.6,96.8c4.6,21.6-9.2,42.8-30.8,47.4L142,210.7
	c-21.6,4.6-42.8-9.2-47.4-30.8L74,83C69.4,61.4,83.2,40.2,104.8,35.6z"/>
<path id="Rectangle_273" class="st1" d="M26.6,454.3L8.1,425.8c-4.5-6.9-2.5-16.2,4.4-20.7L41,386.6c7-4.6,16.3-2.6,20.8,4.4
	l18.5,28.5c4.5,6.9,2.5,16.2-4.4,20.7l-28.5,18.5C40.4,463.3,31.2,461.3,26.6,454.3z"/>
<path id="Rectangle_274" class="st0" d="M83.3,495.7l-4.9-7.5c-2.4-3.7-1.4-8.7,2.4-11.1l7.5-4.9c3.7-2.4,8.7-1.4,11.1,2.4l4.9,7.5
	c2.4,3.7,1.4,8.7-2.4,11.1l-7.5,4.9C90.7,500.5,85.7,499.5,83.3,495.7z"/>
<path id="equipe-creation-creative-concepteur-publicitaire-asiatique-discutant-idees-au-bureau_1418-2283" class="st2" d="
	M168.2,379l96.1-24c21.4-5.3,43.1,7.7,48.5,29.1l24,96.1c5.3,21.4-7.7,43.1-29.1,48.5l-96.1,24C190,558,168.3,545,163,523.5
	l-24-96.1C133.7,406,146.7,384.3,168.2,379z"/>
</svg>
